<?xml version="1.0" encoding="iso-8859-1"?>
<!-- Generator: Adobe Illustrator 19.0.0, SVG Export Plug-In . SVG Version: 6.00 Build 0)  -->
<svg version="1.1" id="Capa_1" xmlns="http://www.w3.org/2000/svg" xmlns:xlink="http://www.w3.org/1999/xlink" x="0px" y="0px"
	 viewBox="0 0 468.293 468.293" style="enable-background:new 0 0 468.293 468.293;" xml:space="preserve">
<path style="fill:#44C4A1;" d="M453.034,347.797c-41.898,160.661-395.877,160.661-437.775,0l26.039-41.336L234.115,0
	l192.881,306.461L453.034,347.797z"/>
<path style="fill:#D15241;" d="M426.995,306.461c-81.173,95.16-304.524,95.16-385.698,0l78.862-125.382L234.115,0L348.07,181.079
	L426.995,306.461z"/>
<path style="fill:#E56353;" d="M348.101,181.079c-69.247,25.851-158.662,25.851-227.91,0L234.146,0L348.101,181.079z"/>
<g>
	<path style="fill:#3A556A;" d="M243.59,315.643c0,5.216-4.228,9.444-9.444,9.444c-5.216,0-9.444-4.228-9.444-9.444
		s9.444-26.75,9.444-26.75S243.59,310.427,243.59,315.643z"/>
	<path style="fill:#3A556A;" d="M212.35,251.761c0,5.216-4.228,9.444-9.444,9.444c-5.216,0-9.444-4.228-9.444-9.444
		s9.444-26.75,9.444-26.75S212.35,246.546,212.35,251.761z"/>
	<path style="fill:#3A556A;" d="M274.893,251.761c0,5.216-4.228,9.444-9.444,9.444c-5.216,0-9.444-4.228-9.444-9.444
		s9.444-26.75,9.444-26.75S274.893,246.546,274.893,251.761z"/>
	<path style="fill:#3A556A;" d="M215.524,141.472c0,5.216-4.228,9.444-9.444,9.444c-5.216,0-9.444-4.228-9.444-9.444
		c0-5.216,9.444-26.75,9.444-26.75S215.524,136.256,215.524,141.472z"/>
	<path style="fill:#3A556A;" d="M271.657,141.472c0,5.216-4.228,9.444-9.444,9.444c-5.216,0-9.444-4.228-9.444-9.444
		c0-5.216,9.444-26.75,9.444-26.75S271.657,136.256,271.657,141.472z"/>
	<path style="fill:#3A556A;" d="M166.679,306.193c-1.481,5.001-6.735,7.855-11.736,6.375c-5.001-1.48-7.855-6.734-6.375-11.735
		s16.649-22.97,16.649-22.97S168.16,301.192,166.679,306.193z"/>
	<path style="fill:#3A556A;" d="M301.676,306.193c1.48,5.001,6.735,7.855,11.736,6.375c5.001-1.48,7.855-6.734,6.375-11.735
		s-16.649-22.97-16.649-22.97S300.196,301.192,301.676,306.193z"/>
</g>
<g>
</g>
<g>
</g>
<g>
</g>
<g>
</g>
<g>
</g>
<g>
</g>
<g>
</g>
<g>
</g>
<g>
</g>
<g>
</g>
<g>
</g>
<g>
</g>
<g>
</g>
<g>
</g>
<g>
</g>
</svg>
