<?xml version="1.0" encoding="iso-8859-1"?>
<!-- Generator: Adobe Illustrator 19.0.0, SVG Export Plug-In . SVG Version: 6.00 Build 0)  -->
<svg version="1.1" id="Capa_1" xmlns="http://www.w3.org/2000/svg" xmlns:xlink="http://www.w3.org/1999/xlink" x="0px" y="0px"
	 viewBox="0 0 468.293 468.293" style="enable-background:new 0 0 468.293 468.293;" xml:space="preserve">
<path style="fill:#D5D6DB;" d="M189.664,337.658c0,0,26.893,14.551,25.724,49.629v81.005h39.809v-81.005
	c-1.169-35.078,25.724-49.629,25.724-49.629H189.664z"/>
<g>
	<path style="fill:#44C4A1;" d="M299.427,38.075c0,0-54.424,41.184-58.559,120.977c0,0,21.779,10.296,58.559,10.296
		s38.639-10.296,38.639-10.296C333.931,79.259,299.427,38.075,299.427,38.075z"/>
	<path style="fill:#44C4A1;" d="M171.522,38.075c0,0-37.246,41.184-41.381,120.977c0,0,4.601,10.296,41.381,10.296
		s58.559-10.296,58.559-10.296C225.946,79.259,171.522,38.075,171.522,38.075z"/>
</g>
<path style="fill:#3EA69B;" d="M235.475,0c0,0-62.38,100.635-67.119,188.79c0,0,24.963,11.375,67.119,11.375
	s67.119-11.375,67.119-11.375C297.855,100.635,235.475,0,235.475,0z"/>
<g>
	<path style="fill:#31978C;" d="M163.54,115.428c0,0-44.956,38.298-60.91,112.847c-5.407,25.263,12.255,49.605,37.899,52.748
		c6.939,0.85,14.631,1.383,23.012,1.383c41.556,0,66.164-13.097,66.164-13.097C225.032,167.813,163.54,115.428,163.54,115.428z"/>
	<path style="fill:#31978C;" d="M294.482,128.916c-17.189,20.228-46.129,63.065-52.326,127.557
		c-0.762,7.927,4.031,15.348,11.594,17.842c11.21,3.697,29.593,8.09,53.66,8.09c5.285,0,10.296-0.212,15.018-0.582
		c30.434-2.384,51.454-31.806,44.068-61.427c-11.13-44.641-32.405-75.298-46.158-91.481
		C313.546,120.924,301.273,120.924,294.482,128.916z"/>
</g>
<g>
	<path style="fill:#3EA69B;" d="M298.682,334.614c-2.204,1.065-4.436,2.08-6.695,3.044c-17.726-10.142-25.675-22.386-25.675-22.386
		c40.02-111.471,103.704-154.963,103.704-154.963s2.065,5.801,4.277,16.689C387.211,240.577,357.101,306.395,298.682,334.614z"/>
	<path style="fill:#3EA69B;" d="M203.634,315.273c0,0-9.137,14.254-29.878,24.578c-0.347-0.132-0.694-0.264-1.04-0.398
		c-54.363-21.046-86.511-76.975-81.083-135.017c2.652-28.358,8.296-44.126,8.296-44.126S163.614,203.802,203.634,315.273z"/>
</g>
<path style="fill:#44C4A1;" d="M306.606,330.44c-4.659,2.65-9.594,5.117-14.619,7.219c-19.005,8.041-39.928,12.518-61.949,12.518
	c-19.827,0-38.832-3.655-56.283-10.325c-3.289-1.279-6.578-2.65-9.777-4.203c6.122-116.587,71.451-198.089,71.451-198.089
	S298.84,216.685,306.606,330.44z"/>
<g>
</g>
<g>
</g>
<g>
</g>
<g>
</g>
<g>
</g>
<g>
</g>
<g>
</g>
<g>
</g>
<g>
</g>
<g>
</g>
<g>
</g>
<g>
</g>
<g>
</g>
<g>
</g>
<g>
</g>
</svg>
