<?xml version="1.0" encoding="iso-8859-1"?>
<!-- Generator: Adobe Illustrator 19.0.0, SVG Export Plug-In . SVG Version: 6.00 Build 0)  -->
<svg version="1.1" id="Capa_1" xmlns="http://www.w3.org/2000/svg" xmlns:xlink="http://www.w3.org/1999/xlink" x="0px" y="0px"
	 viewBox="0 0 468.283 468.283" style="enable-background:new 0 0 468.283 468.283;" xml:space="preserve">
<path style="fill:#D15241;" d="M407.362,255.278c0,69.36-48.731,128.348-116.643,149.788c-15.124,4.81-27.871,14.37-35.404,27.234
	l-4.752,8.112l-16.398,27.871l-21.15-35.984c-7.533-12.806-20.165-22.425-35.231-27.118
	c-71.736-22.599-122.205-87.033-116.411-161.493c6.084-78.283,75.734-141.559,161.26-146.6c9.503-0.579,18.832-0.406,27.987,0.406
	C338.582,105.027,407.362,172.823,407.362,255.278z"/>
<path style="fill:#E56353;" d="M407.362,255.278c0,69.36-48.731,128.348-116.643,149.788c-15.124,4.81-27.871,14.37-35.404,27.234
	l-4.752,8.112l-4.809-8.112c-7.533-12.806-20.165-22.425-35.231-27.118c-71.736-22.599-122.206-87.033-116.411-161.493
	c5.968-76.835,73.184-139.183,156.509-146.195C338.582,105.027,407.362,172.823,407.362,255.278z"/>
<g>
	<path style="fill:#D15241;" d="M252.549,248.777c-8.646,0-17.033-1.466-24.924-4.357c-2.628-0.965-3.978-3.876-3.016-6.507
		c0.965-2.628,3.879-3.97,6.507-3.016c13.533,4.963,29.318,4.963,42.867,0c2.626-0.954,5.54,0.388,6.505,3.019
		c0.962,2.628-0.388,5.54-3.019,6.505C269.576,247.311,261.193,248.777,252.549,248.777z"/>
	<path style="fill:#D15241;" d="M196.876,180.994c-8.646,0-17.033-1.466-24.924-4.357c-2.628-0.965-3.978-3.876-3.016-6.507
		c0.965-2.628,3.879-3.97,6.507-3.016c13.533,4.963,29.318,4.963,42.867,0c2.626-0.953,5.54,0.388,6.505,3.019
		c0.962,2.628-0.388,5.54-3.019,6.505C213.903,179.528,205.52,180.994,196.876,180.994z"/>
	<path style="fill:#D15241;" d="M331.568,183.987c-8.646,0-17.033-1.466-24.924-4.357c-2.628-0.965-3.978-3.876-3.016-6.507
		c0.965-2.628,3.879-3.97,6.507-3.016c13.533,4.963,29.318,4.963,42.867,0c2.626-0.953,5.54,0.388,6.505,3.019
		c0.962,2.628-0.388,5.54-3.019,6.505C348.595,182.521,340.211,183.987,331.568,183.987z"/>
	<path style="fill:#D15241;" d="M199.893,347.078c-5.321,0-10.481-0.902-15.337-2.681c-1.617-0.594-2.448-2.385-1.856-4.004
		c0.594-1.617,2.387-2.443,4.004-1.856c8.327,3.054,18.04,3.054,26.378,0c1.616-0.587,3.409,0.239,4.003,1.858
		c0.592,1.617-0.239,3.409-1.858,4.003C210.371,346.176,205.212,347.078,199.893,347.078z"/>
	<path style="fill:#D15241;" d="M151.243,226.754c-5.321,0-10.481-0.902-15.337-2.681c-1.617-0.594-2.448-2.385-1.856-4.004
		c0.594-1.617,2.387-2.443,4.004-1.856c8.327,3.054,18.04,3.054,26.378,0c1.616-0.587,3.409,0.239,4.003,1.858
		c0.592,1.617-0.239,3.409-1.858,4.003C161.72,225.852,156.562,226.754,151.243,226.754z"/>
	<path style="fill:#D15241;" d="M327.817,226.754c-5.321,0-10.481-0.902-15.337-2.681c-1.617-0.594-2.448-2.385-1.856-4.004
		c0.594-1.617,2.387-2.443,4.004-1.856c8.327,3.054,18.04,3.054,26.378,0c1.616-0.587,3.409,0.239,4.003,1.858
		c0.592,1.617-0.238,3.409-1.858,4.003C338.294,225.852,333.136,226.754,327.817,226.754z"/>
	<path style="fill:#D15241;" d="M293.05,360.883c-5.321,0-10.481-0.902-15.337-2.681c-1.617-0.594-2.448-2.385-1.856-4.004
		c0.594-1.617,2.387-2.443,4.004-1.856c8.327,3.054,18.04,3.054,26.378,0c1.616-0.587,3.409,0.239,4.003,1.858
		c0.592,1.617-0.238,3.409-1.858,4.003C303.528,359.982,298.369,360.883,293.05,360.883z"/>
	<path style="fill:#D15241;" d="M177.122,289.609c-8.646,0-17.033-1.466-24.924-4.357c-2.628-0.965-3.978-3.876-3.016-6.507
		c0.965-2.628,3.879-3.97,6.507-3.016c13.533,4.963,29.318,4.963,42.867,0c2.626-0.954,5.54,0.388,6.505,3.019
		c0.962,2.628-0.388,5.54-3.019,6.505C194.149,288.144,185.765,289.609,177.122,289.609z"/>
	<path style="fill:#D15241;" d="M299.567,316.56c-8.646,0-17.033-1.466-24.924-4.357c-2.628-0.965-3.978-3.876-3.016-6.507
		c0.965-2.628,3.879-3.97,6.507-3.016c13.533,4.963,29.318,4.963,42.867,0c2.626-0.953,5.54,0.388,6.505,3.019
		c0.962,2.628-0.388,5.54-3.019,6.505C316.594,315.095,308.211,316.56,299.567,316.56z"/>
</g>
<g>
	<ellipse style="fill:#3EA69B;" cx="234.142" cy="105.506" rx="49.639" ry="8.76"/>
	<path style="fill:#3EA69B;" d="M292.436,18.405c-0.549,0.193-1.097,0.451-1.577,0.709c-40.862,18.491-49.021,86.143-49.021,86.143
		c0,2.191-4.731,2.835-7.473,1.933c-1.165-0.387-1.92-1.031-1.92-1.933C228.742,23.044,278.587,0.171,278.587,0.171L292.436,18.405z
		"/>
</g>
<path style="fill:#44C4A1;" d="M290.859,19.114c-40.862,18.491-49.021,86.143-49.021,86.143c0,2.191-4.731,2.835-7.473,1.933
	C232.308,27.876,280.643,5.648,280.643,5.648L290.859,19.114z"/>
<g>
	
		<ellipse transform="matrix(-0.6214 -0.7835 0.7835 -0.6214 455.7415 238.6553)" style="fill:#3EA69B;" cx="285.53" cy="9.221" rx="11.557" ry="2.791"/>
	<path style="fill:#3EA69B;" d="M185.561,38.378c0.426,0.15,0.851,0.35,1.224,0.55c31.711,14.35,38.042,66.85,38.042,66.85
		c0,1.7,3.671,2.2,5.8,1.5c0.904-0.3,1.49-0.8,1.49-1.5c2.873-63.8-35.808-81.55-35.808-81.55L185.561,38.378z"/>
</g>
<path style="fill:#44C4A1;" d="M186.785,38.928c31.711,14.35,38.042,66.85,38.042,66.85c0,1.7,3.671,2.2,5.8,1.5
	c1.596-61.55-35.914-78.8-35.914-78.8L186.785,38.928z"/>
<ellipse transform="matrix(-0.7835 -0.6214 0.6214 -0.7835 321.1058 174.3385)" style="fill:#3EA69B;" cx="190.926" cy="31.226" rx="2.167" ry="8.966"/>
<g>
</g>
<g>
</g>
<g>
</g>
<g>
</g>
<g>
</g>
<g>
</g>
<g>
</g>
<g>
</g>
<g>
</g>
<g>
</g>
<g>
</g>
<g>
</g>
<g>
</g>
<g>
</g>
<g>
</g>
</svg>
