<?xml version="1.0" encoding="iso-8859-1"?>
<!-- Generator: Adobe Illustrator 19.0.0, SVG Export Plug-In . SVG Version: 6.00 Build 0)  -->
<svg version="1.1" id="Capa_1" xmlns="http://www.w3.org/2000/svg" xmlns:xlink="http://www.w3.org/1999/xlink" x="0px" y="0px"
	 viewBox="0 0 468.293 468.293" style="enable-background:new 0 0 468.293 468.293;" xml:space="preserve">
<path style="fill:#D15241;" d="M247.185,467.974c-4.306,0.191-8.672,0.319-13.039,0.319c-123.871,0-224.295-78.484-224.295-175.282
	c0-96.861,100.424-175.346,224.295-175.346c4.366,0,8.732,0.128,13.039,0.319C129.416,123.28,35.989,199.595,35.989,293.011
	C35.989,386.362,129.416,462.677,247.185,467.974z"/>
<path style="fill:#E56353;" d="M458.441,293.011c0,93.352-93.427,169.731-211.256,174.963
	c-117.769-5.296-211.196-81.611-211.196-174.963c0-93.415,93.427-169.73,211.196-175.027
	C365.014,123.216,458.441,199.595,458.441,293.011z"/>
<path style="fill:#44C4A1;" d="M329.916,175.596c-4.731-10.199-16.769-17.959-29.434-23.649
	c-18.857-8.425-39.176-12.194-39.176-12.194c1.67,16.037-1.253,30.153-5.497,41.534v0.074
	c-6.958,18.771-17.604,30.079-17.604,30.079c12.038-29.266-17.814-59.862-17.814-59.862c-36.532,3.843-83.222,69.1-83.222,69.1
	c-6.263-11.381-3.758-23.649,2.643-35.326c14.683-26.532,49.892-49.59,49.892-49.59c-17.396-3.473-36.183-0.961-52.953,3.621
	c0,0,0,0,0,0.074c-28.252,7.612-50.446,21.682-50.446,21.682c7.655-31.483,83.638-42.744,102.286-44.887
	c2.784-0.296,5.428-0.887,8.072-1.774l7.724-2.586c11.064-3.695,19.066-14.042,19.902-26.31c1.252-20.25-3.062-40.721-5.358-49.811
	c-0.697-2.734-1.949-5.321-3.827-7.243c-2.227-2.291-3.827-4.582-4.801-6.873c-2.992-6.43-1.809-12.563-0.139-16.628
	C211.414,1.996,214.198,0,217.33,0h24.98c0.557,0,1.114,0.074,1.671,0.148c3.062,0.443,5.845,2.291,7.375,5.099
	c6.958,12.638-0.626,34.882-0.626,34.882c-3.966,17.442-2.296,39.539-0.417,53.654c0.973,7.834,7.306,13.451,14.681,13.599
	c15.587,0.369,30.618,4.434,43.769,9.755c27.555,11.233,47.318,28.083,49.057,29.635c-25.885-15.815-64.365-20.324-64.365-20.324
	C334.3,143.743,329.916,175.596,329.916,175.596z"/>
<g>
	<path style="fill:#3EA69B;" d="M308.763,117.138c-2.713,0.665-5.845,0.443-8.698,0.147c-11.62-1.256-23.241-2.512-34.862-3.769
		c-5.149-0.517-10.716-1.256-14.681-4.877c-2.297-2.069-3.827-5.025-5.08-7.908c-9.185-21.654-5.357-46.559-5.636-70.283
		c-0.07-5.173-0.418-10.42-1.392-15.52c-0.835-4.582-3.34-9.09-3.896-13.672c-0.07-0.444-0.07-0.813-0.07-1.257h7.862
		c0.557,0,1.114,0.074,1.671,0.148c3.062,0.443,5.845,2.291,7.375,5.099c6.958,12.638-0.626,34.882-0.626,34.882
		c-3.966,17.442-2.296,39.539-0.417,53.654c0.973,7.834,7.306,13.451,14.681,13.599
		C280.581,107.752,295.612,111.817,308.763,117.138z"/>
	<path style="fill:#3EA69B;" d="M188.73,144.778c-15.378,14.781-31.73,28.379-48.918,40.573
		c14.683-26.532,49.892-49.59,49.892-49.59c-17.396-3.473-36.183-0.961-52.953,3.621c0.557-1.774,1.74-3.03,4.314-4.656
		c5.288-3.4,11.621-5.173,17.675-5.913c8.836-1.108,17.813-0.295,26.65,0.591c2.853,0.295,6.123,0.813,7.725,3.4
		C195.479,136.722,192,141.674,188.73,144.778z"/>
	<path style="fill:#3EA69B;" d="M261.307,139.753c1.67,16.037-1.253,30.153-5.497,41.534c-1.6-2.144-1.6-5.247-1.531-7.982
		c0.278-8.277,0.626-16.554,0.905-24.758c0.139-3.4-1.322-19.215,1.6-20.915c2.714-1.626,8.907,4.508,11.273,5.617
		c2.296,1.108,19.275,5.912,19.275,8.425c4.732,2.66,9.463,6.134,13.151,10.272C281.625,143.522,261.307,139.753,261.307,139.753z"
		/>
</g>
<g>
	<path style="fill:#EBF0F3;" d="M376.705,217.941c19.007,19.059,43.788,54.888,29.757,103.747c-1.222,4.257-7.031,3.942-7.761-0.441
		c-3.803-22.819-12.561-66.166-28.301-98.33C368.333,218.694,373.451,214.679,376.705,217.941z"/>
	<path style="fill:#EBF0F3;" d="M376.205,357.824c-29.415,29.142-55.9,43.64-84.29,49.377c-5.773,1.166-3.296,10.967,2.506,9.975
		c47.103-8.055,74.039-32.385,88.559-52.024C386.537,360.34,380.414,353.654,376.205,357.824z"/>
</g>
<g>
</g>
<g>
</g>
<g>
</g>
<g>
</g>
<g>
</g>
<g>
</g>
<g>
</g>
<g>
</g>
<g>
</g>
<g>
</g>
<g>
</g>
<g>
</g>
<g>
</g>
<g>
</g>
<g>
</g>
</svg>
