<?xml version="1.0" encoding="iso-8859-1"?>
<!-- Generator: Adobe Illustrator 19.0.0, SVG Export Plug-In . SVG Version: 6.00 Build 0)  -->
<svg version="1.1" id="Capa_1" xmlns="http://www.w3.org/2000/svg" xmlns:xlink="http://www.w3.org/1999/xlink" x="0px" y="0px"
	 viewBox="0 0 468.304 468.304" style="enable-background:new 0 0 468.304 468.304;" xml:space="preserve">
<g>
	<path style="fill:#D15241;" d="M243.496,467.242c-3.247,0.687-6.369,1.062-9.366,1.062c-51.64,0-138.56-102.656-161.601-186.079
		C40.183,165.457,106.309,80.598,234.129,80.598c2.997,0,5.995,0.063,8.929,0.188C121.67,85.031,59.727,168.517,91.261,282.225
		C112.928,360.778,191.294,456.377,243.496,467.242z"/>
	<path style="fill:#D15241;" d="M395.793,282.225c-21.73,78.553-100.033,174.152-152.298,185.017
		c-2.061-0.437-4.121-0.999-6.244-1.686c52.015-16.61,125.197-107.839,146.053-183.332
		c30.972-111.897-28.474-194.508-146.053-201.127c1.936-0.125,3.871-0.25,5.807-0.312c0.25,0,0.562-0.063,0.874,0
		C365.321,85.031,427.264,168.517,395.793,282.225z"/>
</g>
<path style="fill:#E56353;" d="M383.305,282.225c-20.856,75.493-94.039,166.722-146.053,183.332
	c-51.952-16.61-125.197-107.839-145.991-183.332C60.227,170.328,119.672,87.716,237.251,81.097
	C354.831,87.716,414.276,170.328,383.305,282.225z"/>
<g>
	<path style="fill:#44C4A1;" d="M382.478,31.462c0,0-65.926,41.411-148.335,41.307C151.734,72.873,85.808,31.462,85.808,31.462
		C80.903,85.426,203.04,99.964,229.24,102.458c3.273,0.312,6.531,0.312,9.805,0C265.245,99.964,387.383,85.426,382.478,31.462z"/>
	<path style="fill:#44C4A1;" d="M304.157,0.011L304.157,0.011c-38.668,0-70.015,31.346-70.015,70.014
		c0,3.707,3.005,6.712,6.713,6.712c38.668,0,70.014-31.346,70.014-70.014C310.869,3.016,307.864,0.011,304.157,0.011z"/>
	
		<ellipse transform="matrix(-0.7071 -0.7071 0.7071 -0.7071 307.0786 203.9407)" style="fill:#44C4A1;" cx="195.777" cy="38.372" rx="51.825" ry="16.047"/>
</g>
<g>
	<path style="fill:#3EA69B;" d="M296.527,13.544l-51.032,51.032C245.495,64.577,289.952,49.549,296.527,13.544z"/>
	<path style="fill:#3EA69B;" d="M171.759,13.544l51.032,51.032C222.791,64.577,178.334,49.549,171.759,13.544z"/>
	<path style="fill:#3EA69B;" d="M358.635,58.67c0,0-52.691,28.372-105.75,30.951L358.635,58.67z"/>
	<path style="fill:#3EA69B;" d="M109.651,58.67c0,0,52.691,28.372,105.75,30.951L109.651,58.67z"/>
</g>
<g>
	<path style="fill:#E1E6E9;" d="M195.811,230.69c0,5.173-4.193,9.366-9.366,9.366c-5.173,0-9.366-4.193-9.366-9.366
		c0-3.214,3.615-17.168,6.353-27.278c0.834-3.079,5.193-3.079,6.027,0C192.196,213.522,195.811,227.477,195.811,230.69z"/>
	<path style="fill:#E1E6E9;" d="M291.208,230.69c0,5.173-4.193,9.366-9.366,9.366s-9.366-4.193-9.366-9.366
		c0-3.214,3.615-17.168,6.353-27.278c0.834-3.079,5.193-3.079,6.027,0C287.593,213.522,291.208,227.477,291.208,230.69z"/>
	<path style="fill:#E1E6E9;" d="M195.811,327.446c0,5.173-4.193,9.366-9.366,9.366c-5.173,0-9.366-4.193-9.366-9.366
		c0-3.214,3.615-17.168,6.353-27.278c0.834-3.079,5.193-3.079,6.027,0C192.196,310.278,195.811,324.233,195.811,327.446z"/>
	<path style="fill:#E1E6E9;" d="M291.208,327.446c0,5.173-4.193,9.366-9.366,9.366s-9.366-4.193-9.366-9.366
		c0-3.214,3.615-17.168,6.353-27.278c0.834-3.079,5.193-3.079,6.027,0C287.593,310.278,291.208,324.233,291.208,327.446z"/>
	<path style="fill:#E1E6E9;" d="M153.017,189.193c0,5.173-4.193,9.366-9.366,9.366s-9.366-4.193-9.366-9.366
		c0-3.214,3.615-17.168,6.353-27.278c0.834-3.079,5.193-3.079,6.027,0C149.402,172.025,153.017,185.98,153.017,189.193z"/>
	<path style="fill:#E1E6E9;" d="M243.509,189.193c0,5.173-4.193,9.366-9.366,9.366c-5.173,0-9.366-4.193-9.366-9.366
		c0-3.214,3.615-17.168,6.353-27.278c0.834-3.079,5.193-3.079,6.027,0C239.895,172.025,243.509,185.98,243.509,189.193z"/>
	<path style="fill:#E1E6E9;" d="M334.002,189.193c0,5.173-4.193,9.366-9.366,9.366c-5.173,0-9.366-4.193-9.366-9.366
		c0-3.214,3.615-17.168,6.353-27.278c0.834-3.079,5.193-3.079,6.027,0C330.387,172.025,334.002,185.98,334.002,189.193z"/>
	<path style="fill:#E1E6E9;" d="M153.017,279.902c0,5.173-4.193,9.366-9.366,9.366s-9.366-4.193-9.366-9.366
		c0-3.214,3.615-17.168,6.353-27.278c0.834-3.079,5.193-3.079,6.027,0C149.402,262.733,153.017,276.688,153.017,279.902z"/>
	<path style="fill:#E1E6E9;" d="M243.509,279.902c0,5.173-4.193,9.366-9.366,9.366c-5.173,0-9.366-4.193-9.366-9.366
		c0-3.214,3.615-17.168,6.353-27.278c0.834-3.079,5.193-3.079,6.027,0C239.895,262.733,243.509,276.688,243.509,279.902z"/>
	<path style="fill:#E1E6E9;" d="M334.002,279.902c0,5.173-4.193,9.366-9.366,9.366c-5.173,0-9.366-4.193-9.366-9.366
		c0-3.214,3.615-17.168,6.353-27.278c0.834-3.079,5.193-3.079,6.027,0C330.387,262.733,334.002,276.688,334.002,279.902z"/>
	<path style="fill:#E1E6E9;" d="M243.509,392.475c0,5.173-4.193,9.366-9.366,9.366c-5.173,0-9.366-4.193-9.366-9.366
		c0-3.214,3.615-17.168,6.353-27.278c0.834-3.079,5.193-3.079,6.027,0C239.895,375.307,243.509,389.262,243.509,392.475z"/>
</g>
<g>
</g>
<g>
</g>
<g>
</g>
<g>
</g>
<g>
</g>
<g>
</g>
<g>
</g>
<g>
</g>
<g>
</g>
<g>
</g>
<g>
</g>
<g>
</g>
<g>
</g>
<g>
</g>
<g>
</g>
</svg>
