<?xml version="1.0" encoding="iso-8859-1"?>
<!-- Generator: Adobe Illustrator 19.0.0, SVG Export Plug-In . SVG Version: 6.00 Build 0)  -->
<svg version="1.1" id="Capa_1" xmlns="http://www.w3.org/2000/svg" xmlns:xlink="http://www.w3.org/1999/xlink" x="0px" y="0px"
	 viewBox="0 0 468.293 468.293" style="enable-background:new 0 0 468.293 468.293;" xml:space="preserve">
<path style="fill:#E56353;" d="M383.423,180.463c0,0-32.101-8.417-83.818,75.401c0,0-110.569,202.447-299.605,101.223
	c0,0,53.585,102.69,221.185,53.214c16.481-4.865,32.434-11.365,47.707-19.239c47.507-24.492,153.312-87.354,160.157-164.42
	c1.349-15.194-4.852-30.395-17.364-39.12C404.783,182.709,395.525,179.33,383.423,180.463z"/>
<path style="fill:#3EA69B;" d="M467.69,97.108c5.653-34.432-29.872-47.977-47.019-52.463c-3.3-0.863-5.942,2.761-4.128,5.65v0
	c0.416,0.663,1.049,1.18,1.775,1.474c73.567,29.841,27.146,84.808,9.516,102.398c-3.076,3.069-5.73,6.512-8.48,9.876
	c-9.34,11.428-35.687,15.554-42.318,16.427c-0.272,0.036-0.274,0.425-0.005,0.476l28.505,5.394l-7.724,18.08l17.788-13.016
	c6.24,8.264,11.935,15.607,13.267,25.376c3.376-10.675-5.707-34.052-5.707-34.052C469.544,131.643,467.69,97.108,467.69,97.108z"/>
<path style="fill:#E1E6E9;" d="M357.017,222.42c-16.43,8.809-29.864,22.623-38.495,39.653c-4.787,9.446-9.832,19.573-13.198,26.801
	c-4.888,10.495,29.842-26.136,39.822-40.923c9.622-14.256,22.694-25.412,35.499-36.397
	C385.183,207.662,371.175,214.829,357.017,222.42z"/>
<g>
</g>
<g>
</g>
<g>
</g>
<g>
</g>
<g>
</g>
<g>
</g>
<g>
</g>
<g>
</g>
<g>
</g>
<g>
</g>
<g>
</g>
<g>
</g>
<g>
</g>
<g>
</g>
<g>
</g>
</svg>
