<?xml version="1.0" encoding="iso-8859-1"?>
<!-- Generator: Adobe Illustrator 19.0.0, SVG Export Plug-In . SVG Version: 6.00 Build 0)  -->
<svg version="1.1" id="Capa_1" xmlns="http://www.w3.org/2000/svg" xmlns:xlink="http://www.w3.org/1999/xlink" x="0px" y="0px"
	 viewBox="0 0 468.291 468.291" style="enable-background:new 0 0 468.291 468.291;" xml:space="preserve">
<path style="fill:#31978C;" d="M468.291,373.965c0,0-2.061,0.749-5.744,1.998c-22.915,7.742-108.582,34.216-150.541,13.237
	L70.492,159.862l-17.92-87.29l-3.372-16.234c0,0,48.265,31.969,94.033,79.672c44.769,46.579,95.781,86.977,153.35,116.199
	c18.794,9.49,38.462,18.107,58.193,24.601c30.158,9.99,58.131,25.912,81.233,47.641
	C451.433,338.937,464.857,356.108,468.291,373.965z"/>
<path style="fill:#3EA69B;" d="M462.547,375.963c-22.915,7.742-108.582,34.216-150.541,13.237L70.492,159.862l-17.92-87.29
	c14.548,10.24,51.949,37.963,87.852,75.364c44.769,46.579,95.782,86.915,153.35,116.137c18.794,9.491,38.463,18.169,58.193,24.663
	c30.158,9.928,58.068,25.912,81.233,47.578C445.751,348.115,456.99,361.664,462.547,375.963z"/>
<g>
	<circle style="fill:#E1E6E9;" cx="220.259" cy="289.086" r="44.4"/>
	<circle style="fill:#E1E6E9;" cx="151.189" cy="213.416" r="34.473"/>
	<circle style="fill:#E1E6E9;" cx="319.512" cy="344.719" r="40.329"/>
</g>
<path style="fill:#64798A;" d="M18.517,0.918H7.093c-6.141,0-9.377,7.877-5.235,12.794c10.93,12.974,24.718,33.539,20.31,50.763
	l9.201-6.796c5.509-19.001-2.469-42.493-6.394-52.217C23.851,2.674,21.322,0.918,18.517,0.918z"/>
<path style="fill:#3EA69B;" d="M371.885,467.374c0,0-15.735-4.62-32.843-5.307c-5.432-0.25-11.052-0.125-16.296,0.749
	c-4.183,0.624-8.305,1.062-12.488,1.311c0,0-0.063,0-0.188,0c-11.863,0.437-23.664-1.062-34.966-4.995
	c-13.737-4.745-31.032-12.114-50.825-23.727c-44.019-25.662-81.108-61.627-109.455-104.023
	C75.238,272.189,13.485,166.293,19.729,89.868l21.354-25.412c2.185,0.623,4.308,1.373,6.431,2.247
	c33.093,13.737,58.568,58.569,70.806,84.105c10.053,21.043,21.354,41.523,34.779,60.629c31.469,44.769,64.936,76.862,87.852,96.156
	c13.237,11.114,27.785,20.48,42.771,29.159c70.181,40.523,85.604,115.075,87.852,128.5
	C371.76,466.624,371.885,467.374,371.885,467.374z"/>
<path style="fill:#44C4A1;" d="M371.573,465.251c-8.055-1.748-20.543-3.747-32.531-3.184c-2.685,0.063-5.37,0.313-7.93,0.749
	c-6.931,1.124-13.861,1.561-20.854,1.311c0,0-0.063,0-0.188,0c-8.991-0.374-17.982-1.998-26.599-4.995
	c-13.737-4.745-31.032-12.114-50.825-23.727c-44.019-25.662-81.108-61.627-109.456-104.023
	C83.605,272.189,21.852,166.293,28.096,89.868l19.418-23.165c33.093,13.737,58.568,58.569,70.806,84.105
	c10.053,21.043,21.354,41.523,34.779,60.629c31.469,44.769,64.936,76.862,87.852,96.156c13.237,11.114,27.785,20.48,42.771,29.159
	C353.903,377.274,369.326,451.826,371.573,465.251z"/>
<path style="fill:#31978C;" d="M33.653,44.127C46.845,44.163,71.242,47.683,64.6,74.12c-1.471,5.856-6.925,9.913-12.921,9.208
	c-4.421-0.52-9.297-2.176-12.272-6.51c0,0-6.614,26.167-27.038,21.899C7.505,97.7,4.933,92.251,6.918,87.696l15.865-36.397
	C24.673,46.965,28.926,44.114,33.653,44.127z"/>
<g>
	
		<ellipse transform="matrix(-0.6101 -0.7923 0.7923 -0.6101 246.2337 777.3978)" style="fill:#D5D6DB;" cx="314.4" cy="328.112" rx="8.017" ry="13.749"/>
	
		<ellipse transform="matrix(-0.6101 -0.7923 0.7923 -0.6101 149.6843 601.7582)" style="fill:#D5D6DB;" cx="222.908" cy="264.048" rx="7.074" ry="12.132"/>
	
		<ellipse transform="matrix(-0.6101 -0.7923 0.7923 -0.6101 104.547 437.4105)" style="fill:#D5D6DB;" cx="159.901" cy="192.981" rx="4.77" ry="8.18"/>
</g>
<g>
</g>
<g>
</g>
<g>
</g>
<g>
</g>
<g>
</g>
<g>
</g>
<g>
</g>
<g>
</g>
<g>
</g>
<g>
</g>
<g>
</g>
<g>
</g>
<g>
</g>
<g>
</g>
<g>
</g>
</svg>
