<?xml version="1.0" encoding="iso-8859-1"?>
<!-- Generator: Adobe Illustrator 19.0.0, SVG Export Plug-In . SVG Version: 6.00 Build 0)  -->
<svg version="1.1" id="Capa_1" xmlns="http://www.w3.org/2000/svg" xmlns:xlink="http://www.w3.org/1999/xlink" x="0px" y="0px"
	 viewBox="0 0 478.181 478.181" style="enable-background:new 0 0 478.181 478.181;" xml:space="preserve">
<path style="fill:#E56353;" d="M250.391,115.481c-40.1-21.9-38-70-39.5-110.5l-15.6,33.4l-11.2-24.6l-6.7,17.8l-23.3-10
	c0,0,44.5,56.5-6.3,93.7c-81.1,13.7-140.8,59.4-140.8,113.7c0,65.2,85.8,118,191.6,118s191.6-52.8,191.6-118
	C390.191,174.881,330.991,129.381,250.391,115.481z"/>
<path style="fill:#D15241;" d="M198.591,351.981c-52.1,0-101.1-12.5-138.1-35.3c-37.7-23.2-58.5-54.4-58.5-87.7
	c0-27.9,14.5-54.2,41.9-76c25.7-20.5,61.9-35.5,101.9-42.4c12.1-9.2,19.1-20.3,20.9-33.1c3.7-26.7-16.3-52.5-16.5-52.8
	c-1.4-1.8-1.4-4.3,0-6.1s3.8-2.4,5.9-1.5l18.5,7.9l4.9-12.9c0.7-1.9,2.5-3.2,4.5-3.2c2-0.1,3.9,1.1,4.7,2.9l6.7,14.7l11-23.6
	c1-2.1,3.3-3.2,5.5-2.8c2.3,0.5,3.9,2.4,4,4.7c0.1,3.3,0.2,6.7,0.3,10.1c1.1,37.8,2.3,76.9,35.9,95.8c39.9,7,76,22.1,101.6,42.6
	c27.2,21.7,41.6,47.9,41.6,75.7c0,33.3-20.8,64.5-58.5,87.7C299.691,339.481,250.691,351.981,198.591,351.981z M166.791,32.481
	c5.9,11.4,12.2,28.4,9.8,46.3c-2.2,16-10.9,29.6-25.8,40.6c-0.6,0.5-1.4,0.8-2.1,0.9c-80.5,13.5-136.7,58.2-136.7,108.7
	c0,62.3,83.7,113,186.6,113s186.6-50.7,186.6-113c0-50.2-55.8-94.8-135.6-108.6c-0.5-0.1-1.1-0.3-1.5-0.5
	c-35.8-19.5-40.2-57.8-41.5-93.8l-6.7,14.4c-0.8,1.8-2.6,2.9-4.5,2.9l0,0c-2,0-3.7-1.2-4.5-2.9l-6.2-13.6l-2.5,6.5
	c-0.5,1.3-1.5,2.3-2.7,2.8c-1.3,0.5-2.7,0.5-3.9,0L166.791,32.481z"/>
<ellipse style="fill:#E56353;" cx="198.591" cy="228.981" rx="152.1" ry="118"/>
<path style="fill:#D15241;" d="M198.591,351.981c-41.7,0-81-12.6-110.6-35.6c-30-23.3-46.5-54.3-46.5-87.4s16.5-64.1,46.5-87.4
	c29.6-23,68.9-35.6,110.6-35.6s81,12.6,110.6,35.6c30,23.3,46.5,54.3,46.5,87.4s-16.5,64.1-46.5,87.4
	C279.591,339.381,240.291,351.981,198.591,351.981z M198.591,115.981c-81.1,0-147.1,50.7-147.1,113s66,113,147.1,113
	s147.1-50.7,147.1-113S279.691,115.981,198.591,115.981z"/>
<ellipse style="fill:#E56353;" cx="198.591" cy="228.981" rx="92.4" ry="118"/>
<path style="fill:#D15241;" d="M198.591,351.981c-53.7,0-97.4-55.2-97.4-123s43.7-123,97.4-123s97.4,55.2,97.4,123
	S252.291,351.981,198.591,351.981z M198.591,115.981c-48.2,0-87.4,50.7-87.4,113s39.2,113,87.4,113s87.4-50.7,87.4-113
	S246.791,115.981,198.591,115.981z"/>
<ellipse style="fill:#E56353;" cx="198.591" cy="228.981" rx="32.6" ry="118"/>
<path style="fill:#D15241;" d="M198.591,351.981c-24.7,0-37.6-61.9-37.6-123s12.9-123,37.6-123s37.6,61.9,37.6,123
	S223.291,351.981,198.591,351.981z M198.591,115.981c-4.5,0-11.9,8.1-18.2,30.9c-6,21.9-9.4,51-9.4,82.1s3.3,60.2,9.4,82.1
	c6.3,22.8,13.8,30.9,18.2,30.9s11.9-8.1,18.2-30.9c6-21.9,9.4-51,9.4-82.1s-3.3-60.2-9.4-82.1
	C210.491,124.081,203.091,115.981,198.591,115.981z"/>
<ellipse style="fill:#EBF0F3;" cx="297.391" cy="345.481" rx="173.8" ry="127.7"/>
<path style="fill:#D15241;" d="M297.391,478.181c-47.5,0-92.2-13.6-125.9-38.4c-34.1-25.1-52.9-58.6-52.9-94.3s18.8-69.2,52.9-94.3
	c33.7-24.7,78.4-38.4,125.9-38.4s92.2,13.6,125.9,38.4c34.1,25.1,52.9,58.6,52.9,94.3s-18.8,69.2-52.9,94.3
	C389.591,464.581,344.891,478.181,297.391,478.181z M297.391,222.781c-93.1,0-168.8,55-168.8,122.7s75.7,122.7,168.8,122.7
	s168.8-55,168.8-122.7C466.191,277.781,390.491,222.781,297.391,222.781z"/>
<ellipse style="fill:#EBF0F3;" cx="297.391" cy="345.481" rx="131.3" ry="89.6"/>
<path style="fill:#D15241;" d="M297.391,438.581c-35.8,0-69.4-9.5-94.8-26.9c-25.8-17.6-40-41.1-40-66.2c0-25.1,14.2-48.7,40-66.2
	c25.4-17.3,59-26.9,94.8-26.9s69.4,9.5,94.8,26.9c25.8,17.6,40,41.1,40,66.2s-14.2,48.7-40,66.2
	C366.791,429.081,333.191,438.581,297.391,438.581z M297.391,259.381c-70.5,0-127.8,38.6-127.8,86.1s57.3,86.1,127.8,86.1
	s127.8-38.6,127.8-86.1S367.891,259.381,297.391,259.381z"/>
<ellipse style="fill:#EBF0F3;" cx="297.391" cy="345.481" rx="88.9" ry="51.6"/>
<path style="fill:#D15241;" d="M297.391,400.581c-24.4,0-47.3-5.5-64.6-15.6c-17.9-10.4-27.8-24.4-27.8-39.5s9.9-29.1,27.8-39.5
	c17.3-10.1,40.3-15.6,64.6-15.6s47.3,5.5,64.6,15.6c17.9,10.4,27.8,24.4,27.8,39.5s-9.9,29.1-27.8,39.5
	C344.691,395.081,321.791,400.581,297.391,400.581z M297.391,297.381c-47.1,0-85.4,21.6-85.4,48.1s38.3,48.1,85.4,48.1
	s85.4-21.6,85.4-48.1S344.491,297.381,297.391,297.381z"/>
<path style="fill:#EBF0F3;" d="M333.891,346.281c2.2-2.9,3.6-6,3.6-9.3c0-12.9-18-23.3-40.1-23.3c-22.2,0-40.1,10.4-40.1,23.3
	c0,3.4,1.4,6.5,3.6,9.3H333.891z"/>
<path style="fill:#D15241;" d="M335.591,349.781h-76.4l-1.1-1.3c-2.9-3.7-4.3-7.5-4.3-11.5c0-15,19.2-26.8,43.6-26.8
	s43.6,11.8,43.6,26.8c0,3.8-1.5,7.6-4.3,11.4L335.591,349.781z M262.691,342.781h69.4c1.3-2,1.9-3.9,1.9-5.8
	c0-10.7-16.8-19.8-36.6-19.8c-19.8,0-36.6,9.1-36.6,19.8C260.791,338.881,261.391,340.781,262.691,342.781z"/>
<path style="fill:#EBF0F3;" d="M317.091,335.881c1.2-1,1.9-2.1,1.9-3.3c0-4.6-9.7-8.3-21.7-8.3s-21.7,3.7-21.7,8.3
	c0,1.2,0.7,2.3,1.9,3.3H317.091z"/>
<path style="fill:#D15241;" d="M318.391,339.381h-42.1l-1-0.8c-2.6-2.2-3.2-4.5-3.2-6c0-8.1,13.1-11.8,25.2-11.8s25.2,3.7,25.2,11.8
	c0,1.5-0.5,3.8-3.2,6L318.391,339.381z M279.191,332.381h36.2c-0.9-1.4-7-4.6-18.1-4.6
	C286.191,327.781,280.191,330.881,279.191,332.381z"/>
<path style="fill:#EBF0F3;" d="M333.891,358.981c2.2,1.6,3.6,3.4,3.6,5.2c0,7.2-18,13.1-40.1,13.1c-22.2,0-40.1-5.9-40.1-13.1
	c0-1.9,1.4-3.6,3.6-5.2H333.891z"/>
<path style="fill:#D15241;" d="M297.391,380.781c-21.7,0-43.6-5.7-43.6-16.6c0-4.4,3.8-7.1,5-8l0.9-0.7h75.3l0.9,0.7c4.2,3,5,6,5,8
	C340.991,375.081,319.091,380.781,297.391,380.781z M262.091,362.481c-1,0.9-1.3,1.5-1.3,1.7c0,2.9,12.5,9.6,36.6,9.6
	s36.6-6.7,36.6-9.6c0-0.1-0.3-0.8-1.3-1.7H262.091z"/>
<g>
</g>
<g>
</g>
<g>
</g>
<g>
</g>
<g>
</g>
<g>
</g>
<g>
</g>
<g>
</g>
<g>
</g>
<g>
</g>
<g>
</g>
<g>
</g>
<g>
</g>
<g>
</g>
<g>
</g>
</svg>
