<?xml version="1.0" encoding="iso-8859-1"?>
<!-- Generator: Adobe Illustrator 19.0.0, SVG Export Plug-In . SVG Version: 6.00 Build 0)  -->
<svg version="1.1" id="Capa_1" xmlns="http://www.w3.org/2000/svg" xmlns:xlink="http://www.w3.org/1999/xlink" x="0px" y="0px"
	 viewBox="0 0 468.293 468.293" style="enable-background:new 0 0 468.293 468.293;" xml:space="preserve">
<path style="fill:#DC8744;" d="M229.448,255.812c-0.858-33.431,20.303-46.687,31.609-49.028l2.598,12.558l-1.299-6.279l1.352,6.267
	c-0.908,0.203-22.234,5.365-21.445,36.157L229.448,255.812z"/>
<ellipse style="fill:#FCD462;" cx="228.222" cy="357.688" rx="65.517" ry="110.604"/>
<ellipse style="fill:#DC8744;" cx="228.222" cy="447.938" rx="24.239" ry="10.996"/>
<path style="fill:#F6C358;" d="M217.822,271.631c0,0-56.432,49.617-20.23,143.315h21.251
	C218.843,414.946,176.665,363.504,217.822,271.631z"/>
<path style="fill:#DC8744;" d="M79.677,114.59c-0.683-26.611,16.161-37.163,25.161-39.027l2.068,9.997l-1.034-4.998l1.076,4.988
	c-0.723,0.162-17.698,4.271-17.07,28.781L79.677,114.59z"/>
<ellipse style="fill:#FCD462;" cx="78.68" cy="195.684" rx="52.155" ry="88.039"/>
<ellipse style="fill:#DC8744;" cx="78.68" cy="267.489" rx="19.294" ry="8.754"/>
<path style="fill:#F6C358;" d="M70.423,127.182c0,0-44.92,39.496-16.103,114.08h16.916
	C71.235,241.262,37.662,200.313,70.423,127.182z"/>
<path style="fill:#64798A;" d="M430.557,293.118c-0.842,0-1.7-0.097-2.557-0.297C177.84,234.517,52.419,18.947,51.183,16.774
	c-3.068-5.381-1.196-12.227,4.185-15.297c5.371-3.068,12.227-1.205,15.3,4.179c1.196,2.088,122.056,209.292,362.427,265.316
	c6.032,1.405,9.785,7.437,8.376,13.472C440.267,289.622,435.653,293.118,430.557,293.118z"/>
<g>
</g>
<g>
</g>
<g>
</g>
<g>
</g>
<g>
</g>
<g>
</g>
<g>
</g>
<g>
</g>
<g>
</g>
<g>
</g>
<g>
</g>
<g>
</g>
<g>
</g>
<g>
</g>
<g>
</g>
</svg>
