<?xml version="1.0" encoding="iso-8859-1"?>
<!-- Generator: Adobe Illustrator 19.0.0, SVG Export Plug-In . SVG Version: 6.00 Build 0)  -->
<svg version="1.1" id="Capa_1" xmlns="http://www.w3.org/2000/svg" xmlns:xlink="http://www.w3.org/1999/xlink" x="0px" y="0px"
	 viewBox="0 0 468.293 468.293" style="enable-background:new 0 0 468.293 468.293;" xml:space="preserve">
<path style="fill:#44C4A1;" d="M468.293,291.455c0-12.771-12.822-23.278-29.56-25.24c-14.198-56.946-75.484-99.777-148.936-99.777
	s-134.738,42.831-148.936,99.777c-16.738,1.962-29.56,12.468-29.56,25.24c0,12.772,12.822,23.277,29.56,25.24
	c14.198,56.945,75.484,99.777,148.936,99.777s134.738-42.831,148.936-99.777C455.47,314.732,468.293,304.226,468.293,291.455z"/>
<path style="fill:#31978C;" d="M350.928,168.48H159.785L49.248,241.219c23.984,43.115,76.788,73.123,138.216,73.123
	c73.453,0,134.739-42.832,148.936-99.777c16.737-1.962,29.56-12.468,29.56-25.24C365.961,180.651,359.968,173.097,350.928,168.48z"
	/>
<g>
	<circle style="fill:#3EA69B;" cx="384.062" cy="344.039" r="9.765"/>
	<circle style="fill:#3EA69B;" cx="359.649" cy="363.539" r="9.765"/>
	<circle style="fill:#3EA69B;" cx="320.487" cy="383.432" r="9.765"/>
	<circle style="fill:#3EA69B;" cx="320.487" cy="353.78" r="9.765"/>
	<circle style="fill:#3EA69B;" cx="353.155" cy="334.236" r="9.765"/>
	<circle style="fill:#3EA69B;" cx="324.183" cy="317.128" r="9.765"/>
	<path style="fill:#3EA69B;" d="M356.992,176.838c0-12.772-12.822-23.278-29.56-25.24c-14.198-56.946-75.484-99.777-148.936-99.777
		S43.758,94.652,29.56,151.598C12.822,153.56,0,164.066,0,176.838c0,12.771,12.822,23.277,29.56,25.24
		c14.198,56.945,75.484,99.777,148.936,99.777s134.738-42.831,148.936-99.777C344.17,200.115,356.992,189.609,356.992,176.838z"/>
</g>
<g>
	<path style="fill:#EBF0F3;" d="M67.649,165.981c-0.534,0-1.081-0.064-1.621-0.203c-3.483-0.89-5.581-4.437-4.691-7.917
		c3.458-13.532,10.545-26.604,20.492-37.803c2.396-2.698,6.502-2.937,9.191-0.543c2.689,2.387,2.93,6.499,0.547,9.188
		c-8.581,9.655-14.67,20.855-17.619,32.381C73.198,164.026,70.548,165.981,67.649,165.981z"/>
	<path style="fill:#EBF0F3;" d="M130.715,101.033c-2.587,0-5.04-1.56-6.051-4.116c-1.322-3.343,0.311-7.125,3.655-8.447
		c17.734-7.024,36.809-10.596,56.678-10.615h0.006c3.591,0,6.502,2.908,6.509,6.502c0.006,3.594-2.905,6.512-6.502,6.515
		c-18.229,0.019-35.69,3.283-51.898,9.7C132.323,100.884,131.516,101.033,130.715,101.033z"/>
</g>
<g>
	<circle style="fill:#31978C;" cx="272.734" cy="229.401" r="9.765"/>
	<circle style="fill:#31978C;" cx="248.32" cy="248.944" r="9.765"/>
	<circle style="fill:#31978C;" cx="209.171" cy="268.819" r="9.765"/>
	<circle style="fill:#31978C;" cx="209.171" cy="239.16" r="9.765"/>
	<circle style="fill:#31978C;" cx="241.826" cy="219.635" r="9.765"/>
	<circle style="fill:#31978C;" cx="212.867" cy="202.484" r="9.765"/>
</g>
<g>
</g>
<g>
</g>
<g>
</g>
<g>
</g>
<g>
</g>
<g>
</g>
<g>
</g>
<g>
</g>
<g>
</g>
<g>
</g>
<g>
</g>
<g>
</g>
<g>
</g>
<g>
</g>
<g>
</g>
</svg>
