<?xml version="1.0" encoding="iso-8859-1"?>
<!-- Generator: Adobe Illustrator 19.0.0, SVG Export Plug-In . SVG Version: 6.00 Build 0)  -->
<svg version="1.1" id="Capa_1" xmlns="http://www.w3.org/2000/svg" xmlns:xlink="http://www.w3.org/1999/xlink" x="0px" y="0px"
	 viewBox="0 0 468.293 468.293" style="enable-background:new 0 0 468.293 468.293;" xml:space="preserve">
<circle style="fill:#F6C358;" cx="234.146" cy="234.146" r="234.146"/>
<circle style="fill:#EBF0F3;" cx="234.146" cy="234.146" r="208.484"/>
<g>
	<path style="fill:#FCD462;" d="M234.146,222.21c0,0-48.774-117.738-36.513-152.773c9.951-28.433,63.074-28.433,73.025,0
		C282.92,104.472,234.146,222.21,234.146,222.21z"/>
	<path style="fill:#FCD462;" d="M234.146,246.082c0,0-48.774,117.738-36.513,152.773c9.951,28.433,63.074,28.433,73.025,0
		C282.92,363.821,234.146,246.082,234.146,246.082z"/>
	<path style="fill:#FCD462;" d="M242.587,225.706c0,0,48.765-117.742,82.209-133.845c27.142-13.069,64.705,24.495,51.637,51.637
		C360.329,176.941,242.587,225.706,242.587,225.706z"/>
	<path style="fill:#FCD462;" d="M225.706,242.587c0,0-117.742,48.765-133.845,82.209c-13.069,27.142,24.495,64.705,51.636,51.637
		C176.941,360.329,225.706,242.587,225.706,242.587z"/>
	<path style="fill:#FCD462;" d="M246.083,234.146c0,0,117.738-48.774,152.773-36.513c28.433,9.951,28.433,63.074,0,73.025
		C363.821,282.921,246.083,234.146,246.083,234.146z"/>
	<path style="fill:#FCD462;" d="M222.21,234.146c0,0-117.738-48.774-152.773-36.512c-28.433,9.951-28.433,63.074,0,73.025
		C104.472,282.921,222.21,234.146,222.21,234.146z"/>
	<path style="fill:#FCD462;" d="M242.586,242.587c0,0,117.742,48.765,133.845,82.209c13.069,27.142-24.495,64.705-51.637,51.637
		C291.352,360.329,242.586,242.587,242.586,242.587z"/>
	<path style="fill:#FCD462;" d="M225.706,225.706c0,0-48.765-117.742-82.209-133.845c-27.142-13.069-64.705,24.495-51.636,51.637
		C107.964,176.941,225.706,225.706,225.706,225.706z"/>
</g>
<g>
	<circle style="fill:#EBF0F3;" cx="234.146" cy="234.146" r="36.346"/>
	<path style="fill:#EBF0F3;" d="M222.291,67.55c-14.365,17.835-3.732,44.224-0.074,52.008c0.265,0.565,1.112,0.375,1.112-0.249
		V67.918C223.329,67.368,222.636,67.122,222.291,67.55z"/>
	<path style="fill:#EBF0F3;" d="M240.349,120.051c10.262,12.741,2.666,31.593,0.053,37.153c-0.19,0.403-0.794,0.268-0.794-0.178
		v-36.713C239.608,119.92,240.103,119.745,240.349,120.051z"/>
	<path style="fill:#EBF0F3;" d="M308.622,142.826c-16.009,3.366-22.064,22.767-23.562,28.726c-0.109,0.432,0.445,0.71,0.727,0.365
		l23.242-28.419C309.279,143.194,309.007,142.745,308.622,142.826z"/>
	<path style="fill:#EBF0F3;" d="M364.577,229.988c-13.94-8.562-31.675,1.365-36.859,4.664c-0.376,0.239-0.165,0.822,0.277,0.765
		l36.416-4.66C364.8,230.707,364.911,230.194,364.577,229.988z"/>
	<path style="fill:#EBF0F3;" d="M152.587,130.942c-10.335-12.681-30.352-9.16-36.333-7.757c-0.434,0.102-0.427,0.722,0.009,0.814
		l35.914,7.614C152.56,131.695,152.835,131.247,152.587,130.942z"/>
	<path style="fill:#EBF0F3;" d="M123.725,357.19c22.638,3.46,40.114-18.991,45.006-26.065c0.355-0.513-0.234-1.15-0.774-0.837
		l-44.436,25.819C123.045,356.384,123.181,357.107,123.725,357.19z"/>
	<path style="fill:#EBF0F3;" d="M243.094,374.683c13.636-18.415,1.915-44.342-2.064-51.968c-0.289-0.553-1.128-0.329-1.102,0.294
		l2.113,51.35C242.063,374.909,242.767,375.126,243.094,374.683z"/>
	<path style="fill:#EBF0F3;" d="M225.536,404.395c-11.441-10.462-7.015-29.198-5.36-34.778c0.12-0.405,0.706-0.365,0.77,0.053
		l5.248,34.374C226.25,404.411,225.811,404.646,225.536,404.395z"/>
	<path style="fill:#EBF0F3;" d="M333.13,324.685c-1.54-22.861-27.264-35.022-35.236-38.254c-0.578-0.234-1.072,0.48-0.649,0.938
		l34.872,37.751C332.491,325.524,333.167,325.234,333.13,324.685z"/>
	<path style="fill:#EBF0F3;" d="M350.122,351.554c-17.916,7.427-30.757-10.431-34.321-16.171c-0.259-0.416,0.229-1.123,0.641-0.928
		l33.883,16.046C350.687,350.672,350.552,351.376,350.122,351.554z"/>
	<path style="fill:#EBF0F3;" d="M130.127,152.107c7.387,21.676,35.371,26.806,43.905,27.878c0.619,0.078,0.912-0.739,0.385-1.073
		l-43.424-27.486C130.528,151.133,129.949,151.587,130.127,152.107z"/>
	<path style="fill:#EBF0F3;" d="M65.017,229.031c7.387,21.676,35.371,26.806,43.905,27.878c0.619,0.078,0.912-0.739,0.385-1.073
		l-43.424-27.486C65.417,228.057,64.839,228.511,65.017,229.031z"/>
	<path style="fill:#EBF0F3;" d="M117.263,225.265c13.749-8.05,30.83,1.983,35.815,5.301c0.362,0.241,0.145,0.804-0.285,0.74
		l-35.383-5.289C117.031,225.96,116.932,225.458,117.263,225.265z"/>
	<path style="fill:#EBF0F3;" d="M125.474,319.879c11.315-18.64,38.411-17.678,46.573-16.926c0.592,0.055,0.697,0.874,0.138,1.076
		l-46.045,16.66C125.647,320.868,125.202,320.327,125.474,319.879z"/>
	<path style="fill:#EBF0F3;" d="M347.805,135.799c-2.11,22.803-28.116,34.34-36.162,37.379c-0.584,0.22-1.059-0.505-0.625-0.953
		l35.786-36.886C347.187,134.945,347.855,135.251,347.805,135.799z"/>
	<path style="fill:#EBF0F3;" d="M400.008,244.369c-12.734,13.394-34.979,7.706-41.596,5.61c-0.48-0.152-0.419-0.849,0.08-0.916
		l41.111-5.485C400.043,243.519,400.314,244.047,400.008,244.369z"/>
</g>
<g>
</g>
<g>
</g>
<g>
</g>
<g>
</g>
<g>
</g>
<g>
</g>
<g>
</g>
<g>
</g>
<g>
</g>
<g>
</g>
<g>
</g>
<g>
</g>
<g>
</g>
<g>
</g>
<g>
</g>
</svg>
