<?xml version="1.0" encoding="iso-8859-1"?>
<!-- Generator: Adobe Illustrator 19.0.0, SVG Export Plug-In . SVG Version: 6.00 Build 0)  -->
<svg version="1.1" id="Capa_1" xmlns="http://www.w3.org/2000/svg" xmlns:xlink="http://www.w3.org/1999/xlink" x="0px" y="0px"
	 viewBox="0 0 468.293 468.293" style="enable-background:new 0 0 468.293 468.293;" xml:space="preserve">
<path style="fill:#44C4A1;" d="M223.788,6.744l-38.676,87.416l98.068,0L244.504,6.744C240.526-2.248,227.767-2.248,223.788,6.744z"
	/>
<path style="fill:#3EA69B;" d="M253.259,157.11c8.787,35.606,12.75,89.82-24.58,133.812c-3.733,4.422-8.5,7.695-13.841,9.648
	c4.824,0.862,9.189,1.436,13.037,1.895c11.141,1.263,22.283-2.986,29.519-11.543c37.33-43.992,33.367-98.206,24.58-133.812
	c-7.064-28.658-22.168-54.559-43.417-75.061c-43.302-41.694-91.371-46.059-121.637-43.302c27.796,2.527,61.622,13.152,92.922,43.302
	C231.092,102.551,246.196,128.452,253.259,157.11z"/>
<path style="fill:#44C4A1;" d="M87.976,206.557c26.475,66.504,89.189,87.408,126.863,94.013c5.341-1.953,10.108-5.226,13.841-9.648
	c37.329-43.992,33.367-98.206,24.58-133.812c-7.064-28.658-22.168-54.559-43.417-75.061c-31.299-30.151-65.125-40.776-92.922-43.302
	c-18.55,1.608-30.38,5.915-30.38,5.915c2.814,14.702-2.642,55.018-6.72,80.919C75.513,152.86,77.753,180.943,87.976,206.557z"/>
<path style="fill:#3EA69B;" d="M215.033,157.11c-8.787,35.606-12.75,89.82,24.58,133.812c3.733,4.422,8.5,7.695,13.841,9.648
	c-4.824,0.862-9.189,1.436-13.037,1.895c-11.141,1.263-22.283-2.986-29.519-11.543c-37.33-43.992-33.367-98.206-24.58-133.812
	c7.064-28.658,22.168-54.559,43.417-75.061c43.302-41.694,91.371-46.059,121.637-43.302c-27.796,2.527-61.622,13.152-92.922,43.302
	C237.201,102.551,222.097,128.452,215.033,157.11z"/>
<path style="fill:#44C4A1;" d="M380.317,206.557c-26.475,66.504-89.189,87.408-126.863,94.013
	c-5.341-1.953-10.108-5.226-13.841-9.648c-37.329-43.992-33.367-98.206-24.58-133.812c7.064-28.658,22.168-54.559,43.417-75.061
	c31.299-30.151,65.125-40.776,92.922-43.302c18.55,1.608,30.38,5.915,30.38,5.915c-2.814,14.702,2.642,55.018,6.72,80.919
	C392.779,152.86,390.539,180.943,380.317,206.557z"/>
<path style="fill:#3EA69B;" d="M258.369,283.803c11.136,45.125,16.158,113.831-31.151,169.582
	c-4.731,5.604-10.772,9.753-17.541,12.227c6.114,1.092,11.645,1.82,16.522,2.402c14.12,1.601,28.24-3.785,37.41-14.629
	c47.308-55.751,42.286-124.458,31.151-169.582c-8.952-36.319-28.094-69.143-55.023-95.126
	c-54.878-52.84-115.796-58.371-154.153-54.878c35.227,3.202,78.095,16.667,117.762,54.878
	C230.275,214.66,249.417,247.485,258.369,283.803z"/>
<path style="fill:#44C4A1;" d="M48.902,346.469c33.552,84.282,113.031,110.774,160.776,119.144
	c6.769-2.475,12.81-6.623,17.541-12.227c47.308-55.751,42.286-124.458,31.151-169.582c-8.952-36.319-28.094-69.143-55.023-95.126
	c-39.666-38.211-82.535-51.676-117.762-54.878c-23.509,2.038-38.502,7.497-38.502,7.497c3.566,18.632-3.348,69.725-8.516,102.55
	C33.108,278.417,35.946,314.008,48.902,346.469z"/>
<path style="fill:#3EA69B;" d="M209.924,283.803c-11.136,45.125-16.158,113.831,31.151,169.582
	c4.731,5.604,10.772,9.753,17.541,12.227c-6.114,1.092-11.645,1.82-16.522,2.402c-14.12,1.601-28.24-3.785-37.41-14.629
	c-47.308-55.751-42.286-124.458-31.151-169.582c8.952-36.319,28.094-69.143,55.023-95.126
	c54.878-52.84,115.796-58.371,154.153-54.878c-35.227,3.202-78.095,16.667-117.762,54.878
	C238.018,214.66,218.876,247.485,209.924,283.803z"/>
<path style="fill:#44C4A1;" d="M419.391,346.469c-33.552,84.282-113.031,110.774-160.776,119.144
	c-6.769-2.475-12.81-6.623-17.541-12.227c-47.308-55.751-42.286-124.458-31.151-169.582c8.952-36.319,28.094-69.143,55.023-95.126
	c39.666-38.211,82.535-51.676,117.762-54.878c23.509,2.038,38.502,7.497,38.502,7.497c-3.566,18.632,3.348,69.725,8.516,102.55
	C435.185,278.417,432.346,314.008,419.391,346.469z"/>
<g>
	<path style="fill:#3EA69B;" d="M331.427,324.132c31.68,1.866,56.329-10.885,56.329-10.885l-54.853,7.215
		c24.455-60.693,31.235-112.099,31.235-112.099l-37.173,88.641l-26.981-55.188c0,0,3.389,31.214,25.898,57.771l-19.687,46.945
		l-26.406-42.947c0,0,3.358,24.411,25.372,45.413l-30.796,73.434c11.332-13.91,21.294-28.621,30.055-43.551
		c29.914,6.694,53.138-4.729,53.138-4.729l-52.317,3.32C315.595,359.653,324.245,341.55,331.427,324.132z"/>
	<path style="fill:#3EA69B;" d="M101.128,294.877c-24.517-3.191-41.523-16.544-41.523-16.544l40.928,13.519
		c-9.867-50.015-7.56-90.345-7.56-90.345l15.525,73.258l28.696-38.302c0,0-7.145,23.394-28.244,40.437l8.222,38.798l26.471-29.018
		c0,0-6.129,18.192-26.039,31.056l12.862,60.69c-6.644-12.298-12.123-25.009-16.651-37.713
		c-23.87,0.761-39.978-11.367-39.978-11.367l39.555,10.169C108.066,324.37,104.085,309.254,101.128,294.877z"/>
</g>
<g>
</g>
<g>
</g>
<g>
</g>
<g>
</g>
<g>
</g>
<g>
</g>
<g>
</g>
<g>
</g>
<g>
</g>
<g>
</g>
<g>
</g>
<g>
</g>
<g>
</g>
<g>
</g>
<g>
</g>
</svg>
