<?xml version="1.0" encoding="iso-8859-1"?>
<!-- Generator: Adobe Illustrator 19.0.0, SVG Export Plug-In . SVG Version: 6.00 Build 0)  -->
<svg version="1.1" id="Capa_1" xmlns="http://www.w3.org/2000/svg" xmlns:xlink="http://www.w3.org/1999/xlink" x="0px" y="0px"
	 viewBox="0 0 468.293 468.293" style="enable-background:new 0 0 468.293 468.293;" xml:space="preserve">
<path style="fill:#64798A;" d="M445.408,17.09c-2.651-3.453-7.603-4.119-11.068-1.461c-2.522,1.936-254.167,193.534-427.476,216.275
	c-4.316,0.567-7.363,4.532-6.795,8.855c0.518,3.971,3.909,6.863,7.813,6.863c0.345,0,0.691-0.018,1.042-0.068
	c43.64-5.725,91.492-21.446,139.001-41.978c-4.848,9.639-8.972,22.944-7.627,39.389l12.448-2.826
	c-1.458-27.639,15.299-44.04,16.222-44.918c0.486-0.456,0.802-1.009,1.112-1.561c47.611-22.061,94.156-48.199,134.984-73.215
	c-2.536,6.503-4.298,14.773-3.277,24.561l8.782-2.202c-1.472-19.576,10.15-31.472,10.79-32.108c0.193-0.189,0.284-0.429,0.435-0.641
	c68.56-43.081,117.627-80.428,122.151-83.897C447.405,25.507,448.059,20.55,445.408,17.09z"/>
<path style="fill:#2D93BA;" d="M247.037,327.52c13.465,59.297-9.496,115.015-51.244,124.495c-2.463,0.559-4.906,0.921-7.378,1.158
	c-39.597,3.552-79.986-35.45-92.668-91.299c-12.681-55.848,6.903-108.469,44.151-122.366c2.332-0.853,4.691-1.584,7.154-2.143
	C188.801,227.886,233.573,268.224,247.037,327.52z"/>
<ellipse transform="matrix(-0.2214 -0.9752 0.9752 -0.2214 -137.2223 583.0948)" style="fill:#27A2DB;" cx="164.157" cy="346.326" rx="109.55" ry="70.15"/>
<g>
	<path style="fill:#E1E6E9;" d="M132.658,390.51c-1.93,0.438-4.004-0.368-5.092-2.151c-7.461-12.223-12.929-25.803-16.248-40.364
		c-0.579-2.55,1.013-5.092,3.562-5.671c0.006-0.001,0.006-0.001,0.006-0.001c2.55-0.579,5.086,1.014,5.665,3.563
		c3.092,13.563,8.174,26.194,15.1,37.539c1.361,2.233,0.656,5.144-1.576,6.51C133.626,390.208,133.145,390.399,132.658,390.51z"/>
	<path style="fill:#E1E6E9;" d="M194.337,427.418c-0.012,0.003-0.03,0.007-0.042,0.01c-19.941,4.326-36.961-6.776-45.33-13.779
		c-2.006-1.676-2.273-4.663-0.591-6.669c1.68-2.013,4.669-2.274,6.669-0.591c7.041,5.888,21.244,15.252,37.239,11.785
		c2.561-0.556,5.079,1.066,5.634,3.621C198.468,424.337,196.868,426.843,194.337,427.418z"/>
</g>
<path style="fill:#2D93BA;" d="M378.787,203.854c10.489,41.835-4.909,81.709-34.362,89.093c-1.738,0.436-3.465,0.731-5.213,0.938
	c-28.022,3.147-57.281-23.869-67.16-63.271c-9.878-39.401,3.174-77.026,29.367-87.47c1.64-0.642,3.301-1.197,5.039-1.633
	C335.91,134.126,368.298,162.02,378.787,203.854z"/>
<ellipse transform="matrix(-0.2432 -0.97 0.97 -0.2432 186.2554 582.3538)" style="fill:#27A2DB;" cx="320.314" cy="218.515" rx="77.705" ry="49.758"/>
<g>
	<path style="fill:#E1E6E9;" d="M298.679,250.333c-1.362,0.341-2.845-0.198-3.645-1.444c-5.485-8.549-9.577-18.092-12.162-28.365
		c-0.451-1.799,0.637-3.627,2.436-4.078l0.004-0.001c1.799-0.451,3.623,0.638,4.074,2.437c2.408,9.569,6.211,18.445,11.303,26.38
		c1,1.562,0.547,3.637-1.014,4.641C299.361,250.104,299.022,250.247,298.679,250.333z"/>
	<path style="fill:#E1E6E9;" d="M343.001,275.527c-0.008,0.002-0.021,0.005-0.03,0.007c-14.072,3.384-26.317-4.219-32.362-9.052
		c-1.449-1.156-1.686-3.27-0.525-4.72c1.159-1.454,3.274-1.687,4.72-0.525c5.086,4.064,15.306,10.479,26.593,7.766
		c1.807-0.435,3.619,0.675,4.053,2.478C345.882,273.277,344.787,275.08,343.001,275.527z"/>
</g>
<path style="fill:#44C4A1;" d="M218.867,42.54l-0.001-0.002c-43.912,26.702-57.862,83.945-31.159,127.858l0.001,0.001l0.001-0.001
	C231.618,143.694,245.569,86.45,218.867,42.54z"/>
<path style="fill:#3EA69B;" d="M214.167,61.821l-22.968,94.249C191.198,156.069,193.948,90.063,214.167,61.821z"/>
<path style="fill:#44C4A1;" d="M354.15,90.267l-0.001-0.002c49.605-13.437,100.709,15.884,114.143,65.49l0,0.001l-0.001,0
	C418.687,169.192,367.584,139.871,354.15,90.267z"/>
<path style="fill:#3EA69B;" d="M371.364,100.142l84.139,48.275C455.503,148.417,405.763,104.94,371.364,100.142z"/>
<g>
</g>
<g>
</g>
<g>
</g>
<g>
</g>
<g>
</g>
<g>
</g>
<g>
</g>
<g>
</g>
<g>
</g>
<g>
</g>
<g>
</g>
<g>
</g>
<g>
</g>
<g>
</g>
<g>
</g>
</svg>
