<?xml version="1.0" encoding="iso-8859-1"?>
<!-- Generator: Adobe Illustrator 19.0.0, SVG Export Plug-In . SVG Version: 6.00 Build 0)  -->
<svg version="1.1" id="Capa_1" xmlns="http://www.w3.org/2000/svg" xmlns:xlink="http://www.w3.org/1999/xlink" x="0px" y="0px"
	 viewBox="0 0 468.293 468.293" style="enable-background:new 0 0 468.293 468.293;" xml:space="preserve">
<path style="fill:#DC8744;" d="M466.095,382.194c-3.718-13.969-11.456-25.726-20.35-35.725
	c-8.944-10.05-19.144-18.239-28.992-26.279l-29.595-23.968l-48.236-38.891c7.587,1.156,15.375,2.01,23.264,1.96
	c12.712,0.151,26.078-2.16,37.936-8.19c11.707-5.879,22.41-14.873,28.841-27.334c3.216-6.13,4.974-13.215,4.974-20.349
	c0.05-7.186-1.859-14.321-5.075-20.551c-6.633-12.461-17.838-21.556-30.55-26.63c-7.186-2.764-14.572-4.522-21.857-5.678
	c-4.12-0.703-8.291-1.155-12.361-1.607c-1.206-0.101-2.462-0.251-3.668-0.352c-11.055-1.005-21.807-1.407-32.208-2.965
	c-1.407-0.1-2.764-0.352-4.07-0.553c-2.06-0.352-4.12-0.704-6.08-1.156c-9.547-1.809-18.993-4.522-28.037-8.04
	c-13.416-4.974-26.178-11.808-37.886-20.199c-2.663-1.96-5.276-3.969-7.838-6.13c-4.623-3.718-8.994-7.688-13.114-12.009
	c-8.24-8.441-15.577-17.787-21.706-27.836c-1.759-2.764-3.417-5.728-5.025-8.743c-1.809-3.216-3.467-6.582-5.226-9.949
	c-2.361-4.472-4.773-9.095-7.486-13.617c-3.316-5.426-7.035-10.853-11.557-15.777c-4.572-5.074-9.949-9.245-15.928-12.511
	c-11.908-6.582-27.234-8.341-40.096-2.713c-12.964,5.326-22.31,16.179-27.937,27.937c-5.628,11.858-8.24,25.224-6.231,38.489
	c1.759,11.808,7.336,22.711,13.918,31.906c1.507,2.211,3.115,4.321,4.623,6.432c-3.568-2.663-7.236-5.125-11.155-7.437
	c-11.356-6.733-24.671-11.305-38.489-10.853C45.282,93.428,31.967,97.8,20.812,105.94c-11.104,7.989-19.696,21.003-20.651,35.423
	c-1.206,14.37,4.472,28.49,13.818,38.84c9.296,10.401,21.003,17.184,32.258,23.314l3.316,1.809l6.984,3.668l42.357,22.661
	l8.693,4.673l5.828,3.115l16.833,8.994c5.376,3.065,11.657,5.929,15.827,8.893c4.522,3.015,7.185,6.985,6.683,9.095
	c-0.351,2.864-2.663,5.477-7.386,6.884c-4.773,1.457-10.3,1.759-16.682,1.708c-6.582,0.05-13.215,0.452-19.948,1.356
	c-13.315,1.759-26.781,5.678-39.041,13.014c-12.059,7.336-22.511,17.686-29.043,31.152c-3.165,6.784-5.226,14.471-5.125,22.51
	c0,7.939,2.412,16.079,6.532,22.812c8.341,13.768,21.807,22.109,35.675,26.53c6.884,2.16,14.471,3.316,21.505,3.416
	c7.035,0.101,13.969-0.402,20.601-1.306c11.908-1.658,23.264-4.271,34.268-6.934c3.668-0.854,7.185-1.658,10.803-2.462l0.05-0.05
	c9.898-2.261,19.545-4.271,29.243-5.225c11.305-1.357,22.761-1.659,34.067-0.905c4.572,0.252,9.145,0.704,13.667,1.407
	c8.039,1.105,15.928,2.763,23.666,4.974c23.114,6.532,44.669,17.938,62.607,33.766c5.426,4.824,10.702,10.099,16.38,15.375
	c2.914,2.713,5.929,5.527,9.145,8.14c0.904,0.904,1.859,1.658,2.864,2.462c10.251,8.542,23.314,16.28,37.584,18.893
	c14.12,2.864,29.847,1.206,42.911-6.331c13.114-7.386,22.46-19.948,27.083-33.414C468.859,410.683,469.612,396.062,466.095,382.194z
	 M449.162,418.723c-3.869,10.401-11.054,19.194-20.3,24.018c-9.195,4.975-20.35,5.98-31.002,3.567
	c-10.753-2.311-20.3-7.939-29.394-15.627c-0.854-0.754-1.758-1.457-2.613-2.211c-3.417-3.015-6.783-6.281-10.25-9.647
	c-4.673-4.573-9.447-9.346-14.521-14.019c-19.897-18.089-44.116-31.354-69.792-38.941c-7.738-2.311-15.627-4.17-23.666-5.477
	c-4.321-0.804-8.643-1.407-13.064-1.809c-14.17-1.507-28.439-1.507-42.609,0c-6.331,0.603-12.561,1.508-18.591,2.713
	c-5.377,0.955-10.602,2.161-15.727,3.367c-14.069,3.316-27.434,7.034-40.649,8.793c-5.879,0.754-11.708,1.256-17.386,1.206
	c-5.678,0.05-10.752-0.603-15.928-2.06c-10.301-2.864-19.797-8.843-24.922-16.883c-5.225-7.939-5.577-18.039-1.507-27.636
	c4.171-9.597,12.059-18.39,21.355-24.47c9.446-6.13,20.701-9.848,32.459-11.758c5.879-0.955,11.909-1.457,17.988-1.708
	c6.281-0.251,13.617-0.452,20.953-3.065c3.718-1.306,7.587-3.266,10.903-6.683c3.266-3.467,5.477-7.788,5.929-12.863
	c0.352-5.175-1.658-10.2-4.271-13.516c-2.613-3.518-5.627-5.929-8.693-7.989c-6.33-4.221-11.757-6.331-17.486-9.447l-16.933-8.692
	l-2.261-1.156l-12.11-6.18l-39.443-20.249l-11.004-5.577l-2.914-1.508c-11.105-5.779-21.756-11.808-29.646-20.4
	c-7.688-8.29-12.361-19.596-11.657-30.751c0.553-11.104,6.884-21.455,16.179-28.439c9.245-7.034,20.953-11.205,32.66-11.758
	c11.658-0.704,23.516,3.015,34.017,8.994c10.602,5.979,20.199,14.169,30.298,21.957l0.05,0.05c1.106,0.904,2.713,1.106,4.07,0.352
	c1.859-0.955,2.563-3.266,1.608-5.125c-5.477-10.301-12.813-18.943-18.893-27.837c-6.13-8.944-10.752-18.39-12.16-28.641
	c-1.457-11.205,1.106-23.013,6.231-33.162c5.176-10.2,13.366-18.792,23.465-22.661c10.049-4.019,21.505-2.513,31.002,2.965
	c9.697,5.377,16.682,14.37,22.51,24.721c2.11,3.719,4.12,7.638,6.13,11.557c1.96,4.07,4.02,8.24,6.181,12.411
	c1.508,2.914,3.115,5.828,4.824,8.742c6.431,11.054,14.069,21.405,22.912,30.651c3.97,4.171,8.14,8.14,12.562,11.858
	c3.366,2.965,6.934,5.728,10.602,8.391c12.411,8.994,26.078,16.33,40.398,21.807c8.391,3.165,17.033,5.678,25.826,7.537
	c3.718,0.804,7.436,1.508,11.205,2.06c0.804,0.101,1.658,0.251,2.462,0.352c11.255,1.708,22.46,2.06,33.263,2.915
	c0.502,0,1.005,0.1,1.508,0.1c4.371,0.352,8.793,0.754,13.114,1.357c7.386,1.055,14.521,2.562,21.154,5.074
	c10.099,3.97,19.244,11.205,24.369,20.451c5.176,9.195,5.427,20.3,0.703,29.947c-4.673,9.697-13.416,17.636-23.415,23.013
	c-9.949,5.627-21.405,8.14-33.263,8.542c-11.758,0.503-23.817-1.005-36.027-2.663l-0.1,0c-1.256-0.151-2.613,0.301-3.467,1.357
	c-1.206,1.507-1.055,3.668,0.252,4.974l0.301,0.301l57.13,50.397l28.641,25.123c9.547,8.341,18.792,16.682,26.53,25.826
	c7.688,9.095,13.868,19.396,16.38,30.148C454.086,396.514,453.132,408.423,449.162,418.723z"/>
<path style="fill:#FCD462;" d="M94.131,72.218c-3.528-23.895,10.301-54.659,34.907-62.242c18.182-5.603,36.059,3.059,47.274,15.866
	c11.216,12.808,17.54,29.358,26.005,44.299c25.579,45.147,72.456,75.801,126.138,82.485c22.503,2.802,46.403,1.669,67.017,9.456
	c20.615,7.786,37.492,28.292,31.302,51.456c-5.159,19.305-24.855,33.856-44.198,38.689c-19.343,4.833-38.561,1.984-57.164-0.892
	c29.207,24.634,58.414,49.269,87.621,73.903c18.015,15.195,36.631,31.249,44.468,54.093c7.837,22.844,1.056,54.538-21.714,69.221
	c-18.945,12.217-42.537,8.913-59.614-1.021s-29.704-25.444-44.56-38.237c-39.467-33.986-96.116-48.187-152.44-38.213
	c-27.747,4.914-55.76,15.417-82.989,14.07c-27.229-1.346-54.193-20.144-50.932-47.893c2.096-17.833,16.455-34.321,33.067-43.2
	c16.611-8.879,35.119-11.281,52.803-11.539c10.323-0.151,23.828-1.761,27.797-11.868c3.938-10.031-5.795-17.781-14.353-22.256
	c-30.213-15.798-60.426-31.597-90.64-47.395c-13.593-7.108-27.456-14.427-37.253-26.017s-14.936-28.462-9.019-44.478
	c8.851-23.957,39.118-36.408,62.533-32.53c22.881,3.79,38.874,18.596,55.744,31.927C115.465,110.363,97.763,96.824,94.131,72.218z"
	/>
<g>
	<path style="fill:#DC8744;" d="M105.895,145.948c-2.211,6.833-15.793,22.347-19.21,27.975c-3.467,5.577-7.286,10.803-11.406,15.827
		c-3.065,3.668-6.281,7.185-9.648,10.552c-1.105,1.206-2.311,2.412-3.467,3.568c-0.301,0.301-0.653,0.653-1.005,0.904
		c-1.457,1.457-3.065,2.864-4.623,4.221l-6.984-3.668c0.653-1.859,1.457-3.668,2.311-5.427c0.452-0.955,0.854-1.859,1.306-2.714
		c0.452-0.854,0.904-1.708,1.457-2.462c2.814-5.025,6.13-9.648,9.698-14.019c4.221-5.125,8.843-9.848,13.918-14.119
		C83.419,162.416,99.262,148.762,105.895,145.948z"/>
	<path style="fill:#DC8744;" d="M143.011,186.233c-2.211,6.833-5.376,12.712-8.793,18.34c-3.467,5.577-7.285,10.803-11.406,15.727
		c-1.809,2.211-3.668,4.372-5.628,6.432c-1.457,1.658-3.015,3.316-4.623,4.924c-0.955,0.955-1.959,1.859-2.914,2.814
		c-0.653,0.653-1.357,1.256-2.06,1.859l-8.693-4.673c0.603-1.306,1.206-2.613,1.859-3.869c0.301-0.603,0.653-1.256,1.005-1.809
		c1.055-1.859,2.11-3.718,3.316-5.427c2.06-3.266,4.371-6.381,6.783-9.296c4.171-5.075,8.843-9.747,13.968-14.069
		C130.952,192.966,136.429,189.097,143.011,186.233z"/>
	<path style="fill:#DC8744;" d="M177.43,327.073c0.603,7.135-0.1,13.768-1.055,20.249c-0.754,4.773-1.809,9.446-3.015,13.968
		c-0.452,1.658-0.955,3.366-1.457,4.975c-0.653,2.261-1.407,4.522-2.261,6.683c-1.307,3.919-2.814,7.738-4.422,11.456
		c-0.1,0.201-0.201,0.402-0.251,0.653l-0.05,0.05c-3.618,0.804-7.135,1.608-10.803,2.462c0-2.01,0.151-3.97,0.251-5.879
		c0.201-1.809,0.402-3.618,0.754-5.377c0.553-3.969,1.407-7.838,2.512-11.657c0.251-0.854,0.452-1.658,0.704-2.512
		c1.859-6.281,4.371-12.411,7.436-18.29C168.888,337.927,172.456,332.249,177.43,327.073z"/>
	<path style="fill:#DC8744;" d="M257.959,308.629c0.603,7.135-8.124,39.096-9.129,45.628c-0.351,2.06-0.703,4.12-1.206,6.13
		c-0.653,3.367-1.507,6.733-2.462,9.999c-0.251,0.955-0.502,1.909-0.804,2.814c-0.754,2.362-1.558,4.773-2.412,7.135
		c-4.522-0.703-9.095-1.156-13.667-1.407c0.653-3.367,1.507-6.633,2.462-9.899c0.05-0.151,0.05-0.251,0.1-0.402
		c1.055-3.366,2.311-6.733,3.718-10.049c1.106-2.713,2.311-5.326,3.668-7.888C241.393,344.811,252.934,313.755,257.959,308.629z"/>
	<path style="fill:#DC8744;" d="M392.461,387.57c-2.06,6.884-13.795,21.255-17.061,26.932c-2.914,4.924-6.08,9.597-9.547,13.969
		c-0.502,0.704-1.005,1.407-1.558,2.06c-1.407,1.809-2.814,3.517-4.321,5.226c-1.96,2.361-4.02,4.623-6.23,6.833
		c-3.216-2.613-6.231-5.427-9.145-8.14c1.608-2.814,3.316-5.527,5.226-8.14c1.055-1.558,2.211-3.116,3.367-4.573
		c0.804-1.005,1.608-2.01,2.412-2.914c3.417-4.12,7.135-7.939,11.255-11.456C371.883,403.046,385.979,390.534,392.461,387.57z"/>
	<path style="fill:#DC8744;" d="M199.237,51.02c1.759,3.366,3.417,6.733,5.226,9.949c-0.05,0.05-0.05,0.05-0.101,0.101
		c-1.708,1.105-3.417,2.211-5.175,3.266c-1.809,1.106-3.618,2.11-5.427,3.116c-2.111,1.105-4.221,2.211-6.331,3.216
		c-5.829,2.814-11.758,5.225-17.888,7.336c-6.13,2.211-12.26,3.819-19.094,5.728c3.166-6.583,8.592-11.306,13.767-15.476
		c5.376-4.07,11.105-7.486,17.034-10.401c2.11-1.005,4.17-1.96,6.331-2.814c1.909-0.804,3.819-1.507,5.728-2.111
		C195.217,52.226,197.227,51.623,199.237,51.02z"/>
	<path style="fill:#DC8744;" d="M252.146,115.688c-0.653,1.055-1.306,2.211-2.01,3.316c-0.553,0.854-1.106,1.709-1.658,2.462
		c-1.206,2.01-2.513,3.818-3.819,5.628c-1.909,2.613-3.919,5.125-5.979,7.587c-4.171,4.975-8.592,9.597-13.265,14.069
		c-4.773,4.472-29.53,29.068-35.057,33.59c0.251-7.286,23.149-34.343,26.164-40.373c3.165-5.879,7.034-11.355,11.255-16.38
		c2.01-2.412,4.07-4.673,6.281-6.884c1.608-1.608,3.216-3.216,4.924-4.623c0.904-0.904,1.859-1.658,2.814-2.512
		c0.854-0.653,1.708-1.306,2.512-2.01C246.87,111.718,249.483,113.728,252.146,115.688z"/>
	<path style="fill:#DC8744;" d="M328.219,145.634c-0.352,1.457-0.704,3.015-1.055,4.472c-0.201,0.704-0.402,1.507-0.603,2.211
		c-0.603,2.211-1.306,4.422-2.01,6.532c-1.106,3.316-2.311,6.532-3.568,9.697c-2.412,6.03-5.175,11.808-8.341,17.486
		c-3.116,5.728-16.749,38.581-20.567,44.51c-2.06-6.985,9.01-41.596,10.066-48.179c1.256-6.683,3.166-13.014,5.678-19.144
		c0.904-2.311,1.96-4.573,3.065-6.784c1.005-2.11,2.11-4.22,3.316-6.23c0.854-1.558,1.759-3.065,2.714-4.522
		c0.402-0.603,0.754-1.156,1.156-1.758c1.96,0.452,4.02,0.804,6.08,1.156C325.456,145.282,326.812,145.534,328.219,145.634z"/>
	<path style="fill:#DC8744;" d="M376.456,150.558c-0.553,2.161-1.156,4.271-1.809,6.331c-0.704,2.111-1.457,4.271-2.211,6.331
		c-0.553,1.557-1.206,3.115-1.809,4.622c-2.462,5.98-5.226,11.758-8.341,17.486c-3.116,5.728-6.582,11.004-10.351,16.983
		c-2.06-6.984-1.206-14.069-0.151-20.752c1.256-6.582,3.216-12.964,5.678-19.043c0.1-0.301,0.201-0.503,0.351-0.754
		c0.904-2.211,1.809-4.321,2.914-6.431c1.055-2.161,2.161-4.271,3.367-6.381C368.165,149.403,372.335,149.855,376.456,150.558z"/>
</g>
<g>
</g>
<g>
</g>
<g>
</g>
<g>
</g>
<g>
</g>
<g>
</g>
<g>
</g>
<g>
</g>
<g>
</g>
<g>
</g>
<g>
</g>
<g>
</g>
<g>
</g>
<g>
</g>
<g>
</g>
</svg>
