<?xml version="1.0" encoding="iso-8859-1"?>
<!-- Generator: Adobe Illustrator 19.0.0, SVG Export Plug-In . SVG Version: 6.00 Build 0)  -->
<svg version="1.1" id="Capa_1" xmlns="http://www.w3.org/2000/svg" xmlns:xlink="http://www.w3.org/1999/xlink" x="0px" y="0px"
	 viewBox="0 0 468.293 468.293" style="enable-background:new 0 0 468.293 468.293;" xml:space="preserve">
<g>
	<path style="fill:#3A556A;" d="M247.612,468.293c-1.28,0-2.495-0.754-3.024-2.007l-10.442-24.725l-10.442,24.725
		c-0.702,1.671-2.636,2.45-4.3,1.748c-1.671-0.706-2.453-2.63-1.748-4.3l13.466-31.889c1.026-2.437,5.022-2.437,6.048,0
		l13.466,31.889c0.706,1.671-0.077,3.595-1.748,4.3C248.472,468.209,248.039,468.293,247.612,468.293z"/>
	<path style="fill:#3A556A;" d="M280.448,463.005c-0.555,0-1.116-0.141-1.632-0.436l-44.669-25.661l-44.669,25.661
		c-1.578,0.898-3.585,0.359-4.483-1.212c-0.904-1.571-0.359-3.579,1.212-4.483l46.304-26.601c1.013-0.584,2.258-0.584,3.271,0
		l46.304,26.601c1.571,0.904,2.117,2.912,1.212,4.483C282.692,462.414,281.586,463.005,280.448,463.005z"/>
</g>
<ellipse style="fill:#64798A;" cx="234.146" cy="423.087" rx="60.684" ry="24.083"/>
<path style="fill:#EBF0F3;" d="M388.305,237.209C294.114,176.24,256.606,66.571,242.338,3.716c-1.125-4.955-15.258-4.955-16.383,0
	C211.687,66.57,174.179,176.24,79.988,237.209c-137.299,88.87,43.357,191.131,154.158,188.695
	C344.948,428.34,525.604,326.078,388.305,237.209z"/>
<path style="fill:#D5D6DB;" d="M341.307,237.209C275.832,176.24,249.759,66.571,239.84,3.716c-0.781-4.955-10.607-4.955-11.388,0
	c-9.918,62.855-35.991,172.525-101.466,233.493c-95.442,88.87,30.139,191.131,107.16,188.695
	C311.168,428.34,436.748,326.078,341.307,237.209z"/>
<path style="fill:#EBF0F3;" d="M283.653,237.209C253.405,176.24,241.359,66.571,236.777,3.716c-0.361-4.955-4.9-4.955-5.261,0
	c-4.582,62.855-16.628,172.525-46.876,233.493c-44.093,88.87,13.923,191.131,49.507,188.695
	C269.73,428.34,327.746,326.078,283.653,237.209z"/>
<g>
</g>
<g>
</g>
<g>
</g>
<g>
</g>
<g>
</g>
<g>
</g>
<g>
</g>
<g>
</g>
<g>
</g>
<g>
</g>
<g>
</g>
<g>
</g>
<g>
</g>
<g>
</g>
<g>
</g>
</svg>
