<?xml version="1.0" encoding="iso-8859-1"?>
<!-- Generator: Adobe Illustrator 19.0.0, SVG Export Plug-In . SVG Version: 6.00 Build 0)  -->
<svg version="1.1" id="Capa_1" xmlns="http://www.w3.org/2000/svg" xmlns:xlink="http://www.w3.org/1999/xlink" x="0px" y="0px"
	 viewBox="0 0 468.279 468.279" style="enable-background:new 0 0 468.279 468.279;" xml:space="preserve">
<polygon style="fill:#44C4A1;" points="243.962,135.867 272.185,150.415 228.477,162.279 112.84,193.748 95.669,164.09 
	82.058,177.951 73.753,157.096 68.383,164.09 34.791,166.65 43.533,146.981 34.791,132.121 68.383,114.638 62.514,102.088 
	90.924,102.088 74.94,90.099 80.871,83.543 50.026,72.242 67.572,62.814 71.943,60.441 53.273,45.643 67.197,44.457 60.141,22.54 
	81.433,39.087 81.433,21.916 100.54,39.087 110.967,21.354 123.517,52.699 131.197,38.525 152.489,63.438 146.62,47.391 
	156.485,47.391 146.62,21.916 164.352,22.54 160.231,0 182.148,19.543 185.082,0 194.573,52.699 224.169,52.699 215.303,83.543 
	232.473,83.543 229.539,114.638 276.93,121.569 "/>
<path style="fill:#3EA69B;" d="M243.962,135.867l28.223,14.548l-43.707,11.864c-11.176-14.861-12.55-37.089-27.348-48.64
	c2.997-7.306,5.994-14.673,8.991-22.041c-5.058,0.562-10.053,1.124-15.048,1.686c2.997-8.242,5.994-16.421,8.929-24.663
	c-4.558,3.247-9.179,6.494-13.737,9.74c-3.934-10.427-7.867-20.855-11.739-31.282c0.937,7.805-4.558,16.546-12.613,17.608
	c-0.999,6.619-1.998,13.237-2.934,19.856c-10.615-5.869-21.292-11.739-31.906-17.608c-2.186,2.997-4.433,6.057-6.681,9.116
	c-5.807-7.68-11.301-16.796-18.17-23.54c-6.743,6.494-9.49,16.734-20.23,13.425c-7.056-2.186-12.363-3.059-18.42-3.122l4.371-2.373
	L53.273,45.643l13.924-1.186L60.141,22.54l21.292,16.546V21.916l19.106,17.171l10.427-17.733l12.55,31.345l7.68-14.174
	l21.292,24.913l-5.869-16.047h9.865l-9.865-25.475l17.732,0.624L160.231,0l21.916,19.543L185.082,0l9.491,52.699h29.596
	l-8.866,30.845h17.171l-2.935,31.095l47.391,6.931L243.962,135.867z"/>
<path style="fill:#3A556A;" d="M386.987,8.853v30.112c0,0-120.093,38.575-136.652,164.664
	C250.335,203.629,214.216,104.406,386.987,8.853z"/>
<circle style="fill:#27A2DB;" cx="161.915" cy="166.155" r="48.746"/>
<ellipse style="fill:#E1E6E9;" cx="183.207" cy="156.602" rx="9.029" ry="18.051"/>
<circle style="fill:#2D93BA;" cx="247.063" cy="166.155" r="48.746"/>
<ellipse style="fill:#E1E6E9;" cx="268.355" cy="156.602" rx="9.029" ry="18.051"/>
<circle style="fill:#27A2DB;" cx="332.187" cy="166.155" r="48.746"/>
<ellipse style="fill:#E1E6E9;" cx="353.46" cy="156.602" rx="9.029" ry="18.051"/>
<circle style="fill:#27A2DB;" cx="161.915" cy="291.72" r="48.746"/>
<ellipse style="fill:#E1E6E9;" cx="183.207" cy="282.186" rx="9.029" ry="18.051"/>
<circle style="fill:#2D93BA;" cx="247.063" cy="291.72" r="48.746"/>
<ellipse style="fill:#E1E6E9;" cx="268.355" cy="282.186" rx="9.029" ry="18.051"/>
<circle style="fill:#27A2DB;" cx="332.187" cy="291.72" r="48.746"/>
<ellipse style="fill:#E1E6E9;" cx="353.46" cy="282.186" rx="9.029" ry="18.051"/>
<circle style="fill:#2D93BA;" cx="210.661" cy="356.719" r="48.746"/>
<ellipse style="fill:#E1E6E9;" cx="231.959" cy="347.166" rx="9.029" ry="18.051"/>
<circle style="fill:#2D93BA;" cx="295.797" cy="356.719" r="48.746"/>
<ellipse style="fill:#E1E6E9;" cx="317.12" cy="347.166" rx="9.029" ry="18.051"/>
<circle style="fill:#27A2DB;" cx="125.532" cy="226.634" r="48.746"/>
<ellipse style="fill:#E1E6E9;" cx="146.849" cy="217.105" rx="9.029" ry="18.051"/>
<circle style="fill:#2D93BA;" cx="384.742" cy="226.634" r="48.746"/>
<ellipse style="fill:#E1E6E9;" cx="406.033" cy="217.105" rx="9.029" ry="18.051"/>
<circle style="fill:#2D93BA;" cx="210.661" cy="226.634" r="48.746"/>
<ellipse style="fill:#E1E6E9;" cx="231.959" cy="217.105" rx="9.029" ry="18.051"/>
<circle style="fill:#27A2DB;" cx="295.797" cy="226.634" r="48.746"/>
<ellipse style="fill:#E1E6E9;" cx="317.12" cy="217.105" rx="9.029" ry="18.051"/>
<circle style="fill:#27A2DB;" cx="259.301" cy="419.533" r="48.746"/>
<ellipse style="fill:#E1E6E9;" cx="280.593" cy="410.042" rx="9.029" ry="18.051"/>
<g>
</g>
<g>
</g>
<g>
</g>
<g>
</g>
<g>
</g>
<g>
</g>
<g>
</g>
<g>
</g>
<g>
</g>
<g>
</g>
<g>
</g>
<g>
</g>
<g>
</g>
<g>
</g>
<g>
</g>
</svg>
