<?xml version="1.0" encoding="iso-8859-1"?>
<!-- Generator: Adobe Illustrator 19.0.0, SVG Export Plug-In . SVG Version: 6.00 Build 0)  -->
<svg version="1.1" id="Capa_1" xmlns="http://www.w3.org/2000/svg" xmlns:xlink="http://www.w3.org/1999/xlink" x="0px" y="0px"
	 viewBox="0 0 468.293 468.293" style="enable-background:new 0 0 468.293 468.293;" xml:space="preserve">
<path style="fill:#31978C;" d="M231,72.172c-4.91,0-8.893-3.98-8.893-8.893C222.107,28.387,250.494,0,285.383,0
	c4.91,0,8.893,3.98,8.893,8.893s-3.983,8.893-8.893,8.893c-25.081,0-45.49,20.409-45.49,45.493
	C239.893,68.192,235.909,72.172,231,72.172z"/>
<path style="fill:#3EA69B;" d="M341.867,258.679c-25.671-32.549-47.904-71.441-56.086-112.053l-12.272-61.125
	c-3.794-18.735-20.217-32.193-39.367-32.193c-4.15,0-8.241,0.652-12.035,1.897c13.636,4.268,24.308,15.652,27.272,30.296
	l12.272,61.125c8.182,40.611,30.414,79.504,56.085,112.053c17.371,22.055,27.746,49.86,27.746,80.096
	c0,67.409-56.323,122.784-123.021,128.949c1.067,0.119,2.194,0.237,3.261,0.297c75.354,4.802,143.889-54.9,143.889-129.246
	C369.613,308.54,359.238,280.734,341.867,258.679z"/>
<path style="fill:#44C4A1;" d="M345.483,338.776c0,67.409-56.323,122.784-123.021,128.949
	c-63.259-5.514-119.76-57.449-123.554-121.005c-1.897-32.489,8.122-62.607,26.205-86.322
	c26.857-35.276,49.979-76.954,58.754-120.412l10.909-54.485c1.897-9.367,6.936-17.43,13.932-23.122
	c3.913-3.201,8.478-5.691,13.399-7.174c13.636,4.268,24.308,15.652,27.272,30.296l12.272,61.125
	c8.182,40.611,30.414,79.504,56.085,112.053C335.108,280.734,345.483,308.54,345.483,338.776z"/>
<g>
	<path style="fill:#EBF0F3;" d="M136.971,367.481c-3.283,0-6.282-2.2-7.162-5.526c-7.498-28.457-0.88-60.034,17.693-84.464
		c2.478-3.265,7.121-3.896,10.387-1.416c3.254,2.478,3.891,7.127,1.413,10.384c-15.598,20.519-21.41,48-15.158,71.721
		c1.042,3.957-1.32,8.01-5.28,9.055C138.233,367.4,137.597,367.481,136.971,367.481z"/>
	<path style="fill:#EBF0F3;" d="M175.149,420.625c-1.505,0-3.022-0.454-4.331-1.401c-9.235-6.667-17.369-14.567-24.178-23.486
		c-2.478-3.254-1.859-7.903,1.395-10.387c3.254-2.487,7.909-1.859,10.393,1.395c5.923,7.761,13.01,14.645,21.063,20.458
		c3.318,2.397,4.07,7.029,1.673,10.346C179.717,419.56,177.447,420.625,175.149,420.625z"/>
	<path style="fill:#EBF0F3;" d="M227.975,439.963c-0.168,0-0.336-0.006-0.504-0.017c-7.446-0.501-14.943-1.824-22.279-3.934
		c-3.931-1.129-6.201-5.237-5.072-9.168c1.129-3.931,5.217-6.204,9.171-5.075c6.328,1.818,12.778,2.959,19.176,3.39
		c4.082,0.275,7.174,3.807,6.896,7.891C235.102,436.964,231.842,439.963,227.975,439.963z"/>
</g>
<g>
</g>
<g>
</g>
<g>
</g>
<g>
</g>
<g>
</g>
<g>
</g>
<g>
</g>
<g>
</g>
<g>
</g>
<g>
</g>
<g>
</g>
<g>
</g>
<g>
</g>
<g>
</g>
<g>
</g>
</svg>
