<?xml version="1.0" encoding="iso-8859-1"?>
<!-- Generator: Adobe Illustrator 19.0.0, SVG Export Plug-In . SVG Version: 6.00 Build 0)  -->
<svg version="1.1" id="Capa_1" xmlns="http://www.w3.org/2000/svg" xmlns:xlink="http://www.w3.org/1999/xlink" x="0px" y="0px"
	 viewBox="0 0 468.293 468.293" style="enable-background:new 0 0 468.293 468.293;" xml:space="preserve">
<path style="fill:#2D93BA;" d="M245.166,408.567c-77.583,71.526-144.724,62.129-183.099,45.996
	c-17.176-7.257-32.265-18.69-43.229-33.31c-6.474-8.458-11.434-18.012-14.723-28.402c-13.366-42.603,8.092-80.245,31.9-106.663
	c18.273-20.258,40.566-36.39,65-48.607c46.154-23.181,169.733-89.853,235.203-170.464l85.101,39.052l20.153,9.293
	C441.421,219.933,245.166,408.567,245.166,408.567z"/>
<path style="fill:#27A2DB;" d="M225.587,388.988c-77.583,71.526-144.724,62.129-183.099,45.996
	c-8.457-3.55-16.445-8.196-23.65-13.731c-6.474-8.458-11.434-18.012-14.723-28.402c-13.366-42.603,8.092-80.245,31.9-106.663
	c18.273-20.258,40.566-36.39,65-48.607c46.154-23.181,169.733-89.853,235.203-170.464l85.101,39.052
	C409.468,212.206,225.587,388.988,225.587,388.988z"/>
<path style="fill:#44C4A1;" d="M467.533,14.243c-6.469,11.32-19.966,37.381-19.78,58.964c0.062,6.22,1.182,12.004,3.919,16.98
	c0,0,13.559,24.444,1.68,56.289c-1.742,4.603-4.168,8.894-7.091,12.813c-4.913,6.344-18.037,15.736-23.448,23.137
	c-1.307,1.742-2.177,3.359-2.364,4.789c-0.062,0.062-0.062,0.062-0.062,0.125c0-2.426-0.623-61.452,3.732-69.6
	c-0.435,0.311-2.426,1.928-5.66,4.105c-9.889,6.717-31.596,19.157-54.983,18.224c0,0,10.201-41.984,5.1-58.093
	c0,0-49.136,5.66-57.533,12.813c1.058-2.053,15.861-28.611,38.128-41.611c11.879-6.966,25.812-9.516,39.433-7.588
	c1.306,0.187,2.675,0.373,4.105,0.373c0.062,0,0.125,0,0.187,0.062c14.989,0.746,37.753-5.162,56.351-40.491
	c1.43-2.674,4.54-3.919,7.402-2.799l7.961,3.234C467.906,7.277,469.274,11.195,467.533,14.243z"/>
<path style="fill:#EBF0F3;" d="M84.335,351.943c-21.908,14.422-38.222-4.554-30.446-22.054c3.221-7.25,10.177-12.374,17.966-13.879
	c57.951-11.198,118.026-80.962,176.978-119.77C276.505,178.022,145.489,311.684,84.335,351.943z"/>
<path style="fill:#3EA69B;" d="M467.533,14.243c-6.469,11.32-19.966,37.381-19.78,58.964
	c-19.405-16.358-39.247-23.884-54.858-27.181c14.989,0.746,37.753-5.162,56.351-40.491c1.43-2.674,4.54-3.919,7.402-2.799
	l7.961,3.234C467.906,7.277,469.274,11.195,467.533,14.243z"/>
<g>
</g>
<g>
</g>
<g>
</g>
<g>
</g>
<g>
</g>
<g>
</g>
<g>
</g>
<g>
</g>
<g>
</g>
<g>
</g>
<g>
</g>
<g>
</g>
<g>
</g>
<g>
</g>
<g>
</g>
</svg>
