<?xml version="1.0" encoding="iso-8859-1"?>
<!-- Generator: Adobe Illustrator 19.0.0, SVG Export Plug-In . SVG Version: 6.00 Build 0)  -->
<svg version="1.1" id="Capa_1" xmlns="http://www.w3.org/2000/svg" xmlns:xlink="http://www.w3.org/1999/xlink" x="0px" y="0px"
	 viewBox="0 0 468.305 468.305" style="enable-background:new 0 0 468.305 468.305;" xml:space="preserve">
<rect x="113.83" y="0.012" style="fill:#FCD462;" width="21.854" height="115.256"/>
<g>
	<rect x="178.635" y="305.589" style="fill:#E1E6E9;" width="26.143" height="146.469"/>
	<polygon style="fill:#E1E6E9;" points="244.004,468.305 139.426,468.305 139.426,455.405 191.715,436.674 244.004,455.405 	"/>
</g>
<circle style="fill:#F6C358;" cx="292.274" cy="78.436" r="78.436"/>
<g>
	<path style="fill:#FCD462;" d="M286.227,10.767v61.649h-61.648C227.401,39.682,253.494,13.59,286.227,10.767z"/>
	<path style="fill:#FCD462;" d="M224.578,84.441h61.648v61.649C253.494,143.267,227.401,117.174,224.578,84.441z"/>
	<path style="fill:#FCD462;" d="M298.253,84.441h61.649c-2.824,32.733-28.916,58.825-61.649,61.649V84.441z"/>
	<path style="fill:#FCD462;" d="M359.901,72.415h-61.649V10.767C330.986,13.59,357.078,39.682,359.901,72.415z"/>
</g>
<path style="fill:#E1E6E9;" d="M97.595,84.564v154.908c0,51.981,42.139,94.12,94.12,94.12h0c51.981,0,94.12-42.139,94.12-94.12
	V84.564H97.595z"/>
<path style="fill:#E56353;" d="M273.345,148.405l0,88.702c0,43.902-33.668,81.732-77.517,83.895
	c-46.872,2.312-85.746-35.157-85.746-81.533v-85.761c0-5.203,1.885-10.343,5.634-13.951c5.382-5.179,13.225-8.042,20.866-8.05
	c11.185-0.011,21.977,7.621,25.694,18.17c1.634,4.638,2.295,10.151,6.262,13.056c4.729,3.463,11.685,1.099,15.864-3.011
	c4.18-4.11,6.701-9.618,10.566-14.025c3.865-4.407,10.137-7.732,15.512-5.395c4.402,1.914,6.524,6.789,8.966,10.922
	c2.441,4.133,6.686,8.285,11.348,7.143c6.311-1.545,6.573-10.22,9.231-16.149c3.026-6.749,11.087-10.811,18.311-9.227
	C265.564,134.776,273.42,141.009,273.345,148.405z"/>
<g>
	<circle style="fill:#D15241;" cx="148.752" cy="191.326" r="12.488"/>
	<circle style="fill:#D15241;" cx="204.797" cy="203.813" r="12.488"/>
	<circle style="fill:#D15241;" cx="192.309" cy="284.547" r="12.488"/>
	<circle style="fill:#D15241;" cx="237.066" cy="241.277" r="12.488"/>
	<circle style="fill:#D15241;" cx="156.238" cy="247.084" r="12.488"/>
</g>
<g>
</g>
<g>
</g>
<g>
</g>
<g>
</g>
<g>
</g>
<g>
</g>
<g>
</g>
<g>
</g>
<g>
</g>
<g>
</g>
<g>
</g>
<g>
</g>
<g>
</g>
<g>
</g>
<g>
</g>
</svg>
