<?xml version="1.0" encoding="iso-8859-1"?>
<!-- Generator: Adobe Illustrator 19.0.0, SVG Export Plug-In . SVG Version: 6.00 Build 0)  -->
<svg version="1.1" id="Capa_1" xmlns="http://www.w3.org/2000/svg" xmlns:xlink="http://www.w3.org/1999/xlink" x="0px" y="0px"
	 viewBox="0 0 468.311 468.311" style="enable-background:new 0 0 468.311 468.311;" xml:space="preserve">
<path style="fill:#F6C358;" d="M307.264,395.203c88.944,0,161.047-72.103,161.047-161.047S396.208,73.109,307.264,73.109H161.066
	v322.094H307.264z"/>
<circle style="fill:#FCD462;" cx="161.049" cy="234.156" r="161.049"/>
<path style="fill:#DC8744;" d="M225.492,234.125c0,35.623-28.86,64.419-64.419,64.419c-3.028,0-5.927-0.193-8.825-0.644
	c-31.372-4.251-55.594-31.178-55.594-63.774c0-32.531,24.222-59.523,55.594-63.775c2.899-0.451,5.797-0.644,8.825-0.644
	C196.632,169.706,225.492,198.565,225.492,234.125z"/>
<g>
	<path style="fill:#F6C358;" d="M207.712,234.125c0,32.596-24.093,59.458-55.465,63.774c-31.372-4.251-55.594-31.178-55.594-63.774
		c0-32.531,24.222-59.523,55.594-63.775C183.619,174.666,207.712,201.593,207.712,234.125z"/>
	<path style="fill:#F6C358;" d="M166.073,106.213c-0.947-5.085-2.342-10.17-5.008-15.255c-2.666,5.085-4.06,10.17-5.008,15.255
		c-0.942,5.085-1.443,10.17-1.432,15.255c-0.034,5.085,0.479,10.17,1.413,15.255c0.944,5.085,2.345,10.17,5.027,15.255
		c2.682-5.085,4.083-10.17,5.027-15.255c0.934-5.085,1.447-10.17,1.413-15.255C167.516,116.383,167.016,111.299,166.073,106.213z"/>
	<path style="fill:#F6C358;" d="M166.073,331.588c-0.947-5.085-2.342-10.17-5.008-15.255c-2.666,5.085-4.06,10.17-5.008,15.255
		c-0.942,5.085-1.443,10.17-1.432,15.255c-0.034,5.085,0.479,10.17,1.413,15.255c0.944,5.085,2.345,10.17,5.027,15.255
		c2.682-5.085,4.083-10.17,5.027-15.255c0.934-5.085,1.447-10.17,1.413-15.255C167.516,341.758,167.016,336.673,166.073,331.588z"/>
	<path style="fill:#F6C358;" d="M116.731,114.036c-2.821-4.335-6.055-8.5-10.464-12.177c-0.517,5.718,0.141,10.95,1.211,16.01
		c1.075,5.059,2.559,9.948,4.515,14.642c1.914,4.711,4.334,9.213,7.143,13.553c2.818,4.337,6.058,8.499,10.482,12.17
		c0.532-5.724-0.12-10.958-1.194-16.017c-1.083-5.055-2.555-9.95-4.532-14.635C121.956,122.88,119.548,118.373,116.731,114.036z"/>
	<path style="fill:#F6C358;" d="M202.978,322.255c-2.821-4.335-6.055-8.5-10.464-12.177c-0.517,5.718,0.141,10.95,1.211,16.01
		c1.075,5.059,2.559,9.948,4.515,14.642c1.914,4.711,4.334,9.213,7.143,13.553c2.818,4.337,6.058,8.499,10.482,12.17
		c0.532-5.724-0.12-10.958-1.194-16.017c-1.083-5.055-2.555-9.95-4.532-14.635C208.203,331.099,205.795,326.592,202.978,322.255z"/>
	<path style="fill:#F6C358;" d="M74.138,140.146c-4.265-2.926-8.847-5.535-14.328-7.246c1.711,5.481,4.32,10.062,7.246,14.328
		c2.929,4.262,6.171,8.212,9.774,11.8c3.571,3.62,7.53,6.853,11.786,9.788c4.263,2.928,8.849,5.533,14.341,7.232
		c-1.699-5.492-4.304-10.079-7.232-14.341c-2.935-4.256-6.168-8.215-9.788-11.786C82.349,146.317,78.4,143.075,74.138,140.146z"/>
	<path style="fill:#F6C358;" d="M233.502,299.51c-4.265-2.926-8.847-5.535-14.328-7.246c1.711,5.481,4.32,10.062,7.246,14.328
		c2.929,4.262,6.171,8.212,9.774,11.8c3.571,3.62,7.53,6.853,11.786,9.788c4.263,2.928,8.849,5.533,14.341,7.232
		c-1.699-5.492-4.304-10.079-7.232-14.341c-2.935-4.256-6.168-8.215-9.788-11.786C241.713,305.681,237.764,302.439,233.502,299.51z"
		/>
	<path style="fill:#F6C358;" d="M44.779,180.568c-5.06-1.071-10.292-1.728-16.01-1.211c3.678,4.409,7.842,7.643,12.177,10.464
		c4.337,2.817,8.844,5.225,13.546,7.161c4.685,1.978,9.579,3.449,14.635,4.532c5.059,1.074,10.293,1.725,16.017,1.194
		c-3.672-4.424-7.833-7.664-12.17-10.482c-4.34-2.809-8.842-5.229-13.553-7.143C54.727,183.127,49.838,181.643,44.779,180.568z"/>
	<path style="fill:#F6C358;" d="M252.998,266.815c-5.06-1.071-10.292-1.728-16.01-1.211c3.678,4.409,7.842,7.643,12.177,10.464
		c4.337,2.817,8.844,5.225,13.546,7.161c4.685,1.978,9.579,3.449,14.635,4.532c5.059,1.074,10.293,1.725,16.017,1.194
		c-3.672-4.424-7.833-7.664-12.17-10.482c-4.34-2.809-8.842-5.229-13.553-7.143C262.946,269.374,258.056,267.89,252.998,266.815z"/>
	<path style="fill:#F6C358;" d="M33.124,229.148c-5.085,0.947-10.17,2.342-15.255,5.008c5.085,2.666,10.17,4.06,15.255,5.008
		c5.085,0.942,10.17,1.443,15.255,1.432c5.085,0.034,10.17-0.479,15.255-1.413c5.085-0.944,10.17-2.345,15.255-5.027
		c-5.085-2.682-10.17-4.083-15.255-5.027c-5.085-0.934-10.17-1.447-15.255-1.413C43.294,227.706,38.209,228.206,33.124,229.148z"/>
	<path style="fill:#F6C358;" d="M258.498,229.148c-5.085,0.947-10.17,2.342-15.255,5.008c5.085,2.666,10.17,4.06,15.255,5.008
		c5.085,0.942,10.17,1.443,15.255,1.432c5.085,0.034,10.17-0.479,15.255-1.413c5.085-0.944,10.17-2.345,15.255-5.027
		c-5.085-2.682-10.17-4.083-15.255-5.027c-5.085-0.934-10.17-1.447-15.255-1.413C268.668,227.706,263.583,228.206,258.498,229.148z"
		/>
	<path style="fill:#F6C358;" d="M40.946,278.491c-4.335,2.821-8.5,6.055-12.177,10.464c5.718,0.517,10.95-0.141,16.01-1.211
		c5.059-1.075,9.948-2.559,14.642-4.515c4.711-1.914,9.213-4.334,13.553-7.143c4.337-2.818,8.499-6.058,12.17-10.482
		c-5.724-0.532-10.958,0.12-16.017,1.194c-5.055,1.083-9.95,2.555-14.635,4.532C49.79,273.266,45.284,275.674,40.946,278.491z"/>
	<path style="fill:#F6C358;" d="M249.165,192.244c-4.335,2.821-8.5,6.055-12.177,10.464c5.718,0.517,10.95-0.141,16.01-1.211
		c5.059-1.075,9.948-2.559,14.642-4.515c4.711-1.914,9.213-4.334,13.553-7.143c4.337-2.818,8.499-6.058,12.17-10.482
		c-5.724-0.532-10.958,0.12-16.017,1.194c-5.055,1.083-9.95,2.555-14.635,4.532C258.009,187.019,253.503,189.427,249.165,192.244z"
		/>
	<path style="fill:#F6C358;" d="M67.056,321.084c-2.926,4.265-5.535,8.847-7.246,14.328c5.481-1.711,10.062-4.32,14.328-7.246
		c4.262-2.929,8.212-6.171,11.8-9.774c3.62-3.571,6.853-7.53,9.788-11.786c2.928-4.263,5.533-8.849,7.232-14.341
		c-5.492,1.699-10.079,4.304-14.341,7.232c-4.256,2.935-8.215,6.168-11.786,9.788C73.227,312.872,69.985,316.822,67.056,321.084z"/>
	<path style="fill:#F6C358;" d="M226.42,161.72c-2.926,4.265-5.535,8.847-7.246,14.328c5.481-1.711,10.062-4.32,14.328-7.246
		c4.262-2.929,8.212-6.171,11.8-9.774c3.62-3.571,6.853-7.53,9.788-11.786c2.928-4.263,5.533-8.849,7.232-14.341
		c-5.492,1.699-10.079,4.304-14.341,7.232c-4.256,2.935-8.215,6.168-11.786,9.788C232.591,153.509,229.349,157.458,226.42,161.72z"
		/>
	<path style="fill:#F6C358;" d="M107.478,350.443c-1.071,5.06-1.728,10.292-1.211,16.01c4.409-3.678,7.643-7.842,10.464-12.177
		c2.817-4.337,5.225-8.844,7.161-13.546c1.978-4.685,3.449-9.579,4.532-14.635c1.074-5.059,1.725-10.293,1.194-16.017
		c-4.424,3.672-7.664,7.833-10.482,12.17c-2.809,4.34-5.229,8.842-7.143,13.553C110.037,340.495,108.553,345.384,107.478,350.443z"
		/>
	<path style="fill:#F6C358;" d="M193.725,142.224c-1.071,5.06-1.728,10.292-1.211,16.01c4.409-3.678,7.643-7.842,10.464-12.177
		c2.817-4.337,5.225-8.844,7.161-13.546c1.978-4.685,3.449-9.579,4.532-14.635c1.074-5.059,1.725-10.293,1.194-16.017
		c-4.424,3.672-7.664,7.833-10.482,12.17c-2.809,4.34-5.229,8.842-7.143,13.553C196.284,132.276,194.8,137.165,193.725,142.224z"/>
</g>
<g>
</g>
<g>
</g>
<g>
</g>
<g>
</g>
<g>
</g>
<g>
</g>
<g>
</g>
<g>
</g>
<g>
</g>
<g>
</g>
<g>
</g>
<g>
</g>
<g>
</g>
<g>
</g>
<g>
</g>
</svg>
