<?xml version="1.0" encoding="iso-8859-1"?>
<!-- Generator: Adobe Illustrator 19.0.0, SVG Export Plug-In . SVG Version: 6.00 Build 0)  -->
<svg version="1.1" id="Capa_1" xmlns="http://www.w3.org/2000/svg" xmlns:xlink="http://www.w3.org/1999/xlink" x="0px" y="0px"
	 viewBox="0 0 468.293 468.293" style="enable-background:new 0 0 468.293 468.293;" xml:space="preserve">
<path style="fill:#3EA69B;" d="M432.754,41.282l-9.652-7.623c-3.089-2.44-7.653-1.574-9.575,1.862
	c-8.545,15.273-33.001,52.9-75.329,71.835l7.104,24.239c0,0,64.983-35.278,89.278-82.41
	C435.969,46.488,435.134,43.163,432.754,41.282z"/>
<g>
	<path style="fill:#44C4A1;" d="M466.141,74.715l2.059,12.126c0.659,3.881-2.29,7.47-6.227,7.508
		c-17.5,0.172-62.248,3.581-99.165,31.638l-17.86-17.86c0,0,62.126-40.096,115.135-38.804
		C463.116,69.397,465.633,71.724,466.141,74.715z"/>
	<path style="fill:#44C4A1;" d="M398.02,6.594l-12.126-2.059c-3.881-0.659-7.47,2.29-7.508,6.227
		c-0.172,17.5-3.581,62.247-31.639,99.165l17.86,17.86c0,0,40.096-62.126,38.805-115.135C403.338,9.619,401.011,7.102,398.02,6.594z
		"/>
</g>
<path style="fill:#E1E6E9;" d="M275.098,301.24c-24.471,22.47-48.26,41.528-70.457,57.448c-3.184,2.274-6.277,4.457-9.37,6.641
	c-37.344,25.972-69.639,42.802-92.29,51.899c-14.1,5.64-28.701,8.779-43.394,10.643c-20.559,2.638-35.797,13.418-45.213,22.561
	C6.778,457.664,2.866,463.85,2.866,463.85c-3.002-3.002-3.23-9.416-2.547-15.465c0.864-7.141,3.593-14.055,7.414-20.423
	c6.277-10.553,12.281-25.654,17.376-40.3c9.052-26.063,21.515-51.08,36.843-74.414c2.229-3.411,4.503-6.778,6.868-10.143
	c5.458-7.824,11.326-15.42,17.467-22.834c14.51-17.421,29.793-34.705,45.94-51.854c2.32-2.501,4.685-4.958,7.05-7.414
	c12.099-12.645,24.699-25.336,37.799-37.981c2.411-2.32,4.913-4.639,7.414-7.05c15.602-14.874,31.886-29.702,48.897-44.531
	c2.729-2.456,5.504-4.867,8.324-7.232c1.092-1.001,2.274-2.001,3.457-3.002c74.324-63.862,120.947-30.612,131.227-21.606
	c1.273,1.092,2.456,2.456,3.457,3.821c0.728,1.001,1.41,2.047,2.001,3.184c25.654,42.029-21.014,106.345-60.451,149.42
	c-3.002,3.184-5.913,6.277-8.779,9.233C291.928,286.866,275.098,301.24,275.098,301.24z"/>
<path style="fill:#EBF0F3;" d="M275.098,301.24c-24.471,22.47-48.26,41.528-70.457,57.448c-3.184,2.274-6.277,4.457-9.37,6.641
	c-37.344,25.972-69.639,42.802-92.29,51.899c-14.1,5.64-28.701,8.779-43.394,10.643c-20.559,2.638-35.797,13.418-45.213,22.561
	c1.274-3.73,3.048-7.323,5.094-10.735c6.277-10.553,12.281-25.654,17.376-40.3c9.052-26.063,21.515-51.08,36.844-74.414
	c2.229-3.411,4.503-6.778,6.868-10.143c5.458-7.824,11.326-15.42,17.467-22.834c14.51-17.421,29.793-34.706,45.94-51.854
	c2.32-2.502,4.685-4.958,7.05-7.414c12.099-12.645,24.699-25.336,37.799-37.981c2.411-2.32,4.913-4.639,7.414-7.05
	c15.602-14.874,31.886-29.702,48.897-44.53c2.729-2.456,5.504-4.867,8.324-7.232c1.092-1.001,2.274-2.001,3.457-3.002
	c64.135-55.129,107.665-37.89,124.949-26.336c25.654,42.029-21.014,106.345-60.451,149.42c-3.002,3.184-5.913,6.277-8.779,9.233
	C291.928,286.866,275.098,301.24,275.098,301.24z"/>
<g>
	<path style="fill:#D5D6DB;" d="M280.238,170.559c-6.959-3.139-13.009-7.278-18.786-11.599c-5.731-4.367-11.098-9.097-16.147-14.237
		c-4.185-4.185-8.142-8.597-11.917-13.282c2.729-2.456,5.504-4.867,8.324-7.232c4.458,3.639,8.642,7.46,12.69,11.417
		c5.094,5.094,9.825,10.461,14.192,16.193C272.915,157.596,277.054,163.646,280.238,170.559z"/>
	<path style="fill:#D5D6DB;" d="M226.019,224.778c-6.959-3.139-13.009-7.278-18.74-11.645c-5.731-4.366-11.099-9.097-16.193-14.191
		c-4.958-4.958-9.643-10.28-14.01-15.92c2.411-2.32,4.913-4.639,7.414-7.05c5.549,4.366,10.78,8.961,15.693,13.873
		c5.094,5.094,9.825,10.462,14.237,16.147C218.741,211.769,222.88,217.819,226.019,224.778z"/>
	<path style="fill:#D5D6DB;" d="M312.624,265.26c-0.864-0.773-1.683-1.592-2.502-2.411c-5.049-5.049-9.825-10.462-14.192-16.193
		c-4.321-5.776-8.46-11.735-11.644-18.74c7.005,3.184,12.963,7.323,18.74,11.644c5.731,4.367,11.144,9.143,16.193,14.192
		c0.728,0.728,1.501,1.501,2.183,2.274C318.4,259.211,315.489,262.304,312.624,265.26z"/>
	<path style="fill:#D5D6DB;" d="M204.641,358.688c-3.184,2.274-6.277,4.457-9.37,6.641c-3.866-3.139-7.505-6.505-11.007-10.098
		c-5.049-5.049-9.825-10.371-14.192-16.102c-4.367-5.822-8.46-11.826-11.644-18.74c6.959,3.138,12.963,7.232,18.786,11.599
		c5.731,4.367,11.053,9.143,16.102,14.192C197.363,350.137,201.138,354.276,204.641,358.688z"/>
	<path style="fill:#D5D6DB;" d="M180.943,269.854c-6.959-3.138-13.009-7.278-18.786-11.599c-5.685-4.412-11.053-9.143-16.147-14.237
		c-4.867-4.867-9.461-10.098-13.782-15.602c2.32-2.501,4.685-4.958,7.05-7.414c5.64,4.366,10.871,8.961,15.829,13.919
		c5.094,5.094,9.825,10.462,14.191,16.193C173.665,256.845,177.804,262.895,180.943,269.854z"/>
	<path style="fill:#D5D6DB;" d="M104.072,346.725c-6.959-3.139-13.009-7.278-18.786-11.599c-5.686-4.412-11.053-9.142-16.147-14.237
		c-2.456-2.456-4.821-5.004-7.187-7.642c2.229-3.411,4.503-6.778,6.868-10.143c3.32,2.775,6.413,5.685,9.416,8.688
		c5.094,5.094,9.825,10.462,14.237,16.147C96.794,333.716,100.933,339.766,104.072,346.725z"/>
</g>
<g>
</g>
<g>
</g>
<g>
</g>
<g>
</g>
<g>
</g>
<g>
</g>
<g>
</g>
<g>
</g>
<g>
</g>
<g>
</g>
<g>
</g>
<g>
</g>
<g>
</g>
<g>
</g>
<g>
</g>
</svg>
