<?xml version="1.0" encoding="iso-8859-1"?>
<!-- Generator: Adobe Illustrator 19.0.0, SVG Export Plug-In . SVG Version: 6.00 Build 0)  -->
<svg version="1.1" id="Capa_1" xmlns="http://www.w3.org/2000/svg" xmlns:xlink="http://www.w3.org/1999/xlink" x="0px" y="0px"
	 viewBox="0 0 468.293 468.293" style="enable-background:new 0 0 468.293 468.293;" xml:space="preserve">
<path style="fill:#3EA69B;" d="M350.549,156.753c-17.877,21.657-50.552,62.542-95.649,105.154
	c-27.868,26.249-60.328,53.091-97.162,76.423c-84.416,53.631-116.281,40.345-141.827,19.551
	C0.519,345.405-4.666,323.693,4.624,306.194c7.679-14.262,23.345-31.874,53.37-52.492c24.201-16.618,47.812-34.176,69.903-53.511
	c32.709-28.629,50.868-48.54,63.759-64.287c9.937-12.098,16.742-21.711,24.682-30.947c0,0,59.679-79.23,120.601-64.215
	C396.781,55.54,381.604,119.216,350.549,156.753z"/>
<g>
	<path style="fill:#44C4A1;" d="M330.025,168.635c0,0-26.842,41.964-75.125,93.272c-27.868,26.249-60.328,53.091-97.162,76.423
		c-84.416,53.631-116.281,40.345-141.827,19.551C0.519,345.405-4.666,323.693,4.624,306.194
		c7.679-14.262,23.345-31.874,53.37-52.492c24.201-16.618,47.812-34.176,69.903-53.511c32.709-28.629,50.868-48.54,63.759-64.287
		c14.852-11.288,30.785-23.224,47.744-35.754c0,0-72.335,107.785-199.958,205.422c-6.49,4.965,9.715,6.462,16.287,1.605
		c33.664-24.874,157.067-112.233,215.482-175.216c0,0-105.772,140.381-190.57,196.208c-2.911,1.916-0.735,6.39,2.563,5.262
		C135.375,315.593,255.229,266.159,330.025,168.635z"/>
	<ellipse style="fill:#44C4A1;" cx="389.726" cy="300.126" rx="78.567" ry="31.407"/>
</g>
<g>
	<path style="fill:#3EA69B;" d="M389.728,331.552c-43.389,0-78.563-14.07-78.563-31.426v21.858
		c0,17.356,35.174,31.426,78.563,31.426c43.391,0,78.565-14.07,78.565-31.426v-21.858
		C468.293,317.482,433.118,331.552,389.728,331.552z"/>
	<path style="fill:#3EA69B;" d="M415.854,287.686c-3.635-1.525-13.532,0.966-18.735,2.461c2.019-3.225,5.21-9.118,2.643-10.779
		c-3.286-2.126-16.782-2.126-20.067,0c-2.567,1.661,0.623,7.554,2.643,10.779c-5.203-1.496-15.099-3.987-18.733-2.461
		c-5.123,2.15-9.031,13.255-4.863,16.125c3.357,2.311,16.187-1.223,22.692-3.237c-3.393,4.685-9.733,14.416-6.769,18.049
		c4.194,5.14,25.933,5.14,30.127,0c2.964-3.633-3.377-13.364-6.77-18.049c6.504,2.013,19.336,5.548,22.694,3.237
		C424.885,300.942,420.976,289.836,415.854,287.686z M385.337,297.982l0.257-5.667h8.271l0.257,5.667H385.337z"/>
</g>
<ellipse style="fill:#44C4A1;" cx="233.135" cy="383.244" rx="68.121" ry="27.248"/>
<g>
	<path style="fill:#3EA69B;" d="M233.132,410.491c-37.621,0-68.119-12.199-68.119-27.248v18.952
		c0,15.048,30.498,27.248,68.119,27.248c37.622,0,68.12-12.2,68.12-27.248v-18.952C301.252,398.292,270.754,410.491,233.132,410.491
		z"/>
	<path style="fill:#3EA69B;" d="M255.784,372.457c-3.152-1.323-11.733,0.838-16.244,2.134c1.751-2.797,4.517-7.906,2.291-9.346
		c-2.849-1.843-14.551-1.843-17.4,0c-2.226,1.44,0.541,6.549,2.291,9.346c-4.511-1.297-13.092-3.457-16.243-2.134
		c-4.442,1.864-7.831,11.493-4.217,13.981c2.911,2.004,14.035-1.06,19.676-2.806c-2.942,4.062-8.439,12.499-5.869,15.649
		c3.637,4.457,22.485,4.457,26.122,0c2.57-3.15-2.928-11.588-5.87-15.65c5.64,1.746,16.766,4.81,19.677,2.807
		C263.615,383.951,260.225,374.321,255.784,372.457z M229.324,381.384l0.223-4.914h7.171l0.223,4.914H229.324z"/>
</g>
<path style="fill:#EBF0F3;" d="M335.422,57.672c-14.576-2.589-49.187-4.028-73.247,32.879c-1.034,1.585,0.929,3.408,2.45,2.281
	c10.75-7.964,33.662-22.118,70.919-31.846C337.302,60.528,337.21,57.99,335.422,57.672z"/>
<g>
</g>
<g>
</g>
<g>
</g>
<g>
</g>
<g>
</g>
<g>
</g>
<g>
</g>
<g>
</g>
<g>
</g>
<g>
</g>
<g>
</g>
<g>
</g>
<g>
</g>
<g>
</g>
<g>
</g>
</svg>
