<?xml version="1.0" encoding="iso-8859-1"?>
<!-- Generator: Adobe Illustrator 19.0.0, SVG Export Plug-In . SVG Version: 6.00 Build 0)  -->
<svg version="1.1" id="Capa_1" xmlns="http://www.w3.org/2000/svg" xmlns:xlink="http://www.w3.org/1999/xlink" x="0px" y="0px"
	 viewBox="0 0 468.43 468.43" style="enable-background:new 0 0 468.43 468.43;" xml:space="preserve">
<path style="fill:#FCD462;" d="M311.394,179.263c0,2.184,0,4.37-0.063,6.556c-1.624,65.373-27.411,130.31-77.237,180.136
	c-49.889-49.889-75.614-114.763-77.237-180.136c-0.187-6.181-0.125-12.425,0.188-18.607c0.499-10.365,1.561-20.729,3.247-31.033
	c0.999-6.244,2.248-12.425,3.747-18.607c0.749-3.309,1.623-6.618,2.56-9.928c1.374-4.995,2.935-9.99,4.683-14.923
	c4.059-11.738,8.929-23.165,14.673-34.341c2.747-5.307,5.682-10.552,8.804-15.735c1.249-2.123,2.56-4.183,3.871-6.244
	c3.746-5.806,7.742-11.551,11.988-17.108c3.622-4.745,7.368-9.366,11.364-13.924C225.041,1.935,229.474,0,234.094,0
	c4.558,0,9.054,1.935,12.051,5.37c3.996,4.558,7.742,9.178,11.364,13.924c4.246,5.557,8.242,11.302,11.988,17.108
	c1.311,2.061,2.623,4.121,3.872,6.244c3.184,5.183,6.119,10.428,8.804,15.797c5.744,11.114,10.615,22.541,14.611,34.216
	c1.811,4.995,3.372,10.053,4.745,15.111c0.937,3.247,1.748,6.493,2.56,9.803c1.498,6.181,2.747,12.363,3.809,18.607
	c1.686,10.303,2.747,20.668,3.184,31.033C311.332,171.208,311.394,175.266,311.394,179.263z"/>
<g>
	<path style="fill:#F6C358;" d="M178.711,125.377v2.997c0,4.371-3.497,7.805-7.805,7.805h-10.615
		c0.999-6.244,2.248-12.425,3.747-18.607h6.868C175.215,117.572,178.711,121.069,178.711,125.377z"/>
	<path style="fill:#F6C358;" d="M241.105,117.583h-14.076c-4.311,0-7.805,3.494-7.805,7.805v3.017c0,4.311,3.494,7.805,7.805,7.805
		h14.076c4.311,0,7.805-3.494,7.805-7.805v-3.017C248.91,121.077,245.416,117.583,241.105,117.583z"/>
	<path style="fill:#F6C358;" d="M276.214,117.583h-14.076c-4.311,0-7.805,3.494-7.805,7.805v3.017c0,4.311,3.494,7.805,7.805,7.805
		h14.076c4.311,0,7.805-3.494,7.805-7.805v-3.017C284.018,121.077,280.524,117.583,276.214,117.583z"/>
	<path style="fill:#F6C358;" d="M307.897,136.179H297.22c-4.308,0-7.805-3.434-7.805-7.805v-2.997c0-4.308,3.497-7.805,7.805-7.805
		h6.869C305.587,123.754,306.836,129.935,307.897,136.179z"/>
	<path style="fill:#F6C358;" d="M205.997,117.583h-14.076c-4.311,0-7.805,3.494-7.805,7.805v3.017c0,4.311,3.494,7.805,7.805,7.805
		h14.076c4.311,0,7.805-3.494,7.805-7.805v-3.017C213.802,121.077,210.308,117.583,205.997,117.583z"/>
	<path style="fill:#F6C358;" d="M178.711,175.017v2.997c0,4.371-3.497,7.805-7.805,7.805h-14.049
		c-0.187-6.181-0.125-12.425,0.188-18.607h13.861C175.215,167.212,178.711,170.708,178.711,175.017z"/>
	<path style="fill:#F6C358;" d="M241.105,167.212h-14.076c-4.311,0-7.805,3.494-7.805,7.805v3.017c0,4.311,3.494,7.805,7.805,7.805
		h14.076c4.311,0,7.805-3.494,7.805-7.805v-3.017C248.91,170.706,245.416,167.212,241.105,167.212z"/>
	<path style="fill:#F6C358;" d="M276.214,167.212h-14.076c-4.311,0-7.805,3.494-7.805,7.805v3.017c0,4.311,3.494,7.805,7.805,7.805
		h14.076c4.311,0,7.805-3.494,7.805-7.805v-3.017C284.018,170.706,280.524,167.212,276.214,167.212z"/>
	<path style="fill:#F6C358;" d="M311.394,179.263c0,2.184,0,4.37-0.063,6.556H297.22c-4.308,0-7.805-3.434-7.805-7.805v-2.997
		c0-4.309,3.497-7.805,7.805-7.805h13.862C311.332,171.208,311.394,175.266,311.394,179.263z"/>
	<path style="fill:#F6C358;" d="M205.997,167.212h-14.076c-4.311,0-7.805,3.494-7.805,7.805v3.017c0,4.311,3.494,7.805,7.805,7.805
		h14.076c4.311,0,7.805-3.494,7.805-7.805v-3.017C213.802,170.706,210.308,167.212,205.997,167.212z"/>
	<path style="fill:#F6C358;" d="M206,67.518h-14.076c-4.311,0-7.805,3.494-7.805,7.805v3.017c0,4.311,3.494,7.805,7.805,7.805H206
		c4.311,0,7.805-3.494,7.805-7.805v-3.017C213.804,71.011,210.31,67.518,206,67.518z"/>
	<path style="fill:#F6C358;" d="M276.216,67.518H262.14c-4.311,0-7.805,3.494-7.805,7.805v3.017c0,4.311,3.494,7.805,7.805,7.805
		h14.076c4.311,0,7.805-3.494,7.805-7.805v-3.017C284.021,71.011,280.527,67.518,276.216,67.518z"/>
	<path style="fill:#F6C358;" d="M241.108,67.518h-14.076c-4.311,0-7.805,3.494-7.805,7.805v3.017c0,4.311,3.494,7.805,7.805,7.805
		h14.076c4.311,0,7.805-3.494,7.805-7.805v-3.017C248.913,71.011,245.418,67.518,241.108,67.518z"/>
	<path style="fill:#F6C358;" d="M188.463,192.083h-14.076c-4.311,0-7.805,3.494-7.805,7.805v3.017c0,4.311,3.494,7.805,7.805,7.805
		h14.076c4.311,0,7.805-3.494,7.805-7.805v-3.017C196.268,195.577,192.774,192.083,188.463,192.083z"/>
	<path style="fill:#F6C358;" d="M258.679,192.083h-14.076c-4.311,0-7.805,3.494-7.805,7.805v3.017c0,4.311,3.494,7.805,7.805,7.805
		h14.076c4.311,0,7.805-3.494,7.805-7.805v-3.017C266.484,195.577,262.99,192.083,258.679,192.083z"/>
	<path style="fill:#F6C358;" d="M293.759,192.083h-14.076c-4.311,0-7.805,3.494-7.805,7.805v3.017c0,4.311,3.494,7.805,7.805,7.805
		h14.076c4.311,0,7.805-3.494,7.805-7.805v-3.017C301.564,195.577,298.07,192.083,293.759,192.083z"/>
	<path style="fill:#F6C358;" d="M223.571,192.083h-14.076c-4.311,0-7.805,3.494-7.805,7.805v3.017c0,4.311,3.494,7.805,7.805,7.805
		h14.076c4.311,0,7.805-3.494,7.805-7.805v-3.017C231.376,195.577,227.882,192.083,223.571,192.083z"/>
	<path style="fill:#F6C358;" d="M213.802,50.45v2.997c0,4.309-3.497,7.805-7.805,7.805h-14.049c-2.435,0-4.62-1.123-5.994-2.872
		c2.747-5.307,5.682-10.552,8.804-15.735h11.239C210.305,42.646,213.802,46.143,213.802,50.45z"/>
	<path style="fill:#F6C358;" d="M282.173,58.443c-1.374,1.686-3.497,2.809-5.932,2.809H262.13c-4.308,0-7.805-3.496-7.805-7.805
		V50.45c0-4.308,3.497-7.805,7.805-7.805h11.239C276.553,47.829,279.488,53.073,282.173,58.443z"/>
	<path style="fill:#F6C358;" d="M241.108,42.647h-14.076c-4.311,0-7.805,3.494-7.805,7.805v3.017c0,4.311,3.494,7.805,7.805,7.805
		h14.076c4.311,0,7.805-3.494,7.805-7.805v-3.017C248.913,46.141,245.418,42.647,241.108,42.647z"/>
	<path style="fill:#F6C358;" d="M213.802,25.6v2.997c0,4.309-3.497,7.805-7.805,7.805h-7.368
		c3.746-5.806,7.742-11.551,11.988-17.108C212.553,20.729,213.802,23.04,213.802,25.6z"/>
	<path style="fill:#F6C358;" d="M269.497,36.402h-7.368c-4.308,0-7.805-3.496-7.805-7.805V25.6c0-2.559,1.249-4.87,3.184-6.306
		C261.755,24.851,265.751,30.595,269.497,36.402z"/>
	<path style="fill:#F6C358;" d="M241.108,17.777h-14.076c-4.311,0-7.805,3.494-7.805,7.805v3.017c0,4.311,3.494,7.805,7.805,7.805
		h14.076c4.311,0,7.805-3.494,7.805-7.805v-3.017C248.913,21.271,245.418,17.777,241.108,17.777z"/>
	<path style="fill:#F6C358;" d="M187.786,142.454h-14.594c-4.311,0-7.805,3.495-7.805,7.805v3.341c0,4.311,3.494,7.805,7.805,7.805
		h14.594c4.31,0,7.805-3.494,7.805-7.805v-3.341C195.591,145.948,192.096,142.454,187.786,142.454z"/>
	<path style="fill:#F6C358;" d="M259.227,142.454h-14.594c-4.311,0-7.805,3.495-7.805,7.805v3.341c0,4.311,3.494,7.805,7.805,7.805
		h14.594c4.311,0,7.805-3.494,7.805-7.805v-3.341C267.032,145.948,263.538,142.454,259.227,142.454z"/>
	<path style="fill:#F6C358;" d="M294.948,142.454h-14.594c-4.311,0-7.805,3.495-7.805,7.805v3.341c0,4.311,3.494,7.805,7.805,7.805
		h14.594c4.311,0,7.805-3.494,7.805-7.805v-3.341C302.753,145.948,299.258,142.454,294.948,142.454z"/>
	<path style="fill:#F6C358;" d="M223.506,142.454h-14.594c-4.311,0-7.805,3.495-7.805,7.805v3.341c0,4.311,3.494,7.805,7.805,7.805
		h14.594c4.311,0,7.805-3.494,7.805-7.805v-3.341C231.311,145.948,227.817,142.454,223.506,142.454z"/>
	<path style="fill:#F6C358;" d="M187.786,216.351h-14.594c-4.311,0-7.805,3.495-7.805,7.805v3.341c0,4.311,3.494,7.805,7.805,7.805
		h14.594c4.31,0,7.805-3.494,7.805-7.805v-3.341C195.591,219.846,192.096,216.351,187.786,216.351z"/>
	<path style="fill:#F6C358;" d="M259.227,216.351h-14.594c-4.311,0-7.805,3.495-7.805,7.805v3.341c0,4.311,3.494,7.805,7.805,7.805
		h14.594c4.311,0,7.805-3.494,7.805-7.805v-3.341C267.032,219.846,263.538,216.351,259.227,216.351z"/>
	<path style="fill:#F6C358;" d="M223.506,216.351h-14.594c-4.311,0-7.805,3.495-7.805,7.805v3.341c0,4.311,3.494,7.805,7.805,7.805
		h14.594c4.311,0,7.805-3.494,7.805-7.805v-3.341C231.311,219.846,227.817,216.351,223.506,216.351z"/>
	<path style="fill:#F6C358;" d="M195.57,100.214v3.309c0,4.309-3.497,7.805-7.805,7.805h-14.548c-2.81,0-5.245-1.498-6.619-3.684
		c1.374-4.995,2.935-9.99,4.683-14.923c0.625-0.25,1.249-0.313,1.936-0.313h14.548C192.073,92.409,195.57,95.906,195.57,100.214z"/>
	<path style="fill:#F6C358;" d="M259.227,92.388h-14.594c-4.311,0-7.805,3.495-7.805,7.805v3.341c0,4.311,3.494,7.805,7.805,7.805
		h14.594c4.311,0,7.805-3.494,7.805-7.805v-3.341C267.032,95.883,263.538,92.388,259.227,92.388z"/>
	<path style="fill:#F6C358;" d="M301.529,107.77c-1.373,2.123-3.809,3.559-6.556,3.559h-14.611c-4.308,0-7.805-3.496-7.805-7.805
		v-3.309c0-4.308,3.497-7.805,7.805-7.805h14.611c0.625,0,1.249,0.063,1.811,0.25C298.594,97.655,300.155,102.713,301.529,107.77z"
		/>
	<path style="fill:#F6C358;" d="M223.506,92.388h-14.594c-4.311,0-7.805,3.495-7.805,7.805v3.341c0,4.311,3.494,7.805,7.805,7.805
		h14.594c4.311,0,7.805-3.494,7.805-7.805v-3.341C231.311,95.883,227.817,92.388,223.506,92.388z"/>
</g>
<path style="fill:#3EA69B;" d="M383.948,165.526c-1.373,8.804-6.556,19.668-11.239,28.098c-3.434,6.119-7.243,11.989-11.988,17.171
	c-25.226,27.661-28.472,76.737-28.66,96.593c-0.125,7.992-0.624,15.985-1.748,23.851c-18.107,127.001-96.718,135.431-96.718,135.431
	c-1.561-2.373-2.934-5.182-4.183-8.429c-18.919-48.39-6.619-184.258-6.619-184.258c17.67-71.805,115.824-98.903,149.667-106.209
	C379.64,166.213,383.948,165.526,383.948,165.526z"/>
<path style="fill:#44C4A1;" d="M372.46,167.774c-2.31,6.306-5.557,12.8-8.617,18.294c-3.434,6.182-7.243,12.051-11.989,17.233
	c-25.225,27.661-28.472,76.738-28.659,96.594c-0.125,7.992-0.625,15.984-1.748,23.851c-15.422,108.27-74.864,130.373-92.035,134.494
	c-18.919-48.39-6.619-184.258-6.619-184.258C240.463,202.178,338.617,175.079,372.46,167.774z"/>
<path style="fill:#3EA69B;" d="M88.416,170.962c-2.537-0.472-3.934-0.686-3.934-0.686c1.348,8.766,6.559,19.637,11.244,28.044
	c2.823,5.067,8.062,12.938,11.974,17.221c25.286,27.672,28.477,76.859,28.684,96.67c0.083,7.925,0.573,15.84,1.691,23.686
	c13.199,92.627,58.572,122.206,82.204,131.438c8.4,3.282,17.939-1.062,20.61-9.675c6.969-22.471,8.822-58.686,8.671-92.676
	C249.137,270.084,181.714,188.327,88.416,170.962z"/>
<g>
</g>
<g>
</g>
<g>
</g>
<g>
</g>
<g>
</g>
<g>
</g>
<g>
</g>
<g>
</g>
<g>
</g>
<g>
</g>
<g>
</g>
<g>
</g>
<g>
</g>
<g>
</g>
<g>
</g>
</svg>
