<?xml version="1.0" encoding="iso-8859-1"?>
<!-- Generator: Adobe Illustrator 19.0.0, SVG Export Plug-In . SVG Version: 6.00 Build 0)  -->
<svg version="1.1" id="Capa_1" xmlns="http://www.w3.org/2000/svg" xmlns:xlink="http://www.w3.org/1999/xlink" x="0px" y="0px"
	 viewBox="0 0 468.293 468.293" style="enable-background:new 0 0 468.293 468.293;" xml:space="preserve">
<g>
	<path style="fill:#DC8744;" d="M27.013,152.605c0,123.343,92.735,315.687,207.134,315.687
		c114.395,0,207.132-192.344,207.132-315.687H27.013z"/>
	<path style="fill:#DC8744;" d="M234.144,315.062c-114.211,0-207.129-70.67-207.129-157.531S119.933,0,234.144,0
		c114.217,0,207.135,70.67,207.135,157.531S348.361,315.062,234.144,315.062z"/>
</g>
<ellipse style="fill:#EBF0F3;" cx="234.146" cy="157.527" rx="188.878" ry="142.324"/>
<path style="fill:#64798A;" d="M379.075,157.53c0,60.236-64.854,109.081-144.894,109.081c-45.357,0-85.787-15.701-112.365-40.226
	c-20.42-18.778-32.631-42.791-32.631-68.855c0-60.236,64.957-109.081,144.997-109.081c30.272,0,58.286,6.978,81.581,18.881
	C353.935,87.033,379.075,120.075,379.075,157.53z"/>
<path style="fill:#D5D6DB;" d="M315.762,67.33c-23.294-11.903-51.308-18.881-81.581-18.881c-80.04,0-144.997,48.845-144.997,109.081
	c0,26.064,12.211,50.077,32.631,68.855c23.294,11.904,51.308,18.882,81.581,18.882c80.04,0,144.894-48.845,144.894-109.081
	C348.29,110.122,336.08,86.109,315.762,67.33z"/>
<g>
</g>
<g>
</g>
<g>
</g>
<g>
</g>
<g>
</g>
<g>
</g>
<g>
</g>
<g>
</g>
<g>
</g>
<g>
</g>
<g>
</g>
<g>
</g>
<g>
</g>
<g>
</g>
<g>
</g>
</svg>
