<?xml version="1.0" encoding="iso-8859-1"?>
<!-- Generator: Adobe Illustrator 19.0.0, SVG Export Plug-In . SVG Version: 6.00 Build 0)  -->
<svg version="1.1" id="Capa_1" xmlns="http://www.w3.org/2000/svg" xmlns:xlink="http://www.w3.org/1999/xlink" x="0px" y="0px"
	 viewBox="0 0 468.293 468.293" style="enable-background:new 0 0 468.293 468.293;" xml:space="preserve">
<path style="fill:#E56353;" d="M244.249,304.037c0,67.448-54.677,140.301-122.125,140.301S0,371.484,0,304.037
	s54.677-79.713,122.125-79.713S244.249,236.589,244.249,304.037z"/>
<g>
	<path style="fill:#EBF0F3;" d="M41.69,306.342c0,28.39,16.49,51.404,5.938,51.404s-26.846-23.014-26.846-51.404
		c0-28.39,16.294-51.404,26.846-51.404S41.69,277.952,41.69,306.342z"/>
	<path style="fill:#EBF0F3;" d="M77.622,388.457c10.35,7.378,23.018,7.354,20.281,11.196c-2.737,3.843-15.354,3.796-25.704-3.582
		c-10.35-7.378-14.514-19.293-11.777-23.135C63.159,369.093,67.272,381.079,77.622,388.457z"/>
</g>
<path style="fill:#D15241;" d="M73.376,244.469h97.498C115.954,272.519,73.376,244.469,73.376,244.469z"/>
<path style="fill:#44C4A1;" d="M133.344,142.546L133.344,142.546c17.703-35.666,3.124-78.941-32.562-96.657
	C83.08,81.555,97.658,124.83,133.344,142.546z"/>
<path style="fill:#3EA69B;" d="M106.276,59.973c0,0-3.652,35.345,23.289,68.32L106.276,59.973z"/>
<path style="fill:#44C4A1;" d="M235.449,164.078L235.449,164.078c-33.412-21.689-78.097-12.195-99.805,21.203
	C169.056,206.97,213.74,197.477,235.449,164.078z"/>
<path style="fill:#3EA69B;" d="M150.273,181.448c0,0,34.708,7.698,70.576-15.258L150.273,181.448z"/>
<path style="fill:#E56353;" d="M272.563,331.907c0,54.049,43.816,112.431,97.865,112.431s97.865-58.381,97.865-112.431
	s-43.816-63.878-97.865-63.878S272.563,277.858,272.563,331.907z"/>
<g>
	<path style="fill:#EBF0F3;" d="M434.884,333.754c0,22.75-13.214,41.193-4.758,41.193s21.513-18.443,21.513-41.193
		s-13.057-41.193-21.513-41.193S434.884,311.004,434.884,333.754z"/>
	<path style="fill:#EBF0F3;" d="M406.09,399.558c-8.294,5.912-18.446,5.893-16.252,8.972c2.193,3.079,12.304,3.042,20.598-2.871
		c8.294-5.912,11.631-15.46,9.437-18.54C417.68,384.04,414.384,393.646,406.09,399.558z"/>
</g>
<path style="fill:#3EA69B;" d="M371.075,255.651c-1.631-20.635-5.85-40.315-11.522-57.697
	c-5.745-17.338-139.144-141.64-147.166-154.408c-2.767-4.422-5.702-8.374-8.69-12.149c1.459-2.548,2.94-5.055,4.484-7.443
	c-2.405,0.848-4.67,2.576-6.891,4.449c-2.285,2.043-8.903,8.541-10.711,10.525c-5.509,6.4-10.873,13.429-15.874,21.42
	c-10.011,15.933-31.841,54.894-39.011,76.529c-7.078,21.691-12.343,46.25-14.378,72c-1.05,12.93-1.251,26.085-0.587,38.942h6.29
	c0.942-11.821,2.279-23.281,4.144-34.406c3.576-22.288,8.944-43.058,15.325-62.757c6.484-19.595,26.893-58.082,35.097-75.782
	c4.113-8.821,8.321-17.637,12.776-26.053c1.713-3.301,3.44-6.614,5.189-9.897c3.501,4.953,7.829,9.699,10.354,15.115
	c6.574,14.184,135.803,139.254,141,154.957c5.113,15.786,9.414,32.43,12.28,50.291c1.495,8.915,2.566,18.098,3.321,27.571h5.041
	C372.078,276.554,371.917,266.013,371.075,255.651z"/>
<path style="fill:#D15241;" d="M409.493,284.173h-78.13C375.373,306.651,409.493,284.173,409.493,284.173z"/>
<path style="fill:#44C4A1;" d="M361.437,202.496L361.437,202.496c-14.186-28.581-2.503-63.259,26.093-77.456
	C401.717,153.621,390.034,188.299,361.437,202.496z"/>
<path style="fill:#3EA69B;" d="M383.128,136.326c0,0,2.927,28.324-18.662,54.748L383.128,136.326z"/>
<path style="fill:#44C4A1;" d="M279.615,219.751L279.615,219.751c26.775-17.38,62.583-9.773,79.979,16.991
	C332.819,254.123,297.011,246.515,279.615,219.751z"/>
<path style="fill:#3EA69B;" d="M347.871,233.671c0,0-27.814,6.169-56.557-12.227L347.871,233.671z"/>
<g>
</g>
<g>
</g>
<g>
</g>
<g>
</g>
<g>
</g>
<g>
</g>
<g>
</g>
<g>
</g>
<g>
</g>
<g>
</g>
<g>
</g>
<g>
</g>
<g>
</g>
<g>
</g>
<g>
</g>
</svg>
