<?xml version="1.0" encoding="iso-8859-1"?>
<!-- Generator: Adobe Illustrator 19.0.0, SVG Export Plug-In . SVG Version: 6.00 Build 0)  -->
<svg version="1.1" id="Capa_1" xmlns="http://www.w3.org/2000/svg" xmlns:xlink="http://www.w3.org/1999/xlink" x="0px" y="0px"
	 viewBox="0 0 468.276 468.276" style="enable-background:new 0 0 468.276 468.276;" xml:space="preserve">
<path style="fill:#44C4A1;" d="M417.039,188.587c0,21.926-7.755,41.228-19.36,52.191c-7.406,7.056-11.546,16.794-12.829,26.883
	c-0.816,6.239-2.566,12.771-5.831,19.652c-9.155,19.593-24.667,30.556-40.82,30.556h-13.237c-22.334,0-43.21-10.613-56.798-28.34
	c-1.808-2.274-3.732-4.432-5.773-6.298c-7.814-7.289-17.611-11.604-28.282-11.604c-13.412,0-25.483,6.881-33.939,17.902
	c-6.881,8.98-15.628,16.094-25.483,20.993c-9.563,4.782-20.293,7.348-31.315,7.348h-13.237c-16.153,0-31.664-10.963-40.82-30.556
	c-3.266-6.939-5.015-13.412-5.831-19.652c-1.283-10.089-5.365-19.827-12.771-26.766c-11.721-11.021-19.477-30.323-19.477-52.307
	c0-34.231,18.719-62.046,41.869-62.046c0.35,0,0.641,0.058,0.992,0.058c-1.341-9.68-1.4-20.06,0.175-30.732
	c3.207-22.626,13.879-41.519,27.932-51.55c4.899-3.615,9.855-5.773,14.637-6.764c11.954-2.683,22.334-9.505,29.041-19.827
	C173.171,6.764,183.201,0,194.397,0c6.007,0,11.721,1.983,16.853,5.598c2.449,1.633,4.782,3.732,6.939,6.123
	c4.898,5.423,11.721,7.814,18.252,7.114c5.073-0.583,9.972-2.916,13.704-7.114C256.793,4.315,264.957,0,273.937,0
	c11.196,0,21.226,6.764,28.457,17.844c6.706,10.263,17.028,17.144,29.04,19.652c4.723,1.05,9.622,3.207,14.695,6.823
	c14.053,10.03,24.667,28.924,27.932,51.55c1.575,10.672,1.4,21.051,0.117,30.732c0.35,0,0.7-0.058,1.05-0.058
	C398.262,126.541,417.039,154.357,417.039,188.587z"/>
<path style="fill:#3EA69B;" d="M375.228,126.541c-0.35,0-0.7,0.058-1.05,0.058c1.283-9.68,1.458-20.06-0.117-30.731
	c-3.266-22.626-13.879-41.519-27.932-51.55c-5.073-3.615-9.972-5.773-14.695-6.822c-12.013-2.508-22.334-9.388-29.04-19.652
	C295.163,6.764,285.133,0,273.937,0c-8.981,0-17.144,4.315-23.792,11.721c-1.19,1.339,31.972,17.7,41.178,32.196
	c10.444,16.444,19.197,27.081,33.207,39.76c6.891,6.236,13.328,13.675,17.879,21.868c2.154,3.878,2.925,9.487,3.804,14.256
	c17.88,12.781,33.072,26.289,33.793,52.927c0.358,13.228-4.473,23.376-8.838,34.717c-0.002,0.034-0.001,0.05-0.003,0.085
	c5.854,10.761,7.846,23.54,4.085,37.227c-7.019,25.544-37.833,46.335-64.307,36.512c-9.854-3.656-17.715-8.586-23.954-14.423
	c-9.653,2.364-18.562,8.312-24.598,16.385c2.041,1.866,3.965,4.024,5.773,6.298c13.587,17.727,34.463,28.34,56.798,28.34h13.237
	c16.153,0,31.664-10.963,40.82-30.556c3.266-6.881,5.015-13.412,5.831-19.652c1.283-10.089,5.423-19.827,12.829-26.883
	c11.604-10.963,19.36-30.265,19.36-52.191C417.039,154.357,398.262,126.541,375.228,126.541z"/>
<path style="fill:#FCD462;" d="M205.634,347.019c0.874-5.495,1.062-11.114,0.874-16.671c-0.125-3.684-0.312-8.492-0.687-13.986
	c-1.873-26.287-8.679-69.37-35.59-93.097c-6.619-5.807-8.429-16.484-3.622-24.413c2.935-4.933,7.618-7.43,12.363-7.43
	c3.871,0,7.805,1.748,10.802,5.37c11.301,13.612,26.662,33.967,32.531,49.764c1.748,4.495,5.744,7.243,9.99,6.931
	c5.245-0.375,9.428-5.245,9.678-11.301l3.559-76.238c0.5-10.552,5.994-20.355,14.548-23.852c5.432-2.185,11.176-1.436,14.548,7.992
	c2.248,6.181,2.185,13.112,0.624,19.543c-4.995,19.793-13.612,62.751-13.612,62.751l38.275-35.216
	c9.49-8.679,23.04,1.498,20.105,15.173c-0.063,0.25-0.125,0.437-0.125,0.687c-0.687,2.872-1.998,5.432-3.934,7.43
	c-1.623,1.623-3.871,3.996-6.556,7.056c-17.545,20.355-52.886,70.931-32.281,130.06c0,0,14,67.575,36.089,100.957
	c2.772,4.189-0.121,9.748-5.144,9.748H174.732c-4.632,0-7.661-4.827-5.61-8.98C178.208,440.903,198.125,396.493,205.634,347.019z"/>
<path style="fill:#F6C358;" d="M308.072,468.276H174.732c-4.632,0-7.661-4.827-5.61-8.98c9.086-18.392,29.003-62.802,36.512-112.276
	c0.874-5.495,1.062-11.114,0.874-16.671c-0.125-3.684-0.312-8.492-0.687-13.986c2.997-0.812,5.557,0.562,8.554,5.432
	c4.183,6.744,5.557,15.485,5.37,23.29c-0.312,11.614-3.996,22.79-7.617,33.842C203.699,404.463,195.27,430,186.84,455.6
	c4.933-5.682,9.803-11.364,14.673-17.046c0.749,6.119,1.498,12.238,2.185,18.357c5.12-5.682,10.24-11.364,15.36-16.984
	c5.557,6.619,11.114,13.237,16.734,19.856c0.437-4.37,0.937-8.741,1.436-13.05c6.306,3.184,12.675,6.369,19.044,9.553
	c-1.873-5.744-3.747-11.551-5.682-17.295c8.804,5.682,17.545,11.364,26.287,17.108c-1.748-5.308-3.434-10.615-5.183-15.86
	c7.181,2.997,14.361,5.994,21.604,8.991c-5.432-19.481-10.864-38.899-16.297-58.318c-8.429-30.408-16.983-61.752-13.424-93.159
	c3.247-29.034,19.481-58.506,45.83-70.244c-17.545,20.355-52.886,70.931-32.281,130.06c0,0,14,67.575,36.089,100.957
	C315.988,462.717,313.095,468.276,308.072,468.276z"/>
<g>
	<path style="fill:#3EA69B;" d="M124.748,113.345c-1.484,5.311-1.882,12.279,2.89,15.041c4.632,2.681,10.324-0.821,14.315-4.386
		c9.612-8.587,18.053-18.543,24.514-29.696c4.92-8.492,12.78-22.403,12.391-32.523c-0.506-13.177-12.362-4.609-18.928,0.347
		C143.118,74.815,130.424,93.03,124.748,113.345z"/>
	<path style="fill:#3EA69B;" d="M86.937,214.517c1.034,3.471,2.441,6.912,4.815,9.647c2.374,2.735,5.848,4.693,9.467,4.552
		c6.406-0.249,10.978-6.978,11.28-13.381c0.302-6.404-2.476-12.495-5.022-18.379c-2.546-5.883-4.965-12.225-3.91-18.548
		c0.707-4.233,2.934-8.109,3.54-12.358c1.304-9.147-4.166-9.054-9.266-4.318c-4.373,4.061-7.415,11.107-9.447,16.598
		C84.138,189.832,83.424,202.726,86.937,214.517z"/>
	<path style="fill:#3EA69B;" d="M158.766,267.613c3.108-1.996,6.259-4.61,9.947-4.39c5.663,0.338,8.706,7.598,6.96,12.995
		c-1.746,5.397-6.508,9.165-11.025,12.598c-6.441,4.895-13.535,10.018-21.624,9.953c-7.887-0.064-15.018-5.258-19.475-11.765
		c-2.148-3.136-7.584-11.22-6.386-15.261c1.984-6.693,5.361-2.935,10.129-1.491C137.969,273.485,148.985,273.892,158.766,267.613z"
		/>
</g>
<g>
</g>
<g>
</g>
<g>
</g>
<g>
</g>
<g>
</g>
<g>
</g>
<g>
</g>
<g>
</g>
<g>
</g>
<g>
</g>
<g>
</g>
<g>
</g>
<g>
</g>
<g>
</g>
<g>
</g>
</svg>
