<?xml version="1.0" encoding="iso-8859-1"?>
<!-- Generator: Adobe Illustrator 19.0.0, SVG Export Plug-In . SVG Version: 6.00 Build 0)  -->
<svg version="1.1" id="Capa_1" xmlns="http://www.w3.org/2000/svg" xmlns:xlink="http://www.w3.org/1999/xlink" x="0px" y="0px"
	 viewBox="0 0 468.293 468.293" style="enable-background:new 0 0 468.293 468.293;" xml:space="preserve">
<path style="fill:#3A556A;" d="M243.279,47.095V9.147c0-5.053-4.094-9.147-9.147-9.147s-9.147,4.094-9.147,9.147v37.947H243.279z"/>
<path style="fill:#64798A;" d="M382.641,340.207c0,70.74-66.483,128.086-148.495,128.086S85.652,410.947,85.652,340.207
	c0-42.56,53.751-171.804,96.575-268.022c18.262-41.03,85.577-41.03,103.839,0C328.89,168.403,382.641,297.647,382.641,340.207z"/>
<path style="fill:#3EA69B;" d="M366.451,340.184c0,62.263-59.34,112.879-132.32,112.879V56.674c13.316,0,29.993,5.61,37.039,21.405
	C354.105,264.443,366.451,322.316,366.451,340.184z"/>
<path style="fill:#44C4A1;" d="M234.132,56.674v396.389c-72.979,0-132.319-50.616-132.319-112.879
	c0-17.868,12.411-75.741,95.345-262.104C204.138,62.285,220.88,56.674,234.132,56.674z"/>
<path style="fill:#DC8744;" d="M298.579,355.612c-0.324,22.442-21.849,41.774-49.838,46.957c-4.719,0.854-9.631,1.281-14.609,1.281
	c-34.647,0-63.994-22.015-64.447-48.238c0.323-3.72,3.103-23.539,26.309-85.132c8.339-22.198,33.031-29.882,52.682-22.93h0.065
	c10.278,3.598,19.198,11.282,23.594,22.93C295.476,332.073,298.255,351.892,298.579,355.612z"/>
<path style="fill:#F6C358;" d="M298.579,355.612c-0.324,22.442-21.849,41.774-49.838,46.957
	c-27.99-5.122-49.579-24.515-49.903-46.957c0.324-3.72,3.103-23.539,26.309-85.132c4.396-11.648,13.252-19.332,23.529-22.93h0.065
	c10.278,3.598,19.198,11.282,23.594,22.93C295.476,332.073,298.255,351.892,298.579,355.612z"/>
<g>
</g>
<g>
</g>
<g>
</g>
<g>
</g>
<g>
</g>
<g>
</g>
<g>
</g>
<g>
</g>
<g>
</g>
<g>
</g>
<g>
</g>
<g>
</g>
<g>
</g>
<g>
</g>
<g>
</g>
</svg>
