<?xml version="1.0" encoding="iso-8859-1"?>
<!-- Generator: Adobe Illustrator 19.0.0, SVG Export Plug-In . SVG Version: 6.00 Build 0)  -->
<svg version="1.1" id="Capa_1" xmlns="http://www.w3.org/2000/svg" xmlns:xlink="http://www.w3.org/1999/xlink" x="0px" y="0px"
	 viewBox="0 0 468.293 468.293" style="enable-background:new 0 0 468.293 468.293;" xml:space="preserve">
<path style="fill:#44C4A1;" d="M252.423,35.447c0,0-34.793-60.088-100.514-23.797S72.271,84.281,26.653,78.868
	c0,0,24.064,14.55,85.391-5.44c12.7-4.14,24.899-9.689,36.772-15.812C163.945,49.816,197.84,36.316,252.423,35.447z"/>
<path style="fill:#3EA69B;" d="M252.423,35.447c-8.708-5.177-18.172-8.944-27.953-11.045c-9.726-2.274-19.751-3.14-29.632-2.307
	c-9.876,0.928-19.659,2.871-28.534,7.012c-4.453,2.04-8.767,4.409-12.833,7.177c-4.091,2.689-7.805,5.953-11.962,9.105
	c-16.42,12.293-34.641,22.407-54.282,28.54c-9.808,3.019-19.87,5.287-30.081,6.198c-10.219,0.708-15.54,1.783-25.553,0.077
	c20.275,1.1,35.492-3.377,54.238-10.377c18.76-6.91,36.356-16.856,52.28-28.927c3.944-2.928,7.896-6.336,12.304-9.187
	c4.347-2.878,8.934-5.43,13.753-7.477c9.666-4.133,20.107-6.133,30.426-6.447C215.283,17.141,236.186,23.153,252.423,35.447z"/>
<path style="fill:#64798A;" d="M260.324,10.247c-7.148,14.263-23.399,50.491-27.121,91.615h8.859
	c8.292-29.005,22.02-53.003,46.749-66.87c3.545-1.988,4.022-6.886,0.902-9.492L269.244,8.41
	C266.361,6.003,262.007,6.89,260.324,10.247z"/>
<path style="fill:#E56353;" d="M383.986,367.493c-16.976,18.6-38.307,32.698-61.778,42.071
	c-26.647,10.671-63.81,37.632-78.532,55.895c-3.042,3.774-8.637,3.78-11.684,0.009c-14.76-18.264-51.932-45.232-78.583-55.905
	c-23.397-9.373-44.802-23.471-61.778-42.071c-75.063-82.591-62.516-159.426-41.48-206.59
	c22.511-50.632,73.735-83.551,129.017-79.639c21.774,1.55,39.783,7.307,49.821,11.219c5.683,2.214,8.857,3.838,8.857,3.838
	s24.652-12.695,58.678-15.057c55.209-3.912,106.432,29.007,128.943,79.639C446.501,208.067,459.122,284.901,383.986,367.493z"/>
<path style="fill:#D15241;" d="M206.151,373.328c-79.654-139.914-23.937-233.508,22.837-280.846
	c5.683,2.214,8.857,3.838,8.857,3.838c-80.72,107.042-47.592,227.387-28.824,275.736
	C209.725,373.871,207.114,375.02,206.151,373.328z"/>
<g>
</g>
<g>
</g>
<g>
</g>
<g>
</g>
<g>
</g>
<g>
</g>
<g>
</g>
<g>
</g>
<g>
</g>
<g>
</g>
<g>
</g>
<g>
</g>
<g>
</g>
<g>
</g>
<g>
</g>
</svg>
