<?xml version="1.0" encoding="iso-8859-1"?>
<!-- Generator: Adobe Illustrator 19.0.0, SVG Export Plug-In . SVG Version: 6.00 Build 0)  -->
<svg version="1.1" id="Capa_1" xmlns="http://www.w3.org/2000/svg" xmlns:xlink="http://www.w3.org/1999/xlink" x="0px" y="0px"
	 viewBox="0 0 470.153 470.153" style="enable-background:new 0 0 470.153 470.153;" xml:space="preserve">
<path style="fill:#64798A;" d="M316.076,1.86v36.191c0,0-70.357,13.537-80.058,87.407C236.018,125.458,214.858,57.84,316.076,1.86z"
	/>
<path style="fill:#D15241;" d="M307.113,87.879c-6.302,0-12.47,0.536-18.504,1.676c62.416,10.995,110.352,76.763,110.352,156.208
	c0,80.719-49.477,204.277-113.234,222.178c6.972,1.475,14.079,2.212,21.386,2.212c71.132,0,128.855-137.168,128.855-224.39
	C435.968,158.608,378.245,87.879,307.113,87.879z"/>
<path style="fill:#E56353;" d="M398.961,245.763c0,80.719-49.477,204.277-113.234,222.178c-12.872-2.548-25.141-7.509-36.404-14.481
	c-8.783-5.363-19.71-5.363-28.493,0c-1.408,0.872-2.816,1.676-4.224,2.48c-16.291,9.185-34.46,14.213-53.567,14.213
	c-5.297,0-10.526-0.737-15.621-2.212C83.662,450.04,34.185,326.481,34.185,245.763c0-79.445,47.935-145.214,110.284-156.275
	c6.101-1.073,12.269-1.609,18.571-1.609c19.107,0,37.275,5.095,53.567,14.213c1.408,0.804,2.816,1.609,4.224,2.481
	c8.783,5.43,19.71,5.43,28.493,0c12.135-7.442,25.342-12.604,39.287-15.017C351.026,100.549,398.961,166.318,398.961,245.763z"/>
<g>
	<path style="fill:#E1E6E9;" d="M124.805,211.185c-7.636,37.36,1.457,70.77-13.826,67.646s-29.361-37.552-21.725-74.912
		c7.636-37.36,34.094-63.504,49.377-60.38S132.441,173.825,124.805,211.185z"/>
	<path style="fill:#E1E6E9;" d="M304.958,367.755c14.278-23.971,17.245-48.527,25.852-43.404c8.607,5.123,8.446,31.349-5.832,55.32
		c-14.278,23.971-37.265,36.611-45.872,31.487C270.499,406.036,290.68,391.727,304.958,367.755z"/>
</g>
<g>
	<path style="fill:#44C4A1;" d="M240.997,79.938C240.997,35.79,205.208,0,161.059,0L240.997,79.938z"/>
</g>
<path style="fill:#3EA69B;" d="M240.997,79.938L161.059,0C161.059,44.149,196.848,79.938,240.997,79.938z"/>
<g>
	<path style="fill:#31978C;" d="M201.908,22.504l0,18.151l-16.092,1.494c-1.206,0.111-2.27-0.774-2.383-1.977
		c-0.133-1.261,0.776-2.27,1.977-2.384l12.121-1.122l0-14.162c0-1.21,0.979-2.189,2.189-2.189
		C200.929,20.315,201.908,21.294,201.908,22.504z"/>
	<path style="fill:#31978C;" d="M218.381,38.978l0,18.151l-16.092,1.494c-1.206,0.111-2.27-0.774-2.383-1.977
		c-0.133-1.261,0.776-2.27,1.977-2.384l12.121-1.122l0-14.162c0-1.21,0.979-2.189,2.189-2.189S218.381,37.768,218.381,38.978z"/>
</g>
<g>
	<path style="fill:#44C4A1;" d="M274.11,57.078c13.053,19.099,39.116,24,58.215,10.947L274.11,57.078z"/>
</g>
<path style="fill:#3EA69B;" d="M274.11,57.077l58.215,10.947C319.271,48.926,293.208,44.025,274.11,57.077z"/>
<g>
	<path style="fill:#31978C;" d="M308,70.366l-5.366-7.852l6.52-5.404c0.489-0.405,1.211-0.336,1.616,0.151
		c0.43,0.506,0.336,1.212-0.151,1.616l-4.911,4.069l4.187,6.126c0.358,0.523,0.224,1.236-0.3,1.594
		C309.071,71.024,308.358,70.89,308,70.366z"/>
	<path style="fill:#31978C;" d="M296.003,68.11l-5.366-7.852l6.52-5.404c0.489-0.405,1.211-0.336,1.616,0.151
		c0.43,0.506,0.336,1.212-0.151,1.616l-4.911,4.069l4.187,6.126c0.358,0.523,0.224,1.236-0.3,1.594S296.361,68.634,296.003,68.11z"
		/>
</g>
<g>
</g>
<g>
</g>
<g>
</g>
<g>
</g>
<g>
</g>
<g>
</g>
<g>
</g>
<g>
</g>
<g>
</g>
<g>
</g>
<g>
</g>
<g>
</g>
<g>
</g>
<g>
</g>
<g>
</g>
</svg>
