<?xml version="1.0" encoding="iso-8859-1"?>
<!-- Generator: Adobe Illustrator 19.0.0, SVG Export Plug-In . SVG Version: 6.00 Build 0)  -->
<svg version="1.1" id="Capa_1" xmlns="http://www.w3.org/2000/svg" xmlns:xlink="http://www.w3.org/1999/xlink" x="0px" y="0px"
	 viewBox="0 0 468.293 468.293" style="enable-background:new 0 0 468.293 468.293;" xml:space="preserve">
<path style="fill:#F6C358;" d="M403.725,53.27c5.233,11.833,2.107,24.97-6.792,32.149c9.732,44.256-11.138,93.64-52.712,130.002
	c29.296-33.698,42.84-74.631,34.607-111.89c8.898-7.18,12.049-20.38,6.836-32.169c-5.902-13.346-20.203-19.946-32.652-15.504
	C313.621,15.25,239.67,5.458,170.582,36.01c-20.108,8.892-37.988,20.416-53.096,33.639c18.105-20.878,42.33-38.983,71.157-51.731
	c69.132-30.572,143.039-20.759,182.475,19.828C383.522,33.323,397.823,39.924,403.725,53.27z"/>
<path style="fill:#FCD462;" d="M385.664,71.362c2.979,6.737,3.227,13.934,1.232,20.206c-3.509,11.03-5.699,22.367-5.691,33.942
	c0.02,30.862-13.361,62.739-36.984,89.912c-15.158,13.351-33.082,24.895-53.279,33.826c-75.449,33.365-156.745,18.63-192.468-31.843
	c-11.299,1.752-23.165-4.755-28.397-16.588c-5.902-13.346-1.118-28.386,10.5-34.587c-2.058-32.916,11.554-67.444,36.91-96.581
	c15.108-13.223,32.988-24.747,53.096-33.639c59.159-26.162,121.885-22.741,163.424,4.279c10.815,7.035,23.042,11.36,35.225,15.604
	C376.177,58.312,382.292,63.735,385.664,71.362z"/>
<path style="fill:#EBF0F3;" d="M227.232,58.877c3.813,5.828-21.177,5.068-42.333,18.91s-30.468,37.045-34.281,31.217
	s2.373-33.807,23.53-47.649S223.419,53.049,227.232,58.877z"/>
<path style="fill:#F6C358;" d="M466.321,298.217c0,16.469-10.401,30.152-24.456,33.928
	c-11.454,56.527-61.17,103.271-128.284,124.198c51.45-24.146,88.288-64.823,97.885-112.434
	c14.054-3.777,24.518-17.522,24.518-33.929c0-18.574-13.25-33.619-30.028-34.857c-24.951-67.547-105.995-117.016-202.147-117.016
	c-27.985,0-54.731,4.21-79.125,11.825c31.824-14.983,69.343-23.589,109.463-23.589c96.213,0,177.196,49.469,202.209,117.016
	C453.072,264.598,466.321,279.643,466.321,298.217z"/>
<path style="fill:#FCD462;" d="M435.984,309.98c0,9.376-3.417,17.882-8.967,24.155c-9.762,11.034-18.148,23.103-24.097,36.581
	c-15.863,35.937-47.85,66.156-89.338,85.627c-24.518,7.739-51.326,11.949-79.435,11.949c-105.005,0-192.055-59.003-207.657-136.147
	c-14.054-3.777-24.518-17.46-24.518-33.928c0-18.574,13.311-33.619,30.028-34.857c14.549-39.377,48.168-72.563,92.684-93.427
	c24.394-7.615,51.14-11.825,79.125-11.825c82.334,0,153.591,36.273,188.037,89.109c8.968,13.756,20.975,25.086,32.973,36.298
	C431.657,289.905,435.984,299.367,435.984,309.98z"/>
<path style="fill:#EBF0F3;" d="M219.329,217.371c3.48,9.805-32.529-0.112-68.123,12.52c-35.594,12.633-57.294,43.031-60.774,33.227
	c-3.48-9.805,15.368-48.24,50.962-60.873C176.988,189.613,215.849,207.566,219.329,217.371z"/>
<g>
</g>
<g>
</g>
<g>
</g>
<g>
</g>
<g>
</g>
<g>
</g>
<g>
</g>
<g>
</g>
<g>
</g>
<g>
</g>
<g>
</g>
<g>
</g>
<g>
</g>
<g>
</g>
<g>
</g>
</svg>
