<?xml version="1.0" encoding="iso-8859-1"?>
<!-- Generator: Adobe Illustrator 19.0.0, SVG Export Plug-In . SVG Version: 6.00 Build 0)  -->
<svg version="1.1" id="Capa_1" xmlns="http://www.w3.org/2000/svg" xmlns:xlink="http://www.w3.org/1999/xlink" x="0px" y="0px"
	 viewBox="0 0 468.293 468.293" style="enable-background:new 0 0 468.293 468.293;" xml:space="preserve">
<path style="fill:#F6C358;" d="M424.038,412.958c-23.569,19.276-59.162,33.875-112.407,37.788
	c-20.802,1.527-41.414,4.676-61.834,8.684c-4.962,0.954-9.828,2.003-14.79,3.053c-7.443,1.527-15.649,2.957-24.524,4.008
	c-39.504,4.771-91.128,1.908-133.209-31.49c0,0-112.599-70.898-65.651-173.001c0,0,14.981-48.57,62.597-79.869
	c33.684-22.234,83.685-35.783,156.207-17.557c4.103,0.954,8.206,2.099,12.5,3.34c5.057,1.432,10.115,2.863,15.267,4.198
	c21.661,5.917,43.513,10.879,65.651,15.269c39.791,7.824,98.667,26.623,130.92,70.516c5.821,7.825,9.542,17.176,11.069,26.814
	C470.319,312.192,473.181,372.785,424.038,412.958z"/>
<path style="fill:#FCD462;" d="M424.038,412.958c-23.283,15.173-55.822,26.241-101.148,29.582
	c-20.802,1.526-41.414,4.676-61.834,8.683c-4.962,0.955-9.828,2.005-14.79,3.054c-7.443,1.526-15.649,2.959-24.524,4.007
	c-39.504,4.771-91.128,1.909-133.209-31.489c0,0-112.598-70.899-65.651-173.001c0,0,12.596-40.746,51.337-71.662
	c33.684-22.234,83.685-35.783,156.207-17.557c4.103,0.954,8.206,2.099,12.5,3.34c5.057,1.432,10.115,2.863,15.267,4.198
	c21.661,5.917,43.513,10.879,65.651,15.269c39.791,7.824,98.667,26.623,130.92,70.516c5.821,7.825,9.542,17.176,11.069,26.814
	C470.319,312.192,473.181,372.785,424.038,412.958z"/>
<g>
	<path style="fill:#F6C358;" d="M258.194,172.111c-6.012,2.672-11.928,5.631-17.844,8.779c-8.779,4.676-17.462,9.638-25.764,14.981
		c-4.103,2.768-8.206,5.535-11.641,8.875c-3.435,3.244-6.775,6.68-6.966,12.404c-1.909-2.099-2.958-5.248-2.863-8.492
		c0-3.15,0.955-6.107,2.004-9.065c2.29-5.631,5.63-10.593,9.447-14.886c7.443-8.302,16.222-14.982,25.86-20.134
		c4.103,0.954,8.206,2.099,12.5,3.34C247.984,169.345,253.041,170.777,258.194,172.111z"/>
	<path style="fill:#F6C358;" d="M280.332,405.229c0.573,10.019-2.767,19.656-7.443,28.246c-4.771,8.683-11.165,16.412-18.799,22.709
		c-1.431,1.146-2.863,2.194-4.294,3.245c-4.962,0.954-9.828,2.003-14.79,3.053c-7.443,1.527-15.649,2.957-24.524,4.008
		c4.103-2.768,8.016-5.44,11.832-8.303c7.252-4.867,13.836-10.305,20.516-15.553c6.584-5.44,12.787-11.165,18.893-17.272
		C268.023,419.161,273.939,412.672,280.332,405.229z"/>
	<path style="fill:#F6C358;" d="M366.474,276.841c-0.108,18.216-1.351,33.393-1.288,48.918c-0.075,7.705-0.008,15.382,0.416,23.29
		c0.044,8.038,1.082,16.007,0.871,25.402c-14.084-11.937-15.467-30.778-15.222-48.853c0.061-9.093,1.732-18.142,5.05-26.529
		C359.693,290.749,359.234,282.772,366.474,276.841z"/>
	<path style="fill:#F6C358;" d="M44.55,261.987c1.378,16.351,3.448,31.903,6.476,46.99c3.125,15.061,7.683,29.44,13.864,42.86
		c6.03,13.535,14.409,25.741,24.697,36.631c9.957,11.469,22.836,19.916,36.066,29.93c-16.021-2.561-32.589-8.014-45.945-18.786
		c-13.678-10.132-25.206-23.956-32.11-39.714c-7.24-15.602-10.824-32.556-11.314-49.253
		C35.881,293.967,38.097,277.227,44.55,261.987z"/>
	<path style="fill:#F6C358;" d="M214.963,252.935c-3.052,8.564-12.588,13.837-21.853,13.82c-4.66-0.079-9.334-1.232-13.25-3.682
		c-3.918-2.362-7.139-5.861-8.603-10.137c8.387,2.92,14.909,4.304,21.853,4.283C200.054,257.261,206.592,255.87,214.963,252.935z"/>
	<path style="fill:#F6C358;" d="M256.106,333.658c3.856,8.233,0.789,18.69-5.807,25.196c-3.367,3.222-7.5,5.692-12.006,6.706
		c-4.446,1.078-9.197,0.858-13.245-1.15c8.014-3.826,13.622-7.431,18.542-12.333C248.555,347.222,252.222,341.633,256.106,333.658z"
		/>
	<path style="fill:#F6C358;" d="M359.114,248.19c-7.215,5.531-18.087,4.776-25.856-0.272c-3.869-2.598-7.167-6.106-9.124-10.29
		c-2.006-4.112-2.809-8.8-1.715-13.185c5.455,7.008,10.178,11.713,16.02,15.469C344.246,243.721,350.491,246.106,359.114,248.19z"/>
	<path style="fill:#F6C358;" d="M145.994,398.485c6.519,6.336,7.348,17.201,3.48,25.619c-2.01,4.205-5.002,7.976-8.858,10.519
		c-3.778,2.581-8.299,4.056-12.797,3.609c6.143-6.413,10.114-11.769,12.983-18.093C143.728,413.842,145.182,407.318,145.994,398.485
		z"/>
	<path style="fill:#F6C358;" d="M125.156,214.401c2.228,8.822-2.818,18.449-10.592,23.512c-3.949,2.487-8.511,4.086-13.161,4.187
		c-4.604,0.175-9.258-0.981-12.874-3.748c8.66-2.158,14.899-4.577,20.707-8.4C115.079,226.183,119.781,221.439,125.156,214.401z"/>
	<path style="fill:#F6C358;" d="M387.856,370.769c2.228,8.822-2.818,18.449-10.592,23.512c-3.949,2.487-8.511,4.086-13.161,4.187
		c-4.604,0.175-9.258-0.981-12.874-3.748c8.66-2.158,14.899-4.577,20.707-8.4C377.778,382.551,382.481,377.807,387.856,370.769z"/>
	<path style="fill:#F6C358;" d="M389.738,112.187c-4.721,23.314-19.026,49.746-49.292,78.446
		c-11.825,11.211-22.733,23.309-33.101,35.833c-2.529,3.031-4.953,6.072-7.435,9.161c-3.746,4.604-8.002,9.528-12.849,14.553
		c-21.532,22.423-54.168,46.222-96.135,46.836c0,0-103.161,12.809-125.264-72.159c0,0-14.96-36.783-1.643-79.261
		c9.375-30.105,32.913-63.028,85.786-87.872c2.953-1.452,6.001-2.789,9.211-4.162c3.766-1.635,7.533-3.271,11.309-5.012
		c16.027-7.134,31.696-14.94,47.255-23.234c27.934-14.947,72.838-32.696,114.052-22.101c7.39,1.854,14.266,5.669,19.956,10.742
		C367.892,28.358,399.59,63.587,389.738,112.187z"/>
</g>
<path style="fill:#FCD462;" d="M389.738,112.187c-6.577,20.691-20.782,43.477-46.541,67.914
	c-11.826,11.211-22.733,23.309-33.102,35.832c-2.528,3.031-4.952,6.073-7.434,9.162c-3.746,4.604-8.001,9.529-12.85,14.552
	c-21.532,22.423-54.168,46.223-96.135,46.837c0,0-103.161,12.808-125.264-72.159c0,0-12.534-30.871-4.394-68.729
	c9.375-30.105,32.913-63.028,85.786-87.872c2.953-1.452,6.001-2.789,9.211-4.162c3.766-1.635,7.533-3.271,11.31-5.012
	c16.027-7.134,31.696-14.94,47.255-23.234c27.934-14.947,72.838-32.696,114.052-22.101c7.39,1.854,14.266,5.669,19.956,10.742
	C367.892,28.358,399.59,63.587,389.738,112.187z"/>
<g>
	<path style="fill:#F6C358;" d="M170.326,48.549c-2.314,4.589-4.429,9.304-6.45,14.134c-2.997,7.169-5.794,14.465-8.173,21.802
		c-1.113,3.703-2.225,7.406-2.651,11.125c-0.473,3.661-0.794,7.391,1.922,10.947c-2.192-0.326-4.384-1.711-5.931-3.72
		c-1.558-1.905-2.443-4.166-3.271-6.473c-1.4-4.538-1.834-9.191-1.649-13.675c0.396-8.702,2.401-17.084,5.682-24.966
		c2.953-1.452,6.001-2.789,9.211-4.162C162.783,51.925,166.549,50.29,170.326,48.549z"/>
	<path style="fill:#F6C358;" d="M299.006,178.585c5.301,5.776,8.048,13.256,9.468,20.763c1.409,7.611,1.365,15.448-0.138,23.031
		c-0.299,1.401-0.646,2.743-0.992,4.086c-2.529,3.031-4.953,6.072-7.435,9.161c-3.746,4.604-8.002,9.528-12.849,14.553
		c1.113-3.703,2.157-7.254,3.05-10.873c1.979-6.53,3.271-13.075,4.716-19.552c1.292-6.546,2.211-13.076,2.884-19.79
		C298.452,193.098,298.821,186.248,299.006,178.585z"/>
	<path style="fill:#F6C358;" d="M287.606,58.336c8.944,11.07,15.698,20.863,23.414,30.221c3.765,4.697,7.602,9.306,11.77,13.879
		c4.002,4.84,8.571,9.146,13.09,14.932c-14.422-0.254-24.576-10.965-33.367-22.017c-4.46-5.529-7.925-11.828-10.066-18.542
		C290.384,70.1,286.161,65.503,287.606,58.336z"/>
	<path style="fill:#F6C358;" d="M85.569,208.564c8.92,9.207,17.864,17.589,27.156,25.216c9.339,7.563,19.206,14.005,29.582,19.064
		c10.341,5.204,21.445,8.441,33.052,9.94c11.694,2.012,23.661,0.751,36.614,0.264c-10.956,6.374-23.673,11.271-37.077,11.361
		c-13.283,0.637-27.091-2.022-39.06-8.138c-12.095-5.855-22.647-14.336-31.201-24.192C96.142,232.192,89.203,220.972,85.569,208.564
		z"/>
	<path style="fill:#F6C358;" d="M184.153,118.81c2.39,6.689-0.77,14.594-6.382,19.165c-2.857,2.257-6.255,3.871-9.834,4.326
		c-3.538,0.509-7.216-0.014-10.217-1.876c6.516-2.382,11.145-4.77,15.335-8.217C177.276,128.799,180.543,124.725,184.153,118.81z"/>
	<path style="fill:#F6C358;" d="M248.958,147.281c6.404,3.072,9.721,10.913,8.949,18.11c-0.443,3.614-1.721,7.152-3.944,9.993
		c-2.156,2.851-5.138,5.067-8.579,5.855c2.955-6.277,4.563-11.231,5.115-16.629C251.1,159.219,250.554,154.025,248.958,147.281z"/>
	<path style="fill:#F6C358;" d="M268.985,44.649c-1.628,6.913-8.576,11.834-15.772,12.623c-3.625,0.342-7.354-0.148-10.607-1.711
		c-3.247-1.495-6.051-3.932-7.558-7.126c6.765,1.541,11.949,2.05,17.339,1.432C257.783,49.299,262.739,47.653,268.985,44.649z"/>
	<path style="fill:#F6C358;" d="M214.426,240.945c7.076,0.608,12.951,6.769,14.775,13.773c0.864,3.537,0.919,7.298-0.155,10.743
		c-1.008,3.429-3.013,6.557-5.954,8.511c0.544-6.917,0.296-12.119-1.096-17.363C220.651,251.353,218.304,246.688,214.426,240.945z"
		/>
	<path style="fill:#F6C358;" d="M110.783,139.92c5.71,4.233,7.42,12.551,5.222,19.458c-1.158,3.458-3.126,6.681-5.889,9.041
		c-2.698,2.383-6.084,3.985-9.64,4.1c4.17-5.588,6.747-10.136,8.369-15.321C110.515,152.029,111.013,146.835,110.783,139.92z"/>
	<path style="fill:#F6C358;" d="M346.991,104.567c5.71,4.233,7.42,12.551,5.222,19.458c-1.158,3.458-3.126,6.681-5.889,9.041
		c-2.698,2.383-6.084,3.985-9.64,4.1c4.17-5.588,6.747-10.136,8.369-15.321C346.723,116.676,347.221,111.482,346.991,104.567z"/>
</g>
<g>
</g>
<g>
</g>
<g>
</g>
<g>
</g>
<g>
</g>
<g>
</g>
<g>
</g>
<g>
</g>
<g>
</g>
<g>
</g>
<g>
</g>
<g>
</g>
<g>
</g>
<g>
</g>
<g>
</g>
</svg>
