<?xml version="1.0" encoding="iso-8859-1"?>
<!-- Generator: Adobe Illustrator 19.0.0, SVG Export Plug-In . SVG Version: 6.00 Build 0)  -->
<svg version="1.1" id="Capa_1" xmlns="http://www.w3.org/2000/svg" xmlns:xlink="http://www.w3.org/1999/xlink" x="0px" y="0px"
	 viewBox="0 0 468.293 468.293" style="enable-background:new 0 0 468.293 468.293;" xml:space="preserve">
<path style="fill:#D5D6DB;" d="M277.444,214.771h-86.594c-47.264-57.544,7.877-92.013,7.877-92.013
	c18.66-12.682,27.543-33.186,31.733-48.493h7.375c1.509,5.419,3.576,11.508,6.536,17.654c5.252,11.229,13.185,22.626,25.196,30.839
	C269.566,122.757,324.707,157.227,277.444,214.771z"/>
<path style="fill:#E1E6E9;" d="M277.444,214.771h-66.203c-47.264-57.544,7.878-92.013,7.878-92.013
	c12.067-8.213,20-19.609,25.252-30.839c5.252,11.229,13.185,22.626,25.196,30.839C269.566,122.757,324.707,157.227,277.444,214.771z
	"/>
<path style="fill:#3EA69B;" d="M237.834,74.264l27.367-41.616h-5.571c0,0-22.012,13.548-25.484,41.616H237.834z"/>
<path style="fill:#44C4A1;" d="M230.459,74.264l-27.367-41.616h5.571c0,0,22.012,13.548,25.484,41.616H230.459z"/>
<path style="fill:#D5D6DB;" d="M145.139,225.482H72.524c-39.634-48.254,6.606-77.159,6.606-77.159
	c15.648-10.635,23.096-27.828,26.61-40.665h6.184c1.265,4.544,2.998,9.65,5.481,14.804c4.404,9.417,11.056,18.973,21.129,25.86
	C138.533,148.323,184.773,177.228,145.139,225.482z"/>
<path style="fill:#E1E6E9;" d="M145.139,225.482H89.624c-39.634-48.254,6.606-77.159,6.606-77.159
	c10.119-6.887,16.772-16.444,21.175-25.86c4.404,9.417,11.056,18.973,21.129,25.86C138.533,148.323,184.773,177.228,145.139,225.482
	z"/>
<path style="fill:#3EA69B;" d="M111.923,107.658l22.949-34.897h-4.672c0,0-18.459,11.361-21.37,34.897H111.923z"/>
<path style="fill:#44C4A1;" d="M105.74,107.658L82.79,72.761h4.672c0,0,18.459,11.361,21.37,34.897H105.74z"/>
<path style="fill:#D5D6DB;" d="M395.769,225.482h-72.615c-39.634-48.254,6.605-77.159,6.605-77.159
	c15.648-10.635,23.096-27.828,26.61-40.665h6.184c1.265,4.544,2.998,9.65,5.481,14.804c4.404,9.417,11.056,18.973,21.129,25.86
	C389.163,148.323,435.403,177.228,395.769,225.482z"/>
<path style="fill:#E1E6E9;" d="M395.769,225.482h-55.516c-39.634-48.254,6.606-77.159,6.606-77.159
	c10.119-6.887,16.772-16.444,21.175-25.86c4.404,9.417,11.056,18.973,21.129,25.86C389.163,148.323,435.403,177.228,395.769,225.482
	z"/>
<path style="fill:#3EA69B;" d="M362.553,107.658l22.949-34.897h-4.672c0,0-18.459,11.361-21.37,34.897H362.553z"/>
<path style="fill:#44C4A1;" d="M356.369,107.658L333.42,72.761h4.672c0,0,18.459,11.361,21.37,34.897H356.369z"/>
<path style="fill:#E56353;" d="M0,404.424V192.132h468.293v212.293c0,6.897-5.591,12.488-12.488,12.488H12.488
	C5.591,416.912,0,411.321,0,404.424z"/>
<g>
	<rect x="52.636" y="192.125" style="fill:#D15241;" width="74.927" height="224.781"/>
	<rect x="340.73" y="192.125" style="fill:#D15241;" width="74.927" height="224.781"/>
</g>
<g>
	<path style="fill:#64798A;" d="M121.319,435.644H58.88c-3.448,0-6.244-2.795-6.244-6.244v-12.488h74.927V429.4
		C127.563,432.849,124.768,435.644,121.319,435.644z"/>
	<path style="fill:#64798A;" d="M409.412,435.644h-62.439c-3.448,0-6.244-2.795-6.244-6.244v-12.488h74.927V429.4
		C415.656,432.849,412.861,435.644,409.412,435.644z"/>
</g>
<g>
	<circle style="fill:#E1E6E9;" cx="378.193" cy="304.515" r="15.61"/>
	<circle style="fill:#E1E6E9;" cx="378.193" cy="360.71" r="15.61"/>
	<circle style="fill:#E1E6E9;" cx="378.193" cy="248.32" r="15.61"/>
</g>
<g>
	<circle style="fill:#D5D6DB;" cx="378.193" cy="248.32" r="9.366"/>
	<circle style="fill:#D5D6DB;" cx="378.193" cy="304.515" r="9.366"/>
	<circle style="fill:#D5D6DB;" cx="378.193" cy="360.71" r="9.366"/>
</g>
<g>
	<circle style="fill:#E1E6E9;" cx="90.1" cy="304.515" r="15.61"/>
	<circle style="fill:#E1E6E9;" cx="90.1" cy="360.71" r="15.61"/>
	<circle style="fill:#E1E6E9;" cx="90.1" cy="248.32" r="15.61"/>
</g>
<g>
	<circle style="fill:#D5D6DB;" cx="90.1" cy="248.32" r="9.366"/>
	<circle style="fill:#D5D6DB;" cx="90.1" cy="304.515" r="9.366"/>
	<circle style="fill:#D5D6DB;" cx="90.1" cy="360.71" r="9.366"/>
</g>
<g>
</g>
<g>
</g>
<g>
</g>
<g>
</g>
<g>
</g>
<g>
</g>
<g>
</g>
<g>
</g>
<g>
</g>
<g>
</g>
<g>
</g>
<g>
</g>
<g>
</g>
<g>
</g>
<g>
</g>
</svg>
