<?xml version="1.0" encoding="iso-8859-1"?>
<!-- Generator: Adobe Illustrator 19.0.0, SVG Export Plug-In . SVG Version: 6.00 Build 0)  -->
<svg version="1.1" id="Capa_1" xmlns="http://www.w3.org/2000/svg" xmlns:xlink="http://www.w3.org/1999/xlink" x="0px" y="0px"
	 viewBox="0 0 468.293 468.293" style="enable-background:new 0 0 468.293 468.293;" xml:space="preserve">
<path style="fill:#44C4A1;" d="M441.037,261.402c0,53.406-20.193,102.121-53.461,138.865c-1.434,1.545-2.869,3.09-4.248,4.579
	c-3.31,3.366-6.675,6.621-10.151,9.821c-21.13,19.144-46.178,33.985-73.819,43.144c-8.22,2.703-16.662,4.965-25.324,6.621
	c-10.537,2.097-21.406,3.365-32.496,3.696c-2.428,0.11-4.91,0.165-7.393,0.165c-3.365,0-6.676-0.055-9.986-0.276
	c-10.152-0.441-20.082-1.655-29.848-3.586c-8.607-1.655-17.103-3.862-25.323-6.621c-27.641-9.159-52.688-24-73.819-43.088
	c-3.476-3.2-6.896-6.51-10.262-9.931c-1.324-1.49-2.703-2.924-4.083-4.414c-33.268-36.744-53.571-85.515-53.571-138.975
	c0-55.116,21.572-105.21,56.715-142.341c24.993-26.316,56.826-46.123,92.687-56.44c5.793-1.71,11.751-3.145,17.765-4.303
	c9.765-1.876,19.806-3.09,30.013-3.586c3.2-0.166,6.455-0.221,9.71-0.221h1.821c12.965,0.11,25.654,1.434,37.958,3.862
	c6.013,1.103,11.972,2.538,17.765,4.248c35.861,10.372,67.75,30.178,92.742,56.495C419.52,156.247,441.037,206.342,441.037,261.402z
	"/>
<g>
	<path style="fill:#3EA69B;" d="M271.883,241.32c-1.71-44.247-10.979-83.749-19.972-121.431c-0.055-0.276-0.165-0.607-0.221-0.883
		c-1.821-8.441-3.862-16.606-6.29-24.22c-3.255-13.186-6.4-26.648-9.434-40.275h-1.821c-3.255,0-6.51,0.055-9.71,0.221
		c0.938,6.952,2.097,13.682,3.31,20.358c0.717,13.903,3.31,29.847,4.248,41.543c2.207,1.49,3.641,4.69,4.579,8.607
		c0.496,3.586,0.993,7.227,1.49,10.869c0.11,1.103,0.165,2.207,0.221,3.31c0.416,8.053,0.833,16.106,1.25,24.159
		c-4.116,2.573-8.232,5.147-12.348,7.72c3.309,3.917,6.618,7.833,9.927,11.75c-5.826,0.722-7.279,9.471-3.514,13.976
		c2.162,2.586,5.191,4.032,8.453,5.02c0.172,1.869,0.382,3.725,0.576,5.587c-2.922,1.686-5.845,3.372-8.768,5.058
		c0.298-0.161,10.089,13.051,10.15,14.818c0.182,5.307-7.013,10.774-10.292,14.477c4.073,1.081,8.147,2.162,12.22,3.242
		c0.019,1.711,0.056,3.42,0.067,5.132c-2.782,3.258-5.563,6.516-8.345,9.773c2.778,0.687,5.556,1.374,8.334,2.06
		c-0.014,3.121,0,6.246-0.041,9.362c-0.07,0.09-0.238,1.061-0.446,2.536c-3.645,3.537-7.289,7.075-10.934,10.613
		c3.224,0.469,6.448,0.938,9.672,1.408c-0.411,5.817-0.375,10.752,1.101,8.836c-0.004,0.093-0.01,0.185-0.014,0.277
		c-4.066,4.324-8.132,8.648-12.197,12.972c3.824,0.327,7.648,0.654,11.472,0.982c-0.208,4.051-0.371,8.112-0.632,12.147
		c-4.528,4.95-9.056,9.901-13.585,14.851c4.644,0.811,8.613,4.636,9.595,9.247c0.981,4.611-1.086,9.722-4.998,12.353
		c1.804,0.749,3.739,0.902,5.642,0.607c-0.46,4.2-0.875,8.435-1.406,12.59c-0.993,5.131-2.428,9.71-4.689,13.131
		c0.827,0.993,1.655,1.931,2.538,2.924c-0.165,1.159-0.386,2.317-0.552,3.531c-2.152,2.262-4.248,4.469-6.4,6.731
		c1.214,3.531,2.428,7.062,3.641,10.593c-0.552,3.145-1.103,6.344-1.655,9.544c-3.034,2.979-6.069,5.903-9.103,8.882
		c1.766,7.007,3.034,14.345,3.917,21.903c-0.662,4.303-1.324,8.662-1.931,13.075c-0.276,2.207-0.552,4.469-0.827,6.731
		c3.31,0.221,6.621,0.276,9.986,0.276c2.483,0,4.965-0.055,7.393-0.165c4.359-12.303,8.11-25.986,11.2-40.606
		c3.972-18.924,6.786-39.392,9.6-59.695C267.911,327,273.593,284.464,271.883,241.32z"/>
	<path style="fill:#3EA69B;" d="M187.085,430.942c1.434-6.841,3.641-13.517,6.51-19.917c-5.02-2.648-9.986-5.352-15.006-8
		c-0.938-2.924-1.821-5.793-2.703-8.717c1.986-3.2,3.972-6.4,5.959-9.6l-10.593-6.124c-0.276-1.048-0.552-2.096-0.827-3.2
		c1.379-0.883,2.759-1.766,4.138-2.593c-3.752-3.144-6.124-7.337-7.724-11.917c-1.49-6.676-2.869-13.406-4.083-20.192
		c-0.256-1.644-0.501-3.279-0.75-4.916c3.964-6.326,7.927-12.652,11.89-18.978c-4.847,0.546-9.693,1.092-14.54,1.638
		c-0.084-0.529-0.153-1.044-0.242-1.578c-0.373-3.111-0.687-6.237-1-9.364c4.52-6.228,9.041-12.455,13.561-18.683
		c-4.246-0.014-8.492-0.029-12.738-0.044c0.036-5.215-2.032-14.688-2.917-17.373c3.742-4.788,7.484-9.575,11.225-14.363
		c-3.884-0.384-7.767-0.768-11.651-1.152c0.019-3.314,0.115-6.623,0.204-9.936c4.443-2.695,8.887-5.39,13.33-8.085
		c-4.237-0.995-8.476-1.991-12.713-2.986c1.026-4.194,2.011-8.392,2.937-12.604c2.132-1.082,4.264-2.165,6.396-3.247
		c-1.775-0.68-3.551-1.36-5.326-2.04c0.628-3.079,1.209-6.172,1.732-9.279c3.3-1.364,6.601-2.728,9.901-4.092
		c-2.808-1.939-5.615-3.877-8.422-5.815c0.209-1.604,0.444-3.204,0.631-4.811c7.098-1.891,14.197-3.783,21.296-5.674
		c-5.677,1.513-12.765-9.278-19.501-11.569c0.745-8.353,1.533-16.706,2.326-25.06c0.11-0.993,0.221-1.986,0.331-2.979
		c0.827-3.31,1.655-6.621,2.538-9.875c1.545-3.531,3.862-6.455,7.448-7.834c1.6-10.538,5.903-25.048,7.117-37.682
		c2.262-6.952,4.414-14.013,6.124-21.296c0.993-4.138,1.821-8.386,2.483-12.69c-6.013,1.159-11.972,2.593-17.765,4.303
		c-6.345,16.11-13.021,32.054-20.027,47.557c-3.972,6.896-7.393,14.344-10.317,22.013c-0.166,0.221-0.276,0.497-0.386,0.772
		c-14.896,34.206-30.123,70.012-32.992,110.231c-2.759,39.116,6.565,77.736,15.834,114.81c4.579,18.427,9.214,36.965,15.724,54.178
		c6.455,16.882,14.731,32.33,24.496,45.626c8.22,2.759,16.717,4.965,25.323,6.621c-0.938-7.338-2.372-14.62-4.027-21.627
		C189.292,438.832,188.189,434.859,187.085,430.942z"/>
	<path style="fill:#3EA69B;" d="M84.965,384.709l-10.593-6.124c-0.276-1.048-0.607-2.096-0.883-3.2
		c1.434-0.883,2.814-1.766,4.193-2.593c-3.752-3.144-6.124-7.337-7.779-11.917c-1.489-6.676-2.869-13.406-4.083-20.192
		c-0.049-0.335-0.1-0.667-0.15-1.002c4.147-11.363,8.293-22.727,12.44-34.09c-5.646,0.539-11.292,1.078-16.939,1.617
		c-0.341-3.371-0.633-6.755-0.895-10.145c5.03-6.012,10.059-12.025,15.089-18.037c-4.844-0.117-9.688-0.234-14.532-0.352
		c-0.81-4.248-1.77-7.892-2.021-8.059c-0.019-0.773-0.004-1.55-0.02-2.323c1.936-3.404,3.871-6.807,5.807-10.211
		c-1.971-0.751-3.941-1.501-5.912-2.252c0.008-2.384,0.068-4.764,0.112-7.148c6.337-1.957,12.673-3.915,19.01-5.872
		c-5.969-3.243-11.938-6.486-17.907-9.729c0.527-2.136,1.016-4.279,1.515-6.419c3.95-0.34,7.9-0.679,11.851-1.019
		c-3.204-3.111-6.407-6.222-9.61-9.333c0.681-3.361,1.344-6.727,1.893-10.123c2.863-0.761,5.726-1.521,8.588-2.282
		c-2.469-2.077-4.973-4.16-7.379-6.314c0.176-1.382,0.377-2.763,0.536-4.148c3.807-1.364,7.735-2.529,11.583-3.76
		c-3.897-2.982-7.424-4.578-10.628-5.082c0.254-2.592,0.518-5.177,0.766-7.777c0.827-8.717,1.655-17.434,2.483-26.151
		c0.055-0.993,0.165-1.986,0.331-2.979c0.772-3.31,1.6-6.621,2.482-9.875c1.545-3.531,3.862-6.455,7.503-7.834
		c0.496-3.31,1.269-7.007,2.151-10.924c-35.144,37.13-56.715,87.225-56.715,142.341c0,53.461,20.303,102.232,53.571,138.975
		c-0.662-2.041-1.269-4.027-1.876-6.069C80.937,391.109,82.923,387.909,84.965,384.709z"/>
	<path style="fill:#3EA69B;" d="M95.171,414.722c0.441-1.269,0.993-2.483,1.545-3.696c-3.917-2.097-7.889-4.193-11.806-6.234
		C88.275,408.212,91.695,411.522,95.171,414.722z"/>
	<path style="fill:#3EA69B;" d="M373.177,414.667c3.476-3.2,6.841-6.455,10.151-9.821c-3.917,2.042-7.779,4.138-11.696,6.179
		C372.184,412.239,372.68,413.453,373.177,414.667z"/>
	<path style="fill:#3EA69B;" d="M441.037,261.402c0-55.06-21.517-105.156-56.605-142.285c0.828,3.917,1.6,7.558,2.097,10.869
		c3.641,1.379,5.959,4.303,7.503,7.834c0.883,3.255,1.71,6.565,2.483,9.875c0.166,0.993,0.276,1.986,0.331,2.979
		c0.476,5.013,0.952,10.025,1.428,15.038c-3.191-2.139-6.721-3.704-10.516-4.447c3.245,8.249,6.887,16.451,9.828,24.807
		c2.877,8.173,1.043,10.261-1.394,18.532c0.589,0.124,3.464,0.584,6.491,0.978c0.674,4.242,1.488,8.446,2.364,12.635
		c-2.512,5.494-5.025,10.988-7.537,16.482c3.637-0.573,7.274-1.147,10.912-1.72c0.272,1.105,0.506,2.216,0.784,3.321
		c0.012,0.289,0.011,0.58,0.023,0.869c-4.187,6.918-8.375,13.836-12.562,20.755c4.316,0.684,8.631,1.368,12.947,2.052
		c-0.005,1.533-0.014,3.065-0.033,4.596c-7.16,4.85-14.32,9.699-21.48,14.549c6.335,0.569,12.671,1.139,19.006,1.708
		c-0.869,5.188-1.296,10.502,0.101,11.259c-2.954,5.483-7.762,9.989-13.565,12.276c4.478,1.26,8.956,2.519,13.433,3.779
		c-0.179,1.725-0.368,3.448-0.569,5.169c-5.358,2.865-10.716,5.729-16.073,8.594c4.423,3.646,8.846,7.292,13.268,10.938
		c-0.047,0.311-0.093,0.624-0.14,0.935c-4.044,2.486-8.087,4.972-12.131,7.457c-0.101,4.792,4.47,7.748,9.329,8.088
		c-0.776,3.855-1.484,7.732-2.367,11.551c-1.6,4.579-3.972,8.772-7.724,11.917c1.379,0.828,2.759,1.71,4.193,2.593
		c-0.331,1.104-0.607,2.152-0.883,3.2c-3.531,2.041-7.062,4.083-10.593,6.124c2.041,3.2,4.027,6.4,6.014,9.6
		c-0.607,1.986-1.214,3.972-1.821,5.958C420.844,363.523,441.037,314.808,441.037,261.402z"/>
</g>
<ellipse style="fill:#31978C;" cx="234.146" cy="63.182" rx="31.407" ry="8.667"/>
<path style="fill:#64798A;" d="M234.816,63.133c-0.477,0-0.959-0.124-1.401-0.383c-1.312-0.776-1.746-2.468-0.972-3.777
	c2.174-3.685,4.423-7.494,5.377-11.535c0.259-1.088,0.404-2.166,0.439-3.211c-0.835,0.744-1.716,1.363-2.648,1.87
	c-4.24,2.29-10.52,2.004-13.682-2.473c-1.495-2.123-1.913-4.897-1.15-7.618c0.832-2.963,2.92-5.425,5.584-6.584
	c4.264-1.859,9.542-0.652,13.071,2.839c3.58-9.051,3.912-19.385,0.873-28.636c-0.474-1.449,0.312-3.006,1.762-3.481
	c1.449-0.49,3.004,0.312,3.481,1.756c3.658,11.142,2.998,23.663-1.813,34.352c-0.269,0.598-0.547,1.175-0.83,1.724
	c1.069,3.206,1.188,6.918,0.283,10.732c-1.145,4.854-3.72,9.218-5.994,13.065C236.68,62.648,235.759,63.133,234.816,63.133z
	 M230.587,34.082c-0.711,0-1.401,0.129-2.023,0.399c-1.142,0.501-2.09,1.654-2.473,3.017c-0.313,1.115-0.186,2.187,0.348,2.947
	c1.309,1.848,4.496,1.907,6.543,0.803c1.355-0.738,2.589-1.929,3.723-3.599c-0.175-0.286-0.366-0.56-0.571-0.814
	C234.754,35.1,232.583,34.082,230.587,34.082z"/>
<path style="fill:#3EA69B;" d="M355.412,243.196c-2.869-40.219-18.096-76.026-32.992-110.231c-0.111-0.276-0.221-0.551-0.386-0.772
	c-2.924-7.669-6.345-15.117-10.317-22.013c-7.007-15.503-13.683-31.447-20.027-47.558c-5.793-1.71-11.752-3.144-17.765-4.248
	c0.662,4.303,1.489,8.497,2.482,12.635c1.71,7.282,3.862,14.344,6.124,21.296c0.794,8.659,3.055,18.174,4.92,26.713
	c-3.025,2.463-5.933,5.635-8.622,9.17c3.474,0.369,7.008,0.515,10.555,0.6c0.065,0.393,0.15,0.816,0.208,1.199
	c3.642,1.379,5.959,4.303,7.503,7.834c0.651,2.4,1.258,4.844,1.871,7.282c-1.636,2.381-3.272,4.762-4.909,7.143
	c2.035,0.186,4.07,0.373,6.104,0.559c0.266,2.833,0.529,5.666,0.789,8.499c-3.071,2.928-6.141,5.857-9.211,8.785
	c3.377,0.378,6.755,0.755,10.132,1.133c0.173,1.868,0.343,3.737,0.52,5.605c0.08,0.835,0.17,1.663,0.25,2.497
	c-2.427,2.506-4.854,5.011-7.281,7.517c2.676-0.015,5.352-0.031,8.028-0.046c0.425,4.138,0.931,8.263,1.473,12.378
	c-1.64,1.4-3.281,2.8-4.921,4.2c1.992,1.034,3.985,2.068,5.978,3.101c0.657,3.92,1.405,7.813,2.217,11.688
	c-5.036,3.869-10.072,7.737-15.108,11.606c6.457,3.638,12.913,7.276,19.369,10.914c0.116,3.003,0.208,6.008,0.264,9.016
	c-0.473,1.253-0.678,2.601-0.441,3.896c0.097,0.528,0.365,0.981,0.54,1.476c0.038,5.186,0.019,10.372-0.106,15.546
	c-0.265,0.163-1.185,3.615-1.978,7.711c-1.558,0.372-3.117,0.744-4.675,1.115c1.319,1.03,2.637,2.061,3.956,3.091
	c-0.638,4.34-0.866,8.425,0.151,9.447c-2.654,2.533-5.308,5.066-7.962,7.599c2.763,1.54,5.526,3.079,8.289,4.619
	c-0.356,3.783-0.636,7.588-1.077,11.348c-2.432,1.095-4.864,2.189-7.296,3.284c1.965,2.121,3.929,4.242,5.894,6.363
	c-0.483,3.139-0.96,6.271-1.434,9.401c-4.95,2.306-9.901,4.611-14.851,6.917c4.053,2.634,8.105,5.268,12.157,7.902
	c-0.507,2.536-0.993,5.079-1.537,7.6c-3.173,1.176-6.346,2.353-9.518,3.529c1.625,2.622,3.25,5.243,4.875,7.865
	c-1.12,1.597-2.379,3.098-3.918,4.388c1.434,0.828,2.814,1.71,4.193,2.593c-0.276,1.103-0.552,2.152-0.883,3.2
	c-3.476,2.042-7.006,4.083-10.538,6.124c1.986,3.2,3.973,6.4,5.959,9.6c-0.883,2.924-1.766,5.793-2.704,8.717
	c-5.021,2.648-9.986,5.351-15.006,8c2.869,6.4,5.021,13.075,6.51,19.917c-1.158,3.917-2.207,7.889-3.2,11.862
	c-1.655,7.007-3.09,14.289-4.027,21.627c8.662-1.655,17.103-3.917,25.324-6.621c9.71-13.296,18.04-28.744,24.441-45.626
	c6.565-17.213,11.199-35.751,15.779-54.178C348.791,320.931,358.17,282.312,355.412,243.196z"/>
<g>
</g>
<g>
</g>
<g>
</g>
<g>
</g>
<g>
</g>
<g>
</g>
<g>
</g>
<g>
</g>
<g>
</g>
<g>
</g>
<g>
</g>
<g>
</g>
<g>
</g>
<g>
</g>
<g>
</g>
</svg>
