<?xml version="1.0" encoding="iso-8859-1"?>
<!-- Generator: Adobe Illustrator 19.0.0, SVG Export Plug-In . SVG Version: 6.00 Build 0)  -->
<svg version="1.1" id="Capa_1" xmlns="http://www.w3.org/2000/svg" xmlns:xlink="http://www.w3.org/1999/xlink" x="0px" y="0px"
	 viewBox="0 0 468.293 468.293" style="enable-background:new 0 0 468.293 468.293;" xml:space="preserve">
<path style="fill:#44C4A1;" d="M468.293,234.146c0,6.431-0.562,12.738-1.561,18.982c-2.31,13.549-6.993,26.599-13.799,38.899
	c-13.862,25.287-36.59,47.516-65.561,64.873c-41.085,24.664-94.658,39.587-153.226,39.587c-84.168,0-157.908-30.783-199.18-76.988
	c-10.615-11.863-19.044-24.726-24.976-38.337c-2.498-5.745-4.558-11.614-6.119-17.671c-1.811-6.743-2.997-13.611-3.497-20.605
	C0.125,240.015,0,237.081,0,234.146c0-16.359,3.497-32.156,9.99-47.017c5.932-13.611,14.298-26.412,24.851-38.213
	c41.21-46.268,115.075-77.112,199.305-77.112c58.505,0,112.078,14.922,153.163,39.586c28.972,17.358,51.762,39.586,65.623,64.874
	c8.492,15.36,13.674,31.844,14.985,49.014C468.168,228.215,468.293,231.149,468.293,234.146z"/>
<g>
	<path style="fill:#3EA69B;" d="M452.933,176.265l-15.485,0.25c-6.556,0.125-13.362,0.188-19.356-1.623
		c-3.809-1.124-7.181-3.184-8.991-5.745c-1.498-2.06-5.557-2.435-8.117-0.937l-4.059,2.311c-2.747,1.561-6.868,0.873-8.179-1.437
		c-4.808-8.742-20.917-14.298-33.592-10.989c-2.185,0.562-4.558-0.062-5.869-1.373c-7.742-7.556-26.412-6.743-40.46-4.371
		l-45.518,7.681c-1.686,0.249-3.497-0.063-4.745-0.874l-6.306-4.059c-2.123-1.311-5.495-1.311-7.368,0.25
		c-5.495,4.62-16.359,6.119-23.852,3.184c-2.31-0.873-5.12-0.561-6.681,0.875l-6.744,6.056c-2.06,1.811-6.056,1.873-8.179,0.063
		l-2.123-1.811c-2.123-1.748-5.994-1.686-8.117,0.125c-2.248,1.936-5.682,3.184-9.304,3.184c-3.247,0-6.369-1.062-8.617-2.747
		c-1.873-1.374-5.182-1.312-7.18,0.062c-6.244,4.371-18.42,5.182-24.226,0.125c1.748,3.871-1.186,8.554-6.556,10.24
		c-3.684,1.186-8.179,0.812-11.614-0.687c-2.435-1.062-5.62-0.562-7.118,1.124l-3.996,4.308c-1.748,1.873-5.37,2.248-7.805,0.812
		l-2.934-1.686c-2.248-1.312-5.557-1.124-7.43,0.437l-3.184,2.623c-1.748,1.436-4.745,1.623-7.056,0.562
		c-9.241-4.308-24.101-1.686-29.846,4.87c-1.748,1.936-5.557,2.31-7.992,0.749l-4.745-3.122c-2.435-1.623-6.369-1.248-8.117,0.749
		l-4.121,4.745c-1.811,2.061-6.056,2.373-8.367,0.5l-3.247-2.56c-1.498-1.187-3.809-1.499-5.744-0.999
		c5.932-13.611,14.298-26.412,24.851-38.213c15.298,2.56,33.78-4.558,36.839-15.672l6.306,2.56c2.372,0.936,5.37,0.499,6.931-1.124
		l6.244-6.244c1.748-1.748,5.182-2.06,7.617-0.749c2.061,1.124,4.87,1.686,7.493,1.561c4.808-0.25,9.116-2.185,13.112-4.12
		l38.338-18.232c1.811-0.874,4.246-0.812,6.057,0.124l3.309,1.686c2.248,1.249,5.495,0.938,7.243-0.623l4.683-4.184
		c1.686-1.498,4.683-1.81,6.993-0.811l6.556,2.997c2.185,0.998,5.058,0.749,6.744-0.625l6.244-4.87
		c1.936-1.498,5.37-1.686,7.43-0.25c5.495,3.809,15.922,4.121,21.854,0.624c1.811-1.123,4.62-1.061,6.431,0.063
		c4.808,3.059,12.8,3.747,18.545,1.561c2.248-0.811,4.87-0.562,6.556,0.813c3.372,2.684,8.617,4.308,13.799,3.933
		c4.933-0.313,9.428-2.434,11.989-5.37c1.498-1.685,4.683-1.998,7.18-1.062c7.992,3.184,18.732,2.873,26.412-0.686
		c2.497-1.187,5.807-0.875,7.43,0.873c3.122,3.497,8.367,5.994,14.173,6.556c5.12,0.499,10.365-0.563,14.486-2.747
		c2.435-1.249,5.994-1.124,7.618,0.686c3.559,4.059,11.176,6.556,17.857,5.807C416.281,128.749,439.071,150.977,452.933,176.265z"/>
	<path style="fill:#3EA69B;" d="M468.293,234.146c0,6.431-0.562,12.738-1.561,18.982l-29.284,0.312
		c-6.556,0.063-13.362,0.125-19.356-0.999c-3.809-0.748-7.181-2.06-8.991-3.621c-1.498-1.312-5.557-1.561-8.117-0.624l-4.059,1.436
		c-2.747,0.998-6.868,0.562-8.179-0.874c-4.808-5.557-20.917-9.054-33.592-6.993c-2.185,0.375-4.558,0-5.869-0.874
		c-7.742-4.745-26.412-4.246-40.46-2.748l-45.518,4.87c-1.686,0.188-3.497-0.063-4.745-0.562l-6.306-2.56
		c-2.123-0.811-5.495-0.811-7.368,0.125c-5.495,2.934-16.359,3.934-23.852,2.061c-2.31-0.563-5.12-0.375-6.681,0.562l-6.744,3.809
		c-2.06,1.123-6.056,1.186-8.179,0.063l-2.123-1.123c-2.123-1.124-5.994-1.124-8.117,0.063c-2.248,1.186-5.682,1.998-9.304,1.998
		c-3.247,0-6.369-0.687-8.617-1.748c-1.873-0.874-5.182-0.812-7.18,0c-6.244,2.81-18.42,3.309-24.226,0.125
		c1.748,2.435-1.186,5.37-6.556,6.493c-3.684,0.75-8.179,0.5-11.614-0.437c-2.435-0.687-5.62-0.374-7.118,0.687l-3.996,2.747
		c-1.748,1.187-5.37,1.437-7.805,0.5l-2.934-1.061c-2.248-0.875-5.557-0.75-7.43,0.249l-3.184,1.686
		c-1.748,0.937-4.745,0.999-7.056,0.374c-9.241-2.747-24.101-1.123-29.846,3.059c-1.748,1.249-5.557,1.436-7.992,0.438l-4.745-1.936
		c-2.435-1.061-6.369-0.811-8.117,0.438l-4.121,2.997c-1.811,1.373-6.056,1.498-8.367,0.375l-3.247-1.623
		c-2.31-1.187-6.431-0.999-8.367,0.25l-3.497,2.434c-1.811-6.743-2.997-13.611-3.497-20.605c1.124-0.748,3.06-1.123,4.933-0.936
		c8.304,0.812,17.608-1.436,21.104-4.808c1.186-1.123,3.809-1.811,6.494-1.436c15.672,2.248,35.59-2.31,38.775-9.678l6.306,1.623
		c2.372,0.625,5.37,0.313,6.931-0.687l6.244-3.934c1.748-1.123,5.182-1.311,7.617-0.5c2.061,0.75,4.87,1.124,7.493,1
		c4.808-0.125,9.116-1.374,13.112-2.623l38.338-11.489c1.811-0.563,4.246-0.563,6.057,0.063l3.309,1.061
		c2.248,0.749,5.495,0.563,7.243-0.375l4.683-2.684c1.686-0.937,4.683-1.123,6.993-0.5l6.556,1.873
		c2.185,0.625,5.058,0.5,6.744-0.375l6.244-3.059c1.936-0.998,5.37-1.061,7.43-0.187c5.495,2.435,15.922,2.623,21.854,0.374
		c1.811-0.687,4.62-0.624,6.431,0.063c4.808,1.936,12.8,2.373,18.545,0.999c2.248-0.499,4.87-0.312,6.556,0.499
		c3.372,1.748,8.617,2.748,13.799,2.498c4.933-0.187,9.428-1.561,11.989-3.371c1.498-1.124,4.683-1.312,7.18-0.688
		c7.992,1.998,18.732,1.811,26.412-0.437c2.497-0.749,5.807-0.562,7.43,0.562c3.122,2.186,8.367,3.809,14.173,4.121
		c5.12,0.312,10.365-0.374,14.486-1.686c2.435-0.812,5.994-0.749,7.618,0.437c3.934,2.81,12.925,4.434,20.043,3.434
		c2.435-0.375,4.995-0.063,6.494,0.874c3.871,2.373,11.239,3.684,17.857,4.62l54.072,7.742
		C468.168,228.215,468.293,231.149,468.293,234.146z"/>
	<path style="fill:#3EA69B;" d="M452.933,292.027c-13.862,25.287-36.59,47.516-65.561,64.873c-6.681-0.748-14.361,1.748-17.92,5.807
		c-1.623,1.811-5.183,1.935-7.618,0.687c-4.121-2.123-9.366-3.184-14.486-2.684c-5.807,0.499-11.051,3.059-14.173,6.494
		c-1.623,1.81-4.933,2.059-7.43,0.936c-7.68-3.559-18.42-3.871-26.412-0.749c-2.497,0.999-5.682,0.687-7.18-0.999
		c-2.56-2.934-7.056-5.057-11.989-5.431c-5.182-0.375-10.427,1.248-13.799,3.995c-1.686,1.311-4.308,1.623-6.556,0.749
		c-5.745-2.185-13.737-1.436-18.545,1.623c-1.811,1.124-4.62,1.124-6.431,0.063c-5.932-3.496-16.359-3.184-21.854,0.624
		c-2.061,1.436-5.495,1.248-7.43-0.25l-6.244-4.87c-1.686-1.374-4.558-1.623-6.744-0.624l-6.556,2.934
		c-2.31,1.061-5.308,0.687-6.993-0.812l-4.683-4.121c-1.748-1.561-4.995-1.873-7.243-0.687l-3.309,1.748
		c-1.811,0.937-4.246,0.937-6.057,0.063l-38.338-18.232c-3.996-1.873-8.304-3.871-13.112-4.12c-2.622-0.125-5.432,0.499-7.493,1.561
		c-2.435,1.311-5.869,1.061-7.617-0.688l-6.244-6.306c-1.561-1.561-4.558-2.06-6.931-1.061l-6.306,2.559
		c-3.059-11.052-21.417-18.232-36.714-15.61c-10.615-11.863-19.044-24.726-24.976-38.337c1.936,0.562,4.246,0.249,5.744-0.999
		l3.247-2.498c2.31-1.873,6.556-1.623,8.367,0.5l4.121,4.745c1.748,1.998,5.682,2.372,8.117,0.749l4.745-3.122
		c2.435-1.623,6.244-1.248,7.992,0.75c5.745,6.556,20.605,9.116,29.846,4.807c2.31-1.062,5.307-0.874,7.056,0.624l3.184,2.623
		c1.873,1.561,5.182,1.748,7.43,0.437l2.934-1.748c2.435-1.437,6.056-0.999,7.805,0.812l3.996,4.37
		c1.498,1.686,4.683,2.186,7.118,1.123c3.434-1.561,7.929-1.873,11.614-0.686c5.37,1.686,8.304,6.306,6.556,10.239
		c5.807-5.057,17.982-4.245,24.226,0.125c1.998,1.373,5.307,1.436,7.18,0c2.248-1.623,5.37-2.684,8.617-2.747
		c3.622,0,7.056,1.311,9.304,3.247c2.123,1.748,5.994,1.873,8.117,0.063l2.123-1.811c2.123-1.748,6.119-1.686,8.179,0.125
		l6.744,5.994c1.561,1.436,4.371,1.811,6.681,0.937c7.493-2.998,18.357-1.498,23.852,3.184c1.873,1.561,5.245,1.561,7.368,0.187
		l6.306-3.995c1.249-0.813,3.059-1.187,4.745-0.874l45.518,7.68c14.049,2.31,32.718,3.122,40.46-4.371
		c1.311-1.311,3.684-1.935,5.869-1.373c12.675,3.309,28.785-2.31,33.592-10.989c1.311-2.309,5.432-3.059,8.179-1.498l4.059,2.311
		c2.56,1.498,6.618,1.123,8.117-0.938c1.811-2.497,5.183-4.558,8.991-5.681c5.994-1.811,12.8-1.748,19.356-1.686L452.933,292.027z"
		/>
</g>
<g>
</g>
<g>
</g>
<g>
</g>
<g>
</g>
<g>
</g>
<g>
</g>
<g>
</g>
<g>
</g>
<g>
</g>
<g>
</g>
<g>
</g>
<g>
</g>
<g>
</g>
<g>
</g>
<g>
</g>
</svg>
