<?xml version="1.0" encoding="iso-8859-1"?>
<!-- Generator: Adobe Illustrator 19.0.0, SVG Export Plug-In . SVG Version: 6.00 Build 0)  -->
<svg version="1.1" id="Capa_1" xmlns="http://www.w3.org/2000/svg" xmlns:xlink="http://www.w3.org/1999/xlink" x="0px" y="0px"
	 viewBox="0 0 469.604 469.604" style="enable-background:new 0 0 469.604 469.604;" xml:space="preserve">
<path style="fill:#E1E6E9;" d="M427.282,379.13c-28.972,33.28-66.934,57.382-108.394,72.554
	c-25.101,9.116-55.383,17.921-84.105,17.921V0c0,0,28.784,67.746,155.973,150.478C390.756,150.478,538.986,250.88,427.282,379.13z"
	/>
<path style="fill:#EBF0F3;" d="M234.783,0v469.604c-28.723,0-59.005-8.805-84.105-17.921c-41.46-15.172-79.36-39.274-108.395-72.554
	c-111.64-128.249,36.59-228.652,36.59-228.652C205.998,67.746,234.783,0,234.783,0z"/>
<path style="fill:#D5D6DB;" d="M234.792,438.362c-19.829,0-43.835-5.244-73.384-16.024c-38.457-14.037-71.5-36.061-95.561-63.683
	c-25.738-29.561-36.939-59.159-33.287-87.97c6.732-53.146,60.232-91.817,63.707-94.274c72.043-46.951,114.415-89.53,138.524-119.659
	c24.11,30.128,66.482,72.707,138.524,119.659c3.476,2.457,56.976,41.128,63.707,94.274c3.652,28.811-7.549,58.409-33.287,87.97
	c-24.061,27.622-57.104,49.646-95.567,63.683C278.628,433.118,254.622,438.362,234.792,438.362z"/>
<path style="fill:#EBF0F3;" d="M234.792,407.143c-15.89,0-36.976-4.756-62.683-14.134c-33.506-12.226-62.11-31.201-82.72-54.86
	c-19.64-22.555-28.341-43.933-25.86-63.537c4.829-38.091,46.116-69.305,50.402-72.451c55.939-36.518,94.713-70.756,120.86-98.146
	c26.146,27.39,64.921,61.628,120.86,98.146c4.287,3.146,45.573,34.36,50.402,72.445c2.482,19.61-6.22,40.988-25.86,63.549
	c-20.61,23.652-49.213,42.628-82.726,54.854C271.768,402.386,250.682,407.143,234.792,407.143z"/>
<path style="fill:#D5D6DB;" d="M234.792,375.923c-8.402,0-24.244-2.122-51.982-12.244c-28.555-10.421-52.72-26.335-69.878-46.037
	c-13.165-15.116-19.707-29.006-18.433-39.11c2.366-18.628,23.341-40.323,37.274-50.738c39.043-25.543,73.573-52.329,103.018-79.89
	c29.445,27.561,63.976,54.348,103.018,79.89c13.933,10.415,34.909,32.104,37.274,50.738c1.274,10.104-5.268,24-18.439,39.122
	c-17.152,19.689-41.317,35.61-69.878,46.024C259.036,373.801,243.195,375.923,234.792,375.923z"/>
<path style="fill:#E1E6E9;" d="M328.567,292.902c-0.063,0.063-0.125,0.125-0.188,0.125c-12.988,14.922-31.845,27.223-54.447,35.465
	c-26.037,9.491-37.151,9.991-39.149,9.991V197.995c24.601,20.791,51.825,41.022,81.421,60.441c4.495,3.434,8.616,7.43,12.05,11.239
	C334.186,276.23,334.311,286.22,328.567,292.902z"/>
<path style="fill:#EBF0F3;" d="M234.783,197.995v140.488c-1.936,0-13.113-0.5-39.149-9.991
	c-22.603-8.242-41.46-20.543-54.447-35.465c-0.063-0.063-0.125-0.125-0.125-0.125c-5.806-6.681-5.682-16.672,0.25-23.227
	c3.434-3.809,7.555-7.805,12.05-11.239C182.958,239.017,210.245,218.786,234.783,197.995z"/>
<g>
</g>
<g>
</g>
<g>
</g>
<g>
</g>
<g>
</g>
<g>
</g>
<g>
</g>
<g>
</g>
<g>
</g>
<g>
</g>
<g>
</g>
<g>
</g>
<g>
</g>
<g>
</g>
<g>
</g>
</svg>
