<?xml version="1.0" encoding="iso-8859-1"?>
<!-- Generator: Adobe Illustrator 19.0.0, SVG Export Plug-In . SVG Version: 6.00 Build 0)  -->
<svg version="1.1" id="Capa_1" xmlns="http://www.w3.org/2000/svg" xmlns:xlink="http://www.w3.org/1999/xlink" x="0px" y="0px"
	 viewBox="0 0 468.293 468.293" style="enable-background:new 0 0 468.293 468.293;" xml:space="preserve">
<g>
	<path style="fill:#31978C;" d="M248.645,141.385c0,0,9.946-51.035,49.078-65.438c19.578-7.205,42.786-30.202,76.764,32.719
		L248.645,141.385z"/>
	<path style="fill:#31978C;" d="M259.629,141.385c0,0-9.946-51.035-49.078-65.438c-19.578-7.205-42.786-30.202-76.764,32.719
		L259.629,141.385z"/>
</g>
<path style="fill:#3EA69B;" d="M314.083,131.318c0,0,39.011-61.322,76.764-31.29c0,0,60.404,19.964,22.652,199.918
	c0,0-35.236,201.347-133.393,139.685L314.083,131.318z"/>
<path style="fill:#31978C;" d="M413.498,299.946c37.753-179.954-22.652-199.918-22.652-199.918S423.165,200.202,413.498,299.946z"/>
<path style="fill:#3EA69B;" d="M154.21,131.318c0,0-39.011-61.322-76.764-31.29c0,0-60.404,19.964-22.652,199.918
	c0,0,35.236,201.347,133.393,139.685L154.21,131.318z"/>
<path style="fill:#31978C;" d="M54.794,299.946C17.042,119.992,77.446,100.028,77.446,100.028S45.608,249.611,54.794,299.946z"/>
<path style="fill:#44C4A1;" d="M261.901,113.055c16.091-6.62,37.586-11.249,58.195-2.487c7.185,3.055,13.028,8.531,17.382,15.012
	c16.387,24.394,52.354,95.276,6.45,198.782c-0.564,1.272-1.06,2.534-1.482,3.86c-4.899,15.398-40,122.132-76.182,136.955
	c0,0-28.346,10.998-66.742-8.334c-4.431-2.231-8.3-5.395-11.615-9.086C163.421,420.488,65.83,298.059,120.34,132.252
	c2.18-6.632,5.905-12.718,11.018-17.471c12.042-11.193,37.308-24.88,79.015-3.538C226.453,119.471,245.197,119.928,261.901,113.055z
	"/>
<g>
	<path style="fill:#31978C;" d="M193.275,453.474c0,0-138.426-135.91-70.472-328.448
		C122.803,125.026,90.505,314.837,193.275,453.474z"/>
	<path style="fill:#31978C;" d="M330.442,116.217c0,0,71.73,79.281,12.584,210.156C343.027,326.373,375.894,166.458,330.442,116.217
		z"/>
</g>
<path style="fill:#44C4A1;" d="M338.191,2.65c0,0-3.984-1.263-10.496-2.071c-26.945-3.341-53.542,7.973-70.99,28.776
	c-15.244,18.175-34.564,50.375-33.634,96.17h39.687c0,0,7.734-56.91,22.596-77.377c3.956-5.448,11.504-7.174,17.149-3.504
	c8.923,5.802,22.849,10.623,35.689,9.69V2.65z"/>
<ellipse style="fill:#3EA69B;" cx="338.188" cy="28.472" rx="18.857" ry="25.844"/>
<ellipse style="fill:#31978C;" cx="338.188" cy="28.472" rx="9.11" ry="12.488"/>
<g>
</g>
<g>
</g>
<g>
</g>
<g>
</g>
<g>
</g>
<g>
</g>
<g>
</g>
<g>
</g>
<g>
</g>
<g>
</g>
<g>
</g>
<g>
</g>
<g>
</g>
<g>
</g>
<g>
</g>
</svg>
