<?xml version="1.0" encoding="iso-8859-1"?>
<!-- Generator: Adobe Illustrator 19.0.0, SVG Export Plug-In . SVG Version: 6.00 Build 0)  -->
<svg version="1.1" id="Capa_1" xmlns="http://www.w3.org/2000/svg" xmlns:xlink="http://www.w3.org/1999/xlink" x="0px" y="0px"
	 viewBox="0 0 468.293 468.293" style="enable-background:new 0 0 468.293 468.293;" xml:space="preserve">
<path style="fill:#31978C;" d="M403.378,336.905l-124.939,43.664l-12.394,54.006c92.9-1.677,202.247-80.867,202.247-80.867
	L403.378,336.905z"/>
<path style="fill:#3EA69B;" d="M338.516,291.801H38.89L0,358.725c0,0,212.231,160.734,388.498,21.845L338.516,291.801z"/>
<polygon style="fill:#D15241;" points="279.215,31.19 191.824,31.19 338.516,291.801 427.403,281.165 "/>
<polygon style="fill:#44C4A1;" points="427.347,281.179 338.463,291.79 388.498,380.569 468.293,353.709 "/>
<path style="fill:#E56353;" d="M191.824,31.19L38.89,291.801c0,0,152.934,138.889,299.625,0L191.824,31.19z"/>
<g>
	<path style="fill:#3A556A;" d="M137.917,215.111c0,0-14.445,26.802-14.445,34.779c0,7.978,6.467,14.445,14.445,14.445
		c7.978,0,14.445-6.467,14.445-14.445C152.362,241.912,137.917,215.111,137.917,215.111z"/>
	<path style="fill:#3A556A;" d="M198.534,256.567c0,0-14.445,26.802-14.445,34.779c0,7.978,6.467,14.445,14.445,14.445
		c7.978,0,14.445-6.467,14.445-14.445C212.979,283.369,198.534,256.567,198.534,256.567z"/>
	<path style="fill:#3A556A;" d="M203.148,148.182c0,0-14.445,26.802-14.445,34.779c0,7.978,6.467,14.445,14.445,14.445
		c7.978,0,14.445-6.467,14.445-14.445C217.593,174.984,203.148,148.182,203.148,148.182z"/>
	<path style="fill:#3A556A;" d="M259.151,231.955c0,0-14.445,26.802-14.445,34.779c0,7.978,6.467,14.445,14.445,14.445
		c7.978,0,14.445-6.467,14.445-14.445C273.596,258.756,259.151,231.955,259.151,231.955z"/>
</g>
<g>
</g>
<g>
</g>
<g>
</g>
<g>
</g>
<g>
</g>
<g>
</g>
<g>
</g>
<g>
</g>
<g>
</g>
<g>
</g>
<g>
</g>
<g>
</g>
<g>
</g>
<g>
</g>
<g>
</g>
</svg>
