<?xml version="1.0" encoding="iso-8859-1"?>
<!-- Generator: Adobe Illustrator 19.0.0, SVG Export Plug-In . SVG Version: 6.00 Build 0)  -->
<svg version="1.1" id="Capa_1" xmlns="http://www.w3.org/2000/svg" xmlns:xlink="http://www.w3.org/1999/xlink" x="0px" y="0px"
	 viewBox="0 0 468.293 468.293" style="enable-background:new 0 0 468.293 468.293;" xml:space="preserve">
<path style="fill:#44C4A1;" d="M234.146,71.054c-45.619,6.903-88.196-24.483-95.099-70.102l0,0
	C184.666-5.951,227.243,25.435,234.146,71.054z"/>
<path style="fill:#3EA69B;" d="M161.615,22.498c-5.453-5.002-10.018-9.954-12.994-14.566l34.363,26.245
	c-0.159-0.818-0.285-1.604-0.4-2.373c-0.211-1.446-0.346-2.831-0.475-4.213c-0.199-2.798-0.338-5.445-0.124-8.834
	c1.048,1.087,1.744,2.573,2.257,4.09c0.53,1.529,0.822,3.151,0.979,4.767c0.183,2.642-0.071,5.312-1.02,7.493l14.638,11.18
	c-0.158-0.815-0.283-1.598-0.398-2.365c-0.211-1.446-0.346-2.831-0.475-4.213c-0.2-2.798-0.338-5.445-0.124-8.834
	c1.048,1.087,1.744,2.573,2.257,4.09c0.53,1.529,0.822,3.151,0.979,4.767c0.183,2.64-0.071,5.308-1.018,7.488l26.021,19.874
	c0,0-19.16-10.731-38.865-24.51c-1.596,1.183-3.62,2.148-5.733,2.88c-1.544,0.498-3.143,0.901-4.738,1.099
	c-1.579,0.206-3.193,0.27-4.565-0.069c3.048-1.432,5.536-2.332,8.185-3.245c1.32-0.43,2.644-0.856,4.05-1.25
	c0.464-0.129,0.95-0.254,1.431-0.38c-8.012-5.653-16.025-11.775-22.827-17.862c-0.921,0.486-1.911,0.92-2.937,1.276
	c-1.244,0.401-2.532,0.726-3.817,0.886c-1.273,0.166-2.573,0.218-3.678-0.055c2.456-1.154,4.46-1.878,6.594-2.614
	C159.974,22.991,160.792,22.744,161.615,22.498z"/>
<g>
	<path style="fill:#3A556A;" d="M226.288,52.993h13.292c0.725-12.661-0.55-27.315-1.343-34.68c-0.292-2.712-2.587-4.743-5.314-4.743
		h-8.251c-3.811,0-6.449,3.87-4.943,7.371C222.588,27.591,226.002,38.596,226.288,52.993z"/>
	<path style="fill:#3A556A;" d="M196.721,436.207l-8.003,28.153c-0.74,2.604,2.033,4.807,4.402,3.496l15.815-8.75
		c0.973-0.538,2.162-0.503,3.102,0.091l13.623,8.624c0.994,0.629,2.262,0.629,3.256,0l13.623-8.624
		c0.94-0.595,2.129-0.63,3.102-0.091l15.815,8.75c2.369,1.311,5.142-0.892,4.402-3.496l-8.003-28.153H196.721z"/>
</g>
<path style="fill:#3EA69B;" d="M395.216,285.119c-14.491,169.258-161.1,159.577-161.1,159.577s-7.245,0.487-18.631-0.609
	c-39.94-3.897-131.084-27.276-142.408-158.969C60.23,135.283,186.322,66.971,215.424,53.211h0.061
	c3.714-1.705,7.671-2.618,11.812-2.618h13.699c4.14,0,8.159,0.913,11.872,2.618C281.971,66.971,408.062,135.283,395.216,285.119z"/>
<path style="fill:#44C4A1;" d="M357.833,285.119c-11.263,131.632-102.407,155.072-142.347,158.969
	c-39.94-3.897-131.084-27.276-142.408-158.969C60.23,135.283,186.322,66.971,215.424,53.211h0.061
	C244.588,66.971,370.679,135.283,357.833,285.119z"/>
<path style="fill:#E1E6E9;" d="M156.301,235.127c6.625-58.226,31.562-109.56,72.854-151.058
	c14.036-14.106-96.203,83.086-103.369,146.066C123.541,249.865,154.049,254.916,156.301,235.127L156.301,235.127z"/>
<g>
</g>
<g>
</g>
<g>
</g>
<g>
</g>
<g>
</g>
<g>
</g>
<g>
</g>
<g>
</g>
<g>
</g>
<g>
</g>
<g>
</g>
<g>
</g>
<g>
</g>
<g>
</g>
<g>
</g>
</svg>
