<?xml version="1.0" encoding="iso-8859-1"?>
<!-- Generator: Adobe Illustrator 19.0.0, SVG Export Plug-In . SVG Version: 6.00 Build 0)  -->
<svg version="1.1" id="Capa_1" xmlns="http://www.w3.org/2000/svg" xmlns:xlink="http://www.w3.org/1999/xlink" x="0px" y="0px"
	 viewBox="0 0 468.293 468.293" style="enable-background:new 0 0 468.293 468.293;" xml:space="preserve">
<path style="fill:#3EA69B;" d="M324.727,360.676c0,20.89,32.138,37.824,71.783,37.824c39.644,0,71.783-16.934,71.783-37.824v-31.222
	H324.727V360.676z"/>
<path style="fill:#44C4A1;" d="M56.472,231.7c-30.69-2.882-54.032-31.018-56.291-64.069c-2.606-38.128,23.347-71.896,58.354-75.184
	l241.213-22.654v184.755L56.472,231.7z"/>
<circle style="fill:#3EA69B;" cx="299.77" cy="162.173" r="92.379"/>
<circle style="fill:#44C4A1;" cx="299.77" cy="162.173" r="76.076"/>
<g>
	<ellipse style="fill:#3EA69B;" cx="299.77" cy="127.269" rx="8.148" ry="16.303"/>
	<ellipse style="fill:#3EA69B;" cx="299.77" cy="197.058" rx="8.148" ry="16.303"/>
	<ellipse style="fill:#3EA69B;" cx="334.673" cy="162.173" rx="16.303" ry="8.148"/>
	<ellipse style="fill:#3EA69B;" cx="264.848" cy="162.173" rx="16.303" ry="8.148"/>
</g>
<ellipse style="fill:#44C4A1;" cx="396.488" cy="329.428" rx="71.78" ry="37.838"/>
<g>
	<path style="fill:#3EA69B;" d="M402.173,309.525c1.148,5.276-1.161,11.433-5.663,11.433c-4.502,0-6.811-6.157-5.663-11.433
		c0.817-3.754,3.267-6.086,5.663-6.086S401.356,305.771,402.173,309.525z"/>
	<path style="fill:#3EA69B;" d="M402.173,344.034c1.148,5.276-1.161,11.433-5.663,11.433c-4.502,0-6.811-6.157-5.663-11.433
		c0.817-3.754,3.267-6.086,5.663-6.086S401.356,340.28,402.173,344.034z"/>
	<path style="fill:#3EA69B;" d="M416.438,335.117c-5.276,1.148-11.433-1.161-11.433-5.663c0-4.502,6.157-6.811,11.433-5.663
		c3.754,0.817,6.086,3.267,6.086,5.663C422.524,331.85,420.192,334.3,416.438,335.117z"/>
	<path style="fill:#3EA69B;" d="M381.929,335.117c-5.276,1.148-11.433-1.161-11.433-5.663c0-4.502,6.157-6.811,11.433-5.663
		c3.754,0.817,6.086,3.267,6.086,5.663C388.015,331.85,385.683,334.3,381.929,335.117z"/>
	<path style="fill:#3EA69B;" d="M144.83,342.506c0,17.465,26.87,31.624,60.016,31.624s60.016-14.158,60.016-31.624v-26.104H144.83
		V342.506z"/>
</g>
<ellipse style="fill:#44C4A1;" cx="204.862" cy="316.379" rx="60.016" ry="31.625"/>
<g>
	<path style="fill:#3EA69B;" d="M209.58,299.74c0.96,4.411-0.971,9.559-4.735,9.559s-5.695-5.148-4.735-9.559
		c0.683-3.139,2.731-5.088,4.735-5.088C206.849,294.652,208.897,296.602,209.58,299.74z"/>
	<path style="fill:#3EA69B;" d="M209.58,328.592c0.96,4.412-0.971,9.559-4.735,9.559s-5.695-5.148-4.735-9.559
		c0.683-3.139,2.731-5.088,4.735-5.088C206.849,323.504,208.897,325.454,209.58,328.592z"/>
	<path style="fill:#3EA69B;" d="M221.507,321.137c-4.412,0.96-9.559-0.971-9.559-4.734c0-3.764,5.148-5.695,9.559-4.735
		c3.139,0.683,5.088,2.731,5.088,4.735C226.595,318.405,224.646,320.454,221.507,321.137z"/>
	<path style="fill:#3EA69B;" d="M192.655,321.137c-4.412,0.96-9.559-0.971-9.559-4.734c0-3.764,5.148-5.695,9.559-4.735
		c3.139,0.683,5.088,2.731,5.088,4.735C197.743,318.405,195.794,320.454,192.655,321.137z"/>
	<path style="fill:#3EA69B;" d="M135.163,125.099c-2.781,0-5.153-2.123-5.407-4.946c-0.271-2.988,1.937-5.63,4.925-5.901
		l47.929-4.309c3.004-0.276,5.636,1.937,5.901,4.925c0.271,2.988-1.937,5.63-4.925,5.901l-47.929,4.309
		C135.492,125.093,135.328,125.099,135.163,125.099z"/>
	<path style="fill:#3EA69B;" d="M50.491,132.708c-2.781,0-5.153-2.123-5.407-4.946c-0.271-2.988,1.937-5.63,4.925-5.901
		l45.955-4.134c3.004-0.271,5.636,1.937,5.901,4.925c0.271,2.988-1.937,5.63-4.925,5.901l-45.955,4.134
		C50.82,132.703,50.655,132.708,50.491,132.708z"/>
	<path style="fill:#3EA69B;" d="M180.221,215.475c-0.186,0-0.371-0.011-0.563-0.027l-43.551-4.489
		c-2.988-0.308-5.158-2.977-4.85-5.965c0.313-2.982,2.961-5.089,5.965-4.85l43.551,4.489c2.988,0.308,5.158,2.977,4.85,5.965
		C185.332,213.395,182.975,215.475,180.221,215.475z"/>
	<path style="fill:#3EA69B;" d="M100.893,207.303c-0.186,0-0.371-0.011-0.563-0.027l-33.999-3.508
		c-2.982-0.308-5.158-2.977-4.85-5.965c0.313-2.982,2.94-5.078,5.965-4.85l33.999,3.508c2.982,0.308,5.158,2.977,4.85,5.965
		C106.003,205.223,103.647,207.303,100.893,207.303z"/>
</g>
<g>
</g>
<g>
</g>
<g>
</g>
<g>
</g>
<g>
</g>
<g>
</g>
<g>
</g>
<g>
</g>
<g>
</g>
<g>
</g>
<g>
</g>
<g>
</g>
<g>
</g>
<g>
</g>
<g>
</g>
</svg>
