<?xml version="1.0" encoding="iso-8859-1"?>
<!-- Generator: Adobe Illustrator 19.0.0, SVG Export Plug-In . SVG Version: 6.00 Build 0)  -->
<svg version="1.1" id="Capa_1" xmlns="http://www.w3.org/2000/svg" xmlns:xlink="http://www.w3.org/1999/xlink" x="0px" y="0px"
	 viewBox="0 0 468.293 468.293" style="enable-background:new 0 0 468.293 468.293;" xml:space="preserve">
<path style="fill:#3EA69B;" d="M453.403,0c-3.084,18.197-5.425,36.562-7.182,54.931c-1.297,13.563-2.279,27.207-2.152,40.839
	c0.176,18.937,1.915,37.691-1.603,56.45c-2.268,12.094-5.283,24.05-8.685,35.871c-8.499,29.535-19.484,58.533-33.467,85.92
	c-10.215,20.007-22.148,39.526-37.345,56.169c0,0-176.715,203.512-348.081,116.454l219.257-182.327L359.568,83.975L453.403,0z"/>
<path style="fill:#31978C;" d="M104.981,448.915c-18.129,0-39.144-4.139-56.218-9.449l199.796-161.94L374.183,96.9l44.981-56.956
	c-0.021,0.205,0.181,0.707,0.532,1.401c4.851,9.596,6.459,20.469,5.806,31.202c-0.48,7.888-0.881,16.699-0.818,23.407
	c0.043,4.467,0.17,8.925,0.293,13.364c0.393,13.846,0.767,26.916-1.562,39.334c-1.95,10.392-4.656,21.541-8.262,34.081
	c-8.575,29.794-19.373,57.533-32.103,82.472c-11.248,22.033-22.175,38.529-34.398,51.912
	C347.196,318.781,232.385,448.915,104.981,448.915z"/>
<g>
	<circle style="fill:#E1E6E9;" cx="298.021" cy="244.43" r="33.923"/>
	<circle style="fill:#E1E6E9;" cx="357.02" cy="163.247" r="33.923"/>
	<circle style="fill:#E1E6E9;" cx="164.321" cy="371.762" r="33.923"/>
	<circle style="fill:#E1E6E9;" cx="237.2" cy="312.258" r="33.923"/>
</g>
<path style="fill:#44C4A1;" d="M453.403,0c0,0-81.206,1.353-138.051,100.154s-86.62,146.171-170.533,205.723
	S14.889,419.566,14.889,446.635c0,27.069,243.597-123.055,308.314-248.992C323.203,197.643,419.456,25.937,453.403,0z"/>
<g>
</g>
<g>
</g>
<g>
</g>
<g>
</g>
<g>
</g>
<g>
</g>
<g>
</g>
<g>
</g>
<g>
</g>
<g>
</g>
<g>
</g>
<g>
</g>
<g>
</g>
<g>
</g>
<g>
</g>
</svg>
