<?xml version="1.0" encoding="iso-8859-1"?>
<!-- Generator: Adobe Illustrator 19.0.0, SVG Export Plug-In . SVG Version: 6.00 Build 0)  -->
<svg version="1.1" id="Capa_1" xmlns="http://www.w3.org/2000/svg" xmlns:xlink="http://www.w3.org/1999/xlink" x="0px" y="0px"
	 viewBox="0 0 468.293 468.293" style="enable-background:new 0 0 468.293 468.293;" xml:space="preserve">
<path style="fill:#EBF0F3;" d="M2.16,113.307c3.06-7.733,11.594-11.838,19.693-9.949c11.866,2.767,30.234,9.542,44.772,26.037
	c0,0,114.897,109.839,121.255,117.517l-80.203,40.876c0,0-83.863-59.056-97.938-107.732C9.738,180.056-5.518,138.469,2.16,113.307z"
	/>
<g>
	<path style="fill:#E1E6E9;" d="M142.003,233.424c0,0-12.081-5.31-29.11-5.284c-43.103,0.065-71.651,45.2-50.864,82.959
		c6.626,12.036,18.056,24.51,36.851,36.24c0,0,26.977,18.625,59.232,18.038c0,0,10.958-16.32,23.98-18.22
		c1.595-0.233,2.027-2.317,0.684-3.209l-29.707-19.736L142.003,233.424z"/>
	<path style="fill:#E1E6E9;" d="M203.856,147.215c0,0-4.029-5.269-12.007-10.628c-20.316-13.648-48.94-7.325-60.274,14.367
		c-9.383,17.96-10.41,46.403,23.018,88.335c0,0,15.834-7.624,15.248-9.97c-0.586-2.346-19.94-28.15-19.94-32.255
		s4.105-36.947,4.105-36.947l14.661-13.489L203.856,147.215z"/>
</g>
<path style="fill:#FCD462;" d="M292.589,339.231c0,0-65.936,4.433-121.007-17.858c-4.558-1.873-8.492,3.622-5.307,7.306
	c5.432,6.306,11.614,12.051,17.046,15.61c-17.545-9.303-80.546-46.767-57.131-106.958c2.185-5.495,7.555-9.116,13.549-9.179
	c7.742,0,18.919,1.811,29.096,10.053c-27.535-24.726-26.849-55.82-26.849-55.82c-0.749-59.817,57.444-41.147,57.444-41.147
	c21.104,5.994,29.096,33.155,29.534,34.841c-2.06-1.873-45.643-40.461-68.308-16.234c0,0-28.722,38.026,38.775,62.876
	c0,0,20.605,9.179,55.258,11.426c18.857,1.186,41.834,0.25,67.996-5.307c21.667-4.496,45.518-12.301,70.931-24.726l15.485,12.425
	l23.352,3.871C432.453,220.41,453.37,313.631,292.589,339.231z"/>
<path style="fill:#F6C358;" d="M292.618,339.221c0,0-65.971,4.413-121.045-17.871c-4.544-1.839-8.503,3.652-5.296,7.36
	c5.448,6.298,11.635,12.022,17.064,15.564c-17.578-9.299-80.58-46.745-57.137-106.913c2.16-5.545,7.559-9.176,13.51-9.18
	c7.778-0.004,18.919,1.75,29.092,10.048c0.681,0.681,1.419,1.306,2.214,1.93c0.17,0.114,0.284,0.284,0.454,0.397h0.057
	c14.135,11.751,35.026,21.686,65.965,25.66c0,0,0.227,0,0.738,0.057c9.537,0.454,108.541,4.03,170.873-49.729l23.332,3.86
	C432.439,220.404,453.387,313.618,292.618,339.221z"/>
<path style="fill:#3EA69B;" d="M465.427,164.992c-2.826,3.266-6.971,6.846-12.875,9.609c-1.696,0.816-3.203,1.884-4.396,3.266
	c-0.503,0.565-0.942,1.193-1.319,1.821c-4.522,7.851-14.822,27.257-14.382,40.698l-13.503,9.609c-2.889,2.072-6.72,2.072-9.546,0
	l-9.044-6.594l-3.454-2.512c-2.073-1.57-3.266-3.957-3.266-6.594V204.12c23.3-15.638,24.62-33.35,24.62-33.35l2.449-7.725
	l1.005-3.203l4.145-13.189c0.879-2.826,2.701-5.15,5.15-6.657l8.479-5.213c5.024-3.077,11.619-2.072,15.45,2.449l10.426,12.184
	C469.195,153.876,469.321,160.596,465.427,164.992z"/>
<path style="fill:#44C4A1;" d="M435.218,163.737c-0.754,2.701-1.57,5.338-2.449,7.788c-10.677,31.34-26.441,46.915-32.407,51.877
	l-3.454-2.512c-2.073-1.57-3.266-3.957-3.266-6.594V204.12c23.3-15.638,24.62-33.35,24.62-33.35l2.449-7.725l1.005-3.203
	L435.218,163.737z"/>
<path style="fill:#3A556A;" d="M465.427,164.992c-2.826,3.266-6.971,6.846-12.875,9.609c-1.696,0.816-3.203,1.884-4.396,3.266
	c-3.768-1.005-7.6-2.449-11.368-4.271c-1.382-0.691-2.763-1.382-4.02-2.072c-4.522-2.512-8.541-5.339-12.059-8.479l1.005-3.203
	l4.145-13.189c0.879-2.826,2.701-5.15,5.15-6.657l8.479-5.213c5.024-3.077,11.619-2.072,15.45,2.449l10.426,12.184
	C469.195,153.876,469.321,160.596,465.427,164.992z"/>
<g>
</g>
<g>
</g>
<g>
</g>
<g>
</g>
<g>
</g>
<g>
</g>
<g>
</g>
<g>
</g>
<g>
</g>
<g>
</g>
<g>
</g>
<g>
</g>
<g>
</g>
<g>
</g>
<g>
</g>
</svg>
