<?xml version="1.0" encoding="iso-8859-1"?>
<!-- Generator: Adobe Illustrator 19.0.0, SVG Export Plug-In . SVG Version: 6.00 Build 0)  -->
<svg version="1.1" id="Capa_1" xmlns="http://www.w3.org/2000/svg" xmlns:xlink="http://www.w3.org/1999/xlink" x="0px" y="0px"
	 viewBox="0 0 468.293 468.293" style="enable-background:new 0 0 468.293 468.293;" xml:space="preserve">
<path style="fill:#44C4A1;" d="M234.146,107.058c59.127,0,107.058-47.931,107.058-107.058C282.078,0,234.146,47.932,234.146,107.058
	z"/>
<path style="fill:#3EA69B;" d="M331.898,7.307l-86.915,90.207C244.983,97.514,302.926,57.349,331.898,7.307z"/>
<path style="fill:#44C4A1;" d="M234.146,107.058C175.02,107.058,127.088,59.127,127.088,0C186.215,0,234.146,47.932,234.146,107.058
	z"/>
<path style="fill:#3EA69B;" d="M136.395,7.307l86.915,90.207C223.31,97.514,165.367,57.349,136.395,7.307z"/>
<path style="fill:#D15241;" d="M404.496,228.455c-11.012,156.906-143.342,239.837-168.228,239.837c-0.622,0-1.307-0.124-2.115-0.373
	c-0.809,0.249-1.493,0.373-2.115,0.373c-6.408,0-19.909-5.475-36.582-16.3c-48.279-31.17-123.434-106.947-131.646-223.537
	c-1.493-20.593,2.862-41.373,12.256-59.726c13.189-25.882,35.711-46.225,62.277-57.735c34.529-14.931,72.915-10.638,109.684-10.763
	c13.5,0,26.939-0.622,40.315,0.436c6.284,0.498,12.505,1.369,18.664,2.8c5.724,1.306,11.323,3.048,16.798,5.164
	C372.518,127.17,408.291,174.64,404.496,228.455z"/>
<path style="fill:#E56353;" d="M377.308,214.27c-11.012,156.905-143.342,239.837-168.291,239.837c-0.56,0-1.244-0.125-2.053-0.373
	c-0.809,0.249-1.493,0.373-2.115,0.373c-2.302,0-5.475-0.684-9.394-2.115c-48.279-31.17-123.434-106.947-131.646-223.537
	c-1.493-20.593,2.862-41.373,12.256-59.726c13.189-25.882,35.711-46.225,62.277-57.735c34.529-14.931,72.915-10.638,109.684-10.763
	c13.5,0,26.939-0.622,40.315,0.436c6.284,0.498,12.505,1.369,18.664,2.8c5.724,1.306,11.323,3.048,16.798,5.164
	C357.959,132.023,380.357,171.094,377.308,214.27z"/>
<g>
	<path style="fill:#FCD462;" d="M150.612,192.049c-4.843,0-8.77,5.26-8.77,11.749c0,4.063,3.439,19.107,6.01,29.786
		c0.697,2.896,4.823,2.896,5.52,0c2.571-10.679,6.01-25.723,6.01-29.786C159.382,197.309,155.456,192.049,150.612,192.049z"/>
	<path style="fill:#FCD462;" d="M271.633,179.42c-4.843,0-8.77,5.26-8.77,11.749c0,4.063,3.439,19.107,6.01,29.786
		c0.697,2.896,4.823,2.896,5.52,0c2.571-10.679,6.01-25.723,6.01-29.786C280.403,184.68,276.477,179.42,271.633,179.42z"/>
	<path style="fill:#FCD462;" d="M201.39,229.371c-4.843,0-8.77,5.26-8.77,11.749c0,4.063,3.439,19.107,6.01,29.786
		c0.697,2.896,4.823,2.896,5.52,0c2.571-10.679,6.01-25.723,6.01-29.786C210.16,234.632,206.233,229.371,201.39,229.371z"/>
	<path style="fill:#FCD462;" d="M257.427,279.323c-4.843,0-8.77,5.26-8.77,11.749c0,4.063,3.439,19.107,6.01,29.786
		c0.697,2.896,4.823,2.896,5.52,0c2.571-10.679,6.01-25.723,6.01-29.786C266.197,284.583,262.271,279.323,257.427,279.323z"/>
	<path style="fill:#FCD462;" d="M160.635,317.667c-4.843,0-8.77,5.26-8.77,11.749c0,4.063,3.439,19.107,6.01,29.786
		c0.697,2.896,4.823,2.896,5.52,0c2.571-10.679,6.01-25.723,6.01-29.786C169.404,322.927,165.478,317.667,160.635,317.667z"/>
	<path style="fill:#FCD462;" d="M113.776,246.968c-4.843,0-8.77,5.26-8.77,11.749c0,4.063,3.439,19.107,6.01,29.786
		c0.697,2.896,4.823,2.896,5.52,0c2.571-10.679,6.01-25.723,6.01-29.786C122.546,252.228,118.62,246.968,113.776,246.968z"/>
	<path style="fill:#FCD462;" d="M213.287,357.544c-4.843,0-8.77,5.26-8.77,11.749c0,4.063,3.439,19.107,6.01,29.786
		c0.697,2.896,4.823,2.896,5.52,0c2.571-10.679,6.01-25.723,6.01-29.786C222.057,362.804,218.131,357.544,213.287,357.544z"/>
	<path style="fill:#FCD462;" d="M208.173,142.098c-4.843,0-8.77,5.26-8.77,11.749c0,4.063,3.439,19.107,6.01,29.786
		c0.697,2.896,4.823,2.896,5.52,0c2.571-10.679,6.01-25.723,6.01-29.786C216.943,147.358,213.017,142.098,208.173,142.098z"/>
	<path style="fill:#FCD462;" d="M331.182,237.193c-4.843,0-8.77,5.26-8.77,11.749c0,4.063,3.439,19.107,6.01,29.786
		c0.697,2.896,4.823,2.896,5.52,0c2.571-10.679,6.01-25.723,6.01-29.786C339.951,242.453,336.025,237.193,331.182,237.193z"/>
</g>
<g>
</g>
<g>
</g>
<g>
</g>
<g>
</g>
<g>
</g>
<g>
</g>
<g>
</g>
<g>
</g>
<g>
</g>
<g>
</g>
<g>
</g>
<g>
</g>
<g>
</g>
<g>
</g>
<g>
</g>
</svg>
