<?xml version="1.0" encoding="iso-8859-1"?>
<!-- Generator: Adobe Illustrator 19.0.0, SVG Export Plug-In . SVG Version: 6.00 Build 0)  -->
<svg version="1.1" id="Capa_1" xmlns="http://www.w3.org/2000/svg" xmlns:xlink="http://www.w3.org/1999/xlink" x="0px" y="0px"
	 viewBox="0 0 468.293 468.293" style="enable-background:new 0 0 468.293 468.293;" xml:space="preserve">
<circle style="fill:#E56353;" cx="234.146" cy="234.146" r="234.146"/>
<g>
	<path style="fill:#D15241;" d="M250.258,199.424h-32.224c0,0-85.664-106.016-64.95-135.322c23.394-33.098,138.729-33.098,162.124,0
		C335.922,93.408,250.258,199.424,250.258,199.424z"/>
	<path style="fill:#D15241;" d="M250.258,268.868h-32.224c0,0-85.664,106.016-64.95,135.322c23.394,33.098,138.729,33.098,162.124,0
		C335.922,374.884,250.258,268.868,250.258,268.868z"/>
	<path style="fill:#D15241;" d="M268.868,250.258v-32.224c0,0,106.016-85.664,135.322-64.95c33.098,23.394,33.098,138.729,0,162.124
		C374.884,335.922,268.868,250.258,268.868,250.258z"/>
	<path style="fill:#D15241;" d="M199.424,250.258l0-32.224c0,0-106.016-85.664-135.322-64.95
		c-33.098,23.394-33.098,138.729,0,162.124C93.408,335.922,199.424,250.258,199.424,250.258z"/>
</g>
<g>
	<path style="fill:#FCD462;" d="M241.208,79.701c0,3.9-3.162,7.062-7.062,7.062s-7.062-3.162-7.062-7.062s7.062-17.914,7.062-17.914
		S241.208,75.801,241.208,79.701z"/>
	<path style="fill:#FCD462;" d="M206.486,108.469c0,3.9-3.162,7.062-7.062,7.062s-7.062-3.162-7.062-7.062
		s7.062-17.914,7.062-17.914S206.486,104.569,206.486,108.469z"/>
	<path style="fill:#FCD462;" d="M275.93,108.469c0,3.9-3.162,7.062-7.062,7.062c-3.9,0-7.062-3.162-7.062-7.062
		s7.062-17.914,7.062-17.914S275.93,104.569,275.93,108.469z"/>
	<path style="fill:#FCD462;" d="M241.208,388.592c0-3.9-3.162-7.062-7.062-7.062s-7.062,3.162-7.062,7.062
		c0,3.9,7.062,17.914,7.062,17.914S241.208,392.492,241.208,388.592z"/>
	<path style="fill:#FCD462;" d="M206.486,359.824c0-3.9-3.162-7.062-7.062-7.062s-7.062,3.162-7.062,7.062
		c0,3.9,7.062,17.914,7.062,17.914S206.486,363.724,206.486,359.824z"/>
	<path style="fill:#FCD462;" d="M275.93,359.824c0-3.9-3.162-7.062-7.062-7.062c-3.9,0-7.062,3.162-7.062,7.062
		c0,3.9,7.062,17.914,7.062,17.914S275.93,363.724,275.93,359.824z"/>
	<path style="fill:#FCD462;" d="M388.592,241.208c-3.9,0-7.062-3.162-7.062-7.062c0-3.9,3.162-7.062,7.062-7.062
		c3.9,0,17.914,7.062,17.914,7.062S392.492,241.208,388.592,241.208z"/>
	<path style="fill:#FCD462;" d="M359.824,206.486c-3.9,0-7.062-3.162-7.062-7.062s3.162-7.062,7.062-7.062
		c3.9,0,17.914,7.062,17.914,7.062S363.724,206.486,359.824,206.486z"/>
	<path style="fill:#FCD462;" d="M359.824,275.93c-3.9,0-7.062-3.162-7.062-7.062c0-3.9,3.162-7.062,7.062-7.062
		c3.9,0,17.914,7.062,17.914,7.062S363.724,275.93,359.824,275.93z"/>
	<path style="fill:#FCD462;" d="M79.702,241.209c3.9,0,7.062-3.162,7.062-7.062s-3.162-7.062-7.062-7.062
		c-3.9,0-17.914,7.062-17.914,7.062S75.802,241.209,79.702,241.209z"/>
	<path style="fill:#FCD462;" d="M108.47,206.487c3.9,0,7.062-3.162,7.062-7.062s-3.162-7.062-7.062-7.062
		c-3.9,0-17.914,7.062-17.914,7.062S104.57,206.487,108.47,206.487z"/>
	<path style="fill:#FCD462;" d="M108.47,275.931c3.9,0,7.062-3.162,7.062-7.062c0-3.9-3.162-7.062-7.062-7.062
		c-3.9,0-17.914,7.062-17.914,7.062S104.57,275.931,108.47,275.931z"/>
</g>
<g>
</g>
<g>
</g>
<g>
</g>
<g>
</g>
<g>
</g>
<g>
</g>
<g>
</g>
<g>
</g>
<g>
</g>
<g>
</g>
<g>
</g>
<g>
</g>
<g>
</g>
<g>
</g>
<g>
</g>
</svg>
