<?xml version="1.0" encoding="iso-8859-1"?>
<!-- Generator: Adobe Illustrator 19.0.0, SVG Export Plug-In . SVG Version: 6.00 Build 0)  -->
<svg version="1.1" id="Capa_1" xmlns="http://www.w3.org/2000/svg" xmlns:xlink="http://www.w3.org/1999/xlink" x="0px" y="0px"
	 viewBox="0 0 468.238 468.238" style="enable-background:new 0 0 468.238 468.238;" xml:space="preserve">
<path style="fill:#31978C;" d="M292.699,468.238H183.77c31.114-125.44-46.701-252.628-46.701-252.628v-42.896h224.78
	C287.523,247.079,292.699,468.238,292.699,468.238z"/>
<g>
	<path style="fill:#3EA69B;" d="M292.699,468.238h-80.343c31.114-125.44-46.701-252.628-46.701-252.628v-42.896h196.194
		C287.523,247.079,292.699,468.238,292.699,468.238z"/>
	<path style="fill:#3EA69B;" d="M255.9,6.104c-7.018-2.677-15.175-6.293-23.955-6.096c-17.109,0.375-31.844,6.993-39.399,16.484
		c-2.31,2.872-6.306,3.621-9.803,2.435c-12.051-4.121-27.473-4.558-43.208-0.187c-22.54,6.244-39.462,20.48-44.769,35.653
		c-1.124,3.122-3.746,5.494-6.993,5.931c-15.735,2.186-33.03,10.802-47.766,25.226c-27.473,26.849-35.278,63.5-17.42,81.732
		c3.122,3.184,6.806,5.62,10.927,7.243c4.558,1.873,7.056,6.743,5.307,11.301c-5.931,15.672-3.309,35.528,8.617,52.011
		c11.052,15.36,27.473,24.039,43.208,24.539c8.991,0.312,17.732-2.061,25.1-7.368c8.367-6.056,13.674-14.985,15.797-25.038
		c0.874-4.371,5.12-6.993,9.553-6.681c0,0,0.063,0,0.125,0c10.802,0.749,20.855-1.936,28.472-6.869
		c3.934-2.622,9.179-1.811,11.926,2.061c1.686,2.31,3.622,4.496,5.745,6.556c9.303,8.929,22.728,15.235,38.088,16.796
		c0.812,0.063,1.686,0.125,2.56,0.188c10.014,0.659,19.479-0.85,27.889-3.878V6.104z"/>
</g>
<path style="fill:#44C4A1;" d="M444.674,172.964c-2.685,2.373-5.807,4.183-9.178,5.432c-3.871,1.436-6.431,5.37-5.744,9.428
	c2.622,15.672-2.56,34.216-15.423,49.389c-12.613,14.861-29.596,23.04-45.268,23.29c-1.311-0.812-2.622-1.748-3.809-2.809
	c-7.493-6.369-11.864-15.298-13.112-25.226c-0.625-4.808-4.995-8.117-9.803-7.555c-2.81,0.312-5.745,0.375-8.742,0.125
	c-1.436-0.063-2.81-0.25-4.183-0.437c-4.87-0.687-9.428-2.123-13.55-3.996c-3.996-1.873-8.741-0.437-11.051,3.372
	c-9.678,15.672-30.782,25.725-54.447,24.164c-9.053-0.562-17.545-2.81-24.913-6.306c-8.991-4.183-16.359-10.178-21.479-17.233
	c-2.747-3.871-7.992-4.683-11.988-2.06c-1.436,0.936-2.997,1.811-4.62,2.497c-6.869,3.309-15.048,4.995-23.789,4.371h-0.188
	c-4.433-0.312-8.617,2.31-9.553,6.681c-2.123,10.053-7.43,18.981-15.797,25.038c-13.549,9.74-31.657,9.615-47.391,1.249
	c-7.867-4.121-15.111-10.365-20.917-18.42c-11.926-16.484-14.548-36.34-8.554-51.949c1.748-4.62-0.812-9.491-5.37-11.364
	c-4.121-1.623-7.805-4.059-10.927-7.243C27.02,155.168,34.824,118.517,62.36,91.668c14.673-14.361,32.031-23.04,47.704-25.225
	c3.309-0.437,5.932-2.81,6.993-5.932c5.307-15.173,22.291-29.409,44.769-35.653c15.797-4.371,31.157-3.934,43.27,0.188
	c3.497,1.249,7.43,0.437,9.74-2.435c7.618-9.428,22.353-16.109,39.462-16.484c2.435-0.063,4.808,0,7.118,0.25
	c11.614,0.874,21.854,4.745,28.909,10.427c1.998,1.623,3.746,3.372,5.245,5.245c2.186,2.81,5.994,3.934,9.366,2.747
	c7.368-2.622,16.984-3.184,27.536-1.623c0.437,0.187,0.812,0.312,1.249,0.499c17.795,7.368,31.594,18.545,38.213,29.659
	c1.311,2.248,3.746,3.559,6.369,3.996c16.921,2.747,36.09,13.799,51.825,31.532C456.725,118.829,463.219,156.48,444.674,172.964z"/>
<g>
	<path style="fill:#3EA69B;" d="M231.849,39.553c8.425-6.025,30.797-18.386,48.739,4.241c0.848,1.07-0.321,3.125-1.724,2.999
		l-46.903-4.233C230.642,42.441,230.556,40.478,231.849,39.553z"/>
	<path style="fill:#3EA69B;" d="M297.184,56.747c11.797-2.501,41.428-5.263,50.027,27.236c0.407,1.536-1.798,3.184-3.236,2.396
		l-48.072-26.371C294.55,59.265,295.373,57.131,297.184,56.747z"/>
	<path style="fill:#3EA69B;" d="M375.758,97.025c15.307,3.724,51.763,17.224,43.516,60.358c-0.39,2.039-3.918,2.734-5.166,0.991
		l-41.702-58.235C371.233,98.501,373.409,96.453,375.758,97.025z"/>
</g>
<g>
</g>
<g>
</g>
<g>
</g>
<g>
</g>
<g>
</g>
<g>
</g>
<g>
</g>
<g>
</g>
<g>
</g>
<g>
</g>
<g>
</g>
<g>
</g>
<g>
</g>
<g>
</g>
<g>
</g>
</svg>
