<?xml version="1.0" encoding="iso-8859-1"?>
<!-- Generator: Adobe Illustrator 19.0.0, SVG Export Plug-In . SVG Version: 6.00 Build 0)  -->
<svg version="1.1" id="Capa_1" xmlns="http://www.w3.org/2000/svg" xmlns:xlink="http://www.w3.org/1999/xlink" x="0px" y="0px"
	 viewBox="0 0 468.293 468.293" style="enable-background:new 0 0 468.293 468.293;" xml:space="preserve">
<path style="fill:#64798A;" d="M250.617,51.465c10.165-11.334,16.995-17.884,17.296-18.168c4.212-3.983,4.4-10.628,0.421-14.843
	c-3.986-4.215-10.621-4.406-14.843-0.427C247.607,23.582,109.65,155.643,136.123,290.8c0.981,5.008,5.374,8.485,10.297,8.485
	c0.667,0,1.347-0.065,2.031-0.198c5.692-1.114,9.401-6.635,8.286-12.327c-16.656-85.026,41.425-172.265,79.842-218.951
	c38.413,46.661,96.526,133.879,79.86,218.951c-1.114,5.692,2.595,11.213,8.286,12.327c0.684,0.133,1.364,0.198,2.031,0.198
	c4.923,0,9.315-3.477,10.297-8.485C355.897,194.587,291.46,100.018,250.617,51.465z"/>
<path style="fill:#E56353;" d="M292.823,342.862c1.611,60.629-47.117,110.268-107.467,110.268c-5.881,0-11.692-0.49-17.363-1.47
	c-3.361-0.56-6.651-1.26-9.872-2.1c-7.701-2.031-15.682-2.031-23.314,0c-1.96,0.49-3.921,0.98-5.881,1.33
	c-6.931,1.47-14.072,2.24-21.423,2.24c-6.021,0-11.902-0.49-17.643-1.47C37.983,443.118-1.364,397.47,0.036,342.862
	c1.261-51.109,39.767-94.725,89.684-103.196c2.101-0.42,4.201-0.7,6.301-0.91c11.412-1.191,22.474-0.56,32.905,1.61
	c1.89,0.42,3.78,0.84,5.671,1.33c7.771,2.03,15.893,2.03,23.664,0c3.22-0.84,6.511-1.54,9.871-2.03
	c9.171-1.611,18.763-1.961,28.705-0.91C249.766,244.496,291.493,289.583,292.823,342.862z"/>
<path style="fill:#D15241;" d="M124.866,451.659c-5.671,0.98-11.412,1.47-17.363,1.47c-60.35,0-109.007-49.638-107.467-110.268
	c1.33-53.279,43.057-98.366,95.985-104.107c9.941-1.05,19.533-0.7,28.704,0.91c-49.918,8.471-88.424,52.088-89.684,103.196
	C33.641,397.47,72.988,443.118,124.866,451.659z"/>
<path style="fill:#E56353;" d="M468.254,342.862c1.611,60.629-47.117,110.268-107.467,110.268c-5.881,0-11.692-0.49-17.363-1.47
	c-3.361-0.56-6.651-1.26-9.872-2.1c-7.701-2.031-15.682-2.031-23.314,0c-1.96,0.49-3.921,0.98-5.881,1.33
	c-6.931,1.47-14.072,2.24-21.423,2.24c-6.021,0-11.902-0.49-17.643-1.47c-51.878-8.541-91.224-54.189-89.824-108.797
	c1.261-51.109,39.767-94.725,89.684-103.196c2.101-0.42,4.201-0.7,6.301-0.91c11.412-1.191,22.474-0.56,32.905,1.61
	c1.89,0.42,3.78,0.84,5.671,1.33c7.771,2.03,15.893,2.03,23.664,0c3.22-0.84,6.511-1.54,9.871-2.03
	c9.171-1.611,18.763-1.961,28.705-0.91C425.197,244.496,466.924,289.583,468.254,342.862z"/>
<path style="fill:#D15241;" d="M300.296,451.659c-5.671,0.98-11.412,1.47-17.363,1.47c-60.35,0-109.007-49.638-107.467-110.268
	c1.33-53.279,43.057-98.366,95.985-104.107c9.941-1.05,19.533-0.7,28.704,0.91c-49.918,8.471-88.424,52.088-89.684,103.196
	C209.072,397.47,248.418,443.118,300.296,451.659z"/>
<path style="fill:#FCD462;" d="M165.597,192.862c31.634,26.689,78.914,22.68,105.602-8.954
	C239.565,157.219,192.286,161.228,165.597,192.862z"/>
<path style="fill:#3EA69B;" d="M259.036,184.624l-31.318,3.104c2.405-1.826,5.34-4.762,5.771-8.57l-7.364,8.728l-19.761,1.959
	c2.487-1.655,6.474-4.945,6.984-9.444l-8.057,9.55l-29.627,2.936c0,0,19.525,0.92,41.678-0.768c1.867,3.682,6.396,5.57,6.396,5.57
	l-4.736-5.699c6.157-0.503,12.478-1.217,18.617-2.207c1.234,4.628,6.955,6.982,6.955,6.982l-5.941-7.149
	C245.928,188.398,252.935,186.781,259.036,184.624z"/>
<path style="fill:#FCD462;" d="M335.477,212.588c39.786-11.403,62.797-52.9,51.395-92.688
	C347.085,131.303,324.075,172.801,335.477,212.588z"/>
<path style="fill:#3EA69B;" d="M380.69,130.401l-14.87,27.738c-0.177-3.014-0.98-7.087-3.902-9.568l3.146,10.978l-9.382,17.502
	c0.012-2.988-0.5-8.131-3.952-11.061l3.442,12.012l-14.067,26.24c0,0,11.641-15.702,22.581-35.04c4.098,0.5,8.189-2.208,8.189-2.208
	l-7.371,0.758c3.012-5.394,5.941-11.04,8.538-16.69c4.531,1.553,9.672-1.886,9.672-1.886l-9.246,0.951
	C376.522,143.389,379.082,136.669,380.69,130.401z"/>
<path style="fill:#FCD462;" d="M144.419,185.865c19.62-69.703-20.98-142.114-90.683-161.735
	C34.117,93.834,74.716,166.245,144.419,185.865z"/>
<path style="fill:#3EA69B;" d="M63.68,42.987l27.608,47.641c-4.649-2.509-11.45-5.06-17.828-2.991l19.232,5.414l17.42,30.061
	c-4.436-2.765-12.562-6.734-20.097-4.291l21.043,5.923l26.116,45.068c0,0-12.664-31.766-31.383-65.834
	c4.514-5.639,4.245-14.219,4.245-14.219l-5.65,11.667c-5.257-9.444-10.968-18.996-16.988-28.057
	c6.479-5.315,6.088-16.13,6.088-16.13l-7.088,14.636C79.177,61.135,71.531,51.145,63.68,42.987z"/>
<g>
</g>
<g>
</g>
<g>
</g>
<g>
</g>
<g>
</g>
<g>
</g>
<g>
</g>
<g>
</g>
<g>
</g>
<g>
</g>
<g>
</g>
<g>
</g>
<g>
</g>
<g>
</g>
<g>
</g>
</svg>
