<?xml version="1.0" encoding="iso-8859-1"?>
<!-- Generator: Adobe Illustrator 19.0.0, SVG Export Plug-In . SVG Version: 6.00 Build 0)  -->
<svg version="1.1" id="Capa_1" xmlns="http://www.w3.org/2000/svg" xmlns:xlink="http://www.w3.org/1999/xlink" x="0px" y="0px"
	 viewBox="0 0 468.293 468.293" style="enable-background:new 0 0 468.293 468.293;" xml:space="preserve">
<path style="fill:#DC8744;" d="M203.477,133.908h30.76c0,0-4.522,123.376,5.96,203.777c0.894,6.861,9.658,9.609,15.439,5.807
	c22.282-14.659,71.451-50.129,98.08-93.402c0,0-18.454,92.319-86.187,125.26c-8.79,4.275-13.51,13.992-11.136,23.474l17.393,69.47
	H154.041c0,0,31.589-83.361,37.52-126.959c1.001-7.357-3.793-14.203-10.986-16.046c-22.501-5.768-70.106-24.372-82.562-80.007
	c0,0,51.633,65.5,105.464,55.82V133.908z"/>
<path style="fill:#3EA69B;" d="M438.278,229.002c-0.615,7.538-7.03,13.844-14.313,15.374c-2.966,0.623-4.918,3.536-4.081,6.449
	c1.487,5.175,0.872,11.069-2.048,15.681c-3.689,5.738-10.042,9.068-16.088,12.142c-5.892,3.023-11.784,5.994-17.676,8.966
	c-3.792,1.947-7.941,3.791-12.143,5.123c-8.249,2.664-16.702,3.279-23.106-1.998c-3.586-3.023-5.995-7.634-9.222-10.964
	c-3.46-3.575-7.828-5.722-15.588-2.717c-3.549,1.375-6.422,3.979-8.912,6.857c-0.861,0.995-1.78,1.815-2.756,2.52
	c-7.378,5.431-17.01,2.51-26.13-3.381c-1.588-1.025-3.228-2.152-4.765-3.33c-0.297-0.225-0.612-0.397-0.939-0.532
	c-3.49-1.434-7.864-4.788-9.235-8.302c-4.233-10.848-2.144-23.901,5.115-32.976c1.613-2.016,1.556-4.802-0.065-6.812
	c-7.019-8.709-8.146-22.081-2.1-31.61c8.402-13.27,25.668-7.634,33.712-18.547c5.609-7.544,1.807-17.603,16.877-21.804
	c3.565-0.994,7.25-0.257,10.821,0.714c2.649,0.72,5.478-0.659,6.373-3.246c1.527-4.489,4.292-8.56,7.827-11.767
	c4.607-4.179,11.713-4.14,16.358-0.004c2.248,2.002,4.184,4.348,5.684,6.954c1.654,2.874,5.655,3.443,8.034,1.133
	c2.481-2.409,5.494-4.29,8.771-5.59c6.404-2.408,13.782-2.613,19.981,0.051c1.896,0.82,3.689,1.896,5.328,3.227
	c9.12,7.532,10.708,21.774,5.277,32.021c-1.896,3.586,0.871,7.839,4.918,7.685h0.051c3.33-0.102,6.097,2.92,5.482,6.251
	c-0.571,2.855-1.721,5.606-3.449,7.984c-1.936,2.664-0.807,6.335,2.118,7.847C434.436,215.528,438.842,222.137,438.278,229.002z"/>
<path style="fill:#44C4A1;" d="M424.65,227.622c-0.819-2.792-2.877-3.206-3.651-3.87c-1.016-0.665-1.967-1.423-2.827-2.268
	c-1.723-1.685-3.127-3.673-4.091-5.845c-1.95-4.344-2.112-9.342-0.485-13.66l0.639-1.695l-1.523-1.318
	c-5.24-4.535-7.381-12.091-5.265-18.34c0.239-0.786,0.56-1.545,0.909-2.287l0.572-1.089c0.257-0.501,0.62-1.171,0.837-1.767
	c0.99-2.467,1.3-5.022,1.114-7.606c-0.28-2.565-0.904-5.311-3.241-7.889c-2.433-2.349-5.583-3.478-8.257-3.492
	c-2.706-0.061-5.153,0.266-7.853,1.498c-1.207,0.563-2.391,1.274-3.52,2.227l-1.129,1.002l-0.92,0.707
	c-2.503,1.809-5.5,2.829-8.552,2.942c-3.05,0.104-6.089-0.625-8.718-2.122c-1.315-0.743-2.505-1.693-3.534-2.781
	c-0.513-0.545-1.001-1.116-1.417-1.736c-0.497-0.673-0.615-1.01-1.563-2.469l-4.436-6.822l-3.842,6.855
	c-0.532,0.95-1.045,1.924-1.529,2.909l-0.658,1.393l-0.326,0.806c-0.487,1.055-1.022,2.105-1.744,3.025
	c-1.399,1.863-3.193,3.45-5.259,4.568c-2.063,1.118-4.386,1.778-6.748,1.867c-2.598,0.195-3.91-0.4-8.654-1.267l-0.83-0.151
	l-0.973,0.346c-0.79,0.282-1.577,0.588-2.348,0.914l-1.802,0.763l-0.573,1.808l-2.239,7.065c-0.688,2.035-1.519,3.922-2.559,5.676
	c-2.125,3.505-4.97,6.583-8.483,8.824c-3.517,2.273-7.615,3.811-12.094,5.142c-2.249,0.674-4.615,1.281-7.159,2.182
	c-1.274,0.505-2.73,0.932-4.501,2.457c-1.887,1.93-2.153,3.26-2.713,4.874c-0.837,3.126-0.655,6.202,0.21,9.091
	c0.676,2.879,3.209,5.786,4.138,7.03c2.347,3.378,3.485,7.621,3.079,11.81c-0.196,2.092-0.767,4.162-1.687,6.085
	c-0.461,0.962-1.008,1.887-1.63,2.765c-0.677,0.961-1.544,2.218-2.094,3.409c-2.324,4.879-2.793,10.471-1.12,15.568l0.192,0.586
	l0.37,0.241c0.495,0.322,1.006,0.627,1.516,0.908l1.124,0.457c0.729,0.323,1.437,0.695,2.119,1.113l4.357,2.849
	c1.496,0.962,3.076,1.819,4.728,2.562c1.718,0.688,3.272,1.443,5.56,1.401l0.407-0.007l0.272-0.341
	c0.412-0.516-0.347-2.566-1.129-1.742c-1.191-0.121-2.76-0.762-4.079-1.454c-1.466-0.78-2.896-1.677-4.255-2.686l-4.167-3.135
	c-0.764-0.542-1.566-1.033-2.398-1.47l-1.252-0.609c-0.059-0.051-0.121-0.087-0.179-0.134c-0.925-4.054-0.22-8.533,1.797-12.083
	c0.544-0.966,1.106-1.663,1.878-2.629c0.844-1.037,1.605-2.147,2.267-3.32c1.322-2.346,2.236-4.943,2.672-7.632
	c0.894-5.379-0.202-11.114-3.052-15.868c-1.762-2.716-2.528-3.545-2.932-5.478c-0.411-1.753-0.341-3.69,0.204-5.198
	c0.188-0.65,0.866-1.656,0.755-1.386c0.076-0.054,0.952-0.458,1.949-0.718c2.05-0.579,4.396-1.036,6.813-1.584
	c4.847-1.054,10.016-2.617,14.724-5.449c4.751-2.775,8.823-6.772,11.863-11.405c1.519-2.337,2.734-4.85,3.69-7.349
	c0.462-1.219,0.848-2.435,1.211-3.601c2.071,0.48,4.94,1.003,7.372,0.81c3.864-0.099,7.714-1.12,11.148-2.919
	c3.444-1.787,6.48-4.387,8.74-7.564c0.467-0.628,0.866-1.301,1.257-1.978c1.442,1.31,2.988,2.502,4.689,3.437
	c4.299,2.39,9.316,3.521,14.199,3.091c4.879-0.381,9.648-2.244,13.461-5.258c0.485-0.367,0.935-0.774,1.393-1.17l1.06-1.019
	c0.371-0.349,0.882-0.708,1.462-1.008c0.877-0.517,2.469-0.848,3.719-0.849c1.355-0.088,2.059,0.398,2.614,0.662
	c0.449,0.309,1.083,1.567,1.279,2.907c0.199,1.361,0.123,2.865-0.293,4.121c-0.097,0.348-0.205,0.556-0.367,0.956
	c-0.238,0.534-0.498,1.056-0.708,1.601c-0.427,1.085-0.802,2.192-1.068,3.328c-2.215,8.575,1.018,17.834,7.383,23.417
	c-1.092,5.261-0.378,10.82,2.095,15.452c1.373,2.606,3.253,4.915,5.463,6.802c1.104,0.946,2.3,1.777,3.559,2.485l1.503,0.795
	c-0.074,0.033-0.143,0.066-0.255,0.094c-0.969,0.25-1.927,0.542-2.852,0.917c-1.859,0.723-3.592,1.729-5.18,2.903
	c-3.155,2.382-5.651,5.587-7.105,9.204c-1.461,3.609-1.918,7.571-1.374,11.368c0.185,1.962,1.221,3.714,0.777,5.239
	c-0.29,0.943-2.155,3.743-2.155,3.743c1.274-0.832,2.561-1.718,3.257-3.444c0.297-1.011,0.22-2.127-0.051-3.062
	c-0.224-0.87-0.372-1.759-0.477-2.65c-0.391-3.567,0.219-7.233,1.798-10.407c1.535-3.191,3.967-5.893,6.874-7.799
	c1.464-0.936,3.029-1.711,4.673-2.225c0.817-0.271,1.655-0.464,2.497-0.624c0.607-0.09,1.372-0.421,1.857-0.745
	c0.595-0.462,0.833-0.44,1.61-1.543l0.334-0.474L424.65,227.622z"/>
<path style="fill:#3EA69B;" d="M30.009,227.825c0.548,6.714,6.261,12.33,12.748,13.693c2.641,0.555,4.38,3.149,3.635,5.744
	c-1.324,4.609-0.777,9.859,1.825,13.967c3.285,5.111,8.944,8.077,14.329,10.815c5.248,2.692,10.496,5.339,15.743,7.986
	c3.377,1.734,7.073,3.377,10.815,4.563c7.347,2.373,14.876,2.92,20.58-1.78c3.194-2.692,5.339-6.799,8.214-9.766
	c3.081-3.184,6.972-5.097,13.884-2.42c3.161,1.224,5.72,3.544,7.938,6.107c0.767,0.887,1.585,1.617,2.455,2.245
	c6.571,4.837,15.15,2.236,23.273-3.012c1.415-0.913,2.875-1.917,4.244-2.966c0.265-0.201,0.545-0.354,0.837-0.474
	c3.108-1.277,7.004-4.264,8.226-7.395c3.77-9.662,1.909-21.288-4.556-29.371c-1.437-1.796-1.385-4.277,0.058-6.068
	c6.251-7.757,7.255-19.667,1.87-28.154c-7.484-11.819-22.862-6.799-30.026-16.519c-4.996-6.719-1.609-15.678-15.032-19.42
	c-3.175-0.885-6.457-0.229-9.638,0.636c-2.36,0.641-4.879-0.587-5.677-2.891c-1.36-3.998-3.822-7.624-6.972-10.48
	c-4.104-3.722-10.432-3.688-14.57-0.003c-2.002,1.783-3.727,3.873-5.063,6.194c-1.473,2.56-5.036,3.067-7.156,1.009
	c-2.21-2.145-4.893-3.821-7.812-4.979c-5.704-2.145-12.275-2.327-17.797,0.046c-1.688,0.73-3.285,1.688-4.746,2.875
	c-8.123,6.708-9.537,19.394-4.7,28.521c1.688,3.194-0.776,6.982-4.381,6.845h-0.046c-2.966-0.091-5.43,2.601-4.883,5.567
	c0.509,2.543,1.533,4.993,3.072,7.111c1.724,2.372,0.719,5.642-1.886,6.989C33.431,215.823,29.507,221.71,30.009,227.825z"/>
<g>
	<path style="fill:#44C4A1;" d="M160.593,234.478c-0.196-3.625,0.795-7.233,2.713-10.21c0.473-0.751,1.029-1.441,1.591-2.122
		c0.985-1.173,1.672-2.474,2.147-3.802c0.915-2.665,1.153-5.486,0.224-8.498c-0.291-0.822-0.467-1.347-1.157-2.408
		c-1.166-1.474-2.064-1.758-2.752-2.145c-1.382-0.639-2.429-0.945-3.508-1.295l-5.997-1.816c-3.751-1.243-7.215-2.659-10.143-4.745
		c-2.951-2.029-5.326-4.671-7.149-7.712c-1.828-3.122-2.812-6.161-4.087-10.633c-0.387-1.327-1.38-2.487-2.773-3.011l-0.275-0.103
		l-0.145-0.054l-0.246-0.093c-0.706-0.267-1.495-0.338-2.287-0.162l-2.436,0.541c-0.616,0.153-1.02,0.243-1.546,0.329
		c-0.995,0.157-1.996,0.24-2.996,0.177c-2.004-0.073-3.981-0.53-5.78-1.386c-3.636-1.635-6.576-4.724-7.989-8.496l-0.046-0.123
		c-0.337-0.902-0.939-1.717-1.784-2.316c-2.241-1.587-5.345-1.057-6.932,1.185c-2.943,4.155-8.13,6.57-13.295,6.31
		c-2.589-0.116-5.133-0.909-7.346-2.306c-0.558-0.341-1.082-0.74-1.597-1.15l-0.907-0.797c-0.527-0.46-1.047-0.834-1.588-1.173
		c-0.964-0.648-2.521-1.279-3.574-1.513c-1.145-0.292-2.327-0.454-3.556-0.446c-1.231,0.012-2.534,0.155-3.958,0.67
		c-1.407,0.551-3.09,1.628-3.998,3.057c-1.694,2.684-1.841,5.049-1.758,7.371c0.079,1.16,0.293,2.312,0.678,3.462
		c0.195,0.575,0.426,1.148,0.726,1.715l0.569,1.062c0.644,1.231,1.136,2.545,1.453,3.904c1.333,5.42-0.469,11.669-4.659,15.779
		l-0.174,0.169c-0.653,0.644-0.93,1.622-0.633,2.556c1.183,3.718,1.051,7.893-0.43,11.642c-1.456,3.754-4.234,7.045-7.809,9.155
		l-0.13,0.077c-0.398,0.238-0.695,0.64-0.782,1.133c-0.159,0.9,0.441,1.759,1.341,1.918c3.866,0.685,7.534,2.686,10.305,5.604
		c0,0-3.847-6.552-6.11-7.583c3.04-2.161,5.569-5.098,7.216-8.527c1.947-3.989,2.585-8.621,1.904-13.111
		c5.229-5.016,8.022-12.633,6.848-20.086c-0.298-1.973-0.852-3.912-1.638-5.754l-0.54-1.226c-0.08-0.191-0.145-0.414-0.201-0.648
		c-0.111-0.47-0.169-1.006-0.157-1.539c-0.008-1.037,0.413-2.198,0.643-2.339c0.041-0.006-0.073,0.238,0.054,0.124
		c0.183-0.033,0.593-0.07,1.053-0.023c0.466,0.049,0.971,0.14,1.462,0.294c0.589,0.189,0.61,0.228,1.061,0.519
		c0.171,0.122,0.331,0.257,0.434,0.364l0.963,0.924c0.774,0.688,1.577,1.351,2.436,1.941c3.41,2.395,7.483,3.893,11.657,4.283
		c5.97,0.671,12.061-1.18,16.91-4.747c2.509,3.414,5.772,6.284,9.672,7.989c3.055,1.379,6.394,2.099,9.727,2.162
		c1.635,0.058,3.277-0.093,4.881-0.373c0.966,2.807,2.198,5.849,3.992,8.439c2.671,4.051,6.225,7.606,10.331,10.151
		c4.079,2.57,8.539,4.246,12.864,5.247l6.188,1.364c0.941,0.214,1.926,0.467,2.47,0.667c0.009,0.002,0.013,0.005,0.021,0.007
		c0.003,0.008,0.013,0.022,0.015,0.03c0.445,0.967,0.537,2.56,0.172,3.879c-0.173,0.666-0.442,1.27-0.763,1.743
		c-0.708,0.993-1.384,2.001-1.953,3.077c-2.305,4.279-3.225,9.252-2.588,13.988c0.494,4.672,3.03,9.367,5.767,12.396
		c1.963,2.615,2.822,6.274,2.32,9.645c-0.859,0.45-2.014,1.102-2.814,1.714l-3.231,2.459c-1.918,1.459-4.022,2.752-6.13,3.499
		c-3.479-3.488-7.497-6.503-12.039-8.433c-4.021-1.658-4.324-0.581-0.533,1.19c4.53,2.113,8.328,5.5,11.473,9.341
		c0.248,0.302,0.654,0.457,1.061,0.364l0.044-0.01c2.961-0.676,5.403-2.055,7.748-3.54l3.396-2.193
		c1.17-0.718,1.925-1.012,3.587-1.743c0.338-0.15,0.614-0.447,0.723-0.83l0.065-0.229c1.304-4.595,0.637-9.592-1.949-13.77
		C162.057,241.427,160.807,238.227,160.593,234.478z"/>
	<path style="fill:#44C4A1;" d="M132.889,87.28c0.615,7.538,7.03,13.844,14.313,15.374c2.966,0.623,4.918,3.536,4.081,6.449
		c-1.487,5.175-0.872,11.069,2.048,15.681c3.689,5.738,10.042,9.068,16.088,12.142c5.892,3.023,11.784,5.994,17.675,8.966
		c3.792,1.947,7.942,3.791,12.143,5.123c8.249,2.664,16.702,3.279,23.106-1.998c3.586-3.023,5.995-7.634,9.222-10.964
		c3.46-3.575,7.828-5.722,15.588-2.717c3.549,1.375,6.422,3.979,8.912,6.857c0.861,0.995,1.78,1.815,2.756,2.52
		c7.378,5.431,17.01,2.51,26.13-3.381c1.588-1.025,3.228-2.152,4.765-3.33c0.297-0.225,0.612-0.397,0.939-0.532
		c3.49-1.434,7.864-4.788,9.235-8.302c4.233-10.848,2.144-23.901-5.115-32.976c-1.613-2.016-1.556-4.802,0.065-6.812
		c7.019-8.709,8.146-22.081,2.1-31.61c-8.402-13.27-25.668-7.634-33.712-18.547c-5.609-7.544-1.807-17.603-16.877-21.804
		c-3.565-0.994-7.25-0.257-10.821,0.714c-2.649,0.72-5.478-0.659-6.373-3.246c-1.527-4.489-4.292-8.56-7.827-11.767
		c-4.607-4.179-11.713-4.14-16.358-0.004c-2.248,2.002-4.184,4.348-5.684,6.954c-1.654,2.874-5.655,3.443-8.034,1.133
		c-2.481-2.409-5.494-4.29-8.771-5.59C176.079,3.205,168.702,3,162.502,5.665c-1.896,0.82-3.689,1.896-5.328,3.227
		c-9.12,7.532-10.708,21.774-5.277,32.021c1.896,3.586-0.871,7.839-4.918,7.685h-0.051c-3.33-0.102-6.097,2.92-5.482,6.251
		c0.571,2.855,1.721,5.606,3.449,7.984c1.936,2.664,0.807,6.335-2.118,7.847C136.732,73.806,132.325,80.415,132.889,87.28z"/>
</g>
<path style="fill:#3EA69B;" d="M284.371,104.047c-0.621-0.877-1.167-1.801-1.627-2.762c-0.918-1.922-1.487-3.989-1.682-6.077
	c-0.404-4.183,0.734-8.419,3.079-11.791c0.927-1.237,3.466-4.159,4.14-7.041c0.866-2.893,1.048-5.975,0.211-9.105
	c-0.568-1.629-0.807-2.927-2.715-4.893c-1.788-1.537-3.242-1.958-4.516-2.465c-2.545-0.901-4.911-1.511-7.16-2.185
	c-4.478-1.334-8.586-2.841-12.095-5.123c-3.516-2.238-6.337-5.303-8.465-8.82c-1.047-1.756-1.862-3.646-2.573-5.67
	c-0.361-1.013-0.688-2.063-1.016-3.18l-1.227-3.882c-0.353-1.1-1.171-2.063-2.318-2.55l-0.062-0.026
	c-0.767-0.325-1.55-0.631-2.336-0.912l-0.185-0.067c-0.509-0.18-1.07-0.234-1.64-0.13c-4.733,0.86-6.054,1.464-8.644,1.266
	c-2.36-0.088-4.679-0.748-6.738-1.865c-2.055-1.126-3.873-2.682-5.271-4.559c-0.72-0.927-1.263-1.976-1.756-3.037
	c-0.196-0.661-1.508-3.355-2.499-5.082c-0.362-0.627-0.884-1.2-1.531-1.623c-2.209-1.443-5.169-0.822-6.611,1.387l-0.127,0.194
	c-0.95,1.455-1.064,1.787-1.565,2.464c-0.418,0.621-0.907,1.192-1.42,1.739c-1.031,1.089-2.221,2.043-3.537,2.787
	c-2.632,1.484-5.664,2.251-8.719,2.143c-3.055-0.113-6.061-1.135-8.563-2.945l-0.919-0.707l-1.134-1.005
	c-1.115-0.936-2.251-1.641-3.517-2.235c-2.702-1.176-5.086-1.559-7.832-1.483c-1.354,0.078-2.724,0.292-4.206,0.84
	c-1.506,0.711-2.832,1.403-4.062,2.684c-2.247,2.521-2.921,5.26-3.198,7.823c-0.195,2.583,0.114,5.14,1.102,7.601
	c0.217,0.597,0.575,1.258,0.835,1.765l0.572,1.09c0.349,0.743,0.67,1.504,0.909,2.292c2.118,6.255-0.035,13.841-5.275,18.353
	l-0.16,0.137c-0.794,0.686-1.117,1.82-0.724,2.858c1.625,4.295,1.467,9.271-0.45,13.604c-0.957,2.162-2.337,4.151-4.043,5.841
	c-0.852,0.846-1.798,1.602-2.801,2.277c-0.571,0.405-0.854,0.521-1.719,1.07c-0.853,0.642-1.292,1.094-1.903,2.142l-0.048,0.083
	c-0.197,0.343-0.234,0.772-0.061,1.161c0.579,1.306,0.977,1.375,1.517,1.874c0.528,0.375,1.118,0.705,1.887,0.87
	c0.905,0.18,1.703,0.346,2.537,0.622c1.651,0.508,3.231,1.263,4.7,2.2c0.475,0.305,0.914,0.663,1.362,1.009v-0.022
	c0,0,1.404-2.246,0.153-3.171c-1.594-1.172-3.341-2.155-5.207-2.868c-0.911-0.372-1.923-0.656-2.829-0.898
	c-0.031-0.009-0.091-0.061-0.13-0.079c0.291-0.156,1.156-0.564,1.667-0.888c1.24-0.72,2.427-1.547,3.518-2.494
	c2.183-1.89,4.032-4.198,5.391-6.79c2.431-4.617,3.13-10.138,2.036-15.366c6.381-5.58,9.59-14.826,7.384-23.39
	c-0.266-1.134-0.639-2.239-1.066-3.323l-0.707-1.6c-0.159-0.393-0.272-0.61-0.368-0.958c-0.417-1.261-0.493-2.764-0.29-4.126
	c0.207-1.345,0.821-2.587,1.328-2.978c0.161-0.132,0.705-0.303,0.952-0.458c0.396-0.107,1.014-0.184,1.643-0.165
	c1.219-0.011,2.841,0.375,3.748,0.856c0.521,0.271,1.068,0.653,1.454,1.017l1.055,1.015c0.457,0.398,0.909,0.804,1.393,1.171
	c3.815,3.014,8.575,4.869,13.45,5.249c4.877,0.425,9.9-0.675,14.192-3.082c1.706-0.939,3.254-2.136,4.698-3.45
	c0.394,0.68,0.796,1.357,1.266,1.991c2.263,3.16,5.266,5.799,8.72,7.581c3.436,1.803,7.29,2.824,11.155,2.922
	c2.431,0.194,5.289-0.331,7.359-0.81c0.361,1.165,0.753,2.378,1.207,3.598c0.935,2.51,2.172,5.016,3.683,7.352
	c3.027,4.627,7.111,8.653,11.869,11.419c4.718,2.818,9.878,4.407,14.729,5.458c2.418,0.547,4.763,1.004,6.812,1.582
	c0.995,0.259,1.875,0.665,1.935,0.707c-0.137-0.301,0.565,0.737,0.743,1.374c0.543,1.504,0.613,3.435,0.205,5.184
	c-0.404,1.931-1.157,2.748-2.924,5.47c-2.853,4.76-3.95,10.502-3.055,15.887c0.436,2.692,1.351,5.292,2.675,7.641
	c0.662,1.174,1.425,2.285,2.27,3.323c0.771,0.964,1.332,1.661,1.876,2.625c2.014,3.54,2.718,8.007,1.801,12.053
	c-0.059,0.046-0.12,0.083-0.178,0.132l-1.235,0.608c-0.831,0.435-1.631,0.924-2.394,1.465l-4.154,3.125
	c-1.356,1.005-2.777,1.906-4.238,2.686c-1.311,0.699-2.794,1.309-4.054,1.515c-3.266-3.433-6.981-6.506-11.174-8.742
	c0,0,7.223,7.002,10.055,10.545c0.183,0.226,0.472,0.371,0.784,0.358c2.152-0.093,3.761-0.788,5.445-1.503
	c1.645-0.742,3.217-1.602,4.708-2.559l4.343-2.838c0.679-0.416,1.385-0.785,2.11-1.105l1.127-0.464l1.493-0.885
	c0.237-0.141,0.428-0.366,0.521-0.649l0.067-0.203c1.674-5.101,1.208-10.701-1.12-15.585
	C285.914,106.268,285.049,105.009,284.371,104.047z"/>
<g>
</g>
<g>
</g>
<g>
</g>
<g>
</g>
<g>
</g>
<g>
</g>
<g>
</g>
<g>
</g>
<g>
</g>
<g>
</g>
<g>
</g>
<g>
</g>
<g>
</g>
<g>
</g>
<g>
</g>
</svg>
