<?xml version="1.0" encoding="iso-8859-1"?>
<!-- Generator: Adobe Illustrator 19.0.0, SVG Export Plug-In . SVG Version: 6.00 Build 0)  -->
<svg version="1.1" id="Capa_1" xmlns="http://www.w3.org/2000/svg" xmlns:xlink="http://www.w3.org/1999/xlink" x="0px" y="0px"
	 viewBox="0 0 468.293 468.293" style="enable-background:new 0 0 468.293 468.293;" xml:space="preserve">
<path style="fill:#44C4A1;" d="M200.33,3.191c12.775,28.191,48.569,111.846,42.608,151.782h-16.635c0,0,5.469-36.42-10.77-74.724
	c-4.653-10.975-11.303-20.976-19.09-30.001c-3.603-4.176-7.922-9.586-10.995-14.734c-3.048-5.106-9.152-7.53-14.748-5.517
	c-5.369,1.932-11.468,2.978-15.051-0.149c0,0,25.298-16.812,35.835-28.138C194.109-1.112,198.739-0.319,200.33,3.191z"/>
<path style="fill:#1C75A1;" d="M355.512,340.612c0.747-12.554-5.615-25.293-16.1-32.237c12.713-5.008,21.592-18.454,21.204-32.113
	c-0.388-13.659-10.016-26.579-22.992-30.858c9.298-7.797,14.044-20.672,12.033-32.639c-2.012-11.966-10.707-22.582-22.043-26.91
	c4.186-13.673-0.928-29.691-12.261-38.409c-11.334-8.718-28.128-9.552-40.269-1.999c-0.468-19.967-20.964-33.195-40.936-33.195
	c-19.973,0-40.468,13.228-40.937,33.195c-12.142-7.553-28.935-6.719-40.269,1.999c-11.334,8.718-16.447,24.736-12.261,38.409
	c-11.336,4.328-20.032,14.944-22.043,26.91c-2.012,11.967,2.735,24.842,12.033,32.639c-12.978,4.278-22.605,17.199-22.993,30.858
	c-0.388,13.658,8.49,27.105,21.204,32.113c-10.485,6.945-16.847,19.684-16.1,32.237c0.747,12.554,8.575,24.448,19.809,30.1
	c-8.564,10.654-10.778,26.053-5.56,38.688c5.218,12.635,17.652,21.985,31.239,23.491c4.889,14.142,16.099,25.965,29.963,31.597
	c11.331,4.604,25.884,5.008,38.121,1.329c5.075-1.526,10.514-1.526,15.588,0c12.237,3.679,26.789,3.275,38.12-1.329
	c13.864-5.632,25.074-17.455,29.963-31.597c13.586-1.506,26.02-10.856,31.238-23.491c5.217-12.635,3.005-28.034-5.56-38.688
	C346.936,365.061,354.765,353.166,355.512,340.612z"/>
<g>
	<path style="fill:#27A2DB;" d="M218.481,222.591c-2.826,8.32-13.384,13.504-23.614,13.451
		c-10.228,0.072-20.807-5.113-23.613-13.451c4.863,1.099,8.793,1.969,12.636,2.461c3.8,0.527,7.385,0.757,10.977,0.774
		c3.594-0.003,7.182-0.234,10.984-0.761C209.698,224.577,213.628,223.699,218.481,222.591z"/>
	<path style="fill:#27A2DB;" d="M297.039,222.591c-2.826,8.32-13.384,13.504-23.614,13.451
		c-10.228,0.072-20.807-5.113-23.613-13.451c4.863,1.099,8.793,1.969,12.636,2.461c3.8,0.527,7.385,0.757,10.977,0.774
		c3.594-0.003,7.182-0.234,10.984-0.761C288.256,224.577,292.185,223.699,297.039,222.591z"/>
	<path style="fill:#27A2DB;" d="M218.481,331.05c-2.826,8.32-13.384,13.504-23.614,13.451c-10.228,0.072-20.807-5.113-23.613-13.451
		c4.863,1.099,8.793,1.969,12.636,2.461c3.8,0.527,7.385,0.757,10.977,0.774c3.594-0.003,7.182-0.234,10.984-0.761
		C209.698,333.036,213.628,332.158,218.481,331.05z"/>
	<path style="fill:#27A2DB;" d="M297.039,331.05c-2.826,8.32-13.384,13.504-23.614,13.451c-10.228,0.072-20.807-5.113-23.613-13.451
		c4.863,1.099,8.793,1.969,12.636,2.461c3.8,0.527,7.385,0.757,10.977,0.774c3.594-0.003,7.182-0.234,10.984-0.761
		C288.256,333.036,292.185,332.158,297.039,331.05z"/>
	<path style="fill:#27A2DB;" d="M186.264,276.821c-2.826,8.32-13.384,13.504-23.614,13.451
		c-10.228,0.072-20.807-5.113-23.613-13.451c4.863,1.099,8.793,1.969,12.636,2.461c3.8,0.527,7.385,0.757,10.977,0.774
		c3.594-0.003,7.182-0.234,10.984-0.761C177.481,278.807,181.41,277.928,186.264,276.821z"/>
	<path style="fill:#27A2DB;" d="M257.76,276.821c-2.826,8.32-13.384,13.504-23.614,13.451c-10.228,0.072-20.807-5.113-23.613-13.451
		c4.863,1.099,8.793,1.969,12.636,2.461c3.8,0.527,7.385,0.757,10.977,0.774c3.594-0.003,7.182-0.234,10.984-0.761
		C248.977,278.807,252.907,277.928,257.76,276.821z"/>
	<path style="fill:#27A2DB;" d="M329.256,276.821c-2.826,8.32-13.384,13.504-23.614,13.451
		c-10.228,0.072-20.807-5.113-23.613-13.451c4.863,1.099,8.793,1.969,12.636,2.461c3.8,0.527,7.385,0.757,10.977,0.774
		c3.594-0.003,7.182-0.234,10.984-0.761C320.473,278.807,324.403,277.928,329.256,276.821z"/>
	<path style="fill:#27A2DB;" d="M198.244,385.28c-2.826,8.32-13.384,13.504-23.614,13.451c-10.228,0.072-20.807-5.113-23.613-13.451
		c4.863,1.099,8.793,1.969,12.636,2.461c3.8,0.527,7.385,0.757,10.977,0.774c3.594-0.003,7.182-0.234,10.984-0.761
		C189.461,387.266,193.391,386.387,198.244,385.28z"/>
	<path style="fill:#27A2DB;" d="M257.76,385.28c-2.826,8.32-13.384,13.504-23.614,13.451c-10.228,0.072-20.807-5.113-23.613-13.451
		c4.863,1.099,8.793,1.969,12.636,2.461c3.8,0.527,7.385,0.757,10.977,0.774c3.594-0.003,7.182-0.234,10.984-0.761
		C248.977,387.266,252.907,386.387,257.76,385.28z"/>
	<path style="fill:#27A2DB;" d="M257.76,427.853c-2.826,8.32-13.384,13.504-23.614,13.451c-10.228,0.072-20.807-5.113-23.613-13.451
		c4.863,1.099,8.793,1.969,12.636,2.461c3.8,0.527,7.385,0.757,10.977,0.774c3.594-0.003,7.182-0.234,10.984-0.761
		C248.977,429.839,252.907,428.96,257.76,427.853z"/>
	<path style="fill:#27A2DB;" d="M317.276,385.28c-2.826,8.32-13.384,13.504-23.614,13.451c-10.228,0.072-20.807-5.113-23.613-13.451
		c4.863,1.099,8.793,1.969,12.636,2.461c3.8,0.527,7.385,0.757,10.977,0.774c3.594-0.003,7.182-0.234,10.984-0.761
		C308.493,387.266,312.422,386.387,317.276,385.28z"/>
	<path style="fill:#27A2DB;" d="M257.76,167.357c-2.826,9.754-13.384,15.832-23.614,15.77c-10.228,0.084-20.807-5.994-23.613-15.77
		c4.863,1.288,8.793,2.308,12.636,2.885c3.8,0.618,7.385,0.888,10.977,0.908c3.594-0.003,7.182-0.274,10.984-0.893
		C248.977,169.685,252.907,168.655,257.76,167.357z"/>
</g>
<g>
</g>
<g>
</g>
<g>
</g>
<g>
</g>
<g>
</g>
<g>
</g>
<g>
</g>
<g>
</g>
<g>
</g>
<g>
</g>
<g>
</g>
<g>
</g>
<g>
</g>
<g>
</g>
<g>
</g>
</svg>
