<?xml version="1.0" encoding="iso-8859-1"?>
<!-- Generator: Adobe Illustrator 19.0.0, SVG Export Plug-In . SVG Version: 6.00 Build 0)  -->
<svg version="1.1" id="Capa_1" xmlns="http://www.w3.org/2000/svg" xmlns:xlink="http://www.w3.org/1999/xlink" x="0px" y="0px"
	 viewBox="0 0 468.305 468.305" style="enable-background:new 0 0 468.305 468.305;" xml:space="preserve">
<path style="fill:#3A556A;" d="M285.394,111.51c0,0-31.733-13.361-26.795-93.717c0.624-10.143-9.559-17.495-19.031-13.816
	c-6.928,2.69-13.49,6.598-15.857,12.119c0,0-5.202,7.153-22.551,9.174c-7.172,0.835-12.685,6.698-12.569,13.916
	c0.319,20.134-1.077,57.52-14.643,74.2c-2.797,3.44-2.756,8.384-0.244,12.038c3.061,4.453,8.986,5.74,13.702,3.102
	c15.734-8.801,53.045-23.589,97.988,0.332C285.394,128.858,293.104,123.076,285.394,111.51z"/>
<g>
	<ellipse style="fill:#FCD462;" cx="360.273" cy="281.35" rx="108.032" ry="183.939"/>
	<ellipse style="fill:#FCD462;" cx="108.032" cy="281.35" rx="108.032" ry="183.939"/>
</g>
<path style="fill:#DC8744;" d="M310.306,97.41c-29.718,0-56.628,20.44-76.16,53.503c-19.532-33.063-46.443-53.503-76.162-53.503
	c-59.663,0-108.031,82.353-108.031,183.94c0,101.587,48.367,183.94,108.031,183.94c29.719,0,56.629-20.44,76.162-53.503
	c19.531,33.063,46.442,53.503,76.16,53.503c59.664,0,108.032-82.353,108.032-183.94C418.338,179.763,369.97,97.41,310.306,97.41z"/>
<path style="fill:#F6C358;" d="M301.55,97.41c-26.301,0-50.118,20.44-67.403,53.503C216.86,117.85,193.043,97.41,166.741,97.41
	c-52.804,0-95.61,82.353-95.61,183.94c0,101.587,42.806,183.94,95.61,183.94c26.302,0,50.118-20.44,67.405-53.503
	c17.286,33.063,41.102,53.503,67.403,53.503c52.805,0,95.611-82.353,95.611-183.94C397.161,179.763,354.354,97.41,301.55,97.41z"/>
<ellipse style="fill:#DC8744;" cx="235.77" cy="281.35" rx="113.739" ry="176.958"/>
<ellipse style="fill:#FCD462;" cx="235.77" cy="281.35" rx="96.212" ry="176.958"/>
<ellipse style="fill:#DC8744;" cx="235.77" cy="281.35" rx="42.839" ry="176.958"/>
<ellipse style="fill:#F6C358;" cx="235.77" cy="281.35" rx="27.904" ry="176.958"/>
<g>
</g>
<g>
</g>
<g>
</g>
<g>
</g>
<g>
</g>
<g>
</g>
<g>
</g>
<g>
</g>
<g>
</g>
<g>
</g>
<g>
</g>
<g>
</g>
<g>
</g>
<g>
</g>
<g>
</g>
</svg>
