<?xml version="1.0" encoding="iso-8859-1"?>
<!-- Generator: Adobe Illustrator 19.0.0, SVG Export Plug-In . SVG Version: 6.00 Build 0)  -->
<svg version="1.1" id="Capa_1" xmlns="http://www.w3.org/2000/svg" xmlns:xlink="http://www.w3.org/1999/xlink" x="0px" y="0px"
	 viewBox="0 0 468.293 468.293" style="enable-background:new 0 0 468.293 468.293;" xml:space="preserve">
<path style="fill:#D15241;" d="M448.753,284.029c0,89.611-74.423,164.251-173.166,180.854c-13.339,2.224-27.248,3.41-41.4,3.41
	c-118.589,0-214.647-82.496-214.647-184.263S115.598,99.766,234.187,99.766c14.152,0,28.061,1.186,41.4,3.409
	C374.33,119.778,448.753,194.418,448.753,284.029z"/>
<path style="fill:#E56353;" d="M448.753,284.029c0,89.611-74.423,164.251-173.166,180.854
	C176.845,448.28,72.774,373.641,72.774,284.029c0-89.612,104.071-164.251,202.813-180.854
	C374.33,119.778,448.753,194.418,448.753,284.029z"/>
<path style="fill:#D15241;" d="M268.131,103.101c0,0.074-0.074,0.074-0.074,0.074h-67.82
	c-29.797-20.086-26.313-80.346-26.313-80.346s17.27,13.193,19.345,13.86c2.076,0.667,8.376-30.463,8.376-30.463l15.195,30.463
	L234.183,0l17.27,36.69l15.195-30.463c0,0,6.3,31.13,8.376,30.463c2.075-0.667,19.345-13.86,19.345-13.86
	S297.853,83.015,268.131,103.101z"/>
<path style="fill:#CE412D;" d="M268.131,103.101l-2.446-7.338c16.158-12.601,20.235-40.766,21.124-58.036
	c-7.338,5.262-8.672,5.707-9.487,6.004l-1.186,0.371h-1.26c-4.595,0-7.116-0.964-10.895-15.862l-12.749,25.423l-11.916-25.387
	c-3.379-7.2-5.131-15.055-5.131-23.008V0l17.27,36.69l15.195-30.463c0,0,6.3,31.13,8.376,30.463
	c2.075-0.667,19.345-13.86,19.345-13.86S297.853,83.015,268.131,103.101z"/>
<path style="fill:#E1E6E9;" d="M363.633,211.213c22.741,32.004,51.326,94.82-1.775,166.26c-4.521,6.083-14.252,2.011-13.218-5.496
	c4.757-34.555,10.763-97.892,1.655-155.349C349.065,208.871,359.084,204.811,363.633,211.213z"/>
<g>
</g>
<g>
</g>
<g>
</g>
<g>
</g>
<g>
</g>
<g>
</g>
<g>
</g>
<g>
</g>
<g>
</g>
<g>
</g>
<g>
</g>
<g>
</g>
<g>
</g>
<g>
</g>
<g>
</g>
</svg>
