<?xml version="1.0" encoding="iso-8859-1"?>
<!-- Generator: Adobe Illustrator 19.0.0, SVG Export Plug-In . SVG Version: 6.00 Build 0)  -->
<svg version="1.1" id="Capa_1" xmlns="http://www.w3.org/2000/svg" xmlns:xlink="http://www.w3.org/1999/xlink" x="0px" y="0px"
	 viewBox="0 0 468.293 468.293" style="enable-background:new 0 0 468.293 468.293;" xml:space="preserve">
<path style="fill:#44C4A1;" d="M403.698,75.268c-20.031-5.733-41.613-2.293-62.386,5.868
	c-56.923,22.122-108.315,79.112-108.315,79.112l-5.53-25.562l-5.328-24.819C308.871-3.305,403.698,75.268,403.698,75.268z"/>
<path style="fill:#3EA69B;" d="M341.312,81.135c-56.923,22.122-108.315,79.112-108.315,79.112l-5.53-25.562
	C267.527,86.194,308.803,77.089,341.312,81.135z"/>
<path style="fill:#44C4A1;" d="M234.007,117.016l-3.507,24.078l-3.979,26.91c0,0-60.093-58.407-121.197-74.054
	c-18.75-4.856-37.567-5.666-54.765,0.472C50.559,94.422,139.99,9.78,234.007,117.016z"/>
<path style="fill:#3EA69B;" d="M232.209,129.366l-5.687,38.637c0,0-60.093-58.407-121.197-74.054
	C138.776,85.789,185.672,78.581,232.209,129.366z"/>
<path style="fill:#44C4A1;" d="M234.113,144.466v51.595c0,0-74.593-53.955-139.609-56.451c-0.068,0.068-0.068,0-0.068,0
	c-15.984-0.607-31.429,1.956-45.053,9.172C49.383,148.782,125.595,52.067,234.113,144.466z"/>
<path style="fill:#3EA69B;" d="M234.113,173.669v22.392c0,0-74.593-53.955-139.609-56.451
	C127.281,124.637,176.111,124.233,234.113,173.669z"/>
<path style="fill:#44C4A1;" d="M418.91,148.782c-16.119-8.566-34.734-10.521-53.955-8.498
	c-62.791,6.542-130.842,55.777-130.842,55.777v-51.595C342.698,52.067,418.91,148.782,418.91,148.782z"/>
<path style="fill:#3EA69B;" d="M364.954,140.284c-62.791,6.542-130.842,55.777-130.842,55.777v-22.392
	C287.191,128.481,332.514,128.481,364.954,140.284z"/>
<path style="fill:#44C4A1;" d="M249.321,105.483c-3.979,7.284-9.038,14.163-15.175,20.301c-34.734-34.734-34.734-91.05,0-125.784
	c6.137,6.205,11.263,13.084,15.175,20.368C263.822,46.806,263.822,79.045,249.321,105.483z"/>
<path style="fill:#3EA69B;" d="M249.321,105.483c-14.501-26.438-14.501-58.677,0-85.115
	C263.822,46.806,263.822,79.045,249.321,105.483z"/>
<path style="fill:#FCD462;" d="M365.328,315.882c0,4.371-0.125,8.679-0.375,12.925c-0.312,5.057-0.812,10.053-1.436,14.985
	c0,0.25-0.063,0.5-0.063,0.749c-0.874,6.431-1.998,12.737-3.434,18.856c-1.124,5.057-2.498,9.99-3.996,14.798
	c-1.311,4.246-2.747,8.429-4.371,12.488c-3.934,10.302-8.741,20.042-14.173,28.971c-2.248,3.621-4.496,7.055-6.993,10.427
	c-6.244,8.741-13.299,16.671-20.917,23.539c-3.184,2.872-6.493,5.557-9.865,8.055c-0.687,0.562-1.436,1.124-2.185,1.623
	c-4.62,3.247-10.115,4.995-15.734,4.995h-95.217c-5.619,0-11.114-1.748-15.734-4.995c-0.749-0.562-1.499-1.062-2.248-1.623
	c-3.371-2.498-6.618-5.182-9.802-8.055c-7.618-6.868-14.673-14.798-20.979-23.539c-2.435-3.372-4.745-6.806-6.93-10.427
	c-5.495-8.929-10.302-18.669-14.236-28.971c-1.623-4.059-3.06-8.242-4.371-12.488c-1.498-4.808-2.872-9.74-3.996-14.798
	c-1.436-6.119-2.56-12.425-3.434-18.856c0-0.25-0.062-0.5-0.062-0.749c-0.624-4.932-1.124-9.928-1.436-14.985
	c-0.25-4.246-0.375-8.554-0.375-12.925c0-4.37,0.125-8.741,0.437-13.049c0.25-4.995,0.75-9.99,1.374-14.86
	c0-0.25,0.062-0.562,0.125-0.812c0.812-6.431,1.998-12.737,3.434-18.856c1.124-5.057,2.435-9.99,3.934-14.798
	c1.311-4.246,2.747-8.429,4.371-12.488c3.996-10.302,8.741-19.98,14.298-28.909c2.123-3.621,4.495-7.118,6.93-10.427
	c6.306-8.804,13.299-16.671,20.917-23.539c3.184-2.872,6.493-5.619,9.927-8.117c3.184-2.373,6.493-4.558,9.865-6.618h111.201
	c3.371,1.998,6.681,4.246,9.865,6.618c3.372,2.498,6.681,5.182,9.865,8.055c7.618,6.868,14.673,14.735,20.979,23.539
	c2.435,3.372,4.745,6.868,6.93,10.489c5.495,8.929,10.302,18.607,14.236,28.909c1.623,4.059,3.059,8.242,4.371,12.488
	c1.498,4.808,2.81,9.74,3.934,14.798c1.436,6.119,2.622,12.425,3.434,18.856c0.063,0.25,0.125,0.562,0.125,0.812
	c0.624,4.87,1.124,9.865,1.373,14.86C365.203,307.141,365.328,311.512,365.328,315.882z"/>
<path style="fill:#DC8744;" d="M363.517,343.792c0.624-4.932,1.124-9.928,1.436-14.985l-16.109-12.987l16.046-12.987
	c-0.25-4.995-0.749-9.99-1.373-14.86l-24.6,19.855l-24.975-20.23l24.975-20.23l24.475,19.793
	c-0.812-6.431-1.998-12.737-3.434-18.856l-11.114-8.991l7.18-5.807c-1.311-4.246-2.747-8.429-4.371-12.488l-12.737,10.302
	l-24.975-20.23l23.477-18.981c-2.186-3.621-4.496-7.118-6.93-10.489l-26.474,21.416l-25.037-20.23l30.532-24.725
	c-3.184-2.872-6.493-5.557-9.865-8.055l-30.595,24.725l-24.975-20.23l13.736-11.114h-19.793l-3.871,3.122l-3.871-3.122h-19.793
	l13.736,11.114l-24.975,20.23l-30.532-24.725c-3.434,2.498-6.743,5.245-9.927,8.117l30.532,24.663l-25.038,20.23l-26.411-21.354
	c-2.435,3.309-4.808,6.806-6.93,10.427l23.414,18.981l-24.975,20.23l-12.737-10.302c-1.623,4.059-3.06,8.242-4.371,12.488
	l7.18,5.807l-11.114,8.991c-1.436,6.119-2.622,12.425-3.434,18.856l24.475-19.793l24.975,20.23l-24.975,20.23l-24.6-19.855
	c-0.624,4.87-1.124,9.865-1.374,14.86l16.047,12.987l-16.109,12.987c0.312,5.057,0.812,10.053,1.436,14.985l24.6-19.918
	l24.975,20.23l-24.975,20.23l-24.538-19.793c0.874,6.431,1.998,12.737,3.434,18.856l11.176,8.991l-7.18,5.807
	c1.311,4.246,2.747,8.429,4.371,12.488l12.737-10.302l24.975,20.23l-23.477,19.043c2.185,3.621,4.496,7.055,6.93,10.427
	l26.473-21.416l25.038,20.23l-30.532,24.725c3.184,2.872,6.431,5.557,9.802,8.055l30.657-24.788l24.975,20.23l-13.799,11.177h19.855
	l3.871-3.122l3.871,3.122h19.855l-13.799-11.177l24.975-20.23l30.657,24.788c3.372-2.498,6.681-5.182,9.865-8.055l-30.594-24.725
	l25.037-20.23l26.474,21.416c2.497-3.372,4.745-6.806,6.993-10.427l-23.539-19.043l24.975-20.23l12.737,10.302
	c1.623-4.059,3.059-8.242,4.371-12.488l-7.18-5.807l11.177-8.991c1.436-6.119,2.56-12.425,3.434-18.856l-24.538,19.793
	l-24.975-20.23l24.975-20.23L363.517,343.792z M328.989,259.314l-24.975,20.23l-25.037-20.23l25.037-20.23L328.989,259.314z
	 M209.171,259.314l24.975-20.23l25.038,20.23l-25.038,20.23L209.171,259.314z M259.121,315.82l-24.975,20.23l-24.975-20.23
	l24.975-20.23L259.121,315.82z M224.219,287.598l-24.975,20.23l-25.038-20.23l25.038-20.23L224.219,287.598z M224.219,344.104
	l-24.975,20.23l-25.038-20.23l25.038-20.23L224.219,344.104z M234.146,352.159l24.975,20.23l-24.975,20.23l-24.975-20.23
	L234.146,352.159z M244.074,344.104l24.975-20.23l25.038,20.23l-25.038,20.23L244.074,344.104z M244.074,287.598l24.975-20.23
	l25.038,20.23l-25.038,20.23L244.074,287.598z M294.086,231.092l-25.038,20.23l-24.975-20.23l24.975-20.23L294.086,231.092z
	 M234.146,182.578l24.975,20.23l-24.975,20.23l-24.975-20.23L234.146,182.578z M199.244,210.863l24.975,20.23l-24.975,20.23
	l-25.038-20.23L199.244,210.863z M139.303,259.314l24.975-20.23l25.038,20.23l-25.038,20.23L139.303,259.314z M139.303,315.82
	l24.975-20.23l25.038,20.23l-25.038,20.23L139.303,315.82z M139.303,372.389l24.975-20.23l25.038,20.23l-25.038,20.23
	L139.303,372.389z M174.206,400.61l25.038-20.23l24.975,20.23l-24.975,20.23L174.206,400.61z M234.146,449.124l-25.037-20.23
	l25.037-20.23l25.038,20.23L234.146,449.124z M269.049,420.84l-24.975-20.23l24.975-20.23l25.038,20.23L269.049,420.84z
	 M328.989,372.389l-24.975,20.23l-25.037-20.23l25.037-20.23L328.989,372.389z M304.014,336.05l-25.037-20.23l25.037-20.23
	l24.975,20.23L304.014,336.05z"/>
<g>
</g>
<g>
</g>
<g>
</g>
<g>
</g>
<g>
</g>
<g>
</g>
<g>
</g>
<g>
</g>
<g>
</g>
<g>
</g>
<g>
</g>
<g>
</g>
<g>
</g>
<g>
</g>
<g>
</g>
</svg>
