<?xml version="1.0" encoding="iso-8859-1"?>
<!-- Generator: Adobe Illustrator 19.0.0, SVG Export Plug-In . SVG Version: 6.00 Build 0)  -->
<svg version="1.1" id="Capa_1" xmlns="http://www.w3.org/2000/svg" xmlns:xlink="http://www.w3.org/1999/xlink" x="0px" y="0px"
	 viewBox="0 0 468.293 468.293" style="enable-background:new 0 0 468.293 468.293;" xml:space="preserve">
<path style="fill:#DC8744;" d="M420.354,178.02c0,9.27-1.692,19.622-4.669,30.719c-18.607,68.475-88.502,165.909-135.934,226.67
	c-4.872,6.293-9.608,12.247-13.938,17.66c-16.239,20.299-47.093,20.299-63.332,0C149.365,386.692,47.939,250.554,47.939,178.02
	C47.939,79.706,131.299,0,234.147,0C336.993,0,420.354,79.706,420.354,178.02z"/>
<g>
	<path style="fill:#E1E6E9;" d="M129.547,280.044c-3.18,1.971-7.352,1.006-9.316-2.178c-18.335-29.723-37.667-63.085-38.442-99.698
		c-0.076-3.74,2.888-6.832,6.624-6.912c3.667,0.099,6.829,2.888,6.908,6.621c0.696,33.043,19.003,64.628,36.422,92.872
		C133.704,273.927,132.721,278.077,129.547,280.044L129.547,280.044z"/>
	<path style="fill:#E1E6E9;" d="M220.282,410.723c-1.976,0-3.938-0.866-5.273-2.524c-22.925-28.472-43.214-55.379-62.026-82.259
		c-2.141-3.059-1.398-7.282,1.665-9.423c3.066-2.141,7.275-1.394,9.423,1.665c18.637,26.629,38.747,53.298,61.478,81.532
		c2.346,2.907,1.883,7.169-1.027,9.515C223.272,410.234,221.772,410.723,220.282,410.723z"/>
</g>
<g>
	<circle style="fill:#64798A;" cx="282.587" cy="133.076" r="16.915"/>
	<circle style="fill:#64798A;" cx="334.611" cy="133.076" r="16.915"/>
	<circle style="fill:#64798A;" cx="308.605" cy="85.292" r="16.915"/>
	<circle style="fill:#64798A;" cx="254.814" cy="85.292" r="16.915"/>
	<circle style="fill:#64798A;" cx="308.605" cy="184.944" r="16.915"/>
</g>
<g>
</g>
<g>
</g>
<g>
</g>
<g>
</g>
<g>
</g>
<g>
</g>
<g>
</g>
<g>
</g>
<g>
</g>
<g>
</g>
<g>
</g>
<g>
</g>
<g>
</g>
<g>
</g>
<g>
</g>
</svg>
