<?xml version="1.0" encoding="iso-8859-1"?>
<!-- Generator: Adobe Illustrator 19.0.0, SVG Export Plug-In . SVG Version: 6.00 Build 0)  -->
<svg version="1.1" id="Capa_1" xmlns="http://www.w3.org/2000/svg" xmlns:xlink="http://www.w3.org/1999/xlink" x="0px" y="0px"
	 viewBox="0 0 468.293 468.293" style="enable-background:new 0 0 468.293 468.293;" xml:space="preserve">
<ellipse style="fill:#FCD462;" cx="234.146" cy="275.831" rx="226.966" ry="192.462"/>
<path style="fill:#EBF0F3;" d="M398.314,258.094c0,46.038-42.592,83.359-58.604,83.359c-16.012,0,0.62-37.321,0.62-83.359
	s-16.632-83.359-0.62-83.359C355.722,174.735,398.314,212.056,398.314,258.094z"/>
<ellipse style="fill:#F6C358;" cx="234.146" cy="108.169" rx="51.575" ry="17.645"/>
<path style="fill:#DC8744;" d="M234.148,115.269c-5.314,0-10.307-2.072-14.063-5.828c-1.439-1.439-1.439-3.77,0-5.209
	c1.439-1.439,3.77-1.439,5.209,0c4.735,4.735,12.97,4.742,17.704,0c1.439-1.439,3.77-1.439,5.209,0c1.439,1.439,1.439,3.77,0,5.209
	C244.452,113.197,239.458,115.269,234.148,115.269z"/>
<path style="fill:#44C4A1;" d="M237.163,105.503c52.9,0,95.784-42.884,95.784-95.784C280.047,9.719,237.163,52.603,237.163,105.503z
	"/>
<path style="fill:#3EA69B;" d="M324.62,16.256l-77.762,80.708C246.858,96.964,298.7,61.029,324.62,16.256z"/>
<path style="fill:#44C4A1;" d="M237.163,105.503c-52.9,0-95.784-42.884-95.784-95.784C194.279,9.719,237.163,52.603,237.163,105.503
	z"/>
<path style="fill:#3EA69B;" d="M149.705,16.256l77.762,80.708C227.467,96.964,175.626,61.029,149.705,16.256z"/>
<path style="fill:#64798A;" d="M236.739,0h-19.667c-3.666,0-5.893,5.293-3.847,9.244c8.866,17.116,24.929,55.779,15.401,97.052
	c0,5.61,9.624,5.654,10.938,0c18.485-48.028,5.73-90.787,1.332-102.888C240.134,1.31,238.526,0,236.739,0z"/>
<g>
	<circle style="fill:#F6C358;" cx="118.453" cy="230.706" r="12.488"/>
	<circle style="fill:#F6C358;" cx="146.37" cy="201.41" r="12.488"/>
	<circle style="fill:#F6C358;" cx="97.155" cy="196.933" r="12.488"/>
	<circle style="fill:#F6C358;" cx="75.888" cy="230.706" r="12.488"/>
	<circle style="fill:#F6C358;" cx="97.155" cy="267.801" r="12.488"/>
	<circle style="fill:#F6C358;" cx="139.739" cy="285.534" r="12.488"/>
	<circle style="fill:#F6C358;" cx="164.246" cy="250.524" r="12.488"/>
	<circle style="fill:#F6C358;" cx="50.913" cy="273.046" r="12.488"/>
	<circle style="fill:#F6C358;" cx="75.888" cy="310.447" r="12.488"/>
	<circle style="fill:#F6C358;" cx="127.251" cy="156.503" r="12.488"/>
</g>
<g>
</g>
<g>
</g>
<g>
</g>
<g>
</g>
<g>
</g>
<g>
</g>
<g>
</g>
<g>
</g>
<g>
</g>
<g>
</g>
<g>
</g>
<g>
</g>
<g>
</g>
<g>
</g>
<g>
</g>
</svg>
