<?xml version="1.0" encoding="iso-8859-1"?>
<!-- Generator: Adobe Illustrator 19.0.0, SVG Export Plug-In . SVG Version: 6.00 Build 0)  -->
<svg version="1.1" id="Capa_1" xmlns="http://www.w3.org/2000/svg" xmlns:xlink="http://www.w3.org/1999/xlink" x="0px" y="0px"
	 viewBox="0 0 468.293 468.293" style="enable-background:new 0 0 468.293 468.293;" xml:space="preserve">
<g>
	<path style="fill:#3EA69B;" d="M62.952,232.414c4.446,5.743,9.575,10.962,15.249,15.499c0.921,0.739,1.558,1.785,1.717,2.968
		c1.399,10.837,11.485,19.877,22.333,20.514c2.206,0.136,4.082,1.672,4.446,3.855c1.797,10.894,10.621,20.423,21.333,23.038
		c2.104,0.512,3.502,2.434,3.48,4.594c-0.057,7.607,4.003,15.238,10.553,19.172c7.721,4.628,17.376,4.071,26.348,3.354
		c11.678-0.921,23.345-1.853,35.024-2.774c6.948-0.557,14.055-1.16,20.833-2.729c-0.512,0.284-1.058,0.535-1.626,0.762
		c-9.165,3.684-19.479,4.583-29.441,5.379c-11.678,0.921-23.345,1.853-35.024,2.774c-8.972,0.716-18.626,1.274-26.348-3.354
		c-6.55-3.935-10.609-11.565-10.553-19.172c0.023-2.161-1.376-4.082-3.48-4.594c-10.712-2.615-19.536-12.145-21.333-23.039
		c-0.364-2.183-2.24-3.718-4.446-3.855c-10.848-0.637-20.935-9.677-22.333-20.514c-0.159-1.183-0.796-2.229-1.717-2.968
		c-5.674-4.537-10.803-9.757-15.249-15.499c-4.39-5.686-8.085-11.86-11.781-18.012c-4.094-6.823-8.29-13.953-8.927-21.867
		c-0.716-8.631,3.32-17.444,10.143-22.743c1.365-1.069,1.706-2.957,0.739-4.401c-7.369-11.03-7.744-27.212-2.934-39.663
		c0.318-0.819,0.967-1.467,1.785-1.785c2.82-1.092,5.822-1.91,8.904-2.445c-0.182,0.25-0.341,0.523-0.455,0.819
		c-4.81,12.452-4.435,28.633,2.934,39.663c0.967,1.444,0.626,3.332-0.739,4.401c-6.823,5.299-10.86,14.112-10.143,22.743
		c0.637,7.914,4.833,15.044,8.927,21.867C54.866,220.553,58.562,226.728,62.952,232.414z"/>
	<path style="fill:#3EA69B;" d="M238.071,219.223c4.628,7.721,4.071,17.375,3.355,26.347c-0.921,11.679-1.854,23.346-2.775,35.024
		c-0.796,9.961-1.694,20.275-5.379,29.44c-1.717,4.264-4.935,7.778-9.006,9.87c-0.432,0.091-0.853,0.193-1.285,0.284
		c1.99-1.876,3.571-4.162,4.605-6.743c3.684-9.165,4.583-19.479,5.379-29.44c0.921-11.679,1.854-23.346,2.775-35.024
		c0.716-8.972,1.274-18.626-3.354-26.347c-3.935-6.55-11.565-10.609-19.172-10.553c-2.161,0.023-4.082-1.376-4.594-3.48
		c-2.616-10.712-12.145-19.536-23.038-21.333c-2.183-0.364-3.718-2.24-3.855-4.446c-0.637-10.848-9.677-20.935-20.514-22.333
		c-1.183-0.159-2.229-0.796-2.968-1.717c-4.537-5.674-9.757-10.803-15.499-15.249c-5.686-4.389-11.86-8.085-18.012-11.781
		c-6.823-4.094-13.953-8.29-21.867-8.927c-1.615-0.136-3.241-0.102-4.833,0.103c-2.638,0.296-5.219,1.012-7.664,2.092
		c3.844-3.002,8.517-4.947,13.35-5.504c1.592-0.205,3.218-0.239,4.833-0.103c7.914,0.637,15.044,4.833,21.867,8.927
		c6.152,3.696,12.327,7.392,18.012,11.781c5.743,4.446,10.962,9.575,15.499,15.249c0.739,0.921,1.785,1.558,2.968,1.717
		c10.837,1.398,19.877,11.485,20.514,22.333c0.136,2.206,1.672,4.082,3.855,4.446c10.894,1.797,20.423,10.621,23.038,21.333
		c0.512,2.104,2.434,3.502,4.594,3.48C226.507,208.613,234.137,212.673,238.071,219.223z"/>
</g>
<path style="fill:#44C4A1;" d="M232.386,222.634c4.628,7.721,4.071,17.375,3.354,26.347c-0.921,11.679-1.854,23.346-2.775,35.024
	c-0.796,9.961-1.694,20.275-5.379,29.44c-1.035,2.581-2.615,4.867-4.605,6.743c-6.391,1.365-13.043,1.922-19.547,2.445
	c-11.678,0.921-23.345,1.853-35.024,2.774c-8.972,0.716-18.626,1.274-26.348-3.354c-6.55-3.935-10.609-11.565-10.553-19.172
	c0.023-2.161-1.376-4.082-3.48-4.594c-10.712-2.615-19.536-12.145-21.333-23.038c-0.364-2.183-2.24-3.718-4.446-3.855
	c-10.848-0.637-20.935-9.677-22.333-20.514c-0.159-1.183-0.796-2.229-1.717-2.968c-5.674-4.537-10.803-9.757-15.249-15.499
	c-4.39-5.686-8.085-11.86-11.781-18.012c-4.094-6.823-8.29-13.953-8.927-21.867c-0.716-8.631,3.32-17.444,10.143-22.743
	c1.365-1.069,1.706-2.957,0.739-4.401c-6.982-10.439-7.676-25.506-3.639-37.639c0.216-0.694,0.455-1.365,0.705-2.024
	c0.114-0.296,0.273-0.569,0.455-0.819c10.598-1.842,22.22-0.318,30.76,5.379c0.228,0.159,0.489,0.284,0.751,0.364
	c1.296,0.455,2.763,0.034,3.65-1.103c1.126-1.444,2.399-2.763,3.809-3.923c0.25-0.205,0.5-0.409,0.739-0.603l0.011-0.011
	c2.445-1.08,5.026-1.797,7.664-2.092c1.592-0.205,3.218-0.239,4.833-0.103c7.914,0.637,15.044,4.833,21.867,8.927
	c6.152,3.696,12.327,7.392,18.012,11.781c5.743,4.446,10.962,9.575,15.499,15.249c0.739,0.921,1.785,1.558,2.968,1.717
	c10.837,1.398,19.877,11.485,20.514,22.333c0.136,2.206,1.672,4.082,3.855,4.446c10.894,1.797,20.423,10.621,23.038,21.333
	c0.512,2.104,2.434,3.502,4.594,3.48C220.821,212.025,228.451,216.084,232.386,222.634z"/>
<path style="fill:#64798A;" d="M124.849,163.476c-11.385,9.661-9.499,26.043-6.544,36.849c-6.474-6.273-13.001-12.494-19.598-18.643
	c-0.478-0.449-0.963-0.891-1.442-1.339c-1.287-15.612,4.078-40.372,4.078-40.372c-11.993,10.176-9.26,27.809-6.065,38.527
	c-12.205-11.374-24.592-22.567-37.457-33.281c10.714,12.865,21.907,25.252,33.281,37.457c-10.718-3.196-28.35-5.928-38.527,6.065
	c0,0,24.76-5.365,40.372-4.078c0.448,0.479,0.891,0.963,1.339,1.442c6.15,6.597,12.37,13.124,18.643,19.598
	c-10.806-2.954-27.188-4.841-36.849,6.544c0,0,23.528-5.096,39.175-4.161c5.655,5.811,11.345,11.587,17.074,17.326
	c1.235,1.234,2.479,2.459,3.717,3.69c-10.807-2.892-26.915-4.598-36.46,6.651c0,0,23.308-5.049,38.955-4.174
	c7.215,7.149,14.485,14.243,21.835,21.257c-10.797-3.022-27.491-5.119-37.284,6.422c0,0,24.051-5.211,39.691-4.13
	c2.937,2.79,5.882,5.572,8.845,8.335c4.887,4.581,9.817,9.119,14.776,13.627c-10.542-3.341-29.215-6.809-39.806,5.673
	c0,0,26.209-5.681,41.699-3.954c7.934,7.177,15.975,14.248,24.225,21.11c-6.862-8.249-13.933-16.29-21.11-24.225
	c-1.727-15.491,3.954-41.699,3.954-41.699c-12.482,10.591-9.014,29.263-5.673,39.806c-4.509-4.959-9.046-9.889-13.627-14.776
	c-2.763-2.963-5.545-5.908-8.335-8.845c-1.081-15.64,4.13-39.691,4.13-39.691c-11.541,9.793-9.444,26.487-6.422,37.284
	c-7.014-7.35-14.109-14.619-21.258-21.835c-0.875-15.647,4.174-38.955,4.174-38.955c-11.248,9.545-9.542,25.653-6.651,36.46
	c-1.231-1.238-2.456-2.482-3.69-3.717c-5.738-5.728-11.514-11.419-17.326-17.074C119.753,187.003,124.849,163.476,124.849,163.476z"
	/>
<g>
	<path style="fill:#3EA69B;" d="M201.237,157.418c-1.612,12.665-1.725,25.527-0.311,38.22c0.226,2.064-0.283,4.156-1.555,5.824
		c-11.732,15.209-10.431,38.983,2.262,53.259c2.573,2.912,2.997,7.152,0.735,10.318c-11.308,15.774-12.184,38.588-2.12,55.154
		c1.979,3.251,1.329,7.378-1.385,10.036c-9.527,9.385-13.965,23.916-10.714,36.948c3.845,15.35,16.538,26.658,28.581,36.92
		c15.661,13.372,31.322,26.715,46.983,40.086c9.329,7.944,18.912,16.029,29.287,22.502c-0.99-0.283-1.979-0.65-2.968-1.074
		c-15.972-6.813-29.909-18.516-43.281-29.909c-15.661-13.372-31.322-26.715-46.983-40.086
		c-12.043-10.262-24.736-21.569-28.581-36.92c-3.251-13.032,1.187-27.563,10.714-36.948c2.714-2.657,3.364-6.785,1.385-10.036
		c-10.064-16.566-9.188-39.379,2.12-55.154c2.262-3.166,1.838-7.407-0.735-10.318c-12.693-14.276-13.993-38.051-2.262-53.259
		c1.272-1.668,1.781-3.76,1.555-5.824c-1.413-12.693-1.3-25.556,0.311-38.22c1.611-12.523,4.692-24.792,7.746-37.033
		c3.392-13.569,7.039-27.647,16.085-38.277c9.838-11.619,25.81-17.555,40.877-15.661c3.025,0.368,5.795-1.555,6.389-4.552
		c4.551-22.87,24.199-43.45,45.655-52.949c1.413-0.622,3.025-0.622,4.438,0c4.862,2.149,9.612,4.862,14.106,8.029
		c-0.537,0.085-1.074,0.226-1.583,0.452c-21.456,9.498-41.104,30.079-45.655,52.949c-0.594,2.997-3.364,4.919-6.389,4.552
		c-15.067-1.894-31.04,4.043-40.877,15.661c-9.046,10.629-12.693,24.707-16.085,38.277
		C205.93,132.626,202.848,144.895,201.237,157.418z"/>
	<path style="fill:#3EA69B;" d="M435.308,358.697c-3.845,15.35-16.538,26.658-28.58,36.92
		c-15.661,13.372-31.323,26.715-46.984,40.086c-13.371,11.392-27.308,23.096-43.28,29.909c-7.435,3.166-15.802,3.534-23.463,1.074
		c-0.65-0.424-1.3-0.82-1.951-1.244c4.806,0.141,9.612-0.735,14.106-2.657c15.972-6.813,29.909-18.516,43.28-29.909
		c15.661-13.372,31.323-26.715,46.984-40.086c12.043-10.262,24.736-21.569,28.58-36.92c3.251-13.032-1.187-27.563-10.714-36.948
		c-2.714-2.657-3.364-6.785-1.385-10.036c10.064-16.566,9.188-39.379-2.12-55.154c-2.261-3.166-1.838-7.407,0.735-10.318
		c12.693-14.276,13.994-38.051,2.261-53.259c-1.272-1.668-1.781-3.76-1.555-5.823c1.413-12.693,1.301-25.556-0.311-38.22
		c-1.612-12.523-4.693-24.792-7.746-37.033c-3.392-13.569-7.039-27.647-16.085-38.277c-1.838-2.177-3.902-4.156-6.135-5.88
		c-3.647-2.912-7.746-5.23-12.127-6.926c8.509,1.046,16.736,4.438,23.435,9.753c2.233,1.725,4.297,3.703,6.135,5.88
		c9.046,10.629,12.693,24.707,16.085,38.277c3.053,12.241,6.134,24.51,7.746,37.033c1.612,12.665,1.724,25.527,0.311,38.22
		c-0.226,2.064,0.283,4.156,1.555,5.824c11.732,15.209,10.432,38.983-2.261,53.259c-2.573,2.912-2.996,7.152-0.735,10.318
		c11.308,15.774,12.184,38.588,2.12,55.154c-1.979,3.251-1.329,7.378,1.385,10.036C434.12,331.134,438.559,345.664,435.308,358.697z
		"/>
</g>
<path style="fill:#44C4A1;" d="M424,355.87c-3.845,15.35-16.538,26.658-28.58,36.92c-15.661,13.372-31.323,26.715-46.984,40.086
	c-13.371,11.392-27.308,23.096-43.28,29.909c-4.495,1.922-9.3,2.799-14.106,2.657c-9.64-6.247-18.601-13.824-27.337-21.259
	c-15.661-13.372-31.322-26.715-46.983-40.086c-12.043-10.262-24.736-21.569-28.581-36.92c-3.251-13.032,1.187-27.563,10.714-36.948
	c2.714-2.657,3.364-6.785,1.385-10.036c-10.064-16.566-9.188-39.379,2.12-55.154c2.262-3.166,1.838-7.407-0.735-10.318
	c-12.693-14.276-13.993-38.051-2.262-53.259c1.272-1.668,1.781-3.76,1.555-5.824c-1.413-12.693-1.3-25.556,0.311-38.22
	c1.611-12.523,4.692-24.792,7.746-37.033c3.392-13.569,7.039-27.647,16.085-38.277c9.838-11.619,25.81-17.555,40.877-15.661
	c3.025,0.368,5.795-1.555,6.389-4.552c4.297-21.654,22.163-41.245,42.263-51.309c1.131-0.594,2.262-1.131,3.393-1.64
	c0.509-0.226,1.046-0.368,1.583-0.452c15.463,10.884,28.015,27.223,31.549,44.92c0.085,0.481,0.254,0.961,0.481,1.385
	c1.046,2.177,3.392,3.477,5.908,3.166c3.194-0.396,6.417-0.452,9.612-0.141c0.565,0.056,1.131,0.113,1.668,0.17h0.028
	c4.382,1.696,8.481,4.014,12.127,6.926c2.233,1.725,4.297,3.703,6.135,5.88c9.046,10.629,12.693,24.707,16.085,38.277
	c3.053,12.241,6.134,24.51,7.746,37.033c1.612,12.665,1.724,25.527,0.311,38.22c-0.226,2.064,0.283,4.156,1.555,5.823
	c11.732,15.209,10.432,38.983-2.261,53.259c-2.573,2.912-2.996,7.152-0.735,10.318c11.308,15.774,12.184,38.588,2.12,55.154
	c-1.979,3.251-1.329,7.378,1.385,10.036C422.813,328.307,427.251,342.837,424,355.87z"/>
<path style="fill:#64798A;" d="M363.865,148.666c-26.16-2.144-44.179,20.564-53.938,37.668c-0.249-15.845-0.63-31.689-1.186-47.534
	c-0.037-1.152-0.089-2.305-0.127-3.457c17.806-21.005,55.252-45.113,55.252-45.113c-27.556-2.258-46.077,23.056-55.427,40.351
	c-1.033-29.309-2.516-58.618-5.191-87.927c-2.674,29.309-4.158,58.618-5.191,87.927c-9.35-17.294-27.871-42.608-55.427-40.351
	c0,0,37.445,24.108,55.252,45.113c-0.039,1.152-0.09,2.305-0.127,3.457c-0.556,15.845-0.937,31.689-1.186,47.534
	c-9.759-17.104-27.778-39.812-53.938-37.668c0,0,35.579,22.911,53.866,43.523c-0.195,14.253-0.301,28.505-0.313,42.758
	c0.001,3.069,0.025,6.138,0.034,9.208c-9.838-17.027-27.741-39.171-53.587-37.053c0,0,35.247,22.696,53.609,43.233
	c0.082,17.855,0.301,35.709,0.717,53.564c-9.664-17.176-27.809-40.534-54.327-38.361c0,0,36.372,23.418,54.469,44.202
	c0.183,7.118,0.385,14.237,0.634,21.355c0.38,11.768,0.867,23.537,1.428,35.305c-8.952-17.257-27.851-44.777-56.531-42.427
	c0,0,39.639,25.516,56.747,46.917c0.941,18.784,2.147,37.568,3.871,56.351c1.724-18.784,2.93-37.568,3.871-56.351
	c17.108-21.402,56.747-46.917,56.747-46.917c-28.68-2.35-47.579,25.171-56.531,42.427c0.56-11.768,1.047-23.537,1.427-35.305
	c0.249-7.118,0.451-14.237,0.634-21.355c18.097-20.785,54.469-44.203,54.469-44.203c-26.517-2.173-44.663,21.185-54.326,38.361
	c0.417-17.855,0.635-35.709,0.717-53.564c18.362-20.536,53.609-43.233,53.609-43.233c-25.846-2.118-43.748,20.026-53.587,37.053
	c0.009-3.069,0.033-6.138,0.034-9.208c-0.012-14.253-0.119-28.505-0.313-42.758C328.286,171.577,363.865,148.666,363.865,148.666z"
	/>
<g>
</g>
<g>
</g>
<g>
</g>
<g>
</g>
<g>
</g>
<g>
</g>
<g>
</g>
<g>
</g>
<g>
</g>
<g>
</g>
<g>
</g>
<g>
</g>
<g>
</g>
<g>
</g>
<g>
</g>
</svg>
