<?xml version="1.0" encoding="iso-8859-1"?>
<!-- Generator: Adobe Illustrator 19.0.0, SVG Export Plug-In . SVG Version: 6.00 Build 0)  -->
<svg version="1.1" id="Capa_1" xmlns="http://www.w3.org/2000/svg" xmlns:xlink="http://www.w3.org/1999/xlink" x="0px" y="0px"
	 viewBox="0 0 468.293 468.293" style="enable-background:new 0 0 468.293 468.293;" xml:space="preserve">
<path style="fill:#64798A;" d="M240.551,429.387c-1.111,0-2.207-0.485-2.959-1.409c-1.334-1.64-1.081-4.04,0.552-5.367
	l47.492-38.584c1.633-1.327,4.033-1.081,5.367,0.552c1.334,1.64,1.081,4.04-0.552,5.367l-47.492,38.584
	C242.251,429.104,241.401,429.387,240.551,429.387z"/>
<path style="fill:#44C4A1;" d="M264.297,406.28c94.093,0,170.37-76.277,170.37-170.37
	C340.574,235.911,264.297,312.188,264.297,406.28z"/>
<path style="fill:#3EA69B;" d="M383.179,299.487c-0.79-0.047-1.607-0.073-2.411-0.11c12.165-14.199,23.553-29.232,32.809-44.505
	l-28.166,29.239c0.097-1.209,0.179-2.404,0.244-3.578c0.145-2.847,0.168-5.612,0.181-8.374c-0.08-5.57-0.226-10.919-1.119-17.287
	c-1.683,2.354-2.653,5.266-3.311,8.212c-0.682,2.963-0.935,6.049-0.965,9.124c0.084,4.916,0.861,9.88,2.739,14.217l-32.24,33.466
	c0.224-1.936,0.376-3.819,0.477-5.648c0.144-2.847,0.168-5.612,0.181-8.374c-0.081-5.57-0.225-10.919-1.12-17.287
	c-1.682,2.354-2.653,5.266-3.31,8.212c-0.683,2.963-0.936,6.049-0.966,9.124c0.092,5.387,1.033,10.817,3.34,15.424l-23.083,23.962
	c0.146-1.533,0.237-3.02,0.317-4.491c0.145-2.847,0.168-5.612,0.181-8.374c-0.08-5.57-0.225-10.919-1.119-17.287
	c-1.682,2.354-2.653,5.266-3.311,8.212c-0.682,2.963-0.936,6.049-0.965,9.124c0.088,5.132,0.946,10.304,3.013,14.771l-42.697,44.322
	c0,0,14.435-10.714,34.469-28.133c1.495,0.888,3.081,1.662,4.744,2.274c2.847,1.07,5.871,1.73,8.915,2.167
	c6.08,0.707,12.413,0.458,17.722-1.944c-3.119-1.038-5.969-1.588-8.779-2.122c-2.803-0.521-5.54-0.91-8.276-1.289
	c-3.95-0.471-7.931-0.807-12.146-0.995c8.271-7.247,17.396-15.565,26.817-24.704c3.952,2.121,8.559,3.31,13.167,3.917
	c3.059,0.321,6.154,0.419,9.175,0.077c3.001-0.318,6.005-0.951,8.534-2.357c-6.224-1.611-11.523-2.363-17.047-3.075
	c-2.745-0.302-5.495-0.594-8.341-0.773c-1.004-0.059-2.037-0.099-3.066-0.14c10.203-9.999,20.668-20.926,30.678-32.432
	c3.781,1.88,8.088,2.989,12.412,3.559c3.058,0.32,6.153,0.418,9.174,0.076c3.002-0.318,6.005-0.951,8.535-2.356
	c-6.226-1.612-11.523-2.363-17.048-3.077C388.774,299.958,386.023,299.666,383.179,299.487z"/>
<path style="fill:#64798A;" d="M237.749,264.023c-0.867,0-1.722-0.378-2.31-1.1c-1.042-1.28-0.844-3.154,0.431-4.189l37.071-30.118
	c1.274-1.036,3.148-0.844,4.189,0.431c1.042,1.28,0.844,3.154-0.431,4.189l-37.071,30.118
	C239.076,263.802,238.412,264.023,237.749,264.023z"/>
<path style="fill:#44C4A1;" d="M256.285,245.986c73.447,0,132.987-59.54,132.987-132.987
	C315.824,113,256.285,172.54,256.285,245.986z"/>
<path style="fill:#3EA69B;" d="M349.081,162.626c-0.617-0.036-1.255-0.057-1.882-0.086c9.495-11.083,18.385-22.818,25.61-34.74
	l-21.986,22.823c0.076-0.943,0.14-1.877,0.191-2.793c0.113-2.222,0.131-4.381,0.141-6.537c-0.063-4.348-0.176-8.523-0.874-13.494
	c-1.314,1.837-2.071,4.11-2.584,6.41c-0.532,2.313-0.73,4.722-0.754,7.122c0.065,3.837,0.672,7.712,2.138,11.098l-25.166,26.123
	c0.175-1.511,0.294-2.981,0.372-4.408c0.113-2.222,0.131-4.381,0.141-6.537c-0.063-4.348-0.176-8.523-0.874-13.494
	c-1.313,1.837-2.071,4.11-2.584,6.41c-0.533,2.313-0.731,4.722-0.754,7.122c0.072,4.205,0.807,8.444,2.607,12.04l-18.018,18.704
	c0.114-1.196,0.185-2.357,0.247-3.506c0.113-2.222,0.131-4.381,0.141-6.537c-0.063-4.348-0.176-8.523-0.874-13.494
	c-1.313,1.837-2.071,4.11-2.584,6.41c-0.532,2.313-0.73,4.722-0.754,7.122c0.068,4.006,0.738,8.043,2.352,11.53l-33.328,34.597
	c0,0,11.268-8.363,26.906-21.96c1.167,0.693,2.405,1.298,3.703,1.775c2.222,0.835,4.583,1.351,6.959,1.692
	c4.746,0.552,9.69,0.358,13.833-1.517c-2.434-0.81-4.659-1.239-6.853-1.656c-2.188-0.407-4.325-0.711-6.46-1.006
	c-3.083-0.367-6.191-0.63-9.481-0.777c6.456-5.657,13.579-12.149,20.933-19.283c3.085,1.655,6.681,2.584,10.278,3.058
	c2.388,0.25,4.803,0.327,7.162,0.06c2.343-0.248,4.688-0.743,6.662-1.839c-4.859-1.258-8.994-1.845-13.307-2.4
	c-2.143-0.236-4.289-0.463-6.51-0.604c-0.784-0.046-1.59-0.077-2.393-0.109c7.964-7.805,16.133-16.335,23.947-25.316
	c2.952,1.468,6.313,2.333,9.688,2.778c2.387,0.249,4.803,0.327,7.161,0.06c2.343-0.248,4.687-0.743,6.662-1.839
	c-4.86-1.258-8.994-1.845-13.307-2.402C353.448,162.993,351.301,162.766,349.081,162.626z"/>
<path style="fill:#64798A;" d="M238.963,113c-0.649,0-1.289-0.283-1.728-0.823c-0.779-0.958-0.631-2.36,0.322-3.135l27.737-22.535
	c0.953-0.775,2.355-0.631,3.135,0.322c0.779,0.958,0.631,2.36-0.322,3.135l-27.737,22.535C239.956,112.834,239.46,113,238.963,113z"
	/>
<path style="fill:#44C4A1;" d="M252.832,99.504c54.955,0,99.504-44.549,99.504-99.504C297.382,0,252.832,44.549,252.832,99.504z"/>
<path style="fill:#3EA69B;" d="M322.265,37.132c-0.461-0.027-0.939-0.042-1.408-0.064c7.105-8.293,13.756-17.073,19.162-25.993
	l-16.451,17.077c0.057-0.706,0.104-1.404,0.143-2.09c0.085-1.663,0.098-3.278,0.106-4.891c-0.047-3.253-0.132-6.377-0.654-10.096
	c-0.983,1.375-1.549,3.075-1.934,4.796c-0.398,1.731-0.546,3.533-0.564,5.329c0.049,2.871,0.503,5.77,1.6,8.304l-18.83,19.546
	c0.131-1.131,0.22-2.231,0.279-3.298c0.084-1.663,0.098-3.278,0.106-4.891c-0.047-3.253-0.132-6.377-0.654-10.096
	c-0.982,1.375-1.549,3.075-1.933,4.796c-0.399,1.731-0.547,3.533-0.564,5.329c0.054,3.146,0.604,6.318,1.95,9.008l-13.482,13.995
	c0.085-0.895,0.138-1.764,0.185-2.623c0.085-1.663,0.098-3.278,0.106-4.891c-0.047-3.253-0.132-6.377-0.654-10.096
	c-0.982,1.375-1.549,3.075-1.934,4.796c-0.398,1.731-0.546,3.533-0.564,5.329c0.051,2.998,0.552,6.018,1.76,8.627L263.1,90.92
	c0,0,8.431-6.257,20.132-16.431c0.873,0.519,1.799,0.971,2.771,1.328c1.663,0.625,3.429,1.011,5.207,1.266
	c3.551,0.413,7.25,0.268,10.35-1.135c-1.821-0.606-3.486-0.927-5.128-1.239c-1.637-0.304-3.236-0.532-4.834-0.753
	c-2.307-0.275-4.632-0.471-7.094-0.581c4.83-4.232,10.16-9.091,15.662-14.428c2.308,1.239,4.999,1.933,7.69,2.288
	c1.787,0.187,3.594,0.245,5.359,0.045c1.753-0.186,3.507-0.556,4.984-1.376c-3.635-0.941-6.73-1.38-9.956-1.796
	c-1.603-0.176-3.209-0.347-4.871-0.452c-0.587-0.034-1.19-0.058-1.79-0.082c5.959-5.84,12.071-12.222,17.918-18.942
	c2.208,1.098,4.724,1.746,7.249,2.079c1.786,0.187,3.593,0.244,5.358,0.045c1.753-0.186,3.507-0.556,4.985-1.376
	c-3.636-0.941-6.73-1.38-9.957-1.797C325.533,37.407,323.926,37.236,322.265,37.132z"/>
<path style="fill:#64798A;" d="M227.742,429.387c1.111,0,2.207-0.485,2.959-1.409c1.334-1.64,1.081-4.04-0.552-5.367l-47.492-38.584
	c-1.633-1.327-4.033-1.081-5.367,0.552c-1.334,1.64-1.081,4.04,0.552,5.367l47.492,38.584
	C226.042,429.104,226.892,429.387,227.742,429.387z"/>
<path style="fill:#44C4A1;" d="M203.996,406.28c-94.093,0-170.37-76.277-170.37-170.37
	C127.719,235.911,203.996,312.188,203.996,406.28z"/>
<path style="fill:#3EA69B;" d="M85.113,299.487c0.79-0.047,1.607-0.073,2.411-0.11c-12.165-14.199-23.553-29.232-32.809-44.505
	l28.166,29.239c-0.097-1.209-0.179-2.404-0.244-3.578c-0.145-2.847-0.168-5.612-0.181-8.374c0.08-5.57,0.226-10.919,1.119-17.287
	c1.683,2.354,2.653,5.266,3.311,8.212c0.682,2.963,0.936,6.049,0.965,9.124c-0.084,4.916-0.861,9.88-2.739,14.217l32.24,33.466
	c-0.224-1.936-0.376-3.819-0.477-5.648c-0.144-2.847-0.168-5.612-0.181-8.374c0.081-5.57,0.226-10.919,1.12-17.287
	c1.682,2.354,2.653,5.266,3.31,8.212c0.683,2.963,0.936,6.049,0.966,9.124c-0.092,5.387-1.033,10.817-3.34,15.424l23.083,23.962
	c-0.146-1.533-0.237-3.02-0.317-4.491c-0.145-2.847-0.168-5.612-0.181-8.374c0.08-5.57,0.225-10.919,1.119-17.287
	c1.682,2.354,2.653,5.266,3.311,8.212c0.682,2.963,0.936,6.049,0.965,9.124c-0.088,5.132-0.946,10.304-3.013,14.771l42.697,44.322
	c0,0-14.435-10.714-34.469-28.133c-1.495,0.888-3.081,1.662-4.744,2.274c-2.847,1.07-5.871,1.73-8.915,2.167
	c-6.08,0.707-12.413,0.458-17.722-1.944c3.119-1.038,5.969-1.588,8.779-2.122c2.803-0.521,5.54-0.91,8.276-1.289
	c3.95-0.471,7.931-0.807,12.146-0.995c-8.271-7.247-17.396-15.565-26.817-24.704c-3.952,2.121-8.559,3.31-13.167,3.917
	c-3.059,0.321-6.154,0.419-9.175,0.077c-3.001-0.318-6.005-0.951-8.534-2.357c6.224-1.611,11.523-2.363,17.047-3.075
	c2.745-0.302,5.495-0.594,8.341-0.773c1.004-0.059,2.037-0.099,3.066-0.14c-10.203-9.999-20.668-20.926-30.678-32.432
	c-3.781,1.88-8.088,2.989-12.412,3.559c-3.058,0.32-6.153,0.418-9.174,0.076c-3.002-0.318-6.005-0.951-8.535-2.356
	c6.226-1.612,11.523-2.363,17.048-3.077C79.519,299.958,82.27,299.666,85.113,299.487z"/>
<path style="fill:#64798A;" d="M230.544,264.023c0.867,0,1.722-0.378,2.31-1.1c1.042-1.28,0.844-3.154-0.431-4.189l-37.071-30.118
	c-1.274-1.036-3.148-0.844-4.189,0.431c-1.042,1.28-0.844,3.154,0.431,4.189l37.071,30.118
	C229.217,263.802,229.88,264.023,230.544,264.023z"/>
<path style="fill:#44C4A1;" d="M212.008,245.986c-73.447,0-132.987-59.54-132.987-132.987
	C152.468,113,212.008,172.54,212.008,245.986z"/>
<path style="fill:#3EA69B;" d="M119.211,162.626c0.617-0.036,1.255-0.057,1.882-0.086c-9.495-11.083-18.385-22.818-25.61-34.74
	l21.986,22.823c-0.076-0.943-0.14-1.877-0.191-2.793c-0.113-2.222-0.131-4.381-0.141-6.537c0.063-4.348,0.176-8.523,0.874-13.494
	c1.314,1.837,2.071,4.11,2.584,6.41c0.532,2.313,0.73,4.722,0.754,7.122c-0.065,3.837-0.672,7.712-2.138,11.098l25.166,26.123
	c-0.175-1.511-0.294-2.981-0.372-4.408c-0.113-2.222-0.131-4.381-0.141-6.537c0.063-4.348,0.176-8.523,0.874-13.494
	c1.313,1.837,2.071,4.11,2.584,6.41c0.533,2.313,0.731,4.722,0.754,7.122c-0.072,4.205-0.807,8.444-2.607,12.04l18.018,18.704
	c-0.114-1.196-0.185-2.357-0.247-3.506c-0.113-2.222-0.131-4.381-0.141-6.537c0.063-4.348,0.176-8.523,0.874-13.494
	c1.313,1.837,2.071,4.11,2.584,6.41c0.532,2.313,0.73,4.722,0.754,7.122c-0.068,4.006-0.738,8.043-2.352,11.53l33.328,34.597
	c0,0-11.268-8.363-26.906-21.96c-1.167,0.693-2.405,1.298-3.703,1.775c-2.222,0.835-4.583,1.351-6.959,1.692
	c-4.746,0.552-9.69,0.358-13.833-1.517c2.434-0.81,4.659-1.239,6.853-1.656c2.188-0.407,4.325-0.711,6.46-1.006
	c3.083-0.367,6.191-0.63,9.481-0.777c-6.456-5.657-13.579-12.149-20.933-19.283c-3.085,1.655-6.681,2.584-10.278,3.058
	c-2.388,0.25-4.803,0.327-7.162,0.06c-2.343-0.248-4.688-0.743-6.662-1.839c4.859-1.258,8.994-1.845,13.307-2.4
	c2.143-0.236,4.289-0.463,6.51-0.604c0.784-0.046,1.59-0.077,2.393-0.109c-7.964-7.805-16.133-16.335-23.947-25.316
	c-2.952,1.468-6.313,2.333-9.688,2.778c-2.387,0.249-4.803,0.327-7.161,0.06c-2.343-0.248-4.687-0.743-6.662-1.839
	c4.86-1.258,8.994-1.845,13.307-2.402C114.844,162.993,116.991,162.766,119.211,162.626z"/>
<path style="fill:#64798A;" d="M229.329,113c0.649,0,1.289-0.283,1.728-0.823c0.779-0.958,0.631-2.36-0.322-3.135l-27.737-22.535
	c-0.953-0.775-2.355-0.631-3.135,0.322c-0.779,0.958-0.631,2.36,0.322,3.135l27.737,22.535C228.337,112.834,228.833,113,229.329,113
	z"/>
<path style="fill:#44C4A1;" d="M215.46,99.504c-54.955,0-99.504-44.549-99.504-99.504C170.911,0,215.46,44.549,215.46,99.504z"/>
<g>
	<path style="fill:#3EA69B;" d="M146.028,37.132c0.461-0.027,0.939-0.042,1.408-0.064c-7.105-8.293-13.756-17.073-19.162-25.993
		l16.451,17.077c-0.057-0.706-0.104-1.404-0.143-2.09c-0.085-1.663-0.098-3.278-0.106-4.891c0.047-3.253,0.132-6.377,0.654-10.096
		c0.983,1.375,1.549,3.075,1.934,4.796c0.398,1.731,0.546,3.533,0.564,5.329c-0.049,2.871-0.503,5.77-1.6,8.304l18.83,19.546
		c-0.131-1.131-0.22-2.231-0.279-3.298c-0.084-1.663-0.098-3.278-0.106-4.891c0.047-3.253,0.132-6.377,0.654-10.096
		c0.982,1.375,1.549,3.075,1.933,4.796c0.399,1.731,0.547,3.533,0.564,5.329c-0.054,3.146-0.604,6.318-1.95,9.008l13.482,13.995
		c-0.085-0.895-0.138-1.764-0.185-2.623c-0.085-1.663-0.098-3.278-0.106-4.891c0.047-3.253,0.132-6.377,0.654-10.096
		c0.982,1.375,1.549,3.075,1.934,4.796c0.398,1.731,0.546,3.533,0.564,5.329c-0.051,2.998-0.552,6.018-1.76,8.627l24.937,25.886
		c0,0-8.431-6.257-20.132-16.431c-0.873,0.519-1.799,0.971-2.771,1.328c-1.663,0.625-3.429,1.011-5.207,1.266
		c-3.551,0.413-7.25,0.268-10.35-1.135c1.821-0.606,3.486-0.927,5.128-1.239c1.637-0.304,3.236-0.532,4.834-0.753
		c2.307-0.275,4.632-0.471,7.094-0.581c-4.83-4.232-10.16-9.091-15.662-14.428c-2.308,1.239-4.999,1.933-7.69,2.288
		c-1.787,0.187-3.594,0.245-5.359,0.045c-1.753-0.186-3.507-0.556-4.984-1.376c3.635-0.941,6.73-1.38,9.956-1.796
		c1.603-0.176,3.209-0.347,4.871-0.452c0.587-0.034,1.19-0.058,1.79-0.082c-5.959-5.84-12.071-12.222-17.918-18.942
		c-2.208,1.098-4.724,1.746-7.249,2.079c-1.786,0.187-3.593,0.244-5.358,0.045c-1.753-0.186-3.507-0.556-4.985-1.376
		c3.636-0.941,6.73-1.38,9.957-1.797C142.76,37.407,144.367,37.236,146.028,37.132z"/>
	<path style="fill:#3EA69B;" d="M234.146,468.293L234.146,468.293c-8.432,0-15.267-6.835-15.267-15.267
		c0,0,6.835-442.73,15.267-442.73h0c8.431,0,15.267,442.73,15.267,442.73C249.413,461.458,242.578,468.293,234.146,468.293z"/>
</g>
<g>
</g>
<g>
</g>
<g>
</g>
<g>
</g>
<g>
</g>
<g>
</g>
<g>
</g>
<g>
</g>
<g>
</g>
<g>
</g>
<g>
</g>
<g>
</g>
<g>
</g>
<g>
</g>
<g>
</g>
</svg>
