<?xml version="1.0" encoding="iso-8859-1"?>
<!-- Generator: Adobe Illustrator 19.0.0, SVG Export Plug-In . SVG Version: 6.00 Build 0)  -->
<svg version="1.1" id="Capa_1" xmlns="http://www.w3.org/2000/svg" xmlns:xlink="http://www.w3.org/1999/xlink" x="0px" y="0px"
	 viewBox="0 0 468.293 468.293" style="enable-background:new 0 0 468.293 468.293;" xml:space="preserve">
<circle style="fill:#3EA69B;" cx="234.146" cy="234.146" r="234.146"/>
<circle style="fill:#44C4A1;" cx="234.146" cy="234.146" r="212.293"/>
<g>
	<path style="fill:#3EA69B;" d="M234.146,68.903c4.336,12.052,5.309,24.105,5.495,36.158c-0.161,12.052-1.135,24.105-5.495,36.157
		c-4.359-12.052-5.334-24.105-5.494-36.157C228.837,93.007,229.81,80.955,234.146,68.903z"/>
	<path style="fill:#3EA69B;" d="M234.146,327.075c4.336,12.052,5.309,24.105,5.495,36.158c-0.161,12.052-1.135,24.105-5.495,36.157
		c-4.359-12.052-5.334-24.105-5.494-36.157C228.837,351.18,229.81,339.127,234.146,327.075z"/>
	<path style="fill:#3EA69B;" d="M191.378,74.533c7.308,10.519,11.367,21.909,14.666,33.504c2.964,11.683,5.142,23.577,4.051,36.347
		c-7.33-10.513-11.391-21.903-14.665-33.503C192.489,99.191,190.309,87.297,191.378,74.533z"/>
	<path style="fill:#3EA69B;" d="M258.198,323.909c7.308,10.519,11.367,21.909,14.666,33.504c2.964,11.683,5.142,23.577,4.051,36.347
		c-7.33-10.513-11.391-21.903-14.665-33.503C259.308,348.566,257.129,336.673,258.198,323.909z"/>
	<path style="fill:#3EA69B;" d="M151.524,91.041c9.781,8.27,16.65,18.22,22.837,28.566c5.887,10.518,11.069,21.443,13.32,34.06
		c-9.801-8.258-16.672-18.208-22.837-28.566C158.979,114.571,153.796,103.647,151.524,91.041z"/>
	<path style="fill:#3EA69B;" d="M280.611,314.625c9.781,8.27,16.65,18.22,22.837,28.566c5.887,10.518,11.069,21.443,13.32,34.06
		c-9.801-8.258-16.672-18.208-22.837-28.566C288.065,338.155,282.882,327.231,280.611,314.625z"/>
	<path style="fill:#3EA69B;" d="M117.301,117.302c11.588,5.456,20.799,13.29,29.453,21.682c8.409,8.636,16.242,17.847,21.681,29.452
		c-11.605-5.44-20.816-13.273-29.452-21.682C130.592,138.1,122.758,128.89,117.301,117.302z"/>
	<path style="fill:#3EA69B;" d="M299.857,299.857c11.588,5.456,20.799,13.29,29.453,21.682c8.409,8.636,16.242,17.847,21.681,29.452
		c-11.605-5.44-20.816-13.273-29.452-21.682C313.147,320.656,305.313,311.445,299.857,299.857z"/>
	<path style="fill:#3EA69B;" d="M91.041,151.525c12.606,2.271,23.53,7.454,34.061,13.32c10.357,6.165,20.308,13.035,28.565,22.837
		c-12.617-2.251-23.542-7.433-34.06-13.32C109.262,168.175,99.311,161.306,91.041,151.525z"/>
	<path style="fill:#3EA69B;" d="M314.625,280.611c12.606,2.271,23.53,7.454,34.061,13.32c10.357,6.165,20.308,13.035,28.565,22.837
		c-12.617-2.251-23.542-7.433-34.06-13.32C332.846,297.261,322.895,290.392,314.625,280.611z"/>
	<path style="fill:#3EA69B;" d="M74.533,191.378c12.764-1.069,24.657,1.11,36.348,4.051c11.6,3.275,22.989,7.335,33.503,14.666
		c-12.77,1.091-24.664-1.087-36.347-4.051C96.442,202.745,85.053,198.686,74.533,191.378z"/>
	<path style="fill:#3EA69B;" d="M323.909,258.198c12.764-1.069,24.657,1.11,36.348,4.051c11.6,3.275,22.989,7.335,33.503,14.666
		c-12.77,1.091-24.664-1.087-36.347-4.051C345.818,269.565,334.428,265.506,323.909,258.198z"/>
	<path style="fill:#3EA69B;" d="M68.903,234.146c12.052-4.336,24.105-5.309,36.158-5.495c12.052,0.161,24.105,1.135,36.157,5.495
		c-12.052,4.359-24.105,5.334-36.157,5.494C93.007,239.456,80.955,238.482,68.903,234.146z"/>
	<path style="fill:#3EA69B;" d="M327.075,234.146c12.052-4.336,24.105-5.309,36.158-5.495c12.052,0.161,24.105,1.135,36.157,5.495
		c-12.052,4.359-24.105,5.334-36.157,5.494C351.18,239.456,339.127,238.482,327.075,234.146z"/>
	<path style="fill:#3EA69B;" d="M74.533,276.915c10.519-7.308,21.909-11.367,33.504-14.666c11.683-2.964,23.577-5.142,36.347-4.051
		c-10.513,7.33-21.903,11.391-33.503,14.665C99.191,275.804,87.297,277.983,74.533,276.915z"/>
	<path style="fill:#3EA69B;" d="M323.909,210.095c10.519-7.308,21.909-11.367,33.504-14.666c11.683-2.964,23.577-5.142,36.347-4.051
		c-10.513,7.33-21.903,11.391-33.503,14.665C348.566,208.984,336.673,211.163,323.909,210.095z"/>
	<path style="fill:#3EA69B;" d="M91.041,316.768c8.27-9.781,18.22-16.65,28.566-22.837c10.518-5.887,21.443-11.069,34.06-13.32
		c-8.258,9.801-18.208,16.672-28.566,22.837C114.571,309.314,103.647,314.497,91.041,316.768z"/>
	<path style="fill:#3EA69B;" d="M314.625,187.682c8.27-9.781,18.22-16.65,28.566-22.837c10.518-5.887,21.443-11.069,34.06-13.32
		c-8.258,9.801-18.208,16.672-28.566,22.837C338.155,180.228,327.231,185.411,314.625,187.682z"/>
	<path style="fill:#3EA69B;" d="M117.302,350.991c5.456-11.588,13.29-20.799,21.682-29.453c8.636-8.409,17.847-16.242,29.452-21.681
		c-5.44,11.605-13.273,20.816-21.682,29.452C138.1,337.701,128.89,345.535,117.302,350.991z"/>
	<path style="fill:#3EA69B;" d="M299.857,168.436c5.456-11.588,13.29-20.799,21.682-29.453c8.636-8.409,17.847-16.242,29.452-21.681
		c-5.44,11.605-13.273,20.816-21.682,29.452C320.656,155.145,311.445,162.979,299.857,168.436z"/>
	<path style="fill:#3EA69B;" d="M151.525,377.252c2.271-12.606,7.454-23.53,13.32-34.061c6.165-10.357,13.035-20.308,22.837-28.565
		c-2.251,12.617-7.433,23.542-13.32,34.06C168.175,359.031,161.306,368.982,151.525,377.252z"/>
	<path style="fill:#3EA69B;" d="M280.611,153.668c2.271-12.606,7.454-23.53,13.32-34.061c6.165-10.357,13.035-20.308,22.837-28.565
		c-2.251,12.617-7.433,23.542-13.32,34.06C297.261,135.447,290.392,145.398,280.611,153.668z"/>
	<path style="fill:#3EA69B;" d="M191.378,393.759c-1.069-12.764,1.11-24.657,4.051-36.348c3.275-11.6,7.335-22.989,14.666-33.503
		c1.091,12.77-1.087,24.664-4.051,36.347C202.745,371.85,198.686,383.24,191.378,393.759z"/>
	<path style="fill:#3EA69B;" d="M258.198,144.384c-1.069-12.764,1.11-24.657,4.051-36.348c3.275-11.6,7.335-22.989,14.666-33.503
		c1.091,12.77-1.087,24.664-4.051,36.347C269.565,122.475,265.506,133.865,258.198,144.384z"/>
</g>
<circle style="fill:#E1E6E9;" cx="234.146" cy="234.146" r="81.171"/>
<circle style="fill:#64798A;" cx="228.652" cy="151.527" r="18.732"/>
<ellipse transform="matrix(-0.5685 -0.8227 0.8227 -0.5685 231.0306 405.6308)" style="fill:#E1E6E9;" cx="221.894" cy="142.226" rx="2.067" ry="7.018"/>
<circle style="fill:#64798A;" cx="156.397" cy="213.223" r="18.732"/>
<ellipse transform="matrix(-0.5685 -0.8227 0.8227 -0.5685 66.8658 442.9917)" style="fill:#E1E6E9;" cx="149.61" cy="203.96" rx="2.067" ry="7.018"/>
<circle style="fill:#64798A;" cx="175.791" cy="304.952" r="18.732"/>
<ellipse transform="matrix(-0.5685 -0.8227 0.8227 -0.5685 21.8496 602.8326)" style="fill:#E1E6E9;" cx="169.021" cy="295.686" rx="2.067" ry="7.018"/>
<circle style="fill:#64798A;" cx="294.643" cy="307.456" r="18.732"/>
<ellipse transform="matrix(-0.5685 -0.8227 0.8227 -0.5685 206.2238 704.5914)" style="fill:#E1E6E9;" cx="287.895" cy="298.212" rx="2.067" ry="7.018"/>
<circle style="fill:#64798A;" cx="327.074" cy="226.828" r="18.732"/>
<ellipse transform="matrix(-0.5685 -0.8227 0.8227 -0.5685 323.4303 604.7263)" style="fill:#E1E6E9;" cx="320.308" cy="217.542" rx="2.067" ry="7.018"/>
<g>
</g>
<g>
</g>
<g>
</g>
<g>
</g>
<g>
</g>
<g>
</g>
<g>
</g>
<g>
</g>
<g>
</g>
<g>
</g>
<g>
</g>
<g>
</g>
<g>
</g>
<g>
</g>
<g>
</g>
</svg>
