<?xml version="1.0" encoding="iso-8859-1"?>
<!-- Generator: Adobe Illustrator 19.0.0, SVG Export Plug-In . SVG Version: 6.00 Build 0)  -->
<svg version="1.1" id="Capa_1" xmlns="http://www.w3.org/2000/svg" xmlns:xlink="http://www.w3.org/1999/xlink" x="0px" y="0px"
	 viewBox="0 0 468.293 468.293" style="enable-background:new 0 0 468.293 468.293;" xml:space="preserve">
<g>
	<path style="fill:#44C4A1;" d="M350.04,102.855c-6.93,0.904-13.733,3.463-19.279,6.117c-6.564,3.141-12.434,7.493-17.894,12.304
		c-17.76,15.648-25.376,7.254-25.376,7.254c27.313-46.357-0.211-80.288-0.211-80.288s2.473,7.219-9.496,26.135
		c-3.944,6.233-8.591,11.975-13.54,17.445c-5.377,5.943-14.049,16.794-17.174,27.934l-9.791,34.685l-3.13,9.392l-3.131-9.392
		l-9.791-34.685c-3.125-11.139-11.796-21.989-17.173-27.932c-4.95-5.47-9.597-11.213-13.542-17.447
		c-11.969-18.915-9.496-26.134-9.496-26.134s-27.524,33.93-0.211,80.288c0,0-7.617,8.394-25.376-7.254
		c-5.459-4.81-11.329-9.162-17.892-12.303c-5.547-2.654-12.35-5.214-19.281-6.118c0,0-16.403-2.14-24.961-17.117
		c0,0,6.418,47.783,51.35,87.722h86.296h6.418h86.296c44.93-39.939,51.35-87.722,51.35-87.722
		C366.443,100.715,350.04,102.855,350.04,102.855z"/>
	<path style="fill:#44C4A1;" d="M224.866,0.127l-13.943,1.91c-7.82,1.071-13.029,8.629-11.248,16.318l33.986,148.924
		c14.504-39.147,8.995-121.594,6.399-154.949C239.462,4.646,232.503-0.92,224.866,0.127z"/>
</g>
<path style="fill:#3EA69B;" d="M233.66,170.197c14.504-39.147,8.995-121.594,6.399-154.949c-0.598-7.685-7.557-13.251-15.194-12.204
	l-13.943,1.91c-7.82,1.071-13.029,8.629-11.248,16.318L233.66,170.197"/>
<circle style="fill:#E56353;" cx="234.146" cy="417.093" r="42.821"/>
<path style="fill:#D15241;" d="M234.146,468.293c-28.218,0-51.173-22.954-51.173-51.17c0-28.216,22.954-51.173,51.173-51.173
	s51.173,22.957,51.173,51.173C285.319,445.338,262.365,468.293,234.146,468.293z M234.146,382.656
	c-19.006,0-34.467,15.461-34.467,34.467c0,19.004,15.461,34.464,34.467,34.464s34.467-15.461,34.467-34.464
	C268.613,398.116,253.153,382.656,234.146,382.656z"/>
<circle style="fill:#E56353;" cx="291.465" cy="352.343" r="42.821"/>
<path style="fill:#D15241;" d="M291.486,403.514c-28.218,0-51.173-22.957-51.173-51.173s22.954-51.17,51.173-51.17
	c28.218,0,51.173,22.954,51.173,51.17S319.704,403.514,291.486,403.514z M291.486,317.877c-19.006,0-34.467,15.461-34.467,34.464
	c0,19.006,15.461,34.467,34.467,34.467s34.467-15.461,34.467-34.467C325.953,333.337,310.492,317.877,291.486,317.877z"/>
<circle style="fill:#E56353;" cx="234.146" cy="352.343" r="42.821"/>
<path style="fill:#D15241;" d="M234.146,403.514c-28.218,0-51.173-22.957-51.173-51.173s22.954-51.17,51.173-51.17
	s51.173,22.954,51.173,51.17S262.365,403.514,234.146,403.514z M234.146,317.877c-19.006,0-34.467,15.461-34.467,34.464
	c0,19.006,15.461,34.467,34.467,34.467s34.467-15.461,34.467-34.467C268.613,333.337,253.153,317.877,234.146,317.877z"/>
<circle style="fill:#E56353;" cx="176.809" cy="352.343" r="42.821"/>
<path style="fill:#D15241;" d="M176.807,403.514c-28.213,0-51.167-22.957-51.167-51.173s22.954-51.17,51.167-51.17
	c28.218,0,51.173,22.954,51.173,51.17S205.025,403.514,176.807,403.514z M176.807,317.877c-19.001,0-34.461,15.461-34.461,34.464
	c0,19.006,15.461,34.467,34.461,34.467c19.006,0,34.467-15.461,34.467-34.467C211.274,333.337,195.813,317.877,176.807,317.877z"/>
<circle style="fill:#E56353;" cx="119.471" cy="289.605" r="42.821"/>
<path style="fill:#D15241;" d="M119.473,340.777c-28.218,0-51.173-22.957-51.173-51.173c0-28.216,22.954-51.17,51.173-51.17
	s51.173,22.954,51.173,51.17C170.645,317.82,147.691,340.777,119.473,340.777z M119.473,255.14
	c-19.006,0-34.467,15.461-34.467,34.464c0,19.006,15.461,34.467,34.467,34.467s34.467-15.461,34.467-34.467
	C153.939,270.6,138.479,255.14,119.473,255.14z"/>
<circle style="fill:#E56353;" cx="348.847" cy="289.605" r="42.821"/>
<path style="fill:#D15241;" d="M348.826,340.777c-28.218,0-51.173-22.957-51.173-51.173c0-28.216,22.954-51.17,51.173-51.17
	c28.213,0,51.167,22.954,51.167,51.17C399.993,317.82,377.039,340.777,348.826,340.777z M348.826,255.14
	c-19.006,0-34.467,15.461-34.467,34.464c0,19.006,15.461,34.467,34.467,34.467c19.001,0,34.461-15.461,34.461-34.467
	C383.287,270.6,367.826,255.14,348.826,255.14z"/>
<circle style="fill:#E56353;" cx="291.465" cy="289.605" r="42.821"/>
<path style="fill:#D15241;" d="M291.486,340.777c-28.218,0-51.173-22.957-51.173-51.173c0-28.216,22.954-51.17,51.173-51.17
	c28.218,0,51.173,22.954,51.173,51.17C342.659,317.82,319.704,340.777,291.486,340.777z M291.486,255.14
	c-19.006,0-34.467,15.461-34.467,34.464c0,19.006,15.461,34.467,34.467,34.467s34.467-15.461,34.467-34.467
	C325.953,270.6,310.492,255.14,291.486,255.14z"/>
<circle style="fill:#E56353;" cx="176.809" cy="289.605" r="42.821"/>
<path style="fill:#D15241;" d="M176.807,340.777c-28.213,0-51.167-22.957-51.167-51.173c0-28.216,22.954-51.17,51.167-51.17
	c28.218,0,51.173,22.954,51.173,51.17C227.98,317.82,205.025,340.777,176.807,340.777z M176.807,255.14
	c-19.001,0-34.461,15.461-34.461,34.464c0,19.006,15.461,34.467,34.461,34.467c19.006,0,34.467-15.461,34.467-34.467
	C211.274,270.6,195.813,255.14,176.807,255.14z"/>
<circle style="fill:#E56353;" cx="234.146" cy="289.605" r="42.821"/>
<path style="fill:#D15241;" d="M234.146,340.777c-28.218,0-51.173-22.957-51.173-51.173c0-28.216,22.954-51.17,51.173-51.17
	s51.173,22.954,51.173,51.17C285.319,317.82,262.365,340.777,234.146,340.777z M234.146,255.14
	c-19.006,0-34.467,15.461-34.467,34.464c0,19.006,15.461,34.467,34.467,34.467s34.467-15.461,34.467-34.467
	C268.613,270.6,253.153,255.14,234.146,255.14z"/>
<circle style="fill:#E56353;" cx="102.369" cy="219.398" r="49.202"/>
<path style="fill:#D15241;" d="M102.37,276.958c-31.737,0-57.557-25.82-57.557-57.557s25.82-57.557,57.557-57.557
	s57.557,25.82,57.557,57.557S134.107,276.958,102.37,276.958z M102.37,178.549c-22.525,0-40.851,18.326-40.851,40.851
	s18.326,40.851,40.851,40.851s40.851-18.326,40.851-40.851S124.894,178.549,102.37,178.549z"/>
<circle style="fill:#E56353;" cx="365.955" cy="219.398" r="49.202"/>
<path style="fill:#D15241;" d="M365.923,276.958c-31.737,0-57.557-25.82-57.557-57.557s25.82-57.557,57.557-57.557
	s57.557,25.82,57.557,57.557S397.66,276.958,365.923,276.958z M365.923,178.549c-22.525,0-40.851,18.326-40.851,40.851
	s18.327,40.851,40.851,40.851s40.851-18.326,40.851-40.851S388.448,178.549,365.923,178.549z"/>
<circle style="fill:#E56353;" cx="300.02" cy="219.398" r="49.202"/>
<path style="fill:#D15241;" d="M300.035,276.958c-31.737,0-57.557-25.82-57.557-57.557s25.82-57.557,57.557-57.557
	s57.557,25.82,57.557,57.557S331.772,276.958,300.035,276.958z M300.035,178.549c-22.525,0-40.851,18.326-40.851,40.851
	s18.327,40.851,40.851,40.851s40.851-18.326,40.851-40.851S322.559,178.549,300.035,178.549z"/>
<circle style="fill:#E56353;" cx="168.261" cy="219.398" r="49.202"/>
<path style="fill:#D15241;" d="M168.258,276.958c-31.737,0-57.557-25.82-57.557-57.557s25.82-57.557,57.557-57.557
	s57.557,25.82,57.557,57.557S199.995,276.958,168.258,276.958z M168.258,178.549c-22.525,0-40.851,18.326-40.851,40.851
	s18.326,40.851,40.851,40.851s40.851-18.326,40.851-40.851S190.783,178.549,168.258,178.549z"/>
<circle style="fill:#E56353;" cx="234.146" cy="219.398" r="49.202"/>
<path style="fill:#D15241;" d="M234.146,276.958c-31.737,0-57.557-25.82-57.557-57.557s25.82-57.557,57.557-57.557
	s57.557,25.82,57.557,57.557S265.883,276.958,234.146,276.958z M234.146,178.549c-22.525,0-40.851,18.326-40.851,40.851
	s18.326,40.851,40.851,40.851c22.525,0,40.851-18.326,40.851-40.851S256.671,178.549,234.146,178.549z"/>
<g>
	<path style="fill:#E1E6E9;" d="M258.689,418.12c0.098,5.304-1.618,17.611-18.72,22.656c-0.963,0.284-1.734-0.821-1.091-1.595
		c4.258-5.119,14.203-17.074,18.046-21.693C257.525,416.765,258.671,417.184,258.689,418.12z"/>
	<path style="fill:#E1E6E9;" d="M258.689,356.852c0.098,5.304-1.618,17.611-18.72,22.656c-0.963,0.284-1.734-0.821-1.091-1.595
		c4.258-5.119,14.203-17.074,18.046-21.693C257.525,355.497,258.671,355.915,258.689,356.852z"/>
	<path style="fill:#E1E6E9;" d="M196.857,356.852c0.098,5.304-1.618,17.611-18.72,22.656c-0.963,0.284-1.734-0.821-1.091-1.595
		c4.258-5.119,14.203-17.074,18.046-21.693C195.693,355.497,196.839,355.915,196.857,356.852z"/>
	<path style="fill:#E1E6E9;" d="M382.551,193.105c6.636,5.001,20.137,18.985,9.663,44.814c-0.59,1.454-2.706,1.333-3.031-0.202
		c-2.155-10.16-7.189-33.89-9.134-43.059C379.744,193.223,381.379,192.222,382.551,193.105z"/>
	<path style="fill:#E1E6E9;" d="M370.322,294.114c0.098,5.304-1.618,17.611-18.72,22.656c-0.963,0.284-1.734-0.821-1.091-1.595
		c4.258-5.119,14.203-17.074,18.046-21.693C369.158,292.759,370.305,293.177,370.322,294.114z"/>
	<path style="fill:#E1E6E9;" d="M316.027,294.114c0.098,5.304-1.618,17.611-18.72,22.656c-0.963,0.284-1.734-0.821-1.091-1.595
		c4.258-5.119,14.203-17.074,18.046-21.693C314.863,292.759,316.009,293.177,316.027,294.114z"/>
	<path style="fill:#E1E6E9;" d="M316.027,353.341c0.098,5.304-1.618,17.611-18.72,22.656c-0.963,0.284-1.734-0.821-1.091-1.595
		c4.258-5.119,14.203-17.074,18.046-21.693C314.863,351.985,316.009,352.404,316.027,353.341z"/>
	<path style="fill:#E1E6E9;" d="M254.195,294.114c0.098,5.304-1.618,17.611-18.72,22.656c-0.963,0.284-1.734-0.821-1.091-1.595
		c4.258-5.119,14.203-17.074,18.046-21.693C253.031,292.759,254.177,293.177,254.195,294.114z"/>
	<path style="fill:#E1E6E9;" d="M317.527,193.105c6.636,5.001,20.137,18.985,9.663,44.814c-0.59,1.454-2.706,1.333-3.031-0.202
		c-2.155-10.16-7.189-33.89-9.134-43.059C314.72,193.223,316.355,192.222,317.527,193.105z"/>
	<path style="fill:#E1E6E9;" d="M253.372,193.105c6.636,5.001,20.137,18.985,9.663,44.814c-0.59,1.454-2.706,1.333-3.031-0.202
		c-2.155-10.16-7.189-33.89-9.134-43.059C250.565,193.223,252.2,192.222,253.372,193.105z"/>
</g>
<g>
</g>
<g>
</g>
<g>
</g>
<g>
</g>
<g>
</g>
<g>
</g>
<g>
</g>
<g>
</g>
<g>
</g>
<g>
</g>
<g>
</g>
<g>
</g>
<g>
</g>
<g>
</g>
<g>
</g>
</svg>
