<?xml version="1.0" encoding="iso-8859-1"?>
<!-- Generator: Adobe Illustrator 19.0.0, SVG Export Plug-In . SVG Version: 6.00 Build 0)  -->
<svg version="1.1" id="Capa_1" xmlns="http://www.w3.org/2000/svg" xmlns:xlink="http://www.w3.org/1999/xlink" x="0px" y="0px"
	 viewBox="0 0 468.32 468.32" style="enable-background:new 0 0 468.32 468.32;" xml:space="preserve">
<rect x="225.019" y="120.052" style="fill:#DC8744;" width="18.282" height="348.241"/>
<path style="fill:#FCD462;" d="M299.588,91.482c-2.072,7.009-5.729,12.373-9.142,16.212c-3.718,4.144-8.655,6.765-14.079,7.68
	c-16.944,2.986-32.912,14.993-40.043,20.966c-0.122,1.097-4.205,1.097-4.388,0c-7.07-5.973-23.038-17.98-39.982-20.966
	c-5.424-0.914-10.422-3.535-14.079-7.68c-3.413-3.84-7.07-9.203-9.142-16.212c-2.011-6.765-2.499-15.054,0.244-24.745
	c0.427-1.524,1.95-2.499,3.535-2.133c10.788,2.316,50.343,12.86,61.619,43.944c11.336-31.084,50.892-41.628,61.68-43.944
	c1.524-0.366,3.108,0.609,3.535,2.133C302.087,76.428,301.599,84.717,299.588,91.482z"/>
<path style="fill:#F6C358;" d="M299.588,91.482c-2.072,7.009-5.729,12.373-9.142,16.212c-3.718,4.144-8.655,6.765-14.079,7.68
	c-16.944,2.986-32.912,14.993-40.043,20.966c-0.122,1.097-4.205,1.097-4.388,0c-7.07-5.973-23.038-17.98-39.982-20.966
	c-5.424-0.914-10.422-3.535-14.079-7.68c-3.413-3.84-7.07-9.203-9.142-16.212c0.061-0.305,0.183-0.609,0.244-0.914
	c0.427-1.524,1.95-2.499,3.535-2.133c10.788,2.316,50.343,12.86,61.619,43.944c11.336-31.084,50.892-41.628,61.68-43.944
	c1.524-0.366,3.108,0.61,3.535,2.133C299.405,90.873,299.527,91.177,299.588,91.482z"/>
<path style="fill:#FCD462;" d="M299.588,148.865c-2.072,7.009-5.729,12.373-9.142,16.212c-3.718,4.144-8.655,6.765-14.079,7.68
	c-16.944,2.986-32.912,14.993-40.043,20.966c-0.122,1.097-4.205,1.097-4.388,0c-7.07-5.973-23.038-17.98-39.982-20.966
	c-5.424-0.914-10.422-3.535-14.079-7.68c-3.413-3.84-7.07-9.203-9.142-16.212c-2.011-6.765-2.499-15.054,0.244-24.745
	c0.427-1.524,1.95-2.499,3.535-2.133c10.788,2.316,50.343,12.86,61.619,43.944c11.336-31.084,50.892-41.628,61.68-43.944
	c1.524-0.366,3.108,0.609,3.535,2.133C302.087,133.811,301.599,142.1,299.588,148.865z"/>
<path style="fill:#F6C358;" d="M299.588,148.865c-2.072,7.009-5.729,12.373-9.142,16.212c-3.718,4.144-8.655,6.765-14.079,7.68
	c-16.944,2.986-32.912,14.993-40.043,20.966c-0.122,1.097-4.205,1.097-4.388,0c-7.07-5.973-23.038-17.98-39.982-20.966
	c-5.424-0.914-10.422-3.535-14.079-7.68c-3.413-3.84-7.07-9.203-9.142-16.212c0.061-0.305,0.183-0.609,0.244-0.914
	c0.427-1.524,1.95-2.499,3.535-2.133c10.788,2.316,50.343,12.86,61.619,43.944c11.336-31.084,50.892-41.628,61.68-43.944
	c1.524-0.366,3.108,0.61,3.535,2.133C299.405,148.256,299.527,148.56,299.588,148.865z"/>
<path style="fill:#FCD462;" d="M299.588,206.248c-2.072,7.009-5.729,12.373-9.142,16.212c-3.718,4.144-8.655,6.765-14.079,7.68
	c-16.944,2.986-32.912,14.993-40.043,20.966c-0.122,1.097-4.205,1.097-4.388,0c-7.07-5.973-23.038-17.98-39.982-20.966
	c-5.424-0.914-10.422-3.535-14.079-7.68c-3.413-3.84-7.07-9.203-9.142-16.212c-2.011-6.765-2.499-15.054,0.244-24.745
	c0.427-1.524,1.95-2.499,3.535-2.133c10.788,2.316,50.343,12.86,61.619,43.944c11.336-31.084,50.892-41.628,61.68-43.944
	c1.524-0.366,3.108,0.609,3.535,2.133C302.087,191.194,301.599,199.483,299.588,206.248z"/>
<path style="fill:#F6C358;" d="M299.588,206.248c-2.072,7.009-5.729,12.373-9.142,16.212c-3.718,4.144-8.655,6.765-14.079,7.68
	c-16.944,2.986-32.912,14.993-40.043,20.966c-0.122,1.097-4.205,1.097-4.388,0c-7.07-5.973-23.038-17.98-39.982-20.966
	c-5.424-0.914-10.422-3.535-14.079-7.68c-3.413-3.84-7.07-9.203-9.142-16.212c0.061-0.305,0.183-0.609,0.244-0.914
	c0.427-1.524,1.95-2.499,3.535-2.133c10.788,2.316,50.343,12.86,61.619,43.944c11.336-31.084,50.892-41.628,61.68-43.944
	c1.524-0.366,3.108,0.61,3.535,2.133C299.405,205.639,299.527,205.943,299.588,206.248z"/>
<path style="fill:#FCD462;" d="M299.588,263.631c-2.072,7.009-5.729,12.373-9.142,16.212c-3.718,4.144-8.655,6.765-14.079,7.68
	c-16.944,2.986-32.912,14.993-40.043,20.966c-0.122,1.097-4.205,1.097-4.388,0c-7.07-5.973-23.038-17.98-39.982-20.966
	c-5.424-0.914-10.422-3.535-14.079-7.68c-3.413-3.84-7.07-9.203-9.142-16.212c-2.011-6.765-2.499-15.054,0.244-24.745
	c0.427-1.524,1.95-2.499,3.535-2.133c10.788,2.316,50.343,12.86,61.619,43.944c11.336-31.084,50.892-41.628,61.68-43.944
	c1.524-0.366,3.108,0.609,3.535,2.133C302.087,248.577,301.599,256.866,299.588,263.631z"/>
<path style="fill:#F6C358;" d="M299.588,263.631c-2.072,7.009-5.729,12.373-9.142,16.212c-3.718,4.144-8.655,6.765-14.079,7.68
	c-16.944,2.986-32.912,14.993-40.043,20.966c-0.122,1.097-4.205,1.097-4.388,0c-7.07-5.973-23.038-17.98-39.982-20.966
	c-5.424-0.914-10.422-3.535-14.079-7.68c-3.413-3.84-7.07-9.203-9.142-16.212c0.061-0.305,0.183-0.609,0.244-0.914
	c0.427-1.524,1.95-2.499,3.535-2.133c10.788,2.316,50.343,12.86,61.619,43.944c11.336-31.084,50.892-41.628,61.68-43.944
	c1.524-0.366,3.108,0.61,3.535,2.133C299.405,263.022,299.527,263.326,299.588,263.631z"/>
<path style="fill:#FCD462;" d="M299.588,321.014c-2.072,7.009-5.729,12.373-9.142,16.213c-3.718,4.144-8.655,6.765-14.079,7.68
	c-16.944,2.986-32.912,14.993-40.043,20.966c-0.122,1.097-4.205,1.097-4.388,0c-7.07-5.973-23.038-17.98-39.982-20.966
	c-5.424-0.914-10.422-3.535-14.079-7.68c-3.413-3.84-7.07-9.203-9.142-16.213c-2.011-6.765-2.499-15.054,0.244-24.745
	c0.427-1.524,1.95-2.499,3.535-2.133c10.788,2.316,50.343,12.86,61.619,43.944c11.336-31.084,50.892-41.628,61.68-43.944
	c1.524-0.366,3.108,0.609,3.535,2.133C302.087,305.96,301.599,314.249,299.588,321.014z"/>
<path style="fill:#F6C358;" d="M299.588,321.014c-2.072,7.009-5.729,12.373-9.142,16.213c-3.718,4.144-8.655,6.765-14.079,7.68
	c-16.944,2.986-32.912,14.993-40.043,20.966c-0.122,1.097-4.205,1.097-4.388,0c-7.07-5.973-23.038-17.98-39.982-20.966
	c-5.424-0.914-10.422-3.535-14.079-7.68c-3.413-3.84-7.07-9.203-9.142-16.213c0.061-0.305,0.183-0.609,0.244-0.914
	c0.427-1.524,1.95-2.499,3.535-2.133c10.788,2.316,50.343,12.86,61.619,43.944c11.336-31.084,50.892-41.628,61.68-43.944
	c1.524-0.366,3.108,0.61,3.535,2.133C299.405,320.404,299.527,320.709,299.588,321.014z"/>
<path style="fill:#FCD462;" d="M299.588,378.397c-2.072,7.009-5.729,12.373-9.142,16.212c-3.718,4.144-8.655,6.765-14.079,7.68
	c-16.944,2.986-32.912,14.993-40.043,20.966c-0.122,1.097-4.205,1.097-4.388,0c-7.07-5.973-23.038-17.98-39.982-20.966
	c-5.424-0.914-10.422-3.535-14.079-7.68c-3.413-3.84-7.07-9.203-9.142-16.212c-2.011-6.765-2.499-15.054,0.244-24.745
	c0.427-1.524,1.95-2.499,3.535-2.133c10.788,2.316,50.343,12.86,61.619,43.944c11.336-31.084,50.892-41.628,61.68-43.944
	c1.524-0.366,3.108,0.609,3.535,2.133C302.087,363.343,301.599,371.632,299.588,378.397z"/>
<path style="fill:#F6C358;" d="M299.588,378.397c-2.072,7.009-5.729,12.373-9.142,16.212c-3.718,4.144-8.655,6.765-14.079,7.68
	c-16.944,2.986-32.912,14.993-40.043,20.966c-0.122,1.097-4.205,1.097-4.388,0c-7.07-5.973-23.038-17.98-39.982-20.966
	c-5.424-0.914-10.422-3.535-14.079-7.68c-3.413-3.84-7.07-9.203-9.142-16.212c0.061-0.305,0.183-0.609,0.244-0.914
	c0.427-1.524,1.95-2.499,3.535-2.133c10.788,2.316,50.343,12.86,61.619,43.944c11.336-31.084,50.892-41.628,61.68-43.944
	c1.524-0.366,3.108,0.61,3.535,2.133C299.405,377.787,299.527,378.092,299.588,378.397z"/>
<path style="fill:#FCD462;" d="M234.227,0h-0.134c0,0-33.061,17.066-34.864,43.411c-0.443,6.471,2.687,12.769,8.065,16.395
	c8.24,5.556,21.73,16.207,25.715,28.552h2.302c3.986-12.345,17.475-22.996,25.715-28.552c5.378-3.626,8.507-9.924,8.065-16.395
	C267.287,17.066,234.227,0,234.227,0z"/>
<path style="fill:#F6C358;" d="M233.315,12.359v59.117C233.315,71.475,214.646,38.978,233.315,12.359z"/>
<rect x="376.99" y="271.134" transform="matrix(-0.9239 -0.3827 0.3827 -0.9239 592.9615 863.0542)" style="fill:#DC8744;" width="10.652" height="202.839"/>
<path style="fill:#FCD462;" d="M462.7,278.064c-2.678,3.31-5.841,5.381-8.534,6.687c-2.924,1.402-6.165,1.711-9.288,0.994
	c-9.784-2.17-21.053,0.732-26.222,2.357c-0.31,0.563-2.508-0.347-2.362-0.978c-2.473-4.79-8.39-14.811-16.842-20.195
	c-2.715-1.701-4.82-4.225-5.865-7.271c-0.981-2.827-1.753-6.529-1.306-10.762c0.426-4.089,2.011-8.658,5.647-13.262
	c0.569-0.725,1.607-0.91,2.378-0.36c5.289,3.651,24.225,18.142,23.364,37.383c13.029-14.2,36.666-11.057,42.987-9.899
	c0.901,0.143,1.537,1.021,1.427,1.936C467.401,270.52,465.291,274.872,462.7,278.064z"/>
<path style="fill:#F6C358;" d="M462.7,278.064c-2.678,3.31-5.841,5.381-8.534,6.687c-2.924,1.402-6.165,1.711-9.288,0.994
	c-9.784-2.17-21.053,0.732-26.222,2.357c-0.31,0.563-2.508-0.347-2.362-0.978c-2.473-4.79-8.39-14.811-16.842-20.195
	c-2.715-1.701-4.82-4.225-5.865-7.271c-0.981-2.827-1.753-6.529-1.306-10.762c0.101-0.15,0.234-0.287,0.335-0.437
	c0.569-0.725,1.607-0.91,2.378-0.36c5.289,3.651,24.225,18.142,23.364,37.383c13.029-14.2,36.666-11.057,42.987-9.899
	c0.901,0.143,1.537,1.021,1.427,1.936C462.738,277.695,462.735,277.886,462.7,278.064z"/>
<path style="fill:#FCD462;" d="M449.91,308.944c-2.678,3.31-5.841,5.381-8.534,6.687c-2.924,1.402-6.165,1.711-9.288,0.994
	c-9.784-2.17-21.053,0.732-26.222,2.357c-0.31,0.563-2.508-0.347-2.362-0.978c-2.473-4.79-8.39-14.811-16.842-20.195
	c-2.715-1.701-4.82-4.225-5.865-7.271c-0.981-2.827-1.753-6.528-1.306-10.762c0.426-4.089,2.011-8.658,5.647-13.262
	c0.569-0.725,1.607-0.91,2.378-0.36c5.289,3.651,24.225,18.142,23.364,37.383c13.029-14.2,36.666-11.057,42.987-9.899
	c0.901,0.143,1.537,1.021,1.427,1.936C454.61,301.4,452.5,305.752,449.91,308.944z"/>
<path style="fill:#F6C358;" d="M449.91,308.944c-2.678,3.31-5.841,5.381-8.534,6.687c-2.924,1.402-6.165,1.711-9.288,0.994
	c-9.784-2.17-21.053,0.732-26.222,2.357c-0.31,0.563-2.508-0.347-2.362-0.978c-2.473-4.79-8.39-14.811-16.842-20.195
	c-2.715-1.701-4.82-4.225-5.865-7.271c-0.981-2.827-1.753-6.528-1.306-10.762c0.101-0.15,0.234-0.287,0.335-0.437
	c0.569-0.725,1.607-0.91,2.378-0.36c5.289,3.651,24.225,18.142,23.364,37.383c13.029-14.2,36.666-11.057,42.987-9.899
	c0.901,0.143,1.537,1.021,1.427,1.936C449.947,308.575,449.945,308.766,449.91,308.944z"/>
<path style="fill:#FCD462;" d="M437.119,339.824c-2.678,3.31-5.841,5.381-8.534,6.687c-2.924,1.402-6.165,1.711-9.288,0.994
	c-9.784-2.17-21.053,0.732-26.222,2.357c-0.31,0.563-2.508-0.347-2.362-0.978c-2.473-4.79-8.39-14.811-16.842-20.195
	c-2.715-1.701-4.82-4.225-5.865-7.271c-0.981-2.827-1.753-6.528-1.306-10.762c0.426-4.089,2.011-8.658,5.647-13.262
	c0.569-0.725,1.607-0.91,2.378-0.36c5.289,3.651,24.225,18.142,23.364,37.383c13.029-14.2,36.666-11.058,42.987-9.899
	c0.901,0.143,1.537,1.021,1.427,1.936C441.819,332.279,439.709,336.631,437.119,339.824z"/>
<path style="fill:#F6C358;" d="M437.119,339.824c-2.678,3.31-5.841,5.381-8.534,6.687c-2.924,1.402-6.165,1.711-9.288,0.994
	c-9.784-2.17-21.053,0.732-26.222,2.357c-0.31,0.563-2.508-0.347-2.362-0.978c-2.473-4.79-8.39-14.811-16.842-20.195
	c-2.715-1.701-4.82-4.225-5.865-7.271c-0.981-2.827-1.753-6.528-1.306-10.762c0.101-0.15,0.234-0.287,0.335-0.437
	c0.569-0.725,1.607-0.91,2.378-0.36c5.289,3.651,24.225,18.142,23.364,37.383c13.029-14.2,36.666-11.057,42.987-9.899
	c0.901,0.143,1.537,1.021,1.427,1.936C437.156,339.455,437.154,339.646,437.119,339.824z"/>
<path style="fill:#FCD462;" d="M424.328,370.703c-2.678,3.31-5.841,5.381-8.534,6.687c-2.924,1.402-6.165,1.711-9.288,0.994
	c-9.784-2.17-21.053,0.732-26.222,2.357c-0.31,0.563-2.508-0.347-2.362-0.978c-2.473-4.79-8.39-14.811-16.842-20.195
	c-2.715-1.701-4.82-4.225-5.865-7.271c-0.981-2.827-1.753-6.528-1.306-10.762c0.426-4.089,2.011-8.658,5.647-13.262
	c0.569-0.725,1.607-0.91,2.378-0.36c5.289,3.651,24.225,18.142,23.364,37.383c13.029-14.2,36.666-11.058,42.987-9.899
	c0.901,0.143,1.537,1.021,1.427,1.936C429.028,363.159,426.918,367.511,424.328,370.703z"/>
<path style="fill:#F6C358;" d="M424.328,370.703c-2.678,3.31-5.841,5.381-8.534,6.687c-2.924,1.402-6.165,1.711-9.288,0.994
	c-9.784-2.17-21.053,0.732-26.222,2.357c-0.31,0.563-2.508-0.347-2.362-0.978c-2.473-4.79-8.39-14.811-16.842-20.195
	c-2.715-1.701-4.82-4.225-5.865-7.271c-0.981-2.827-1.753-6.528-1.306-10.762c0.101-0.15,0.234-0.287,0.335-0.437
	c0.569-0.725,1.607-0.91,2.378-0.36c5.289,3.651,24.225,18.142,23.364,37.383c13.029-14.2,36.666-11.057,42.987-9.899
	c0.901,0.143,1.537,1.021,1.427,1.936C424.365,370.335,424.363,370.526,424.328,370.703z"/>
<path style="fill:#FCD462;" d="M411.537,401.583c-2.678,3.31-5.841,5.381-8.534,6.687c-2.924,1.402-6.165,1.711-9.288,0.994
	c-9.784-2.17-21.053,0.732-26.222,2.357c-0.31,0.563-2.508-0.347-2.362-0.978c-2.473-4.79-8.39-14.811-16.842-20.195
	c-2.715-1.701-4.82-4.225-5.865-7.271c-0.981-2.827-1.753-6.529-1.306-10.762c0.426-4.089,2.011-8.658,5.647-13.262
	c0.569-0.725,1.607-0.91,2.378-0.36c5.289,3.651,24.225,18.142,23.364,37.383c13.029-14.2,36.666-11.057,42.987-9.899
	c0.901,0.143,1.537,1.021,1.427,1.936C416.237,394.039,414.127,398.391,411.537,401.583z"/>
<path style="fill:#F6C358;" d="M411.537,401.583c-2.678,3.31-5.841,5.381-8.534,6.687c-2.924,1.402-6.165,1.711-9.288,0.994
	c-9.784-2.17-21.053,0.732-26.222,2.357c-0.31,0.563-2.508-0.347-2.362-0.978c-2.473-4.79-8.39-14.811-16.842-20.195
	c-2.715-1.701-4.82-4.225-5.865-7.271c-0.981-2.827-1.753-6.529-1.306-10.762c0.101-0.15,0.234-0.287,0.335-0.437
	c0.569-0.725,1.607-0.91,2.378-0.36c5.289,3.651,24.225,18.142,23.364,37.383c13.029-14.2,36.666-11.058,42.987-9.899
	c0.901,0.143,1.537,1.021,1.427,1.936C411.574,401.214,411.572,401.405,411.537,401.583z"/>
<path style="fill:#FCD462;" d="M398.746,432.463c-2.678,3.31-5.841,5.381-8.534,6.687c-2.924,1.402-6.165,1.711-9.288,0.994
	c-9.784-2.17-21.053,0.732-26.222,2.357c-0.31,0.563-2.508-0.347-2.362-0.978c-2.473-4.79-8.39-14.811-16.842-20.195
	c-2.715-1.701-4.82-4.225-5.865-7.271c-0.981-2.827-1.753-6.528-1.306-10.762c0.426-4.089,2.011-8.658,5.647-13.262
	c0.569-0.725,1.607-0.91,2.378-0.36c5.289,3.651,24.225,18.142,23.364,37.383c13.029-14.2,36.666-11.057,42.987-9.899
	c0.901,0.143,1.537,1.021,1.427,1.936C403.446,424.919,401.337,429.271,398.746,432.463z"/>
<path style="fill:#F6C358;" d="M398.746,432.463c-2.678,3.31-5.841,5.381-8.534,6.687c-2.924,1.402-6.165,1.711-9.288,0.994
	c-9.784-2.17-21.053,0.732-26.222,2.357c-0.31,0.563-2.508-0.347-2.362-0.978c-2.473-4.79-8.39-14.811-16.842-20.195
	c-2.715-1.701-4.82-4.225-5.865-7.271c-0.981-2.827-1.753-6.528-1.306-10.762c0.101-0.15,0.234-0.287,0.335-0.437
	c0.569-0.725,1.607-0.91,2.378-0.36c5.289,3.651,24.225,18.142,23.364,37.383c13.029-14.2,36.666-11.058,42.987-9.899
	c0.901,0.143,1.537,1.021,1.427,1.936C398.783,432.094,398.781,432.285,398.746,432.463z"/>
<path style="fill:#FCD462;" d="M447.919,214.265l-0.072-0.03c0,0-21.595,1.814-28.438,15.59c-1.681,3.384-1.4,7.47,0.685,10.621
	c3.196,4.827,8.081,13.565,7.474,21.097l1.239,0.513c4.897-5.755,14.529-8.48,20.202-9.633c3.703-0.753,6.79-3.444,7.994-7.025
	C461.906,230.818,447.919,214.265,447.919,214.265z"/>
<path style="fill:#F6C358;" d="M444.673,220.712l-13.177,31.813C431.496,252.525,428.694,230.876,444.673,220.712z"/>
<rect x="80.66" y="271.162" transform="matrix(0.9239 -0.3827 0.3827 0.9239 -136.0345 61.2659)" style="fill:#DC8744;" width="10.652" height="202.839"/>
<path style="fill:#FCD462;" d="M5.619,278.064c2.678,3.31,5.841,5.381,8.534,6.687c2.924,1.402,6.165,1.711,9.288,0.994
	c9.784-2.17,21.053,0.732,26.222,2.357c0.31,0.563,2.508-0.347,2.362-0.978c2.473-4.79,8.39-14.811,16.842-20.195
	c2.715-1.701,4.82-4.225,5.865-7.271c0.981-2.827,1.753-6.529,1.306-10.762c-0.426-4.089-2.011-8.658-5.647-13.262
	c-0.569-0.725-1.607-0.91-2.378-0.36c-5.289,3.651-24.225,18.142-23.364,37.383c-13.029-14.2-36.666-11.057-42.987-9.899
	c-0.901,0.143-1.537,1.021-1.427,1.936C0.919,270.52,3.029,274.872,5.619,278.064z"/>
<path style="fill:#F6C358;" d="M5.619,278.064c2.678,3.31,5.841,5.381,8.534,6.687c2.924,1.402,6.165,1.711,9.288,0.994
	c9.784-2.17,21.053,0.732,26.222,2.357c0.31,0.563,2.508-0.347,2.362-0.978c2.473-4.79,8.39-14.811,16.842-20.195
	c2.715-1.701,4.82-4.225,5.865-7.271c0.981-2.827,1.753-6.529,1.306-10.762c-0.101-0.15-0.234-0.287-0.335-0.437
	c-0.569-0.725-1.607-0.91-2.378-0.36c-5.289,3.651-24.225,18.142-23.364,37.383c-13.029-14.2-36.666-11.057-42.987-9.899
	c-0.901,0.143-1.537,1.021-1.427,1.936C5.582,277.695,5.584,277.886,5.619,278.064z"/>
<path style="fill:#FCD462;" d="M18.41,308.944c2.678,3.31,5.841,5.381,8.534,6.687c2.924,1.402,6.165,1.711,9.288,0.994
	c9.784-2.17,21.053,0.732,26.222,2.357c0.31,0.563,2.508-0.347,2.362-0.978c2.473-4.79,8.39-14.811,16.842-20.195
	c2.715-1.701,4.82-4.225,5.865-7.271c0.981-2.827,1.753-6.528,1.306-10.762c-0.426-4.089-2.011-8.658-5.647-13.262
	c-0.569-0.725-1.607-0.91-2.378-0.36c-5.289,3.651-24.225,18.142-23.364,37.383c-13.029-14.2-36.666-11.057-42.987-9.899
	c-0.901,0.143-1.537,1.021-1.427,1.936C13.71,301.4,15.82,305.752,18.41,308.944z"/>
<path style="fill:#F6C358;" d="M18.41,308.944c2.678,3.31,5.841,5.381,8.534,6.687c2.924,1.402,6.165,1.711,9.288,0.994
	c9.784-2.17,21.053,0.732,26.222,2.357c0.31,0.563,2.508-0.347,2.362-0.978c2.473-4.79,8.39-14.811,16.842-20.195
	c2.715-1.701,4.82-4.225,5.865-7.271c0.981-2.827,1.753-6.528,1.306-10.762c-0.101-0.15-0.234-0.287-0.335-0.437
	c-0.569-0.725-1.607-0.91-2.378-0.36c-5.289,3.651-24.225,18.142-23.364,37.383c-13.029-14.2-36.666-11.057-42.987-9.899
	c-0.901,0.143-1.537,1.021-1.427,1.936C18.373,308.575,18.375,308.766,18.41,308.944z"/>
<path style="fill:#FCD462;" d="M31.201,339.824c2.678,3.31,5.841,5.381,8.534,6.687c2.924,1.402,6.165,1.711,9.288,0.994
	c9.784-2.17,21.053,0.732,26.222,2.357c0.31,0.563,2.508-0.347,2.362-0.978c2.473-4.79,8.39-14.811,16.842-20.195
	c2.715-1.701,4.82-4.225,5.865-7.271c0.981-2.827,1.753-6.528,1.306-10.762c-0.426-4.089-2.011-8.658-5.647-13.262
	c-0.569-0.725-1.607-0.91-2.378-0.36c-5.289,3.651-24.225,18.142-23.364,37.383c-13.029-14.2-36.666-11.058-42.987-9.899
	c-0.901,0.143-1.537,1.021-1.427,1.936C26.501,332.279,28.611,336.631,31.201,339.824z"/>
<path style="fill:#F6C358;" d="M31.201,339.824c2.678,3.31,5.841,5.381,8.534,6.687c2.924,1.402,6.165,1.711,9.288,0.994
	c9.784-2.17,21.053,0.732,26.222,2.357c0.31,0.563,2.508-0.347,2.362-0.978c2.473-4.79,8.39-14.811,16.842-20.195
	c2.715-1.701,4.82-4.225,5.865-7.271c0.981-2.827,1.753-6.528,1.306-10.762c-0.101-0.15-0.234-0.287-0.335-0.437
	c-0.569-0.725-1.607-0.91-2.378-0.36C93.617,313.509,74.682,328,75.542,347.24c-13.029-14.2-36.666-11.057-42.987-9.899
	c-0.901,0.143-1.537,1.021-1.427,1.936C31.164,339.455,31.166,339.646,31.201,339.824z"/>
<path style="fill:#FCD462;" d="M43.992,370.703c2.678,3.31,5.841,5.381,8.534,6.687c2.924,1.402,6.165,1.711,9.288,0.994
	c9.784-2.17,21.053,0.732,26.222,2.357c0.31,0.563,2.508-0.347,2.362-0.978c2.473-4.79,8.39-14.811,16.842-20.195
	c2.715-1.701,4.82-4.225,5.865-7.271c0.981-2.827,1.753-6.528,1.306-10.762c-0.426-4.089-2.011-8.658-5.647-13.262
	c-0.569-0.725-1.607-0.91-2.378-0.36c-5.289,3.651-24.225,18.142-23.364,37.383c-13.029-14.2-36.666-11.058-42.987-9.899
	c-0.901,0.143-1.537,1.021-1.427,1.936C39.291,363.159,41.401,367.511,43.992,370.703z"/>
<path style="fill:#F6C358;" d="M43.992,370.703c2.678,3.31,5.841,5.381,8.534,6.687c2.924,1.402,6.165,1.711,9.288,0.994
	c9.784-2.17,21.053,0.732,26.222,2.357c0.31,0.563,2.508-0.347,2.362-0.978c2.473-4.79,8.39-14.811,16.842-20.195
	c2.715-1.701,4.82-4.225,5.865-7.271c0.981-2.827,1.753-6.528,1.306-10.762c-0.101-0.15-0.234-0.287-0.335-0.437
	c-0.569-0.725-1.607-0.91-2.378-0.36c-5.289,3.651-24.225,18.142-23.364,37.383c-13.029-14.2-36.666-11.057-42.987-9.899
	c-0.901,0.143-1.537,1.021-1.427,1.936C43.954,370.335,43.957,370.526,43.992,370.703z"/>
<path style="fill:#FCD462;" d="M56.783,401.583c2.678,3.31,5.841,5.381,8.534,6.687c2.924,1.402,6.165,1.711,9.288,0.994
	c9.784-2.17,21.053,0.732,26.222,2.357c0.31,0.563,2.508-0.347,2.362-0.978c2.473-4.79,8.39-14.811,16.842-20.195
	c2.715-1.701,4.82-4.225,5.865-7.271c0.981-2.827,1.753-6.529,1.306-10.762c-0.426-4.089-2.011-8.658-5.647-13.262
	c-0.569-0.725-1.607-0.91-2.378-0.36c-5.289,3.651-24.225,18.142-23.364,37.383c-13.029-14.2-36.666-11.057-42.987-9.899
	c-0.901,0.143-1.537,1.021-1.427,1.936C52.082,394.039,54.192,398.391,56.783,401.583z"/>
<path style="fill:#F6C358;" d="M56.783,401.583c2.678,3.31,5.841,5.381,8.534,6.687c2.924,1.402,6.165,1.711,9.288,0.994
	c9.784-2.17,21.053,0.732,26.222,2.357c0.31,0.563,2.508-0.347,2.362-0.978c2.473-4.79,8.39-14.811,16.842-20.195
	c2.715-1.701,4.82-4.225,5.865-7.271c0.981-2.827,1.753-6.529,1.306-10.762c-0.101-0.15-0.234-0.287-0.335-0.437
	c-0.569-0.725-1.607-0.91-2.378-0.36c-5.289,3.651-24.225,18.142-23.364,37.383c-13.029-14.2-36.666-11.058-42.987-9.899
	c-0.901,0.143-1.537,1.021-1.427,1.936C56.745,401.214,56.748,401.405,56.783,401.583z"/>
<path style="fill:#FCD462;" d="M69.573,432.463c2.678,3.31,5.841,5.381,8.534,6.687c2.924,1.402,6.165,1.711,9.288,0.994
	c9.784-2.17,21.053,0.732,26.222,2.357c0.31,0.563,2.508-0.347,2.362-0.978c2.473-4.79,8.39-14.811,16.842-20.195
	c2.715-1.701,4.82-4.225,5.865-7.271c0.981-2.827,1.753-6.528,1.306-10.762c-0.426-4.089-2.011-8.658-5.647-13.262
	c-0.569-0.725-1.607-0.91-2.378-0.36c-5.289,3.651-24.225,18.142-23.364,37.383c-13.029-14.2-36.666-11.057-42.987-9.899
	c-0.901,0.143-1.537,1.021-1.427,1.936C64.873,424.919,66.983,429.271,69.573,432.463z"/>
<path style="fill:#F6C358;" d="M69.573,432.463c2.678,3.31,5.841,5.381,8.534,6.687c2.924,1.402,6.165,1.711,9.288,0.994
	c9.784-2.17,21.053,0.732,26.222,2.357c0.31,0.563,2.508-0.347,2.362-0.978c2.473-4.79,8.39-14.811,16.842-20.195
	c2.715-1.701,4.82-4.225,5.865-7.271c0.981-2.827,1.753-6.528,1.306-10.762c-0.101-0.15-0.234-0.287-0.335-0.437
	c-0.569-0.725-1.607-0.91-2.378-0.36c-5.289,3.651-24.225,18.142-23.364,37.383c-13.029-14.2-36.666-11.058-42.987-9.899
	c-0.901,0.143-1.537,1.021-1.427,1.936C69.536,432.094,69.538,432.285,69.573,432.463z"/>
<path style="fill:#FCD462;" d="M20.401,214.265l0.072-0.03c0,0,21.595,1.814,28.438,15.59c1.681,3.384,1.4,7.47-0.685,10.621
	c-3.196,4.827-8.081,13.565-7.474,21.097l-1.239,0.513c-4.897-5.755-14.53-8.48-20.202-9.633c-3.703-0.753-6.79-3.444-7.994-7.025
	C6.414,230.818,20.401,214.265,20.401,214.265z"/>
<path style="fill:#F6C358;" d="M23.646,220.712l13.177,31.813C36.823,252.525,39.626,230.876,23.646,220.712z"/>
<g>
</g>
<g>
</g>
<g>
</g>
<g>
</g>
<g>
</g>
<g>
</g>
<g>
</g>
<g>
</g>
<g>
</g>
<g>
</g>
<g>
</g>
<g>
</g>
<g>
</g>
<g>
</g>
<g>
</g>
</svg>
