<?xml version="1.0" encoding="iso-8859-1"?>
<!-- Generator: Adobe Illustrator 19.0.0, SVG Export Plug-In . SVG Version: 6.00 Build 0)  -->
<svg version="1.1" id="Capa_1" xmlns="http://www.w3.org/2000/svg" xmlns:xlink="http://www.w3.org/1999/xlink" x="0px" y="0px"
	 viewBox="0 0 468.293 468.293" style="enable-background:new 0 0 468.293 468.293;" xml:space="preserve">
<path style="fill:#E56353;" d="M314.048,134.177l-16.005,91.435l-1.994,11.076l-16.227,92.542l-1.938,11.076l-19.107,109.101
	c-0.997,5.428-3.821,10.19-7.809,13.513c-4.043,3.378-9.138,5.372-14.731,5.372c-11.076,0-20.602-7.975-22.485-18.885l-1.828-10.301
	l-1.938-11.076l-42.755-244.066l-1.938-11.076l-6.812-38.712c-4.818-27.469,16.282-52.668,44.194-52.668h67.178
	C297.711,81.509,318.866,106.707,314.048,134.177z"/>
<g>
	<path style="fill:#CE412D;" d="M236.253,183.967h-24.838c-3.058,0-5.538-2.48-5.538-5.538c0-3.058,2.48-5.538,5.538-5.538h24.838
		c3.058,0,5.538,2.48,5.538,5.538C241.791,181.487,239.311,183.967,236.253,183.967z"/>
	<path style="fill:#CE412D;" d="M191.6,178.426c0,3.046-2.492,5.538-5.538,5.538h-18.83l-1.938-11.076h20.768
		C189.108,172.888,191.6,175.38,191.6,178.426z"/>
	<path style="fill:#CE412D;" d="M287.483,136.152h-49.467c-3.058,0-5.538-2.48-5.538-5.538c0-3.058,2.48-5.538,5.538-5.538h49.467
		c3.058,0,5.538,2.48,5.538,5.538C293.022,133.672,290.542,136.152,287.483,136.152z"/>
	<path style="fill:#CE412D;" d="M298.043,225.611l-1.994,11.076h-11.021c-3.046,0-5.538-2.492-5.538-5.538s2.492-5.538,5.538-5.538
		H298.043z"/>
	<path style="fill:#CE412D;" d="M250.069,236.688h-26.049c-3.058,0-5.538-2.48-5.538-5.538c0-3.058,2.48-5.538,5.538-5.538h26.049
		c3.058,0,5.538,2.48,5.538,5.538C255.607,234.208,253.127,236.688,250.069,236.688z"/>
	<path style="fill:#CE412D;" d="M242.646,300.511h-33.507c-3.058,0-5.538-2.48-5.538-5.538s2.48-5.538,5.538-5.538h33.507
		c3.058,0,5.538,2.48,5.538,5.538S245.704,300.511,242.646,300.511z"/>
	<path style="fill:#CE412D;" d="M279.823,329.23l-1.938,11.076h-25.919c-3.101,0-5.538-2.492-5.538-5.538
		c0-3.046,2.437-5.538,5.538-5.538H279.823z"/>
	<path style="fill:#CE412D;" d="M236.253,376.217h-18.605c-3.058,0-5.538-2.48-5.538-5.538s2.48-5.538,5.538-5.538h18.605
		c3.058,0,5.538,2.48,5.538,5.538S239.311,376.217,236.253,376.217z"/>
	<path style="fill:#CE412D;" d="M237.677,433.568c0,3.046-2.492,5.538-5.538,5.538h-20.214l-1.938-11.076h22.153
		C235.185,428.03,237.677,430.467,237.677,433.568z"/>
</g>
<g>
	<path style="fill:#44C4A1;" d="M235.066,81.509L235.066,81.509c-45.016,0-81.509-36.493-81.509-81.509
		C198.574,0,235.066,36.493,235.066,81.509z"/>
	<path style="fill:#44C4A1;" d="M235.19,81.509L235.19,81.509c29.408,0,53.248-23.84,53.248-53.248
		C259.03,28.261,235.19,52.101,235.19,81.509z"/>
</g>
<path style="fill:#D15241;" d="M261.159,81.897c0,4.652-11.132,8.473-24.922,8.473c-13.734,0-24.866-3.821-24.866-8.473
	c0-0.111,0-0.277,0.055-0.388h49.677C261.159,81.62,261.159,81.786,261.159,81.897z"/>
<g>
	<path style="fill:#3EA69B;" d="M167.47,14.143l58.864,62.493C226.335,76.636,192.468,20.594,167.47,14.143z"/>
	<path style="fill:#3EA69B;" d="M281.382,34.896c0,0-34.847,35.183-39.862,40.198C241.52,75.094,275.965,51.717,281.382,34.896z"/>
</g>
<g>
</g>
<g>
</g>
<g>
</g>
<g>
</g>
<g>
</g>
<g>
</g>
<g>
</g>
<g>
</g>
<g>
</g>
<g>
</g>
<g>
</g>
<g>
</g>
<g>
</g>
<g>
</g>
<g>
</g>
</svg>
