<?xml version="1.0" encoding="iso-8859-1"?>
<!-- Generator: Adobe Illustrator 19.0.0, SVG Export Plug-In . SVG Version: 6.00 Build 0)  -->
<svg version="1.1" id="Capa_1" xmlns="http://www.w3.org/2000/svg" xmlns:xlink="http://www.w3.org/1999/xlink" x="0px" y="0px"
	 viewBox="0 0 468.292 468.292" style="enable-background:new 0 0 468.292 468.292;" xml:space="preserve">
<path style="fill:#44C4A1;" d="M425.441,196.808l-10.615,0.562l-153.912,7.805l5.619-64c0,0,2.623-2.435,7.306-6.181
	c0.125-0.125,0.25-0.25,0.375-0.312c10.49-8.117,30.907-21.916,56.32-28.597c15.86-4.183,32.531-5.058,48.39-0.874
	C408.395,113.078,445.109,135.119,425.441,196.808z"/>
<path style="fill:#3EA69B;" d="M414.826,197.371l-153.912,7.805l5.619-64c0,0,2.623-2.435,7.306-6.181
	c0.125-0.125,0.25-0.25,0.375-0.312c11.114-7.118,26.037-14.861,43.27-19.419c15.859-4.183,32.531-5.12,48.39-0.874
	C393.909,121.882,428.563,142.237,414.826,197.371z"/>
<path style="fill:#44C4A1;" d="M243.618,131.06l-3.247,9.491L224.7,186.818L79.966,142.736l-17.046-5.183
	c0,0,7.118-44.706,53.261-54.821c17.108-3.809,34.903-1.062,50.95,5.932C186.112,96.969,219.392,130.186,243.618,131.06z"/>
<path style="fill:#3EA69B;" d="M240.372,140.551L224.7,186.818L79.966,142.736c4.808-13.612,17.857-38.338,50.7-45.58
	c17.108-3.747,34.903-0.999,50.95,5.994C196.29,109.581,219.455,130.811,240.372,140.551z"/>
<path style="fill:#44C4A1;" d="M382.92,420.403c-14.423,22.665-41.022,34.217-65.748,29.971
	c-8.742-1.498-17.233-4.933-24.851-10.552c-8.741-6.494-16.047-15.485-19.793-27.91l11.551-240.64c0,0,25.412-28.535,63.75-33.093
	c17.795-2.123,38.338,0.936,60.378,14.361c18.482,11.301,31.594,29.908,35.902,51.138
	C451.853,242.015,450.541,314.381,382.92,420.403z"/>
<path style="fill:#31978C;" d="M362.378,420.403c-10.49,16.421-27.348,27.036-45.206,29.971
	c-8.742-1.498-17.233-4.933-24.851-10.552c-8.741-6.494-16.047-15.485-19.793-27.91l11.551-240.64c0,0,25.412-28.535,63.75-33.093
	c12.425,1.498,25.85,5.807,39.836,14.361c18.545,11.301,31.594,29.908,35.902,51.138
	C431.373,242.015,429.999,314.381,362.378,420.403z"/>
<path style="fill:#44C4A1;" d="M195.728,385.125c-3.684,12.425-10.989,21.417-19.793,27.91c-7.43,5.495-15.61,8.867-24.102,10.365
	c-24.913,4.683-51.824-6.931-66.435-29.784C17.777,287.595,16.403,215.291,24.208,176.89c4.308-21.229,17.358-39.836,35.902-51.137
	c22.416-13.674,43.271-16.609,61.253-14.299c37.838,4.933,62.876,33.03,62.876,33.03L195.728,385.125z"/>
<path style="fill:#31978C;" d="M195.728,385.125c-3.684,12.425-10.989,21.417-19.793,27.91c-7.43,5.495-15.61,8.867-24.102,10.365
	c-17.545-3.122-34.029-13.612-44.332-29.784C39.88,287.595,38.506,215.291,46.311,176.89c4.308-21.229,17.358-39.836,35.902-51.137
	c13.737-8.367,26.911-12.738,39.149-14.299c37.838,4.933,62.876,33.03,62.876,33.03L195.728,385.125z"/>
<path style="fill:#44C4A1;" d="M339.508,53.011c-1.311,2.435-3.747,3.934-6.619,3.934c-1.936,0-3.934-0.749-5.495-2.123
	c-6.618-5.744-13.55-8.617-20.543-8.617c-8.617,0-16.858,4.308-24.601,12.738c-10.177,11.239-16.109,26.599-16.671,43.27
	c-1.124,32.406,2.935,50.7,7.056,60.753h-54.385c14.299-24.289,19.356-70.806,19.981-76.987C239.73,28.784,259.398,0,296.862,0
	c5.869,0,12.051,0.749,18.42,2.185c10.552,2.373,19.106,8.117,24.101,15.984c0.687,1.061,1.311,2.186,1.873,3.309
	C345.939,31.407,345.377,42.021,339.508,53.011z"/>
<path style="fill:#3EA69B;" d="M339.508,53.011c-1.311,2.435-3.747,3.934-6.619,3.934c-1.936,0-3.934-0.749-5.495-2.123
	c-6.618-5.744-13.55-8.617-20.543-8.617c-8.617,0-16.858,4.308-24.601,12.738c-10.177,11.239-16.109,26.599-16.671,43.27
	c-1.124,32.406,2.935,50.7,7.056,60.753h-41.147c10.864-25.288,14.86-62.314,15.422-67.871c1.498-57.194,21.167-85.979,58.63-85.979
	c5.869,0,12.051,0.749,18.42,2.186c5.869,1.311,11.051,3.684,15.422,6.868c0.687,1.061,1.311,2.186,1.873,3.309
	C345.939,31.407,345.377,42.021,339.508,53.011z"/>
<path style="fill:#31978C;" d="M316.922,229.651c-0.437,67.434-7.805,226.154-68.87,237.893c-3.747,0.812-7.742,0.936-11.926,0.499
	c0,0-82.295,9.74-111.453-101.526c0,0-42.271-86.79-8.804-182.26c11.301-32.281,42.271-53.698,76.425-52.386
	c4.058,0.125,8.179,0.437,12.488,0.936c27.41,2.872,59.255,12.675,87.04,38.088C308.243,185.882,317.047,207.423,316.922,229.651z"
	/>
<path style="fill:#3EA69B;" d="M316.905,229.651c-0.437,67.434-7.805,226.154-68.87,237.893c-3.372-0.437-7.18-1.062-11.301-2.123
	c-26.662-6.744-66.185-28.722-84.605-98.903c0,0-42.271-86.79-8.804-182.26c8.742-25.038,29.346-43.52,54.135-49.889
	c2.373-0.687,4.808-1.186,7.305-1.561c27.411,2.872,59.255,12.675,87.04,38.088C308.226,185.881,317.029,207.422,316.905,229.651z"
	/>
<path style="fill:#44C4A1;" d="M298.485,229.651c-0.437,64.687-7.243,213.479-61.752,235.77
	c-26.662-6.744-66.185-28.722-84.605-98.903c0,0-42.271-86.79-8.804-182.26c8.742-25.038,29.346-43.52,54.135-49.889
	c24.663,4.184,51.824,14.486,75.926,36.527C289.806,185.881,298.61,207.422,298.485,229.651z"/>
<g>
</g>
<g>
</g>
<g>
</g>
<g>
</g>
<g>
</g>
<g>
</g>
<g>
</g>
<g>
</g>
<g>
</g>
<g>
</g>
<g>
</g>
<g>
</g>
<g>
</g>
<g>
</g>
<g>
</g>
</svg>
