<?xml version="1.0" encoding="iso-8859-1"?>
<!-- Generator: Adobe Illustrator 19.0.0, SVG Export Plug-In . SVG Version: 6.00 Build 0)  -->
<svg version="1.1" id="Capa_1" xmlns="http://www.w3.org/2000/svg" xmlns:xlink="http://www.w3.org/1999/xlink" x="0px" y="0px"
	 viewBox="0 0 468.293 468.293" style="enable-background:new 0 0 468.293 468.293;" xml:space="preserve">
<path style="fill:#2D93BA;" d="M41.191,425.926c-2.056-2.056-4.024-4.201-5.901-6.258c-60.799-67.415-48.46-159.866,79.754-197.239
	c132.149-38.625,179-149.494,179-149.494s84.582,3.219,121.508,31.383c12.07,9.031,19.044,20.833,16.451,35.943
	c-10.639,61.604-99.335,169.969-143.235,230.321C244.779,430.844,111.021,496.472,41.191,425.926z"/>
<path style="fill:#27A2DB;" d="M35.29,419.668c-60.799-67.415-48.46-159.866,79.754-197.239c132.149-38.625,179-149.494,179-149.494
	s84.582,3.219,121.508,31.383c5.186,7.153,7.6,15.468,5.901,25.393c-10.64,61.603-99.335,169.969-143.235,230.321
	C235.301,419.042,106.193,483.06,35.29,419.668z"/>
<path style="fill:#2D93BA;" d="M61.606,406.176l-0.205-0.205c-26.587-26.797-37.864-57.492-30.962-84.241
	c8.112-31.407,41.003-56.999,92.588-72.052c5.034-1.48,10.325,1.401,11.757,6.448c1.476,5.021-1.41,10.29-6.439,11.757
	c-44.919,13.11-73.165,33.917-79.544,58.588c-5.191,20.113,4.305,44.207,26.037,66.115c3.68,3.715,3.768,9.81,0.057,13.503
	C71.198,409.778,65.304,409.874,61.606,406.176z"/>
<path style="fill:#44C4A1;" d="M413.496,189.347c-20.654-18.329-18.687-60.174-18.687-60.174
	c-32.099,32.099-51.858,25.751-51.858,25.751c-14.753-34.96,5.543-58.654,5.543-58.654c-11.266-36.3-64.911-3.576-64.911-3.576
	C305.22,23.67,387.03,47.542,392.215,49.152c0.089,0.089,0.089,0.089,0.089,0.089c0.179,0,0.179,0,0.179,0l29.505-29.505
	c10.64-10.64,27.717-10.55,38.357,0.09c10.55,10.55,10.639,27.628-0.001,38.267l-29.505,29.505c0,0,0,0,0.089,0.089
	C460.972,149.023,413.496,189.347,413.496,189.347z"/>
<path style="fill:#3EA69B;" d="M460.346,58.093l-29.505,29.505c-7.421-4.739-14.663-10.55-21.458-17.346
	c-6.616-6.616-12.339-13.77-17.078-21.011c0.179,0,0.179,0,0.179,0l29.505-29.505c10.64-10.64,27.717-10.55,38.357,0.09
	C470.897,30.376,470.986,47.453,460.346,58.093z"/>
<g>
</g>
<g>
</g>
<g>
</g>
<g>
</g>
<g>
</g>
<g>
</g>
<g>
</g>
<g>
</g>
<g>
</g>
<g>
</g>
<g>
</g>
<g>
</g>
<g>
</g>
<g>
</g>
<g>
</g>
</svg>
