<?xml version="1.0" encoding="iso-8859-1"?>
<!-- Generator: Adobe Illustrator 19.0.0, SVG Export Plug-In . SVG Version: 6.00 Build 0)  -->
<svg version="1.1" id="Capa_1" xmlns="http://www.w3.org/2000/svg" xmlns:xlink="http://www.w3.org/1999/xlink" x="0px" y="0px"
	 viewBox="0 0 468.312 468.312" style="enable-background:new 0 0 468.312 468.312;" xml:space="preserve">
<path style="fill:#F6C358;" d="M321.298,290.822c-1.406,1.777-2.891,3.399-4.565,4.882c-61.123,54.15-191.098,57.394-261.414,15.981
	C17.256,289.227,8.95,266.136,9.454,249.583c4.65,13.899,16.722,29.968,43.38,45.723c70.316,41.413,200.291,38.169,261.414-15.981
	c1.674-1.482,3.159-3.104,4.565-4.882c5.925-7.517,20.046-28.006,15.787-47.243c-0.651-3.001-0.037-6.138,1.855-8.575
	c3.645-4.686,9.884-11.972,15.375-14.62c3.717-1.821,6.752-4.823,8.219-8.592c3.487,4.945,3.943,9.79,3.189,13.842
	c-0.871,4.935-4.428,8.91-8.923,11.128c-5.49,2.648-11.73,9.934-15.375,14.62c-1.892,2.437-2.506,5.574-1.855,8.575
	C341.344,262.816,327.222,283.305,321.298,290.822z"/>
<path style="fill:#FCD462;" d="M318.813,274.444c-1.406,1.777-2.891,3.399-4.565,4.882c-61.123,54.15-191.098,57.394-261.414,15.981
	c-26.657-15.755-38.73-31.823-43.38-45.723c0.11-4.429,0.857-8.34,1.804-11.667c1.965-6.748,9.455-10.203,15.775-7.196
	c151.089,72.051,277.828-3.503,277.828-3.503c24.934-11.798,47.878-38.931,47.878-38.931c3.284,2.322,5.632,4.73,7.277,7.105
	l0.031,0.023c-1.467,3.769-4.502,6.771-8.219,8.592c-5.49,2.648-11.73,9.934-15.375,14.62c-1.892,2.437-2.506,5.574-1.855,8.575
	C338.859,246.438,324.738,266.927,318.813,274.444z"/>
<g>
	<path style="fill:#F6C358;" d="M456.357,187.816c-0.124,3.622-0.498,7.118-1.248,10.615
		c-27.348,127.688-191.625,255.126-321.436,268.488c-70.306,7.181-102.899-14.673-117.947-36.464
		c19.168,13.487,49.951,22.728,99.216,17.732c129.811-13.362,294.088-140.8,321.436-268.488c0.75-3.497,1.124-6.993,1.248-10.615
		c0.5-15.297-0.748-55.071-24.476-75.801c-3.684-3.247-5.869-7.867-5.744-12.8c0.249-9.491,1.373-24.788,5.931-33.405
		c3.059-5.869,4.12-12.613,2.434-18.857c9.179,3.06,14.361,8.867,17.233,14.798c3.559,7.18,2.748,15.672-0.936,22.79
		c-4.558,8.617-5.682,23.914-5.931,33.405c-0.125,4.933,2.059,9.553,5.744,12.8C455.609,132.745,456.857,172.519,456.357,187.816z"
		/>
	<path style="fill:#F6C358;" d="M416.522,33.093c-3.184-0.624-6.681-0.937-10.677-0.874c0,0-3.809,56.695-24.726,95.532
		c0,0-91.536,217.475-354.404,267.989c-10.989,2.123-17.357,13.674-13.487,24.226c1.498,4.058,3.497,8.429,6.306,12.987
		c-1.311-0.812-2.559-1.623-3.809-2.497c-4.059-5.807-6.806-11.551-8.742-16.734c-3.87-10.552,2.498-22.104,13.487-24.226
		c262.868-50.513,354.404-267.989,354.404-267.989c20.917-38.837,24.726-95.532,24.726-95.532
		c6.431-0.125,11.738,0.749,16.108,2.248h0.063C416.209,29.783,416.459,31.469,416.522,33.093z"/>
</g>
<path style="fill:#FCD462;" d="M437.625,169.085c-0.124,3.622-0.498,7.118-1.248,10.615
	c-27.348,127.688-191.625,255.126-321.436,268.488c-46.143,4.683-76.05-3.122-95.407-15.235c-2.809-4.558-4.808-8.929-6.306-12.987
	c-3.87-10.552,2.498-22.104,13.487-24.226C289.583,345.225,381.119,127.75,381.119,127.75
	c20.917-38.837,24.726-95.532,24.726-95.532c3.995-0.063,7.492,0.25,10.677,0.874c0.25,4.745-0.937,9.615-3.184,13.986
	c-4.558,8.617-5.682,23.914-5.931,33.405c-0.125,4.933,2.059,9.553,5.744,12.8C436.877,114.014,438.125,153.787,437.625,169.085z"/>
<path style="fill:#64798A;" d="M409.082,0.022l37.709,2.463c3.048,0.199,5.876,1.677,7.68,4.142
	c3.628,4.957,8.769,14.736,7.898,29.609c-0.196,3.353-1.889,6.43-4.668,8.317c-6.424,4.364-19.537,10.999-33.843,5.109
	l-27.45-12.745c-3.793-1.761-6.237-5.606-6.054-9.783c0.313-7.123,2.439-18.013,11.622-24.978
	C404.004,0.618,406.542-0.144,409.082,0.022z"/>
<g>
</g>
<g>
</g>
<g>
</g>
<g>
</g>
<g>
</g>
<g>
</g>
<g>
</g>
<g>
</g>
<g>
</g>
<g>
</g>
<g>
</g>
<g>
</g>
<g>
</g>
<g>
</g>
<g>
</g>
</svg>
