<?xml version="1.0" encoding="iso-8859-1"?>
<!-- Generator: Adobe Illustrator 19.0.0, SVG Export Plug-In . SVG Version: 6.00 Build 0)  -->
<svg version="1.1" id="Capa_1" xmlns="http://www.w3.org/2000/svg" xmlns:xlink="http://www.w3.org/1999/xlink" x="0px" y="0px"
	 viewBox="0 0 468.308 468.308" style="enable-background:new 0 0 468.308 468.308;" xml:space="preserve">
<path style="fill:#64798A;" d="M256.644,3.186c-7.117,14.2-23.297,50.269-27.002,91.213h8.82
	c8.256-28.877,21.924-52.771,46.544-66.577c3.53-1.979,4.005-6.856,0.898-9.45l-20.38-17.016
	C262.655-1.04,258.32-0.157,256.644,3.186z"/>
<path style="fill:#E56353;" d="M445.573,233.217c0,90.474-63.126,235.083-140.925,235.083c-20.043,0-38.962-4.87-56.133-13.549
	c-4.558-2.31-9.428-3.434-14.361-3.434c-4.933,0-9.74,1.124-14.361,3.434c-17.171,8.679-36.09,13.549-56.133,13.549
	c-77.799,0-140.925-144.609-140.925-235.083c0-90.474,63.126-163.777,140.925-163.777c20.043,0,38.962,4.808,56.133,13.549
	c4.62,2.31,9.428,3.434,14.361,3.434c4.933,0,9.803-1.124,14.361-3.434c17.171-8.741,36.09-13.549,56.133-13.549
	C382.447,69.44,445.573,142.743,445.573,233.217z"/>
<path style="fill:#D15241;" d="M234.123,86.431v364.893c-4.87,0-9.74,1.124-14.299,3.434c-17.171,8.679-36.152,13.549-56.133,13.549
	c-77.799,0-140.925-144.609-140.925-235.083c0-90.474,63.126-163.777,140.925-163.777c19.981,0,38.962,4.808,56.133,13.549
	C224.383,85.307,229.253,86.431,234.123,86.431z"/>
<path style="fill:#EBF0F3;" d="M416.539,232.218c0,81.733-59.005,207.11-110.018,207.11c-14.486,0-28.597-3.434-41.959-10.178
	c-9.366-4.745-19.918-7.305-30.408-7.305c-10.49,0-21.042,2.56-30.408,7.305c-13.362,6.744-27.473,10.178-42.021,10.178
	c-50.95,0-110.018-125.377-110.018-207.11c0-73.803,49.389-133.869,110.018-133.869c14.548,0,28.659,3.434,42.021,10.24
	c9.366,4.808,19.918,7.243,30.408,7.243c10.49,0,21.042-2.435,30.408-7.243c13.362-6.806,27.473-10.24,41.959-10.24
	C367.212,98.349,416.539,158.416,416.539,232.218z"/>
<path style="fill:#E1E6E9;" d="M234.125,115.856v305.982c-10.481,0-21.02,2.548-30.401,7.296
	c-13.319,6.775-27.448,10.192-41.983,10.192c-50.959,0-110.024-125.369-110.024-207.134c0-73.774,49.395-133.824,110.024-133.824
	c14.534,0,28.664,3.417,41.983,10.192C213.105,113.366,223.644,115.856,234.125,115.856z"/>
<g>
	<path style="fill:#64798A;" d="M270.105,233.666c7.333-7.332,19.221-7.332,26.554,0s7.332,19.221,0,26.553
		s-40.947,14.393-40.947,14.393S262.772,240.999,270.105,233.666z"/>
	<path style="fill:#64798A;" d="M198.194,233.666c-7.333-7.332-19.221-7.332-26.554,0c-7.332,7.332-7.332,19.221,0,26.553
		c7.333,7.332,40.947,14.393,40.947,14.393S205.526,240.999,198.194,233.666z"/>
</g>
<g>
</g>
<g>
</g>
<g>
</g>
<g>
</g>
<g>
</g>
<g>
</g>
<g>
</g>
<g>
</g>
<g>
</g>
<g>
</g>
<g>
</g>
<g>
</g>
<g>
</g>
<g>
</g>
<g>
</g>
</svg>
