<?xml version="1.0" encoding="iso-8859-1"?>
<!-- Generator: Adobe Illustrator 19.0.0, SVG Export Plug-In . SVG Version: 6.00 Build 0)  -->
<svg version="1.1" id="Capa_1" xmlns="http://www.w3.org/2000/svg" xmlns:xlink="http://www.w3.org/1999/xlink" x="0px" y="0px"
	 viewBox="0 0 468.293 468.293" style="enable-background:new 0 0 468.293 468.293;" xml:space="preserve">
<path style="fill:#64798A;" d="M231.759,395.971c2.015,24.314,4.594,48.812,9,72.322h19.879
	c-17.887-15.515-19.118-49.12-19.911-73.691c-0.875-33.444-1.396-66.909-1.189-100.427c-0.198-33.513,0.475-67.052,0.638-100.696
	c0.375-16.8,0.462-33.652,0.606-50.529c0.194-16.873-4.617-33.763-4.906-50.788c-2.268,16.557,1.024,33.251-0.76,49.96
	c-1.479,16.758-2.807,33.57-3.961,50.418c-1.004,16.873-1.748,33.786-2.392,50.723c-0.38,16.96-0.84,33.917-0.802,50.915
	c0.017,16.984,0.354,33.986,0.852,50.969C229.612,362.115,230.265,379.099,231.759,395.971z"/>
<path style="fill:#F6C358;" d="M272.151,169.811c-4.786,4.556-11.55,6.35-17.993,4.648c-8.145-2.163-18.177-7.363-19.742-19.834
	c-0.506-3.405-0.322-7.409,0.736-12.056c3.727-21.491,20.34-28.531,28.393-30.74c6.304-1.703,12.471-4.004,18.038-7.409
	c10.538-6.581,17.211-14.496,20.018-18.269c1.058-1.381,1.564-2.209,1.564-2.209S304.363,139.071,272.151,169.811z"/>
<path style="fill:#FCD462;" d="M301.602,86.151c-0.921,16.106-5.844,54.484-30.786,78.276c-4.831,4.602-11.55,6.35-17.993,4.647
	c-6.811-1.795-15.048-5.752-18.407-14.45c-0.506-3.405-0.322-7.409,0.736-12.056c3.727-21.491,20.34-28.531,28.393-30.74
	c6.304-1.703,12.471-4.004,18.038-7.409C292.122,97.839,298.794,89.924,301.602,86.151z"/>
<path style="fill:#DC8744;" d="M295.784,102.294c0,0-35.391,52.834-50.184,54.419C245.6,156.713,283.097,122.107,295.784,102.294z"
	/>
<path style="fill:#F6C358;" d="M260.462,82.649c-0.163,6.606-3.677,12.658-9.437,16.009c-7.289,4.23-18.059,7.646-27.984-0.065
	c-2.765-2.05-5.466-5.011-8.004-9.045c-12.561-17.832-5.792-34.557-1.659-41.813c3.254-5.662,5.987-11.649,7.516-17.994
	c2.798-12.105,1.92-22.419,1.237-27.073C221.905,0.944,221.677,0,221.677,0S261.504,38.136,260.462,82.649z"/>
<path style="fill:#FCD462;" d="M222.133,2.668c10.737,12.04,34.393,42.658,33.579,77.117c-0.163,6.67-3.677,12.657-9.437,16.009
	c-6.085,3.547-14.708,6.573-23.233,2.798c-2.765-2.05-5.466-5.011-8.004-9.045c-12.561-17.832-5.792-34.557-1.659-41.813
	c3.254-5.662,5.987-11.649,7.516-17.994C223.694,17.636,222.815,7.322,222.133,2.668z"/>
<path style="fill:#DC8744;" d="M229.434,18.197c0,0,12.333,62.384,2.993,73.965C232.427,92.162,234.471,41.178,229.434,18.197z"/>
<path style="fill:#F6C358;" d="M196.142,169.811c4.786,4.556,11.55,6.35,17.993,4.648c8.145-2.163,18.177-7.363,19.742-19.834
	c0.506-3.405,0.322-7.409-0.736-12.056c-3.727-21.491-20.34-28.531-28.393-30.74c-6.304-1.703-12.471-4.004-18.038-7.409
	c-10.538-6.581-17.211-14.496-20.018-18.269c-1.058-1.381-1.564-2.209-1.564-2.209S163.93,139.071,196.142,169.811z"/>
<path style="fill:#FCD462;" d="M166.691,86.151c0.921,16.106,5.844,54.484,30.786,78.276c4.831,4.602,11.55,6.35,17.993,4.647
	c6.811-1.795,15.048-5.752,18.407-14.45c0.506-3.405,0.322-7.409-0.736-12.056c-3.727-21.491-20.34-28.531-28.393-30.74
	c-6.304-1.703-12.471-4.004-18.038-7.409C176.171,97.839,169.498,89.924,166.691,86.151z"/>
<path style="fill:#DC8744;" d="M172.508,102.294c0,0,35.391,52.834,50.184,54.419C222.693,156.713,185.196,122.107,172.508,102.294z
	"/>
<path style="fill:#F6C358;" d="M272.151,251.252c-4.786,4.556-11.55,6.35-17.993,4.648c-8.145-2.163-18.177-7.363-19.742-19.834
	c-0.506-3.405-0.322-7.409,0.736-12.056c3.727-21.491,20.34-28.531,28.393-30.74c6.304-1.703,12.471-4.004,18.038-7.409
	c10.538-6.581,17.211-14.496,20.018-18.269c1.058-1.381,1.564-2.209,1.564-2.209S304.363,220.513,272.151,251.252z"/>
<path style="fill:#FCD462;" d="M301.602,167.593c-0.921,16.106-5.844,54.484-30.786,78.276c-4.831,4.602-11.55,6.35-17.993,4.647
	c-6.811-1.795-15.048-5.752-18.407-14.45c-0.506-3.405-0.322-7.409,0.736-12.056c3.727-21.491,20.34-28.531,28.393-30.74
	c6.304-1.703,12.471-4.004,18.038-7.409C292.122,179.281,298.794,171.366,301.602,167.593z"/>
<path style="fill:#DC8744;" d="M295.784,183.736c0,0-35.391,52.834-50.184,54.419C245.6,238.154,283.097,203.548,295.784,183.736z"
	/>
<path style="fill:#F6C358;" d="M196.142,251.252c4.786,4.556,11.55,6.35,17.993,4.648c8.145-2.163,18.177-7.363,19.742-19.834
	c0.506-3.405,0.322-7.409-0.736-12.056c-3.727-21.491-20.34-28.531-28.393-30.74c-6.304-1.703-12.471-4.004-18.038-7.409
	c-10.538-6.581-17.211-14.496-20.018-18.269c-1.058-1.381-1.564-2.209-1.564-2.209S163.93,220.513,196.142,251.252z"/>
<path style="fill:#FCD462;" d="M166.691,167.593c0.921,16.106,5.844,54.484,30.786,78.276c4.831,4.602,11.55,6.35,17.993,4.647
	c6.811-1.795,15.048-5.752,18.407-14.45c0.506-3.405,0.322-7.409-0.736-12.056c-3.727-21.491-20.34-28.531-28.393-30.74
	c-6.304-1.703-12.471-4.004-18.038-7.409C176.171,179.281,169.498,171.366,166.691,167.593z"/>
<path style="fill:#DC8744;" d="M172.508,183.736c0,0,35.391,52.834,50.184,54.419C222.693,238.154,185.196,203.548,172.508,183.736z
	"/>
<path style="fill:#F6C358;" d="M272.151,332.694c-4.786,4.556-11.55,6.35-17.993,4.648c-8.145-2.163-18.177-7.363-19.742-19.834
	c-0.506-3.405-0.322-7.409,0.736-12.056c3.727-21.491,20.34-28.531,28.393-30.74c6.304-1.703,12.471-4.004,18.038-7.409
	c10.538-6.581,17.211-14.496,20.018-18.269c1.058-1.381,1.564-2.209,1.564-2.209S304.363,301.954,272.151,332.694z"/>
<path style="fill:#FCD462;" d="M301.602,249.034c-0.921,16.106-5.844,54.484-30.786,78.276c-4.831,4.602-11.55,6.35-17.993,4.647
	c-6.811-1.795-15.048-5.752-18.407-14.45c-0.506-3.405-0.322-7.409,0.736-12.056c3.727-21.491,20.34-28.531,28.393-30.74
	c6.304-1.703,12.471-4.004,18.038-7.409C292.122,260.722,298.794,252.807,301.602,249.034z"/>
<path style="fill:#DC8744;" d="M295.784,265.177c0,0-35.391,52.834-50.184,54.419C245.6,319.596,283.097,284.99,295.784,265.177z"/>
<path style="fill:#F6C358;" d="M196.142,332.694c4.786,4.556,11.55,6.35,17.993,4.648c8.145-2.163,18.177-7.363,19.742-19.834
	c0.506-3.405,0.322-7.409-0.736-12.056c-3.727-21.491-20.34-28.531-28.393-30.74c-6.304-1.703-12.471-4.004-18.038-7.409
	c-10.538-6.581-17.211-14.496-20.018-18.269c-1.058-1.381-1.564-2.209-1.564-2.209S163.93,301.954,196.142,332.694z"/>
<path style="fill:#FCD462;" d="M166.691,249.034c0.921,16.106,5.844,54.484,30.786,78.276c4.831,4.602,11.55,6.35,17.993,4.647
	c6.811-1.795,15.048-5.752,18.407-14.45c0.506-3.405,0.322-7.409-0.736-12.056c-3.727-21.491-20.34-28.531-28.393-30.74
	c-6.304-1.703-12.471-4.004-18.038-7.409C176.171,260.722,169.498,252.807,166.691,249.034z"/>
<path style="fill:#DC8744;" d="M172.508,265.177c0,0,35.391,52.834,50.184,54.419C222.693,319.596,185.196,284.99,172.508,265.177z"
	/>
<path style="fill:#F6C358;" d="M272.151,414.135c-4.786,4.556-11.55,6.35-17.993,4.648c-8.145-2.163-18.177-7.363-19.742-19.834
	c-0.506-3.405-0.322-7.409,0.736-12.056c3.727-21.491,20.34-28.531,28.393-30.74c6.304-1.703,12.471-4.004,18.038-7.409
	c10.538-6.581,17.211-14.496,20.018-18.269c1.058-1.381,1.564-2.209,1.564-2.209S304.363,383.395,272.151,414.135z"/>
<path style="fill:#FCD462;" d="M301.602,330.475c-0.921,16.106-5.844,54.484-30.786,78.276c-4.831,4.602-11.55,6.35-17.993,4.647
	c-6.811-1.795-15.048-5.752-18.407-14.45c-0.506-3.405-0.322-7.409,0.736-12.056c3.727-21.491,20.34-28.531,28.393-30.74
	c6.304-1.703,12.471-4.004,18.038-7.409C292.122,342.163,298.794,334.249,301.602,330.475z"/>
<path style="fill:#DC8744;" d="M295.784,346.618c0,0-35.391,52.834-50.184,54.419C245.6,401.037,283.097,366.431,295.784,346.618z"
	/>
<path style="fill:#F6C358;" d="M196.142,414.135c4.786,4.556,11.55,6.35,17.993,4.648c8.145-2.163,18.177-7.363,19.742-19.834
	c0.506-3.405,0.322-7.409-0.736-12.056c-3.727-21.491-20.34-28.531-28.393-30.74c-6.304-1.703-12.471-4.004-18.038-7.409
	c-10.538-6.581-17.211-14.496-20.018-18.269c-1.058-1.381-1.564-2.209-1.564-2.209S163.93,383.395,196.142,414.135z"/>
<path style="fill:#FCD462;" d="M166.691,330.475c0.921,16.106,5.844,54.484,30.786,78.276c4.831,4.602,11.55,6.35,17.993,4.647
	c6.811-1.795,15.048-5.752,18.407-14.45c0.506-3.405,0.322-7.409-0.736-12.056c-3.727-21.491-20.34-28.531-28.393-30.74
	c-6.304-1.703-12.471-4.004-18.038-7.409C176.171,342.163,169.498,334.249,166.691,330.475z"/>
<path style="fill:#DC8744;" d="M172.508,346.618c0,0,35.391,52.834,50.184,54.419C222.693,401.037,185.196,366.431,172.508,346.618z
	"/>
<g>
</g>
<g>
</g>
<g>
</g>
<g>
</g>
<g>
</g>
<g>
</g>
<g>
</g>
<g>
</g>
<g>
</g>
<g>
</g>
<g>
</g>
<g>
</g>
<g>
</g>
<g>
</g>
<g>
</g>
</svg>
