<?xml version="1.0" encoding="iso-8859-1"?>
<!-- Generator: Adobe Illustrator 19.0.0, SVG Export Plug-In . SVG Version: 6.00 Build 0)  -->
<svg version="1.1" id="Capa_1" xmlns="http://www.w3.org/2000/svg" xmlns:xlink="http://www.w3.org/1999/xlink" x="0px" y="0px"
	 viewBox="0 0 468.293 468.293" style="enable-background:new 0 0 468.293 468.293;" xml:space="preserve">
<path style="fill:#E1E6E9;" d="M338.474,419.652c-46.642,9.803-94.283,15.797-142.111,18.045
	c-8.367,0.375-16.671,0.625-25.038,0.812c14.423-23.914,28.722-49.327,28.66-76.55c-0.063-34.966-23.477-65.936-46.018-94.47
	c-6.806-8.617-13.612-17.295-20.418-25.912c-20.106-25.538-41.897-107.707,18.107-110.767c7.243-0.375,14.423-0.25,21.479,0.312
	c53.76,3.809,103.212,29.721,158.283,32.593c-19.231,23.103-19.793,46.205-39.024,69.245c-13.112,15.797-26.911,33.28-25.912,52.948
	c0.937,20.293,59.255,66.061,78.861,76.301c0.188,0.125,0.375,0.25,0.562,0.312C370.068,375.383,364.948,414.158,338.474,419.652z"
	/>
<path style="fill:#EBF0F3;" d="M338.474,419.652c-46.642,9.803-94.283,15.797-142.111,18.045
	c14.236-23.664,28.223-48.827,28.16-75.739c-0.063-34.966-23.477-65.936-46.018-94.47c-6.806-8.617-13.612-17.295-20.418-25.912
	c-19.731-25.101-41.147-104.835,15.048-110.455c53.76,3.809,103.212,29.721,158.283,32.593
	c-19.231,23.103-19.793,46.205-39.024,69.245c-13.112,15.797-26.911,33.28-25.912,52.948c0.937,20.293,59.255,66.061,78.861,76.301
	c0.188,0.125,0.375,0.25,0.562,0.312C370.068,375.383,364.948,414.158,338.474,419.652z"/>
<g>
	<path style="fill:#E56353;" d="M417.438,196.424c0,0.271-0.001,0.543-0.002,0.816c-0.094,15.352-17.14,24.607-30.311,16.719
		c-22.1-13.236-44.213-26.435-66.295-39.667c-7.337-4.352-15.356-8.89-23.811-7.833c-9.014,1.119-16.164,8.703-19.521,17.158
		c-0.248,0.746-0.559,1.43-0.746,2.176c-2.984,8.952-14.486,11.315-20.888,4.414c-10.425-11.232-20.85-21.72-31.275-33.443
		c-5.176-5.821-14.287-5.557-19.163,0.518c-8.573,10.683-17.146,20.126-25.718,30.873c-4.663,5.844-13.366,6.404-18.65,0.995
		c-13.802-14.05-27.603-26.11-41.466-40.223c-5.097-5.222-13.49-4.849-18.277,0.622c-9.832,11.311-20.821,21.003-32.735,29.523
		c-8.371,5.986-19.741-1.794-17.417-11.819c13.199-56.946,64.257-99.392,125.188-99.392c15.17,0,29.655,2.735,43.145,7.584
		c8.521,3.063,17.715,3.062,26.235,0c13.49-4.849,27.975-7.584,43.143-7.584C359.87,67.861,417.438,125.428,417.438,196.424z"/>
	<path style="fill:#E56353;" d="M404.528,364.596c-24.544,54.397-65.649,103.696-112.232,103.696
		c-16.099,0-31.472-2.735-45.79-7.585c-9.039-3.046-18.805-3.046-27.843,0c-14.318,4.849-29.691,7.585-45.79,7.585
		c-45.988,0-86.697-48.118-111.308-101.769c48.43,19.956,106.557,31.519,169.172,31.519
		C295.332,398.043,355.242,385.671,404.528,364.596z"/>
</g>
<path style="fill:#64798A;" d="M236.036,0h-20.204c-3.766,0-6.054,5.438-3.952,9.496c9.108,17.584,25.609,57.302,15.821,99.702
	c0,5.763,9.887,5.809,11.236,0c18.989-49.339,5.887-93.265,1.369-105.697C239.523,1.346,237.87,0,236.036,0z"/>
<path style="fill:#CE412D;" d="M234.145,120.378c-12.282,0-23.835-4.784-32.517-13.472c-1.821-1.821-1.821-4.772,0-6.593
	c1.827-1.821,4.778-1.821,6.593,0c6.927,6.927,16.131,10.74,25.924,10.74c9.793,0,19.003-3.813,25.93-10.74
	c1.821-1.821,4.772-1.821,6.593,0c1.821,1.821,1.821,4.772,0,6.593C257.98,115.594,246.432,120.378,234.145,120.378z"/>
<g>
</g>
<g>
</g>
<g>
</g>
<g>
</g>
<g>
</g>
<g>
</g>
<g>
</g>
<g>
</g>
<g>
</g>
<g>
</g>
<g>
</g>
<g>
</g>
<g>
</g>
<g>
</g>
<g>
</g>
</svg>
