<?xml version="1.0" encoding="iso-8859-1"?>
<!-- Generator: Adobe Illustrator 19.0.0, SVG Export Plug-In . SVG Version: 6.00 Build 0)  -->
<svg version="1.1" id="Capa_1" xmlns="http://www.w3.org/2000/svg" xmlns:xlink="http://www.w3.org/1999/xlink" x="0px" y="0px"
	 viewBox="0 0 468.293 468.293" style="enable-background:new 0 0 468.293 468.293;" xml:space="preserve">
<path style="fill:#FCD462;" d="M165.508,252.049c-19.774,0-37.174-1.819-52.598-5.062C-25.031,218.038,2.177,73.769,2.177,73.769
	s25.785,15.977,71.344,28.158c43.581,11.706,105.275,19.853,179.862,7.356c25.627-4.271,52.756-10.994,81.151-20.881
	c2.214-0.712,4.508-1.582,6.802-2.373C352.489,81.995,360.873,252.049,165.508,252.049z"/>
<path style="fill:#E56353;" d="M165.496,252.035c-19.774,0-37.175-1.819-52.598-5.062C258.67,223.482,314.037,139.72,334.522,88.388
	c2.215-0.712,4.508-1.582,6.803-2.373C352.477,81.981,360.861,252.035,165.496,252.035z"/>
<path style="fill:#DC8744;" d="M253.383,109.282c-40.26,46.745-96.338,44.293-96.338,44.293
	c-50.858-1.424-73.954-32.113-83.524-51.649C117.102,113.633,178.797,121.78,253.383,109.282z"/>
<path style="fill:#FCD462;" d="M287.645,394.524c-19.774,0-37.174-1.819-52.598-5.062
	C97.106,360.513,124.314,216.244,124.314,216.244s25.785,15.977,71.344,28.158c43.581,11.706,105.275,19.853,179.862,7.356
	c25.627-4.271,52.756-10.994,81.151-20.881c2.214-0.712,4.508-1.582,6.802-2.373C474.626,224.47,483.01,394.524,287.645,394.524z"/>
<path style="fill:#E56353;" d="M287.633,394.51c-19.774,0-37.175-1.819-52.598-5.062
	c145.772-23.491,201.138-107.253,221.624-158.585c2.215-0.712,4.508-1.582,6.803-2.373
	C474.614,224.456,482.998,394.51,287.633,394.51z"/>
<path style="fill:#DC8744;" d="M375.52,251.758c-40.26,46.745-96.338,44.293-96.338,44.293
	c-50.858-1.424-73.954-32.113-83.524-51.649C239.239,256.108,300.934,264.255,375.52,251.758z"/>
<g>
</g>
<g>
</g>
<g>
</g>
<g>
</g>
<g>
</g>
<g>
</g>
<g>
</g>
<g>
</g>
<g>
</g>
<g>
</g>
<g>
</g>
<g>
</g>
<g>
</g>
<g>
</g>
<g>
</g>
</svg>
