<?xml version="1.0" encoding="iso-8859-1"?>
<!-- Generator: Adobe Illustrator 19.0.0, SVG Export Plug-In . SVG Version: 6.00 Build 0)  -->
<svg version="1.1" id="Capa_1" xmlns="http://www.w3.org/2000/svg" xmlns:xlink="http://www.w3.org/1999/xlink" x="0px" y="0px"
	 viewBox="0 0 468.293 468.293" style="enable-background:new 0 0 468.293 468.293;" xml:space="preserve">
<path style="fill:#64798A;" d="M234.146,468.293c-57.063,0-103.867-15.012-128.421-41.198c-7.492-7.995-13.138-16-17.254-24.481
	c-55.606-114.606,31.752-288.68,37.929-300.706C158.921,30.482,191.153,0,234.146,0s75.226,30.482,107.746,101.908
	c6.177,12.026,93.535,186.1,37.929,300.706c-4.116,8.48-9.762,16.486-17.254,24.481C338.014,453.28,291.209,468.293,234.146,468.293
	z"/>
<path style="fill:#EBF0F3;" d="M364.207,395.052c-3.622,7.43-8.617,14.111-14.299,20.168c-17.732,18.919-55.82,35.59-115.262,35.715
	h-0.5c-59.692,0-97.967-16.734-115.762-35.715c-5.682-6.056-10.677-12.737-14.361-20.168
	c-53.198-109.768,38.026-285.534,38.026-285.534c31.22-68.808,59.442-92.098,91.91-92.16h0.188c32.593,0,60.878,23.227,92.16,92.16
	C326.306,109.518,417.467,285.284,364.207,395.052z"/>
<path style="fill:#E1E6E9;" d="M364.216,395.042c-3.643,7.458-8.614,14.107-14.28,20.177
	c-17.749,18.905-55.849,35.613-115.281,35.729c0.173-124.358-0.289-308.842-0.694-433.604h0.174
	c32.606,0,60.878,23.241,92.155,92.155C326.29,109.5,417.463,285.312,364.216,395.042z"/>
<path style="fill:#DC8744;" d="M323.984,378.936c-20.938,20.938-52.856,24.205-77.22,9.8c-7.726-4.568-17.512-4.568-25.238,0
	c-24.364,14.405-56.282,11.139-77.22-9.799c-21.086-21.087-24.251-53.31-9.49-77.738c8.543-14.137,17.291-28.148,24.513-43.004
	l45.947-94.512c11.71-24.087,46.028-24.087,57.738,0l45.947,94.513c7.222,14.855,15.97,28.866,24.513,43.002
	C348.235,325.625,345.071,357.849,323.984,378.936z"/>
<path style="fill:#E1E6E9;" d="M181.037,269.692c-14.016,20.393-28.628,44.004-21.78,69.838
	c5.232,19.739,21.978,31.692,41.568,34.321c10.734,1.44,11.764-15.353,1.076-16.787c-19.729-2.647-29.729-19.092-26.683-38.29
	C177.59,303.83,187.17,260.769,181.037,269.692L181.037,269.692z"/>
<g>
</g>
<g>
</g>
<g>
</g>
<g>
</g>
<g>
</g>
<g>
</g>
<g>
</g>
<g>
</g>
<g>
</g>
<g>
</g>
<g>
</g>
<g>
</g>
<g>
</g>
<g>
</g>
<g>
</g>
</svg>
