<?xml version="1.0" encoding="iso-8859-1"?>
<!-- Generator: Adobe Illustrator 19.0.0, SVG Export Plug-In . SVG Version: 6.00 Build 0)  -->
<svg version="1.1" id="Capa_1" xmlns="http://www.w3.org/2000/svg" xmlns:xlink="http://www.w3.org/1999/xlink" x="0px" y="0px"
	 viewBox="0 0 468.293 468.293" style="enable-background:new 0 0 468.293 468.293;" xml:space="preserve">
<path style="fill:#31978C;" d="M434.451,143.805c-2.352,4.26-4.895,8.456-7.566,12.526
	C407.492,185.577,325.6,306.382,285.226,320.116l-126.082-161.37l-6.867-8.773c13.606-16.277,107.452-81.321,145.728-107.58
	c12.525-8.583,25.75-16.214,39.675-22.317c94.927-41.9,122.394-4.642,122.394-4.642s6.104,5.214,7.757,20.093
	C469.993,53.901,465.478,87.154,434.451,143.805z"/>
<path style="fill:#44C4A1;" d="M434.451,143.805c-2.352,4.26-4.895,8.456-7.566,12.526
	C407.492,185.577,325.6,306.382,285.226,320.116l-126.082-161.37c21.999-20.791,106.308-79.158,141.977-103.701
	c12.589-8.583,25.814-16.214,39.738-22.317c94.927-41.9,122.33-4.641,122.33-4.641s2.48,2.098,4.641,7.439
	C469.993,53.901,465.478,87.154,434.451,143.805z"/>
<path style="fill:#3EA69B;" d="M261.54,179.102c-47.953-48.651-100.387-54.882-115.04-19.428
	c-12.67,30.657,7.947,82.925,44.661,120.389c36.806,37.559,83.171,53.491,106.156,33.125
	C323.92,289.617,309.651,227.913,261.54,179.102z"/>
<path style="fill:#E1E6E9;" d="M271.356,303.035c-18.817,0-44.948-14.256-66.571-36.323c-35.575-36.298-48.804-80.042-40.657-99.756
	c1.912-4.62,5.871-10.767,18.127-10.767c14.461,0,39.316,9.537,65.699,36.305c27.292,27.686,44.367,62.166,43.498,87.834
	c-0.199,5.911-1.54,13.933-6.783,18.584c-3.092,2.738-7.569,4.123-13.309,4.123H271.356z"/>
<path style="fill:#3EA69B;" d="M152.996,466.321c-16.667,2.303-33.928,2.398-51.297,0.29
	C34.922,458.504-9.053,420.317,1.585,379.667c7.665-29.273,40.911-51.39,86.762-57.727c16.67-2.304,33.931-2.404,51.304-0.291
	c30.165,3.661,57.057,13.691,75.715,28.25c21.29,16.61,29.953,37.449,24.396,58.689c-7.665,29.273-40.914,51.397-86.762,57.733
	L152.996,466.321z"/>
<path style="fill:#E1E6E9;" d="M135.476,337.586c-57.091-6.933-110,12.762-118.175,43.99s31.479,62.165,88.57,69.098
	s110-12.762,118.175-43.991C232.221,375.455,192.567,344.519,135.476,337.586z"/>
<g>
	<path style="fill:#31978C;" d="M118.272,361.322c0,0-7.983,4.306-8.244,9.932c-0.279,6.007,8.244,11.183,8.244,11.183
		s8.523-5.176,8.244-11.183C126.255,365.628,118.272,361.322,118.272,361.322z"/>
	<path style="fill:#31978C;" d="M118.272,396.73c0,0-9.722,6.352-10.113,14.756c-0.423,9.107,10.113,17.069,10.113,17.069
		s10.535-7.962,10.112-17.069C127.994,403.082,118.272,396.73,118.272,396.73z"/>
	<path style="fill:#31978C;" d="M242.402,209.157c0,0-8.957,5.513-10.939,12.552c-1.605,5.699,2.042,10.625,2.042,10.625
		s6.565-2.675,9.245-8.138C246.059,217.45,242.402,209.157,242.402,209.157z"/>
	<path style="fill:#31978C;" d="M223.693,232.334c0,0-8.957,5.513-10.939,12.552c-1.605,5.699,2.042,10.625,2.042,10.625
		s6.565-2.675,9.245-8.138C227.35,240.627,223.693,232.334,223.693,232.334z"/>
	<path style="fill:#31978C;" d="M159.137,389.323c0,0-8.357-7.004-16.861-7.004c-8.504,0-15.078,7.004-15.078,7.004
		s7.77,7.544,16.93,7.544C153.287,396.867,159.137,389.323,159.137,389.323z"/>
	<path style="fill:#31978C;" d="M109.347,389.323c0,0-6.574-7.004-15.078-7.004s-16.861,7.004-16.861,7.004s5.85,7.544,15.009,7.544
		S109.347,389.323,109.347,389.323z"/>
</g>
<g>
</g>
<g>
</g>
<g>
</g>
<g>
</g>
<g>
</g>
<g>
</g>
<g>
</g>
<g>
</g>
<g>
</g>
<g>
</g>
<g>
</g>
<g>
</g>
<g>
</g>
<g>
</g>
<g>
</g>
</svg>
