<?xml version="1.0" encoding="iso-8859-1"?>
<!-- Generator: Adobe Illustrator 19.0.0, SVG Export Plug-In . SVG Version: 6.00 Build 0)  -->
<svg version="1.1" id="Capa_1" xmlns="http://www.w3.org/2000/svg" xmlns:xlink="http://www.w3.org/1999/xlink" x="0px" y="0px"
	 viewBox="0 0 468.293 468.293" style="enable-background:new 0 0 468.293 468.293;" xml:space="preserve">
<path style="fill:#DC8744;" d="M234.15,451.677C121.376,451.677,0,190.473,0,121.813s468.293-68.66,468.293,0
	S346.923,451.677,234.15,451.677z"/>
<path style="fill:#EBF0F3;" d="M234.15,216.48C121.376,216.48,0,185.211,0,116.551s121.376-99.936,234.15-99.936
	s234.143,31.276,234.143,99.936S346.923,216.48,234.15,216.48z"/>
<path style="fill:#D5D6DB;" d="M442.038,116.538c0,38.366-82.776,69.834-188.415,73.316c-6.438,0.197-12.876,0.328-19.446,0.328
	c-114.836,0-207.927-32.979-207.927-73.644s93.091-73.645,207.927-73.645c6.57,0,13.008,0.132,19.446,0.328
	C359.261,46.704,442.038,78.172,442.038,116.538z"/>
<path style="fill:#E1E6E9;" d="M442.038,116.538c0,38.366-82.776,69.834-188.415,73.316c-105.704-3.482-188.48-34.95-188.48-73.316
	c0-38.366,82.776-69.834,188.48-73.316C359.261,46.704,442.038,78.172,442.038,116.538z"/>
<g>
	<path style="fill:#64798A;" d="M98.764,249.058c3.341,2.307,5.651,6.043,7.248,9.793c1.586,3.797,2.682,7.69,3.843,11.37
		c1.242,3.697,2.459,7.038,4.586,9.802c2.015,2.832,4.844,5.248,7.813,8.28c2.897,3.094,5.443,7.083,6.732,11.241
		c1.205,4.102,1.973,8.027,2.508,12.007c1.221,7.918,1.616,15.755,2.826,23.657c-3.841-7.138-5.719-15.063-7.845-22.609
		c-1.107-3.762-2.002-7.601-3.361-10.997c-1.254-3.36-3.092-6.174-5.654-8.81c-2.455-2.717-5.723-5.497-8.143-9.272
		c-2.402-3.778-3.735-8.078-4.412-12.039C103.309,263.538,103.364,255.765,98.764,249.058z"/>
	<path style="fill:#64798A;" d="M253.59,416.865c3.341-2.307,5.651-6.043,7.248-9.793c1.586-3.797,2.682-7.69,3.843-11.37
		c1.242-3.697,2.459-7.038,4.586-9.802c2.015-2.832,4.844-5.248,7.813-8.28c2.897-3.094,5.443-7.083,6.732-11.241
		c1.205-4.102,1.973-8.027,2.508-12.007c1.221-7.918,1.616-15.755,2.826-23.657c-3.841,7.138-5.719,15.063-7.845,22.609
		c-1.107,3.762-2.002,7.601-3.361,10.998c-1.254,3.36-3.092,6.174-5.654,8.81c-2.455,2.717-5.723,5.497-8.143,9.272
		c-2.402,3.778-3.735,8.078-4.412,12.039C258.135,402.386,258.19,410.158,253.59,416.865z"/>
	<path style="fill:#64798A;" d="M169.957,295.385c3.341,2.307,5.651,6.043,7.248,9.793c1.586,3.797,2.682,7.69,3.843,11.37
		c1.242,3.697,2.459,7.038,4.586,9.802c2.015,2.832,4.844,5.248,7.813,8.28c2.897,3.094,5.443,7.083,6.732,11.24
		c1.205,4.102,1.973,8.028,2.508,12.007c1.221,7.918,1.616,15.755,2.826,23.657c-3.841-7.138-5.72-15.063-7.845-22.609
		c-1.107-3.762-2.002-7.601-3.361-10.998c-1.254-3.36-3.092-6.174-5.654-8.81c-2.455-2.717-5.723-5.497-8.143-9.272
		c-2.402-3.778-3.735-8.078-4.412-12.039C174.502,309.865,174.557,302.092,169.957,295.385z"/>
	<path style="fill:#64798A;" d="M324.22,330.717c3.341-2.307,5.651-6.043,7.248-9.793c1.586-3.797,2.682-7.69,3.843-11.37
		c1.242-3.697,2.459-7.038,4.586-9.802c2.015-2.832,4.844-5.248,7.813-8.28c2.897-3.094,5.443-7.083,6.732-11.24
		c1.205-4.102,1.973-8.028,2.508-12.007c1.221-7.918,1.616-15.755,2.826-23.657c-3.841,7.138-5.72,15.063-7.845,22.609
		c-1.107,3.762-2.002,7.601-3.361,10.998c-1.254,3.36-3.091,6.174-5.654,8.81c-2.455,2.717-5.723,5.497-8.143,9.272
		c-2.402,3.778-3.735,8.078-4.412,12.039C328.765,316.237,328.82,324.01,324.22,330.717z"/>
	<path style="fill:#64798A;" d="M247.088,341.289c3.341-2.307,5.651-6.043,7.248-9.793c1.586-3.797,2.682-7.69,3.843-11.37
		c1.242-3.697,2.459-7.038,4.586-9.802c2.015-2.832,4.844-5.248,7.813-8.28c2.897-3.094,5.443-7.083,6.732-11.241
		c1.205-4.102,1.973-8.027,2.508-12.007c1.221-7.918,1.616-15.755,2.826-23.657c-3.841,7.138-5.72,15.063-7.845,22.609
		c-1.107,3.762-2.002,7.601-3.361,10.997c-1.254,3.36-3.092,6.174-5.654,8.81c-2.455,2.717-5.723,5.497-8.143,9.272
		c-2.402,3.778-3.735,8.078-4.412,12.039C251.633,326.81,251.688,334.583,247.088,341.289z"/>
</g>
<g>
</g>
<g>
</g>
<g>
</g>
<g>
</g>
<g>
</g>
<g>
</g>
<g>
</g>
<g>
</g>
<g>
</g>
<g>
</g>
<g>
</g>
<g>
</g>
<g>
</g>
<g>
</g>
<g>
</g>
</svg>
