<?xml version="1.0" encoding="iso-8859-1"?>
<!-- Generator: Adobe Illustrator 19.0.0, SVG Export Plug-In . SVG Version: 6.00 Build 0)  -->
<svg version="1.1" id="Capa_1" xmlns="http://www.w3.org/2000/svg" xmlns:xlink="http://www.w3.org/1999/xlink" x="0px" y="0px"
	 viewBox="0 0 468.293 468.293" style="enable-background:new 0 0 468.293 468.293;" xml:space="preserve">
<path style="fill:#3A556A;" d="M435.98,164.112c-1.122,1.112-2.672,1.63-4.21,1.417c-10.319-1.627-50.022-7.29-57.211-1.254
	l-0.238-3.076c0.867-1.048,1.967-2.023,3.25-2.829c12.318-8.178,41.736-6.093,57.085-4.249l0.068,0.011
	c4.01,0.471,5.737,5.359,2.896,8.254L435.98,164.112z"/>
<path style="fill:#64798A;" d="M427.584,161.817c-8.345-1.309-36.073-5.217-50.013-3.447c12.318-8.178,41.736-6.093,57.085-4.249
	c0.451,1.539,0.108,3.23-1.194,4.592l-1.669,1.687C430.7,161.551,429.15,162.069,427.584,161.817z"/>
<path style="fill:#E56353;" d="M347.824,162.5c-7.388-10.225-20.871-14.184-32.475-9.238c-10.126,4.315-23.49,12.694-39.893,28.641
	c0,0-78.115,79.855-114.613,102.258c-8.426,5.172-16.56,10.737-24.135,17.091c-24.775,20.78-69.287,65.248-74.258,87.235
	l294.774-212.979L347.824,162.5z"/>
<path style="fill:#D15241;" d="M366.622,188.518c7.388,10.225,6.912,24.269-1.428,33.734c-7.277,8.259-19.429,18.316-39.72,28.881
	c0,0-100.346,49.086-133.078,76.703c-7.557,6.376-15.394,12.35-23.806,17.547c-27.509,16.996-83.705,45.292-106.142,43.107
	l294.774-212.979L366.622,188.518z"/>
<path style="fill:#F6C358;" d="M379.824,163.458c0,0,0.116-3.138-0.465-3.942c-0.581-0.804-3.597-1.679-3.597-1.679
	c-13.961-6.52-27.902-7.557-39.236-3.121c-2.784,1.09-2.625,5.208,0.162,6.58l14.668,7.218l-4.076,11.131
	c-0.709,1.937,0.834,4.072,2.895,4.007l11.848-0.375l2.247,16.193c0.427,3.076,4.287,4.521,6.196,2.22
	C378.237,192.321,381.63,178.76,379.824,163.458z"/>
<path style="fill:#3A556A;" d="M48.16,3.874c1.334,1.407,1.928,3.323,1.626,5.204c-2.275,12.62-10.291,61.19-3.078,70.174
	l-3.782,0.209c-1.262-1.092-2.429-2.468-3.384-4.064c-9.705-15.336-6.355-51.382-3.679-70.167l0.015-0.083
	c0.686-4.908,6.731-6.896,10.207-3.332L48.16,3.874z"/>
<path style="fill:#64798A;" d="M45.117,14.115c-1.831,10.205-7.373,44.127-5.575,61.282c-9.705-15.336-6.355-51.382-3.679-70.167
	c1.901-0.511,3.967-0.046,5.603,1.588l2.025,2.093C44.874,10.285,45.469,12.201,45.117,14.115z"/>
<path style="fill:#E56353;" d="M43.811,112.013c-12.747,8.791-17.967,25.231-12.21,39.605c5.023,12.542,14.946,29.168,34.074,49.726
	c0,0,95.894,98.008,122.405,143.4c6.12,10.48,12.731,20.61,20.324,30.077c24.835,30.962,78.206,86.782,105.055,93.473
	L60.027,100.828L43.811,112.013z"/>
<path style="fill:#D15241;" d="M76.244,89.644c12.747-8.791,29.968-7.83,41.358,2.659c9.939,9.152,21.953,24.335,34.373,49.52
	c0,0,57.538,124.462,90.547,165.371c7.621,9.445,14.742,19.223,20.893,29.685c20.117,34.216,53.329,103.939,50.044,131.413
	L60.027,100.828L76.244,89.644z"/>
<path style="fill:#F6C358;" d="M45.846,72.769c0,0-3.848-0.227-4.85,0.464c-1.003,0.692-2.157,4.369-2.157,4.369
	c-8.377,16.957-10.024,34.037-4.886,48.065c1.262,3.446,6.321,3.361,8.079-0.022l9.252-17.806l13.55,5.302
	c2.358,0.923,5.02-0.914,4.995-3.445l-0.141-14.55l19.931-2.322c3.787-0.441,5.663-5.14,2.891-7.544
	C81.224,75.493,64.673,70.964,45.846,72.769z"/>
<g>
</g>
<g>
</g>
<g>
</g>
<g>
</g>
<g>
</g>
<g>
</g>
<g>
</g>
<g>
</g>
<g>
</g>
<g>
</g>
<g>
</g>
<g>
</g>
<g>
</g>
<g>
</g>
<g>
</g>
</svg>
