<?xml version="1.0" encoding="iso-8859-1"?>
<!-- Generator: Adobe Illustrator 19.0.0, SVG Export Plug-In . SVG Version: 6.00 Build 0)  -->
<svg version="1.1" id="Capa_1" xmlns="http://www.w3.org/2000/svg" xmlns:xlink="http://www.w3.org/1999/xlink" x="0px" y="0px"
	 viewBox="0 0 468.276 468.276" style="enable-background:new 0 0 468.276 468.276;" xml:space="preserve">
<g>
	<path style="fill:#3EA69B;" d="M228.593,170.511l-73.615-73.615l66.229-66.231c4.079-4.079,10.693-4.079,14.772,0l66.229,66.229
		L228.593,170.511z"/>
	<path style="fill:#3EA69B;" d="M272.374,434.883l-60.844-60.844l73.615-73.617l73.615,73.615l-60.844,60.846
		C290.863,441.936,279.427,441.936,272.374,434.883z"/>
</g>
<g>
	<path style="fill:#44C4A1;" d="M179.23,179.049l-95.555-41.323l37.176-85.969c2.29-5.295,8.438-7.731,13.733-5.441l85.968,37.177
		L179.23,179.049z"/>
	<path style="fill:#44C4A1;" d="M152.113,211.491L48.005,211.76l-0.242-93.663c-0.015-5.769,4.65-10.457,10.418-10.472l93.662-0.242
		L152.113,211.491z"/>
	<path style="fill:#44C4A1;" d="M171.326,246.985l-74.994,83.639L9.715,284.047c-9.961-5.356-12.802-18.333-5.988-27.361
		l57.639-76.376L171.326,246.985z"/>
	<path style="fill:#44C4A1;" d="M220.362,298.997l-56.761,87.273l-69.072-26.504c-7.925-3.041-11.58-12.189-7.932-19.854
		l46.491-97.68L220.362,298.997z"/>
	<path style="fill:#44C4A1;" d="M279.276,174.245l-43.15-94.743l85.238-38.824c5.25-2.391,11.444-0.074,13.836,5.176l38.821,85.237
		L279.276,174.245z"/>
</g>
<path style="fill:#3EA69B;" d="M317.168,198.706l1.29-104.099l93.656,1.158c5.769,0.071,10.387,4.806,10.315,10.574l-1.161,93.654
	L317.168,198.706z"/>
<path style="fill:#44C4A1;" d="M324.677,203.544l79.03-67.768l62.688,73.101c2.807,3.274,2.429,8.203-0.845,11.011l-73.102,62.685
	L324.677,203.544z"/>
<path style="fill:#D5D6DB;" d="M268.877,55.484c8.435-1.007,17.439-0.709,24.777,3.57c3.397,1.981,6.287,5.015,8.133,8.499
	c3.485,6.575,10.77,10.534,18.155,9.615c5.636-0.701,11.279-0.762,16.818,0.459c7.755,1.71,15.21,6.744,18.939,13.502
	c2.526,4.578,7.207,7.564,12.255,8.926c3.329,0.899,6.371,2.865,8.366,5.685c1.121,1.586,1.878,3.394,2.279,5.284
	c1.563,7.373,6.765,13.377,14.249,14.27c5.939,0.709,11.714,2.098,17.026,4.827c10.552,5.422,18.501,17.9,14.726,29.146
	c9.945,0.396,18.695,9.631,18.555,19.583c-0.062,4.394-1.852,8.6-4.689,11.936c-4.366,5.135-5.714,12.198-3.128,18.422
	c1.794,4.318,2.206,9.198,0.762,13.66c-0.942,2.911-2.628,5.504-4.792,7.635c-6.763,6.658-7.956,16.957-1.781,24.163
	c6.532,7.623,12.273,15.799,16.187,25.018c7.254,17.088,6.758,38.849-6.161,52.179c-0.324,3.76-8.139,17.102-13.094,20.724
	c-5.843,17.356-24.192,29.533-42.417,28.495c-1.147,0.055-2.992,0.145-4.14,0.2l-75.368,13.832
	c-8.429,1.547-16.858,3.094-25.286,4.641c-20.509,3.764-41.191,7.543-62.037,7.079c-8.98-0.2-17.943-1.19-26.748-2.962
	c-14.074-2.833-30.179-10.585-31.355-24.893c-13.427-4.311-23.852-16.797-25.697-30.778c-0.615-4.66-0.266-9.408,0.912-13.949
	c2.704-10.428-5.334-20.896-16.07-21.791c-20.193-1.685-40.065-7.293-58.089-16.557c-12.969-1.149-24.475-11.871-26.535-24.727
	c-1.365-8.522,1.506-17.451,7.081-24c4.123-4.843,5.883-11.628,3.608-17.568c-2.396-6.257-2.405-13.464,0.421-19.557
	c2.549-5.496,7.28-9.816,12.823-12.234c7.291-3.18,12.43-10.083,11.72-18.006c-1.453-16.215-0.738-32.57,7.898-45.959
	c13.315-20.641,41.747-27.897,58.149-41.389c2.481-2.041,5.332-3.411,8.431-4.259c14.461-3.954,28.992-16.67,45.756-17.89
	c15.621-1.136,21.61,10.768,36.445,2.133C239.854,64.364,252.541,57.435,268.877,55.484z"/>
<g>
	<path style="fill:#EBF0F3;" d="M202.792,116.559c4.956-1.702,14.469-3.062,17.368,1.303c1.033-3.737,4.544-6.652,8.407-6.979
		c3.863-0.327,7.814,1.956,9.46,5.466c1.702-4.141,6.697-6.613,11.021-5.453c4.325,1.16,7.413,5.799,6.814,10.236
		c1.348-3.901,6.618-5.825,10.162-3.709c3.544,2.116,4.352,7.667,1.558,10.705c3.701-3.71,10.884-2.739,13.469,1.819
		c2.584,4.558-0.272,11.22-5.356,12.491c7.722,0.616,14.136,8.327,13.336,16.032c-2.82,0.784-5.64,1.567-8.46,2.351
		c3.452,3.655,3.509,9.999,0.124,13.716s-9.706,4.251-13.668,1.155c3.466,3.86,3.582,10.291,0.256,14.273
		c-3.326,3.982-9.675,5.014-14.091,2.29c-1.983,4.882-7.097,8.316-12.367,8.304c-5.27-0.012-10.368-3.469-12.329-8.36
		c-2.864,4.612-9.724,6.137-14.272,3.171c-4.548-2.965-5.921-9.857-2.856-14.338c-6.125,4.499-15.374,4.08-21.067-0.954
		c-5.693-5.035-7.24-14.163-3.523-20.792c-5.718-2.434-8.853-9.675-6.715-15.511c2.138-5.835,9.207-9.336,15.143-7.502
		C190.158,134.713,199.237,117.78,202.792,116.559z"/>
	<path style="fill:#EBF0F3;" d="M192.805,295.199c5.639-1.937,16.463-3.484,19.761,1.482c1.175-4.252,5.17-7.568,9.565-7.94
		c4.395-0.372,8.891,2.226,10.764,6.219c1.936-4.712,7.62-7.524,12.54-6.205c4.92,1.319,8.434,6.598,7.753,11.646
		c1.534-4.439,7.53-6.627,11.563-4.22c4.033,2.407,4.952,8.723,1.773,12.18c4.211-4.221,12.384-3.117,15.325,2.07
		c2.94,5.187-0.31,12.767-6.094,14.212c8.786,0.701,16.085,9.475,15.174,18.241c-3.209,0.892-6.417,1.783-9.626,2.675
		c3.928,4.159,3.993,11.377,0.141,15.606s-11.044,4.837-15.551,1.314c3.944,4.392,4.076,11.71,0.292,16.24
		c-3.784,4.531-11.008,5.705-16.032,2.606c-2.257,5.555-8.076,9.462-14.071,9.449c-5.996-0.014-11.797-3.947-14.028-9.512
		c-3.259,5.248-11.064,6.982-16.239,3.608c-5.175-3.374-6.737-11.215-3.25-16.314c-6.969,5.119-17.492,4.643-23.97-1.086
		c-6.477-5.729-8.237-16.115-4.008-23.657c-6.506-2.77-10.073-11.009-7.64-17.649c2.432-6.639,10.475-10.622,17.23-8.536
		C178.429,315.854,188.761,296.588,192.805,295.199z"/>
	<path style="fill:#EBF0F3;" d="M331.699,265.374c5.639-1.937,16.463-3.484,19.761,1.482c1.175-4.252,5.17-7.568,9.565-7.94
		c4.395-0.372,8.891,2.226,10.764,6.219c1.936-4.712,7.62-7.524,12.54-6.205c4.92,1.319,8.434,6.598,7.753,11.646
		c1.534-4.439,7.53-6.627,11.563-4.22c4.033,2.407,4.952,8.723,1.773,12.18c4.211-4.221,12.384-3.117,15.325,2.07
		c2.94,5.187-0.31,12.767-6.094,14.212c8.786,0.701,16.085,9.475,15.173,18.241c-3.209,0.892-6.417,1.783-9.626,2.675
		c3.928,4.159,3.993,11.377,0.141,15.606c-3.852,4.229-11.044,4.837-15.551,1.314c3.944,4.392,4.076,11.71,0.292,16.24
		c-3.784,4.531-11.008,5.705-16.032,2.606c-2.257,5.555-8.076,9.462-14.071,9.449c-5.996-0.014-11.797-3.947-14.028-9.512
		c-3.259,5.248-11.064,6.982-16.239,3.608c-5.175-3.374-6.737-11.215-3.25-16.314c-6.969,5.119-17.492,4.643-23.97-1.086
		c-6.478-5.729-8.237-16.115-4.008-23.657c-6.506-2.77-10.073-11.009-7.64-17.649c2.432-6.639,10.475-10.622,17.23-8.536
		C317.323,286.029,327.654,266.763,331.699,265.374z"/>
	<path style="fill:#EBF0F3;" d="M105.537,132.695c4.241-1.456,12.381-2.62,14.862,1.115c0.884-3.197,3.888-5.692,7.194-5.972
		c3.305-0.28,6.687,1.674,8.095,4.677c1.456-3.544,5.73-5.659,9.431-4.666c3.701,0.992,6.343,4.962,5.831,8.759
		c1.154-3.338,5.663-4.984,8.696-3.174c3.033,1.81,3.724,6.561,1.334,9.16c3.167-3.174,9.314-2.344,11.525,1.557
		c2.211,3.901-0.233,9.601-4.583,10.689c6.608,0.527,12.096,7.126,11.411,13.719c-2.413,0.671-4.826,1.341-7.239,2.012
		c2.954,3.128,3.003,8.556,0.106,11.737c-2.897,3.181-8.306,3.638-11.695,0.988c2.966,3.303,3.065,8.806,0.219,12.214
		c-2.846,3.407-8.279,4.29-12.057,1.96c-1.697,4.178-6.073,7.116-10.582,7.106c-4.509-0.01-8.872-2.969-10.55-7.154
		c-2.451,3.947-8.321,5.251-12.212,2.714c-3.892-2.537-5.066-8.434-2.444-12.269c-5.241,3.85-13.155,3.491-18.027-0.817
		c-4.871-4.308-6.195-12.119-3.015-17.792c-4.893-2.083-7.576-8.279-5.746-13.273c1.829-4.993,7.878-7.989,12.958-6.419
		C94.726,148.229,102.496,133.739,105.537,132.695z"/>
	<path style="fill:#EBF0F3;" d="M175.349,201.282c3.382-1.161,9.873-2.09,11.852,0.889c0.705-2.55,3.101-4.539,5.737-4.762
		s5.333,1.335,6.456,3.73c1.161-2.826,4.57-4.513,7.521-3.721c2.951,0.791,5.059,3.957,4.65,6.985
		c0.92-2.662,4.516-3.975,6.935-2.531c2.419,1.444,2.97,5.232,1.063,7.305c2.526-2.531,7.428-1.869,9.191,1.241
		c1.764,3.111-0.186,7.657-3.655,8.524c5.269,0.42,9.647,5.682,9.1,10.94c-1.924,0.535-3.849,1.07-5.773,1.604
		c2.356,2.495,2.395,6.823,0.084,9.36c-2.31,2.537-6.624,2.901-9.327,0.788c2.366,2.634,2.444,7.023,0.175,9.74
		c-2.269,2.717-6.602,3.421-9.615,1.563c-1.353,3.332-4.843,5.675-8.439,5.667c-3.596-0.008-7.075-2.367-8.414-5.705
		c-1.955,3.147-6.636,4.188-9.739,2.164c-3.104-2.023-4.04-6.726-1.949-9.784c-4.18,3.07-10.491,2.784-14.376-0.651
		c-3.885-3.436-4.94-9.665-2.404-14.189c-3.902-1.661-6.041-6.603-4.582-10.585c1.459-3.981,6.283-6.371,10.334-5.119
		C166.727,213.67,172.923,202.115,175.349,201.282z"/>
	<path style="fill:#EBF0F3;" d="M154.494,260.877c2.655-0.912,7.751-1.64,9.304,0.698c0.553-2.002,2.434-3.563,4.504-3.738
		c2.069-0.175,4.186,1.048,5.068,2.928c0.912-2.219,3.588-3.543,5.904-2.921s3.971,3.106,3.65,5.483
		c0.722-2.09,3.545-3.12,5.444-1.987s2.332,4.107,0.835,5.735c1.983-1.987,5.831-1.467,7.215,0.975s-0.146,6.011-2.869,6.692
		c4.137,0.33,7.573,4.461,7.144,8.588c-1.511,0.42-3.021,0.84-4.532,1.26c1.849,1.958,1.88,5.356,0.066,7.348
		c-1.814,1.991-5.2,2.277-7.322,0.619c1.857,2.068,1.919,5.513,0.137,7.646c-1.782,2.133-5.183,2.686-7.548,1.227
		c-1.062,2.615-3.802,4.455-6.625,4.449c-2.823-0.006-5.554-1.858-6.605-4.479c-1.534,2.471-5.209,3.287-7.645,1.699
		c-2.436-1.589-3.172-5.28-1.53-7.681c-3.281,2.41-8.236,2.186-11.286-0.511c-3.05-2.697-3.878-7.587-1.887-11.138
		c-3.063-1.304-4.743-5.183-3.597-8.309c1.145-3.126,4.932-5.001,8.112-4.019C147.725,270.603,152.589,261.531,154.494,260.877z"/>
	<path style="fill:#EBF0F3;" d="M258.985,212.035c4.122-1.416,12.034-2.547,14.446,1.083c0.859-3.108,3.779-5.532,6.992-5.804
		c3.213-0.272,6.499,1.627,7.868,4.546c1.415-3.444,5.57-5.5,9.167-4.536s6.166,4.823,5.668,8.514
		c1.121-3.245,5.504-4.845,8.452-3.085c2.948,1.76,3.62,6.377,1.296,8.904c3.078-3.085,9.053-2.278,11.202,1.513
		c2.149,3.791-0.227,9.333-4.455,10.389c6.423,0.512,11.758,6.926,11.092,13.334c-2.345,0.652-4.691,1.304-7.036,1.956
		c2.871,3.04,2.919,8.316,0.103,11.408c-2.816,3.092-8.073,3.536-11.368,0.961c2.883,3.21,2.979,8.56,0.213,11.872
		s-8.047,4.17-11.72,1.905c-1.65,4.061-5.903,6.917-10.286,6.907c-4.383-0.01-8.624-2.885-10.255-6.954
		c-2.382,3.836-8.088,5.104-11.87,2.638c-3.783-2.466-4.925-8.198-2.376-11.926c-5.094,3.742-12.787,3.394-17.522-0.794
		c-4.735-4.188-6.021-11.78-2.93-17.293c-4.756-2.025-7.363-8.047-5.585-12.901c1.778-4.853,7.657-7.765,12.595-6.24
		C248.476,227.135,256.028,213.051,258.985,212.035z"/>
	<path style="fill:#EBF0F3;" d="M71.221,222.671c4.563-1.567,13.322-2.819,15.992,1.199c0.951-3.441,4.184-6.124,7.741-6.426
		c3.557-0.301,7.195,1.801,8.711,5.033c1.567-3.813,6.166-6.089,10.148-5.021c3.982,1.068,6.826,5.339,6.274,9.425
		c1.241-3.592,6.094-5.363,9.357-3.415s4.007,7.059,1.435,9.857c3.408-3.416,10.022-2.522,12.401,1.675s-0.251,10.331-4.932,11.501
		c7.11,0.567,13.016,7.667,12.279,14.762c-2.597,0.722-5.193,1.443-7.79,2.165c3.178,3.366,3.231,9.206,0.114,12.629
		c-3.117,3.423-8.937,3.914-12.585,1.064c3.192,3.554,3.298,9.476,0.236,13.142c-3.062,3.666-8.908,4.617-12.974,2.109
		c-1.826,4.495-6.535,7.657-11.387,7.646c-4.852-0.011-9.547-3.194-11.352-7.698c-2.637,4.247-8.953,5.65-13.141,2.92
		c-4.188-2.73-5.452-9.076-2.63-13.202c-5.64,4.143-14.156,3.757-19.398-0.879c-5.242-4.636-6.666-13.041-3.244-19.145
		c-5.265-2.241-8.152-8.909-6.183-14.282c1.968-5.372,8.477-8.596,13.943-6.907C59.587,239.386,67.947,223.795,71.221,222.671z"/>
	<path style="fill:#EBF0F3;" d="M344.141,152.509c4.122-1.416,12.034-2.547,14.446,1.083c0.859-3.108,3.779-5.532,6.992-5.804
		c3.213-0.272,6.499,1.627,7.868,4.546c1.415-3.445,5.57-5.5,9.167-4.536c3.597,0.965,6.166,4.823,5.668,8.514
		c1.121-3.245,5.504-4.845,8.452-3.085c2.948,1.76,3.62,6.377,1.296,8.904c3.078-3.085,9.053-2.278,11.202,1.513
		c2.149,3.791-0.226,9.332-4.455,10.389c6.423,0.512,11.758,6.926,11.092,13.334c-2.345,0.652-4.691,1.304-7.036,1.956
		c2.871,3.04,2.919,8.316,0.103,11.408c-2.816,3.092-8.073,3.536-11.368,0.961c2.883,3.21,2.979,8.56,0.213,11.872
		c-2.766,3.312-8.047,4.17-11.72,1.905c-1.65,4.061-5.903,6.917-10.286,6.907c-4.383-0.01-8.624-2.885-10.255-6.954
		c-2.382,3.836-8.088,5.104-11.87,2.638c-3.783-2.466-4.925-8.198-2.376-11.926c-5.094,3.742-12.787,3.394-17.522-0.794
		c-4.735-4.188-6.021-11.78-2.93-17.293c-4.756-2.025-7.363-8.047-5.585-12.901c1.778-4.853,7.657-7.765,12.595-6.24
		C333.632,167.609,341.184,153.525,344.141,152.509z"/>
	<path style="fill:#EBF0F3;" d="M299.656,100.584c3.073-1.055,8.972-1.899,10.769,0.808c0.64-2.317,2.818-4.124,5.213-4.327
		c2.395-0.203,4.845,1.213,5.866,3.389c1.055-2.568,4.153-4.1,6.834-3.381c2.682,0.719,4.597,3.596,4.225,6.347
		c0.836-2.419,4.104-3.612,6.301-2.3c2.198,1.312,2.699,4.754,0.966,6.638c2.295-2.3,6.749-1.699,8.352,1.128
		c1.602,2.827-0.169,6.958-3.321,7.745c4.788,0.382,8.766,5.163,8.269,9.941c-1.749,0.486-3.497,0.972-5.246,1.458
		c2.14,2.267,2.176,6.2,0.077,8.505c-2.099,2.305-6.019,2.636-8.475,0.716c2.149,2.393,2.221,6.381,0.159,8.85
		c-2.062,2.469-5.999,3.109-8.737,1.42c-1.23,3.027-4.401,5.157-7.669,5.149c-3.268-0.007-6.429-2.151-7.645-5.184
		c-1.776,2.86-6.029,3.805-8.85,1.966c-2.82-1.839-3.671-6.112-1.771-8.891c-3.798,2.79-9.533,2.53-13.063-0.592
		s-4.489-8.782-2.184-12.893c-3.546-1.509-5.49-6-4.164-9.618c1.326-3.618,5.709-5.789,9.39-4.652
		C291.822,111.841,297.452,101.341,299.656,100.584z"/>
	<path style="fill:#EBF0F3;" d="M256.967,76.016c2.019-0.737,5.895-1.327,7.076,0.564c0.421-1.619,1.851-2.882,3.425-3.024
		c1.574-0.142,3.184,0.848,3.854,2.368c0.693-1.794,2.728-2.865,4.49-2.363c1.762,0.502,3.02,2.512,2.776,4.435
		c0.549-1.69,2.696-2.524,4.14-1.607c1.444,0.917,1.773,3.322,0.635,4.638c1.508-1.607,4.435-1.187,5.488,0.788
		c1.053,1.975-0.111,4.862-2.182,5.412c3.146,0.267,5.76,3.608,5.433,6.946c-1.149,0.34-2.298,0.679-3.447,1.019
		c1.406,1.584,1.43,4.332,0.05,5.943c-1.379,1.611-3.955,1.842-5.569,0.5c1.412,1.672,1.459,4.459,0.104,6.184
		c-1.355,1.725-3.942,2.172-5.741,0.992c-0.808,2.115-2.892,3.603-5.039,3.598c-2.147-0.005-4.224-1.503-5.023-3.622
		c-1.167,1.998-3.962,2.659-5.815,1.374c-1.853-1.285-2.412-4.271-1.164-6.212c-2.495,1.949-6.264,1.768-8.583-0.414
		c-2.319-2.181-2.95-6.137-1.435-9.009c-2.33-1.055-3.607-4.192-2.736-6.721c0.871-2.528,3.751-4.045,6.17-3.25
		C251.82,83.882,255.519,76.545,256.967,76.016z"/>
	<path style="fill:#EBF0F3;" d="M207.547,71.756c2.019-0.737,5.895-1.327,7.076,0.564c0.421-1.619,1.851-2.882,3.425-3.024
		c1.574-0.142,3.184,0.848,3.854,2.368c0.693-1.794,2.729-2.865,4.49-2.363c1.762,0.502,3.02,2.512,2.776,4.435
		c0.549-1.69,2.696-2.524,4.14-1.607c1.444,0.917,1.773,3.322,0.635,4.638c1.508-1.607,4.435-1.187,5.488,0.788
		c1.053,1.975-0.111,4.862-2.182,5.412c3.146,0.267,5.76,3.608,5.433,6.946c-1.149,0.34-2.298,0.679-3.447,1.019
		c1.406,1.584,1.43,4.332,0.05,5.943c-1.379,1.611-3.955,1.842-5.569,0.5c1.412,1.672,1.459,4.459,0.104,6.184
		s-3.942,2.172-5.741,0.992c-0.808,2.115-2.892,3.603-5.039,3.598c-2.147-0.005-4.224-1.503-5.023-3.622
		c-1.167,1.998-3.962,2.659-5.815,1.374c-1.853-1.285-2.412-4.271-1.164-6.212c-2.495,1.949-6.264,1.768-8.583-0.414
		c-2.319-2.181-2.95-6.137-1.435-9.009c-2.33-1.055-3.607-4.192-2.736-6.721c0.871-2.528,3.751-4.045,6.17-3.25
		C202.4,79.622,206.099,72.285,207.547,71.756z"/>
	<path style="fill:#EBF0F3;" d="M292.257,170.691c2.019-0.737,5.895-1.327,7.076,0.564c0.421-1.619,1.851-2.882,3.425-3.024
		s3.184,0.848,3.854,2.368c0.693-1.794,2.729-2.865,4.49-2.363c1.762,0.502,3.02,2.512,2.776,4.435
		c0.549-1.69,2.696-2.524,4.14-1.607c1.444,0.917,1.773,3.322,0.635,4.638c1.508-1.607,4.435-1.187,5.488,0.788
		c1.053,1.975-0.111,4.862-2.182,5.412c3.146,0.267,5.76,3.608,5.433,6.946c-1.149,0.34-2.298,0.679-3.447,1.019
		c1.406,1.584,1.43,4.332,0.05,5.943c-1.379,1.611-3.955,1.842-5.569,0.501c1.412,1.672,1.459,4.459,0.104,6.184
		c-1.355,1.725-3.942,2.172-5.741,0.992c-0.808,2.115-2.892,3.603-5.039,3.598c-2.147-0.005-4.224-1.503-5.023-3.622
		c-1.167,1.998-3.962,2.659-5.815,1.374s-2.412-4.271-1.164-6.212c-2.495,1.949-6.264,1.768-8.583-0.414
		c-2.319-2.181-2.95-6.137-1.435-9.009c-2.33-1.055-3.607-4.192-2.736-6.721c0.871-2.528,3.751-4.045,6.17-3.25
		C287.109,178.557,290.809,171.22,292.257,170.691z"/>
	<path style="fill:#EBF0F3;" d="M215.778,252.033c2.019-0.737,5.895-1.327,7.076,0.564c0.421-1.619,1.851-2.882,3.425-3.024
		c1.574-0.142,3.184,0.848,3.854,2.368c0.693-1.794,2.728-2.865,4.49-2.363c1.762,0.502,3.02,2.512,2.776,4.435
		c0.549-1.69,2.696-2.524,4.14-1.607c1.444,0.917,1.773,3.322,0.635,4.638c1.508-1.607,4.435-1.187,5.488,0.788
		s-0.111,4.862-2.182,5.412c3.146,0.267,5.76,3.608,5.433,6.946c-1.149,0.34-2.298,0.679-3.447,1.019
		c1.406,1.584,1.43,4.332,0.05,5.943s-3.955,1.842-5.569,0.501c1.412,1.672,1.459,4.459,0.104,6.184
		c-1.355,1.725-3.942,2.172-5.741,0.992c-0.808,2.115-2.892,3.603-5.039,3.598c-2.147-0.005-4.224-1.503-5.023-3.622
		c-1.167,1.998-3.962,2.659-5.815,1.374s-2.412-4.271-1.164-6.212c-2.495,1.949-6.264,1.768-8.583-0.414
		c-2.319-2.181-2.95-6.137-1.435-9.009c-2.33-1.055-3.607-4.192-2.736-6.721c0.871-2.528,3.751-4.045,6.17-3.25
		C210.63,259.899,214.329,252.562,215.778,252.033z"/>
	<path style="fill:#EBF0F3;" d="M297.584,347.591c2.019-0.737,5.895-1.327,7.076,0.564c0.421-1.619,1.851-2.882,3.425-3.024
		c1.574-0.142,3.184,0.848,3.854,2.368c0.693-1.794,2.728-2.865,4.49-2.363s3.02,2.513,2.776,4.435
		c0.549-1.69,2.696-2.524,4.14-1.607c1.444,0.917,1.773,3.322,0.635,4.638c1.508-1.607,4.435-1.187,5.488,0.788
		c1.053,1.975-0.111,4.862-2.182,5.412c3.146,0.267,5.76,3.608,5.433,6.946c-1.149,0.34-2.298,0.679-3.447,1.019
		c1.406,1.584,1.43,4.332,0.05,5.943c-1.379,1.611-3.955,1.842-5.569,0.5c1.412,1.672,1.459,4.459,0.104,6.184
		c-1.355,1.725-3.942,2.172-5.741,0.992c-0.808,2.115-2.892,3.603-5.039,3.598c-2.147-0.005-4.224-1.503-5.023-3.622
		c-1.167,1.998-3.962,2.659-5.815,1.374c-1.853-1.285-2.412-4.271-1.164-6.212c-2.495,1.949-6.264,1.768-8.583-0.414
		c-2.319-2.181-2.95-6.137-1.435-9.009c-2.33-1.055-3.607-4.192-2.736-6.721c0.871-2.528,3.751-4.045,6.17-3.25
		C292.436,355.456,296.135,348.12,297.584,347.591z"/>
	<path style="fill:#EBF0F3;" d="M340.359,221.272c2.019-0.737,5.895-1.327,7.076,0.564c0.421-1.619,1.851-2.882,3.425-3.024
		c1.574-0.142,3.184,0.847,3.854,2.368c0.693-1.794,2.728-2.865,4.49-2.363c1.762,0.502,3.02,2.512,2.776,4.435
		c0.549-1.69,2.696-2.524,4.14-1.607c1.444,0.917,1.773,3.322,0.635,4.638c1.508-1.607,4.435-1.187,5.488,0.788
		c1.053,1.975-0.111,4.862-2.182,5.412c3.146,0.267,5.76,3.608,5.433,6.946c-1.149,0.34-2.298,0.679-3.447,1.019
		c1.406,1.584,1.43,4.332,0.05,5.943c-1.379,1.611-3.955,1.842-5.569,0.501c1.412,1.672,1.459,4.459,0.104,6.184
		c-1.355,1.725-3.942,2.172-5.741,0.992c-0.808,2.115-2.892,3.603-5.039,3.598c-2.147-0.005-4.224-1.503-5.023-3.622
		c-1.167,1.998-3.962,2.659-5.815,1.374c-1.853-1.285-2.412-4.271-1.164-6.212c-2.495,1.949-6.264,1.768-8.583-0.414
		c-2.319-2.181-2.95-6.136-1.435-9.009c-2.33-1.055-3.607-4.192-2.736-6.721c0.871-2.528,3.751-4.045,6.17-3.25
		C335.211,229.138,338.91,221.801,340.359,221.272z"/>
	<path style="fill:#EBF0F3;" d="M161.648,88.388c2.019-0.737,5.895-1.327,7.076,0.564c0.421-1.619,1.851-2.882,3.425-3.024
		c1.574-0.142,3.184,0.848,3.854,2.368c0.693-1.794,2.728-2.865,4.49-2.363c1.762,0.502,3.02,2.512,2.776,4.435
		c0.549-1.69,2.696-2.524,4.14-1.607c1.444,0.917,1.773,3.322,0.635,4.638c1.508-1.607,4.435-1.187,5.488,0.788
		c1.053,1.975-0.111,4.862-2.182,5.412c3.146,0.267,5.76,3.608,5.433,6.946c-1.149,0.34-2.298,0.679-3.447,1.019
		c1.406,1.584,1.43,4.332,0.05,5.943c-1.379,1.611-3.955,1.842-5.569,0.501c1.412,1.672,1.459,4.459,0.104,6.184
		c-1.355,1.725-3.942,2.172-5.741,0.992c-0.808,2.115-2.892,3.603-5.039,3.598c-2.147-0.005-4.224-1.503-5.023-3.622
		c-1.167,1.998-3.962,2.659-5.815,1.374c-1.853-1.285-2.412-4.271-1.164-6.212c-2.495,1.949-6.264,1.768-8.583-0.414
		c-2.319-2.181-2.95-6.137-1.435-9.009c-2.33-1.055-3.607-4.192-2.736-6.721c0.871-2.528,3.751-4.045,6.17-3.25
		C156.5,96.253,160.199,88.917,161.648,88.388z"/>
</g>
<path style="fill:#44C4A1;" d="M272.349,430.21c-10.845-4.461-7.415-16.014-18.26-20.475c-2.511-1.033-5.092-2.111-7.013-4.03
	c-1.921-1.918-3.037-4.909-1.986-7.413c-9.085,1.426-18.561-6.074-19.26-15.244c-5.508-0.885-11.015-1.771-16.523-2.656
	c2.006-2.38,2.362-6.017,0.854-8.74c-1.508-2.723-4.78-4.351-7.862-3.913c0.022-4.155,0.044-8.309,0.067-12.464
	c-4.573-0.287-9.146-0.574-13.72-0.86c-0.274-3.793-0.547-7.587-0.821-11.38c-3.348-0.371-6.696-0.742-10.043-1.113
	c1.833-4.62,3.666-9.24,5.5-13.86c-4.507-0.894-9.013-1.788-13.52-2.682c2.522-9.598-1.209-20.538-9.069-26.596
	c-2.85,5.549-9.374,10.79-15.275,12.811c2.363,0.719,2.023,4.341,0.418,6.218c-1.605,1.877-4.007,3.265-4.656,5.648
	c-0.641,2.355,0.689,4.76,0.939,7.188c0.25,2.428-1.903,5.507-4.056,4.358c2.147,5.259,0.804,11.756-3.253,15.733
	c0.729,6.241,0.522,12.591-0.613,18.771c-0.705,3.843-1.77,7.662-1.746,11.569c0.025,3.907,1.348,8.055,4.502,10.36
	c22.705,16.589,40.934,39.475,68.546,44.792C233.112,441.55,248.218,444.646,272.349,430.21z"/>
<path style="fill:#3EA69B;" d="M159.379,333.75c0,0-1.446,64.579,58.059,87.181C217.438,420.931,166.822,381.723,159.379,333.75z"/>
<path style="fill:#44C4A1;" d="M326.661,393.316c9.118-7.374,18.237-14.748,27.355-22.121c2.111-1.707,4.276-3.478,5.569-5.866
	s1.507-5.572-0.215-7.671c9.114-1.229,16.052-11.125,14.101-20.112c5.025-2.422,10.05-4.845,15.075-7.267
	c-2.603-1.707-3.983-5.092-3.315-8.132c0.667-3.04,3.338-5.536,6.416-5.996c-1.209-3.975-2.417-7.95-3.625-11.926
	c4.301-1.582,8.601-3.163,12.902-4.745c-0.822-3.713-1.644-7.427-2.466-11.14c3.102-1.312,6.204-2.625,9.306-3.937
	c-3.077-3.904-6.154-7.807-9.231-11.711c4.063-2.144,8.127-4.289,12.19-6.433c-5.159-8.478-4.71-20.027,1.091-28.079
	c4.317,4.503,12.066,7.661,18.299,7.913c-2.059,1.365-0.699,4.738,1.376,6.078c2.075,1.34,4.773,1.984,6.076,4.082
	c1.287,2.074,0.7,4.759,1.154,7.157s3.397,4.734,5.132,3.017c-0.555,5.654,2.589,11.496,7.613,14.147
	c1.085,6.189,3.098,12.215,5.951,17.814c1.774,3.481,3.886,6.836,4.979,10.588s1.01,8.104-1.354,11.215
	c-17.018,22.385-27.948,49.526-52.889,62.511C383.21,395.689,353.911,400.255,326.661,393.316z"/>
<path style="fill:#3EA69B;" d="M420.26,267.295c0,0,19.839,61.474-30.727,100.137C389.533,367.432,426.835,315.394,420.26,267.295z"
	/>
<g>
</g>
<g>
</g>
<g>
</g>
<g>
</g>
<g>
</g>
<g>
</g>
<g>
</g>
<g>
</g>
<g>
</g>
<g>
</g>
<g>
</g>
<g>
</g>
<g>
</g>
<g>
</g>
<g>
</g>
</svg>
