<?xml version="1.0" encoding="iso-8859-1"?>
<!-- Generator: Adobe Illustrator 19.0.0, SVG Export Plug-In . SVG Version: 6.00 Build 0)  -->
<svg version="1.1" id="Capa_1" xmlns="http://www.w3.org/2000/svg" xmlns:xlink="http://www.w3.org/1999/xlink" x="0px" y="0px"
	 viewBox="0 0 468.293 468.293" style="enable-background:new 0 0 468.293 468.293;" xml:space="preserve">
<path style="fill:#44C4A1;" d="M258.056,24.58c12.462-6.136,27.261-7.364,40.562-3.363c-5.583,6.742-11.166,13.484-16.749,20.227
	c9.188-6.151,22.125-6.078,31.243,0.176c6.743,4.626,12.089,12.477,20.241,13.123c-5.437,3.313-9.673,8.223-14.049,12.847
	c-4.376,4.625-9.166,9.157-15.142,11.353c-5.976,2.196-13.43,1.507-17.701-3.215c6.502,5.082,11.034,12.623,12.47,20.75
	c-11.761-0.7-23.398-3.445-34.231-8.076c0.619,3.525,1.238,7.05,1.858,10.575c-4.807-0.554-9.669-1.12-14.207-2.8
	c-4.538-1.68-9.094-4.56-11.399-8.815c-2.212-4.083-11.66-49.565-9.387-55.663c2.533-6.795,16.401-13.467,23.153-15.944
	c2.125-0.779,8.303-2.944,10.258-1.055C267.522,17.159,259.905,22.689,258.056,24.58z"/>
<g>
	<path style="fill:#3EA69B;" d="M286.161,23.592l-44.154,31.102C242.006,54.694,269.276,26.441,286.161,23.592z"/>
	<path style="fill:#3EA69B;" d="M288.878,86.823l-43.751-13.624C245.127,73.199,274.71,89.214,288.878,86.823z"/>
	<path style="fill:#3EA69B;" d="M321.597,52.191l-77.799,13.126C243.798,65.317,290.556,52.05,321.597,52.191z"/>
</g>
<path style="fill:#44C4A1;" d="M194.909,71.355c-10.92-0.047-21.803,4.18-29.83,11.584c6.266,2.842,12.532,5.684,18.799,8.526
	c-8.611-1.184-17.731,3.321-22.024,10.877c-3.175,5.589-4.253,12.976-9.793,16.238c4.983,0.469,9.667,2.48,14.351,4.242
	s9.63,3.315,14.609,2.809c4.98-0.505,10.012-3.558,11.406-8.363c-2.848,5.828-3.457,12.716-1.676,18.952
	c8.073-4.542,15.354-10.487,21.419-17.487c0.775,2.703,1.55,5.407,2.325,8.11c3.208-2.046,6.449-4.119,9.079-6.868
	c2.63-2.749,4.86-6.352,5.025-10.151c0.159-3.646-8.811-39.031-12.516-42.557c-4.128-3.929-16.227-3.87-21.852-3.295
	c-1.77,0.181-6.882,0.778-7.615,2.785C185.664,69.37,192.951,70.656,194.909,71.355z"/>
<g>
	<path style="fill:#3EA69B;" d="M174.702,80.33l41.912,6.777C216.615,87.107,187.617,76.532,174.702,80.33z"/>
	<path style="fill:#3EA69B;" d="M194.536,125.939l26.239-24.683C220.776,101.255,205.374,122.751,194.536,125.939z"/>
	<path style="fill:#3EA69B;" d="M159.493,112.732l59.51-17.503C219.003,95.229,181.386,101.949,159.493,112.732z"/>
</g>
<path style="fill:#64798A;" d="M215.014,0h-11.036c-4.465,0-7.655,4.314-6.312,8.572c9.46,29.984,46.34,123.517,32.248,159.305
	l10.449-2.342c13.11-60.503-12.401-141.471-19.11-161.109C220.341,1.751,217.84,0,215.014,0z"/>
<circle style="fill:#D15241;" cx="233.925" cy="423.461" r="44.831"/>
<circle style="fill:#E56353;" cx="226.651" cy="423.461" r="29.752"/>
<circle style="fill:#E1E6E9;" cx="213.257" cy="423.461" r="16.359"/>
<circle style="fill:#D15241;" cx="193.252" cy="369.845" r="44.831"/>
<circle style="fill:#E56353;" cx="185.953" cy="369.845" r="29.752"/>
<circle style="fill:#E1E6E9;" cx="172.591" cy="369.845" r="16.359"/>
<circle style="fill:#D15241;" cx="275.059" cy="369.845" r="44.831"/>
<circle style="fill:#E56353;" cx="267.81" cy="369.845" r="29.752"/>
<circle style="fill:#E1E6E9;" cx="254.386" cy="369.845" r="16.359"/>
<circle style="fill:#D15241;" cx="152.117" cy="314.237" r="44.831"/>
<circle style="fill:#E56353;" cx="144.843" cy="314.237" r="29.752"/>
<circle style="fill:#E1E6E9;" cx="131.45" cy="314.237" r="16.359"/>
<circle style="fill:#D15241;" cx="233.925" cy="314.237" r="44.831"/>
<circle style="fill:#E56353;" cx="226.651" cy="314.237" r="29.752"/>
<circle style="fill:#E1E6E9;" cx="213.257" cy="314.237" r="16.359"/>
<circle style="fill:#D15241;" cx="315.763" cy="314.237" r="44.831"/>
<circle style="fill:#E56353;" cx="308.458" cy="314.237" r="29.752"/>
<circle style="fill:#E1E6E9;" cx="295.065" cy="314.237" r="16.359"/>
<circle style="fill:#D15241;" cx="111.444" cy="251.536" r="44.831"/>
<circle style="fill:#E56353;" cx="104.158" cy="251.536" r="29.752"/>
<circle style="fill:#E1E6E9;" cx="90.796" cy="251.536" r="16.359"/>
<circle style="fill:#D15241;" cx="193.252" cy="251.536" r="44.831"/>
<circle style="fill:#E56353;" cx="185.953" cy="251.536" r="29.752"/>
<circle style="fill:#E1E6E9;" cx="172.591" cy="251.536" r="16.359"/>
<circle style="fill:#D15241;" cx="275.059" cy="251.536" r="44.831"/>
<circle style="fill:#E56353;" cx="267.81" cy="251.536" r="29.752"/>
<circle style="fill:#E1E6E9;" cx="254.386" cy="251.536" r="16.359"/>
<circle style="fill:#D15241;" cx="356.848" cy="251.536" r="44.831"/>
<circle style="fill:#E56353;" cx="349.605" cy="251.536" r="29.752"/>
<circle style="fill:#E1E6E9;" cx="336.181" cy="251.536" r="16.359"/>
<circle style="fill:#D15241;" cx="157.193" cy="190.121" r="44.831"/>
<circle style="fill:#E56353;" cx="149.919" cy="190.121" r="29.752"/>
<circle style="fill:#E1E6E9;" cx="136.52" cy="190.121" r="16.359"/>
<circle style="fill:#D15241;" cx="233.925" cy="190.121" r="44.831"/>
<circle style="fill:#E56353;" cx="226.651" cy="190.121" r="29.752"/>
<circle style="fill:#E1E6E9;" cx="213.257" cy="190.121" r="16.359"/>
<circle style="fill:#D15241;" cx="310.643" cy="190.121" r="44.831"/>
<circle style="fill:#E56353;" cx="303.401" cy="190.121" r="29.752"/>
<circle style="fill:#E1E6E9;" cx="289.995" cy="190.121" r="16.359"/>
<g>
</g>
<g>
</g>
<g>
</g>
<g>
</g>
<g>
</g>
<g>
</g>
<g>
</g>
<g>
</g>
<g>
</g>
<g>
</g>
<g>
</g>
<g>
</g>
<g>
</g>
<g>
</g>
<g>
</g>
</svg>
