<?xml version="1.0" encoding="iso-8859-1"?>
<!-- Generator: Adobe Illustrator 19.0.0, SVG Export Plug-In . SVG Version: 6.00 Build 0)  -->
<svg version="1.1" id="Capa_1" xmlns="http://www.w3.org/2000/svg" xmlns:xlink="http://www.w3.org/1999/xlink" x="0px" y="0px"
	 viewBox="0 0 468.293 468.293" style="enable-background:new 0 0 468.293 468.293;" xml:space="preserve">
<path style="fill:#44C4A1;" d="M240.382,65.908c0-36.4-29.508-65.908-65.907-65.908C174.474,36.4,203.982,65.908,240.382,65.908z"/>
<path style="fill:#3EA69B;" d="M211.319,24.263c0.04,0.09,1.128,2.763-0.709,8.324c-9.313-9.718-20.31-19.981-31.171-27.195
	l21.281,21.202c-5.423,1.133-7.852-0.15-7.935-0.197c-0.675-0.423-1.568-0.229-2.002,0.441c-0.446,0.669-0.246,1.585,0.423,2.025
	c0.383,0.252,3.942,2.357,11.894,0.189c0.021-0.006,0.031-0.029,0.052-0.035l12.938,12.889c-5.663,1.262-8.196-0.07-8.281-0.118
	c-0.675-0.423-1.568-0.229-2.002,0.441c-0.452,0.664-0.252,1.579,0.423,2.025c0.383,0.252,3.942,2.357,11.894,0.189
	c0.127-0.034,0.197-0.143,0.305-0.206l16.194,16.133c0,0-9.031-11.878-21.777-25.443c0.03-0.055,0.092-0.079,0.115-0.139
	c2.929-7.703,1.179-11.449,0.965-11.855c-0.379-0.715-1.27-1.003-1.974-0.618C211.243,22.682,210.963,23.551,211.319,24.263z"/>
<path style="fill:#64798A;" d="M241.698,95.484c4.911-28.831,37.492-46.407,39.217-47.316c4.988-2.606,6.925-8.757,4.335-13.754
	c-2.598-4.988-8.765-6.941-13.762-4.343c-17.896,9.311-46.439,33.025-50.369,65.412H241.698z"/>
<path style="fill:#F6C358;" d="M300.133,422.291c-3.426,3.835-7.18,7.426-11.26,10.608c-62.26,48.469-101.345,39.004-124.274,19.584
	c-3.183-2.693-6.038-5.63-8.65-8.568c-12.24-14.035-18.441-32.231-19.013-50.836c-0.734-20.236-4.895-55.976-23.174-95.225
	C34.613,84.311,234.529,90.594,234.529,90.594c19.584-0.571,36.474,2.367,50.835,7.67c60.71,21.787,78.334,82.904,78.334,82.904
	S409.067,300.301,300.133,422.291z"/>
<path style="fill:#FCD462;" d="M273.125,408.419c-3.427,3.835-7.262,7.426-11.261,10.526
	c-42.431,33.129-74.092,39.249-97.264,33.537c-3.183-2.693-6.038-5.63-8.65-8.568c-12.24-14.035-18.441-32.231-19.013-50.836
	c-0.734-20.236-4.895-55.976-23.174-95.225C34.613,84.311,234.529,90.594,234.529,90.594c19.584-0.571,36.474,2.367,50.835,7.67
	c39.003,26.764,51.243,69.032,51.243,69.032S382.058,286.429,273.125,408.419z"/>
<path style="fill:#EBF0F3;" d="M153.361,209.839c0,36.457,13.53,66.011,5.913,66.011s-33.499-29.554-33.499-66.011
	s25.881-66.011,33.499-66.011S153.361,173.382,153.361,209.839z"/>
<g>
</g>
<g>
</g>
<g>
</g>
<g>
</g>
<g>
</g>
<g>
</g>
<g>
</g>
<g>
</g>
<g>
</g>
<g>
</g>
<g>
</g>
<g>
</g>
<g>
</g>
<g>
</g>
<g>
</g>
</svg>
