<?xml version="1.0" encoding="iso-8859-1"?>
<!-- Generator: Adobe Illustrator 19.0.0, SVG Export Plug-In . SVG Version: 6.00 Build 0)  -->
<svg version="1.1" id="Capa_1" xmlns="http://www.w3.org/2000/svg" xmlns:xlink="http://www.w3.org/1999/xlink" x="0px" y="0px"
	 viewBox="0 0 468.315 468.315" style="enable-background:new 0 0 468.315 468.315;" xml:space="preserve">
<path style="fill:#3EA69B;" d="M296.432,111.663c6.343,0.007,11.609-0.524,14.607-0.912c1.942-0.252,3.635-1.538,4.28-3.387
	c1.136-3.259,0.727-6.903-0.508-10.524c-1.091-3.202,1.132-6.675,4.507-6.901c15.264-1.021,23.862-8.85,26.552-11.753
	c0.619-0.668,1.046-1.432,1.229-2.324c1.288-6.26,1.005-20.03-13.016-33.148c-13.117-14.021-26.887-14.304-33.147-13.016
	c-0.892,0.184-1.656,0.61-2.325,1.23c-2.903,2.69-10.731,11.288-11.752,26.552c-0.226,3.375-3.7,5.598-6.901,4.507
	c-3.621-1.234-7.266-1.644-10.524-0.508c-1.849,0.645-3.136,2.338-3.387,4.28c-0.388,2.998-0.919,8.264-0.912,14.607
	c0.005,4.715-5.704,7.227-9.016,3.871c-0.059-0.059-0.117-0.119-0.175-0.179c-2.536-2.6-6.917-1.837-8.467,1.447
	c-4.995,10.583-12.352,30.661-5.756,46.707c0.526,1.281,1.587,2.342,2.868,2.868c16.045,6.596,36.124-0.76,46.707-5.756
	c3.284-1.55,4.047-5.931,1.447-8.467c-0.06-0.058-0.12-0.117-0.179-0.176C289.206,117.366,291.717,111.657,296.432,111.663z"/>
<path style="fill:#44C4A1;" d="M321.664,50.086l-73.276,79.013C248.388,129.099,319.838,67.036,321.664,50.086z"/>
<path style="fill:#3EA69B;" d="M171.913,111.663c-6.343,0.007-11.609-0.524-14.607-0.912c-1.942-0.252-3.635-1.538-4.28-3.387
	c-1.136-3.259-0.727-6.903,0.508-10.524c1.091-3.202-1.132-6.675-4.507-6.901c-15.264-1.021-23.862-8.85-26.552-11.753
	c-0.619-0.668-1.046-1.432-1.229-2.324c-1.288-6.26-1.005-20.03,13.016-33.148c13.117-14.021,26.887-14.304,33.147-13.016
	c0.892,0.184,1.656,0.61,2.325,1.23c2.903,2.69,10.731,11.288,11.752,26.552c0.226,3.375,3.7,5.598,6.901,4.507
	c3.621-1.234,7.266-1.644,10.524-0.508c1.849,0.645,3.136,2.338,3.387,4.28c0.388,2.998,0.919,8.264,0.912,14.607
	c-0.005,4.715,5.704,7.227,9.016,3.871c0.059-0.059,0.117-0.119,0.175-0.179c2.536-2.6,6.917-1.837,8.467,1.447
	c4.995,10.583,12.352,30.661,5.756,46.707c-0.526,1.281-1.587,2.342-2.868,2.868c-16.045,6.596-36.124-0.76-46.707-5.756
	c-3.284-1.55-4.047-5.931-1.447-8.467c0.06-0.058,0.12-0.117,0.179-0.176C179.139,117.366,176.628,111.657,171.913,111.663z"/>
<g>
	<path style="fill:#44C4A1;" d="M146.681,50.086l73.276,79.013C219.957,129.099,148.507,67.036,146.681,50.086z"/>
	<path style="fill:#44C4A1;" d="M260.79,91.47c5.541-5.508,9.665-10.559,11.919-13.486c1.382-1.795,1.809-4.218,0.867-6.279
		c-1.779-3.893-5.311-6.742-9.559-8.831c-3.729-1.834-4.684-6.75-1.956-9.885c6.678-7.676,9.869-15.382,11.356-21.547
		c2.049-8.494-1.057-17.585-8.098-22.759c-6.608-4.855-16.717-9.127-31.147-8.646c-13.454-0.448-23.151,3.235-29.757,7.67
		c-8.135,5.461-11.731,15.457-9.186,24.918c1.602,5.953,4.797,13.171,11.055,20.364c2.727,3.135,1.773,8.051-1.956,9.885
		c-4.248,2.09-7.78,4.938-9.559,8.831c-0.942,2.06-0.515,4.484,0.867,6.279c2.254,2.926,6.378,7.978,11.919,13.486
		c4.034,4.01,1.107,10.911-4.581,10.857l-0.303-0.003c-4.41-0.042-7.509,4.303-6.021,8.455c4.777,13.33,15.668,36.845,35.064,44.942
		c1.557,0.65,3.361,0.65,4.918,0c19.396-8.097,30.288-31.613,35.065-44.942c1.488-4.152-1.611-8.497-6.021-8.455l-0.304,0.003
		C259.683,102.381,256.756,95.48,260.79,91.47z"/>
</g>
<path style="fill:#3EA69B;" d="M229.852,16.981l4.911,130.369C234.763,147.351,242.799,33.054,229.852,16.981z"/>
<path style="fill:#D15241;" d="M383.499,262.516c0,17.795-3.122,34.903-8.804,50.7c-12.675,35.028-38.026,63.938-70.494,81.233
	c-23.227,12.363-43.27,29.971-57.007,52.449l-13.05,21.417l-9.928-16.297l-3.122-5.12c-13.424-22.041-32.78-39.899-55.633-51.762
	c-24.102-12.488-44.332-31.406-58.568-54.447c-15.11-24.539-23.352-53.76-21.916-85.042c2.872-63.75,46.704-117.947,105.772-135.992
	c10.739-3.309,21.979-5.432,33.592-6.181C311.257,107.917,383.499,176.787,383.499,262.516z"/>
<path style="fill:#E56353;" d="M360.584,267.573c0,17.796-3.122,34.904-8.867,50.701c-12.612,35.027-37.963,63.938-70.431,81.233
	c-23.228,12.363-43.27,29.97-57.007,52.448l-0.063,0.063l-3.122-5.12c-13.424-22.041-32.78-39.899-55.633-51.762
	c-24.102-12.488-44.332-31.406-58.568-54.447c-15.11-24.539-23.352-53.76-21.916-85.042c2.872-63.75,46.704-117.947,105.772-135.992
	c3.497-0.562,7.056-0.874,10.677-1.123C288.342,112.974,360.584,181.844,360.584,267.573z"/>
<path style="fill:#EBF0F3;" d="M374.695,313.216c-12.675,35.028-38.026,63.938-70.494,81.233
	c-23.227,12.363-43.27,29.971-57.007,52.449l-13.05,21.417l-1.998-3.247l-11.052-18.17c-13.424-22.041-32.78-39.899-55.633-51.762
	c-24.102-12.488-44.332-31.406-58.568-54.447c3.247-11.926,14.673-21.791,27.161-24.664c15.86-3.559,32.468,1.561,47.266,8.305
	c14.798,6.806,28.909,15.485,44.582,19.668c15.797,4.122,34.091,2.998,46.205-7.929c11.551-10.553,15.548-28.41,29.034-36.277
	c13.112-7.742,29.846-2.872,43.832,3.122c4.371,1.873,8.804,3.871,13.362,5.682C363.705,310.657,369.2,312.404,374.695,313.216z"/>
<path style="fill:#E1E6E9;" d="M374.695,313.216c-12.675,35.028-38.026,63.938-70.494,81.233
	c-23.227,12.363-43.27,29.971-57.007,52.449l-13.05,21.417l-1.998-3.247c0.125-5.495,1.623-10.927,3.559-16.11
	c8.429-22.166,25.288-39.899,41.709-57.007c8.305-8.679,16.671-17.357,25.038-26.1c15.36-15.984,30.72-31.968,46.08-48.015
	c3.934-4.058,4.903-5.988,6.684-10.513C360.587,309.384,369.2,312.404,374.695,313.216z"/>
<g>
</g>
<g>
</g>
<g>
</g>
<g>
</g>
<g>
</g>
<g>
</g>
<g>
</g>
<g>
</g>
<g>
</g>
<g>
</g>
<g>
</g>
<g>
</g>
<g>
</g>
<g>
</g>
<g>
</g>
</svg>
