<?xml version="1.0" encoding="iso-8859-1"?>
<!-- Generator: Adobe Illustrator 19.0.0, SVG Export Plug-In . SVG Version: 6.00 Build 0)  -->
<svg version="1.1" id="Capa_1" xmlns="http://www.w3.org/2000/svg" xmlns:xlink="http://www.w3.org/1999/xlink" x="0px" y="0px"
	 viewBox="0 0 468.293 468.293" style="enable-background:new 0 0 468.293 468.293;" xml:space="preserve">
<path style="fill:#44C4A1;" d="M364.101,241.889c0,0-1.124,1.998-3.122,5.62c-13.986,25.849-77.612,135.368-88.351,215.352
	c-0.374,3.122-2.998,5.432-6.12,5.432h-77.736c-2.934,0-5.494-1.998-6.056-4.933c-13.611-65.811-48.14-183.134-82.232-209.358
	c-1-0.749-1.936-1.373-2.935-1.998l18.42-17.545c0,0,56.133,80.296,62.751,107.77c-3.059-15.672-18.607-92.597-32.468-103.711
	c3.059,1.561,51.512,26.911,55.258,80.421c0,0,18.482-17.483,18.482-56.258h17.421c0,0,11.614,46.579,6.806,73.678
	c0,0,32.967-66.872,41.646-74.615l14.549,3.871c0,0-37.776,69.807-36.84,92.098C263.574,357.713,329.197,227.778,364.101,241.889z"
	/>
<g>
	<path style="fill:#3EA69B;" d="M360.979,247.509c-13.986,25.849-77.612,135.368-88.351,215.352
		c-0.374,3.122-2.998,5.432-6.12,5.432h-10.052c-2.498-15.485,5.057-34.904,9.366-47.516
		c19.793-58.568,54.322-115.325,83.418-169.709C351.926,246.01,356.983,245.511,360.979,247.509z"/>
	<path style="fill:#3EA69B;" d="M208.752,468.293h-19.98c-2.934,0-5.494-1.998-6.056-4.933
		c-13.611-65.811-48.14-183.134-82.232-209.358c3.995-3.746,11.052-4.495,14.797,1.498c18.732,30.408,43.021,66.248,48.265,102.15
		C168.979,395.052,188.709,435.887,208.752,468.293z"/>
	<path style="fill:#3EA69B;" d="M272.565,224.906c0,0.062,0,0.125-0.063,0.187c-1.373,2.872-3.371,5.557-5.932,7.867
		c1.312,2.373,2.436,4.87,3.184,7.493c0.125,0.312,0.063,0.624,0.125,0.936c0.063,0.313,0.188,0.562,0.25,0.937
		c0.188,3.996-0.438,7.493-1.623,10.552c-5.12,12.675-20.792,16.546-33.467,8.866c-9.428,14.361-31.844,21.791-38.4,3.372
		c-6.806,4.246-10.614,5.744-20.23,1.311c-4.308-1.998-7.056-5.058-10.864-7.68c-8.055-5.495-4.683-3.684-13.175,2.248
		c-10.927,7.618-25.412,7.43-31.594-4.058c-8.992,4.87-14.861,8.492-23.79,0.749c-3.996-3.434-5.432-7.181-8.492-11.114
		c-4.87-6.369,1.062-3.871-8.554-6.244c-16.172-4.059-28.785-20.979-17.421-34.779c-12.488-9.366-12.238-25.413-1.811-34.341
		c1.936-1.748,4.184-3.122,6.744-4.246c-0.625-0.999-1.186-1.936-1.623-2.934c-4.87-10.053-1.623-19.543,5.619-26.412
		c13.05-12.55,39.212-16.359,53.011,0.999c13.862-8.554,31.907-6.431,36.277,9.74c14.611-6.744,32.593-10.49,41.834,4.433
		c7.306-5.557,16.11-9.99,24.851-4.308c7.617,4.933,8.742,13.3,6.806,21.104c7.243-0.562,16.235-1.311,20.793,3.996
		c4.683,5.432,3.059,15.36,2.309,22.915C273.627,196.621,278.622,212.293,272.565,224.906z"/>
</g>
<path style="fill:#44C4A1;" d="M275.999,234.396c0.375,8.304-2.684,14.611-7.492,18.482c-7.18,5.932-18.169,6.619-27.535,0.937
	c-9.491,14.298-31.845,21.791-38.463,3.309c-6.805,4.308-10.614,5.807-20.168,1.374c-4.308-2.061-7.055-5.12-10.927-7.743
	c-8.054-5.432-4.683-3.621-13.174,2.248c-10.864,7.617-25.413,7.492-31.595-3.996c-8.928,4.87-14.861,8.492-23.79,0.749
	c-3.995-3.434-5.431-7.243-8.491-11.176c-4.87-6.306,1.061-3.809-8.492-6.182c-16.234-4.058-28.847-20.979-17.483-34.778
	c-9.303-6.994-11.488-17.67-7.68-26.412c1.187-2.685,2.872-5.12,5.12-7.18c2.06-2.061,4.558-3.747,7.492-4.995
	c-4.87-7.617-4.87-15.048-1.873-21.417c13.05-12.55,39.212-16.359,53.011,0.999c13.862-8.554,31.907-6.431,36.277,9.74
	c14.611-6.744,32.593-10.49,41.834,4.433c7.306-5.557,16.11-9.99,24.851-4.308c7.617,4.933,8.742,13.3,6.806,21.104
	c7.243-0.562,16.235-1.311,20.793,3.996c4.683,5.432,3.059,15.36,2.309,22.915c16.297,0.125,21.292,15.797,15.236,28.41
	c-0.063,0.062-0.063,0.062-0.125,0.125c0,0,0,0.063,0.063,0.063c1.249,2.373,2.435,4.745,3.122,7.43
	c0.125,0.312,0.125,0.624,0.125,0.937C275.874,233.772,275.999,234.022,275.999,234.396z"/>
<path style="fill:#3EA69B;" d="M399.991,197.37c-0.187-0.291-0.432-0.465-0.659-0.681c-0.185-0.251-0.327-0.517-0.591-0.738
	c-1.953-1.941-4.17-3.504-6.518-4.883c5.677-17.75-8.847-36.926-26.279-26.942c-3.126-6.875-6.699-16.312-13.509-18.667
	c-6.57-2.272-13.993,2.902-19.942,6.988c-2.266-7.735-7.429-14.423-16.492-14.871c-10.412-0.515-15.809,7.723-19.334,16.191
	c-15.513-8.239-29.165,4.042-38.446,17.207c-11.906-11.814-28.559-4.614-36.268,9.732c-33.09-12.991-66.288,36.933-35.09,53.158
	c-10.783,14.411-3.239,33.65,15.1,35.871c-2.892,17.635,16.525,25.94,32.556,21.309c9.474-2.737,3.075-1.932,10.486,1.102
	c4.608,1.887,7.758,4.403,12.93,5.387c11.613,2.211,14.906-3.869,20.191-12.587c11.114,6.839,23.762-0.308,29.389-12.37
	c4.368-9.362,0.546-9.237,10.244-8.543c4.635,0.332,8.551,1.611,13.303,1.182c10.506-0.948,13.078-4.166,16.809-11.294
	c14.949,12.672,30.542-5.019,31.564-22.159C397.808,232.163,411.18,214.768,399.991,197.37z"/>
<path style="fill:#44C4A1;" d="M249.775,73.366c4.433,16.609-4.808,38.338-22.977,31.032c-1.249,7.93-2.685,11.801-12.363,15.984
	c-4.371,1.936-8.492,1.936-12.988,3.122c-9.428,2.373-5.869,1.062-7.056,11.301c-1.498,13.237-11.239,23.977-23.976,21.042
	c-2.248,9.928-3.434,16.734-15.172,18.295c-5.245,0.687-8.992-0.687-13.987-0.999c-7.992-0.562-2.123-3.372-10.303,2.248
	c-9.553,6.556-22.54,7.68-30.595,1.998c-1.124-0.874-2.186-1.873-3.122-2.997c-1.936-2.31-3.309-5.307-3.872-8.929
	c-7.617,1.561-14.423-0.375-19.231-4.371c-5.245-4.371-8.242-11.176-7.68-18.669c0.125-1.998,0.499-4.121,1.249-6.244
	c-4.745-0.749-8.492-2.498-11.427-4.87c-18.669-15.297-2.747-58.255,27.91-56.632c2.809-16.047,16.36-28.16,31.345-20.73
	c4.683-15.423,13.736-31.345,31.095-28.41c0.625-9.178,3.184-18.669,13.175-21.479c8.741-2.435,15.796,2.248,20.355,8.866
	c4.37-5.744,9.803-12.987,16.733-12.925c7.18,0.125,13.549,7.93,18.732,13.487c10.739-12.051,25.662-5.619,31.22,7.056
	c1.373,3.059,2.123,6.556,2.185,10.178c1.748,0.375,3.496,0.874,5.182,1.498c0.875,0.313,1.748,0.687,2.56,1.062
	c0.313,0.125,0.562,0.375,0.812,0.562c0.25,0.125,0.563,0.188,0.812,0.437c3.684,2.935,6.12,6.244,7.493,9.74
	C270.692,55.821,263.324,69.183,249.775,73.366z"/>
<path style="fill:#3EA69B;" d="M249.775,73.366c4.433,16.609-4.808,38.338-22.977,31.032c-1.249,7.93-2.685,11.801-12.363,15.984
	c-4.371,1.936-8.492,1.936-12.988,3.122c-9.428,2.373-5.869,1.062-7.056,11.301c-1.498,13.237-11.239,23.977-23.976,21.042
	c-2.248,9.928-3.434,16.734-15.172,18.295c-5.245,0.687-8.992-0.687-13.987-0.999c-7.992-0.562-2.123-3.372-10.303,2.248
	c-9.553,6.556-22.54,7.68-30.595,1.998c-0.375-1.061-0.625-2.185-0.813-3.372c-0.748,0.188-1.561,0.312-2.309,0.375
	c-10.864,1.249-19.668-4.558-23.103-13.3c-1.935-4.808-2.185-10.49-0.249-16.359c-2.81-0.437-5.245-1.249-7.431-2.31
	c-4.932-2.435-8.304-6.369-10.178-11.114c-7.367-18.607,8.055-49.452,34.154-48.078c2.748-16.047,16.297-28.16,31.345-20.667
	c4.62-15.423,13.674-31.407,31.032-28.472c0.688-9.179,3.184-18.67,13.238-21.479c8.741-2.435,15.735,2.248,20.355,8.929
	c4.308-5.807,9.74-13.05,16.671-12.925c7.242,0.063,13.611,7.867,18.732,13.424c7.867-8.866,18.045-7.742,25.038-1.498
	c3.372,2.935,5.994,6.993,7.367,11.676c0.625,2.248,0.999,4.621,1.062,7.056c2.623,0.562,5.245,1.374,7.681,2.623
	c0.312,0.125,0.561,0.312,0.811,0.499c0.313,0.125,0.563,0.188,0.812,0.437c0.437,0.375,0.874,0.749,1.312,1.186
	C270.692,55.821,263.324,69.183,249.775,73.366z"/>
<path style="fill:#31978C;" d="M218.54,109.005c-4.443,16.586,4.765,38.295,22.951,30.992c1.288,7.942,2.713,11.807,12.382,16.024
	c4.373,1.907,8.492,1.93,12.995,3.079c9.421,2.404,5.834,1.078,7.022,11.34c1.53,13.223,11.274,23.998,23.979,21.018
	c2.262,9.941,3.467,16.75,15.183,18.319c5.218,0.699,9.002-0.694,13.97-1.029c7.989-0.538,2.172-3.323,10.297,2.265
	c13.748,9.457,34.794,7.708,37.619-9.938c18.102,3.683,31.335-12.189,25.655-29.268c34.725-5.544,18.99-63.396-16.509-61.519
	c-2.784-16.047-16.311-28.137-31.339-20.687c-4.649-15.422-13.725-31.386-31.046-28.467c-0.671-9.148-3.19-18.669-13.232-21.468
	c-8.741-2.437-15.752,2.279-20.344,8.902c-4.355-5.756-9.764-13.009-16.715-12.928c-7.206,0.084-13.575,7.909-18.712,13.446
	c-13.387-14.978-33.223-1.369-33.442,17.265c-2.663,0.567-5.261,1.35-7.726,2.575c-0.321,0.127-0.539,0.335-0.794,0.514
	c-0.283,0.133-0.571,0.222-0.84,0.439C193.785,82.856,200.979,103.583,218.54,109.005z"/>
<path style="fill:#44C4A1;" d="M351.642,78.819c4.442,16.618-4.732,38.313-22.965,31.043c-1.269,7.905-2.712,11.771-12.348,15.983
	c-4.385,1.904-8.482,1.962-12.983,3.116c-9.462,2.366-5.828,1.039-7.039,11.309c-1.558,13.214-11.251,24.003-24.003,21.003
	c-2.251,9.982-3.463,16.791-15.176,18.349c-5.192,0.692-9.001-0.692-13.963-1.039c-7.963-0.519-2.193-3.289-10.271,2.25
	c-13.79,9.463-34.793,7.732-37.621-9.925c-0.865,0.173-1.789,0.288-2.654,0.404h-0.058c-16.675,1.674-28.331-13.444-22.965-29.658
	c-34.736-5.539-18.984-63.412,16.502-61.508c2.77-16.041,16.329-28.158,31.331-20.714c4.673-15.406,13.732-31.389,31.042-28.446
	c0.693-9.174,3.232-18.695,13.271-21.464c8.713-2.423,15.752,2.25,20.311,8.886c4.385-5.77,9.809-12.983,16.732-12.925
	c7.212,0.058,13.56,7.905,18.695,13.444c13.387-15.002,33.235-1.385,33.466,17.252c2.654,0.577,5.251,1.385,7.732,2.597
	c0.173,0.058,0.346,0.173,0.519,0.288c0.115,0.116,0.173,0.173,0.288,0.231c0.231,0.116,0.52,0.231,0.809,0.404
	C376.395,52.681,369.24,73.453,351.642,78.819z"/>
<path style="fill:#3EA69B;" d="M351.642,78.819c4.442,16.618-4.732,38.313-22.965,31.043c-1.269,7.905-2.712,11.771-12.348,15.983
	c-4.385,1.904-8.482,1.962-12.983,3.116c-9.462,2.366-5.828,1.039-7.039,11.309c-1.558,13.214-11.251,24.003-24.003,21.003
	c-2.251,9.982-3.463,16.791-15.176,18.349c-5.192,0.692-9.001-0.692-13.963-1.039c-7.963-0.519-2.193-3.289-10.271,2.25
	c-13.79,9.463-34.793,7.732-37.621-9.925c-0.865,0.173-1.789,0.288-2.654,0.404c2.712-3.462,7.097-5.597,13.156-4.962
	c21.175,2.25,38.312-6.693,56.603-16.156c14.886-7.732,16.791-16.906,29.138-27.869c13.618-12.175,33.697-15.752,42.757-31.735
	c2.712-4.904,3.692-9.924,6.981-14.656c1.859-2.669,3.27-4.749,4.654-6.175c2.474-2.547,3.276-6.152,2.263-9.555
	c-2.352-7.9,2.829-17.497,11.027-21.141c0.115,0.116,0.173,0.173,0.288,0.231c0.231,0.116,0.52,0.231,0.809,0.404
	C376.395,52.681,369.24,73.453,351.642,78.819z"/>
<g>
</g>
<g>
</g>
<g>
</g>
<g>
</g>
<g>
</g>
<g>
</g>
<g>
</g>
<g>
</g>
<g>
</g>
<g>
</g>
<g>
</g>
<g>
</g>
<g>
</g>
<g>
</g>
<g>
</g>
</svg>
