<?xml version="1.0" encoding="iso-8859-1"?>
<!-- Generator: Adobe Illustrator 19.0.0, SVG Export Plug-In . SVG Version: 6.00 Build 0)  -->
<svg version="1.1" id="Capa_1" xmlns="http://www.w3.org/2000/svg" xmlns:xlink="http://www.w3.org/1999/xlink" x="0px" y="0px"
	 viewBox="0 0 468.293 468.293" style="enable-background:new 0 0 468.293 468.293;" xml:space="preserve">
<circle style="fill:#F6C358;" cx="234.146" cy="234.146" r="234.146"/>
<g>
	<path style="fill:#FCD462;" d="M240.392,45.368l0,173.663L363.134,96.29c8.053-8.053,7.086-21.325-1.957-28.248
		c-28.345-21.701-62.408-36.355-99.53-41.279C250.403,25.271,240.392,34.025,240.392,45.368z"/>
	<path style="fill:#FCD462;" d="M441.528,206.643c-4.924-37.122-19.578-71.185-41.28-99.531
		c-6.923-9.042-20.196-10.009-28.248-1.957L249.258,227.898h173.664C434.265,227.898,443.019,217.887,441.528,206.643z"/>
	<path style="fill:#FCD462;" d="M400.191,361.195c21.744-28.35,36.41-62.422,41.337-99.554c1.492-11.244-7.263-21.256-18.605-21.256
		H249.195l122.755,122.756C379.999,371.19,393.263,370.227,400.191,361.195z"/>
	<path style="fill:#FCD462;" d="M261.647,441.522c37.122-4.924,71.184-19.579,99.53-41.28c9.042-6.923,10.009-20.196,1.957-28.248
		L240.392,249.252l0,173.664C240.392,434.259,250.403,443.013,261.647,441.522z"/>
	<path style="fill:#FCD462;" d="M227.904,422.916V249.252L105.162,371.994c-8.053,8.053-7.086,21.326,1.957,28.248
		c28.345,21.701,62.408,36.355,99.53,41.28C217.893,443.013,227.904,434.259,227.904,422.916z"/>
	<path style="fill:#FCD462;" d="M26.768,261.641c4.926,37.132,19.592,71.204,41.336,99.554c6.927,9.032,20.191,9.995,28.24,1.946
		L219.1,240.386H45.374C34.031,240.386,25.276,250.397,26.768,261.641z"/>
	<path style="fill:#FCD462;" d="M68.047,107.112c-21.701,28.346-36.355,62.409-41.279,99.531
		c-1.492,11.244,7.263,21.255,18.606,21.255h173.664L96.296,105.156C88.243,97.103,74.97,98.07,68.047,107.112z"/>
	<path style="fill:#FCD462;" d="M227.904,219.094V45.368c0-11.343-10.011-20.097-21.256-18.605
		c-37.132,4.927-71.203,19.593-99.553,41.337c-9.032,6.927-9.995,20.191-1.946,28.24L227.904,219.094z"/>
</g>
<polygon style="fill:#F6C358;" points="468.293,222.574 262.085,222.574 407.896,76.763 391.53,60.396 245.719,206.207 245.719,0 
	222.574,0 222.574,206.207 76.763,60.396 60.397,76.763 206.208,222.574 0,222.574 0,245.719 206.208,245.719 60.397,391.53 
	76.763,407.895 222.574,262.085 222.574,468.293 245.719,468.293 245.719,262.085 391.53,407.895 407.896,391.53 262.085,245.719 
	468.293,245.719 "/>
<g>
	<path style="fill:#DC8744;" d="M139.258,83.307c-2.618-4.436-1.149-10.155,3.281-12.773c4.431-2.618,10.145-1.145,12.764,3.291
		c2.618,4.436,4.899,26.632,4.899,26.632S141.876,87.743,139.258,83.307z"/>
	<path style="fill:#DC8744;" d="M191.269,109.662c-0.754-3.003,1.065-6.044,4.063-6.792c2.998-0.748,6.039,1.08,6.792,4.083
		c0.754,3.003-1.708,16.173-1.708,16.173S192.022,112.665,191.269,109.662z"/>
	<path style="fill:#DC8744;" d="M279.811,129.934c2.082-2.292,5.617-2.466,7.895-0.39c2.278,2.077,2.437,5.618,0.355,7.91
		s-14.399,7.549-14.399,7.549S277.729,132.226,279.811,129.934z"/>
	<path style="fill:#DC8744;" d="M328.424,179.668c2.082-2.292,5.617-2.466,7.895-0.389c2.278,2.077,2.437,5.618,0.355,7.91
		c-2.082,2.292-14.399,7.549-14.399,7.549S326.342,181.96,328.424,179.668z"/>
	<path style="fill:#DC8744;" d="M350.125,263.443c3.058,0.461,5.161,3.308,4.696,6.359c-0.464,3.051-3.32,5.151-6.378,4.69
		c-3.058-0.461-14.25-7.799-14.25-7.799S347.067,262.982,350.125,263.443z"/>
	<path style="fill:#DC8744;" d="M299.293,347.104c2.137,2.236,2.059,5.774-0.176,7.902c-2.234,2.129-5.778,2.042-7.916-0.193
		c-2.137-2.236-6.501-14.886-6.501-14.886S297.156,344.869,299.293,347.104z"/>
	<path style="fill:#DC8744;" d="M205.841,345.052c-0.65,3.024-3.621,4.946-6.637,4.293c-3.016-0.653-4.934-3.633-4.284-6.657
		c0.65-3.024,8.667-13.74,8.667-13.74S206.491,342.028,205.841,345.052z"/>
	<path style="fill:#DC8744;" d="M132.434,288.171c-2.587,1.695-6.052,0.974-7.739-1.61c-1.687-2.584-0.957-6.052,1.631-7.747
		c2.587-1.695,15.822-3.684,15.822-3.684S135.021,286.477,132.434,288.171z"/>
	<path style="fill:#DC8744;" d="M107.673,169.006c-2.916-1.03-4.443-4.223-3.411-7.13c1.032-2.908,4.233-4.43,7.149-3.4
		c2.916,1.03,12.521,10.349,12.521,10.349S110.589,170.036,107.673,169.006z"/>
	<path style="fill:#DC8744;" d="M309.185,67.22c3.109-4.107,8.957-4.919,13.062-1.815c4.105,3.104,4.912,8.95,1.803,13.057
		c-3.109,4.107-22.775,14.645-22.775,14.645S306.076,71.326,309.185,67.22z"/>
	<path style="fill:#DC8744;" d="M397.454,177.429c4.82-1.817,10.201,0.613,12.019,5.427c1.818,4.814-0.615,10.189-5.435,12.005
		c-4.82,1.817-27.077,0.248-27.077,0.248S392.634,179.246,397.454,177.429z"/>
	<path style="fill:#DC8744;" d="M388.214,308.775c4.496,2.514,6.107,8.195,3.598,12.688c-2.508,4.493-8.186,6.097-12.682,3.583
		c-4.496-2.514-17.643-20.542-17.643-20.542S383.719,306.26,388.214,308.775z"/>
	<path style="fill:#DC8744;" d="M288.353,391.777c1.893,4.79-0.45,10.21-5.235,12.105c-4.784,1.895-10.197-0.453-12.091-5.243
		c-1.893-4.79-0.68-27.07-0.68-27.07S286.459,386.987,288.353,391.777z"/>
	<path style="fill:#DC8744;" d="M162.392,390.063c-2.219,4.648-7.784,6.622-12.43,4.408c-4.645-2.214-6.612-7.776-4.393-12.425
		c2.219-4.648,19.363-18.93,19.363-18.93S164.611,385.414,162.392,390.063z"/>
	<path style="fill:#DC8744;" d="M83.874,289.887c-4.97,1.355-10.102-1.571-11.462-6.535s1.567-10.087,6.537-11.442
		c4.97-1.355,26.99,2.302,26.99,2.302S88.844,288.532,83.874,289.887z"/>
	<path style="fill:#DC8744;" d="M65.252,193.419c-4.718-2.067-6.871-7.565-4.808-12.28c2.063-4.715,7.56-6.863,12.278-4.796
		C77.44,178.41,92.27,195.08,92.27,195.08S69.97,195.486,65.252,193.419z"/>
</g>
<circle style="fill:#F6C358;" cx="234.146" cy="234.146" r="37.463"/>
<g>
</g>
<g>
</g>
<g>
</g>
<g>
</g>
<g>
</g>
<g>
</g>
<g>
</g>
<g>
</g>
<g>
</g>
<g>
</g>
<g>
</g>
<g>
</g>
<g>
</g>
<g>
</g>
<g>
</g>
</svg>
