<?xml version="1.0" encoding="iso-8859-1"?>
<!-- Generator: Adobe Illustrator 19.0.0, SVG Export Plug-In . SVG Version: 6.00 Build 0)  -->
<svg version="1.1" id="Capa_1" xmlns="http://www.w3.org/2000/svg" xmlns:xlink="http://www.w3.org/1999/xlink" x="0px" y="0px"
	 viewBox="0 0 468.293 468.293" style="enable-background:new 0 0 468.293 468.293;" xml:space="preserve">
<path style="fill:#64798A;" d="M172.679,76.909c-2.35,0-4.55-1.465-5.38-3.809c-13.65-38.7,53.491-71.179,56.359-72.543
	c2.857-1.356,6.249-0.148,7.596,2.695c1.353,2.843,0.15,6.246-2.695,7.602c-16.93,8.078-59.016,34.325-50.501,58.453
	c1.047,2.968-0.512,6.226-3.481,7.273C173.949,76.803,173.308,76.909,172.679,76.909z"/>
<path style="fill:#F6C358;" d="M312.443,327.034c0,74.478-57.654,135.555-130.821,140.858c-6.387,0.513-12.888,0.513-19.503,0.114
	c-68.833-4.277-125.461-59.252-131.62-127.97c-3.65-41.459,10.551-79.668,35.871-107.611
	c27.259-30.225,45.108-67.749,53.891-107.497l9.58-43.797c4.677-21.157,24.693-35.642,46.763-32.848
	c1.767,0.228,3.479,0.513,5.133,1.026c15.626,3.992,27.601,17.337,31.137,33.475l8.897,40.49
	c9.238,41.915,29.882,80.067,57.541,112.858C299.954,260.711,312.443,292.418,312.443,327.034z"/>
<path style="fill:#FCD462;" d="M312.443,327.034c0,74.478-57.654,135.555-130.821,140.858
	c-68.205-4.961-124.035-59.651-130.08-127.856c-3.706-41.459,10.551-79.668,35.814-107.611
	c27.316-30.225,45.166-67.749,53.891-107.497l9.638-43.797c3.479-15.911,15.626-28,30.852-31.822
	c15.626,3.992,27.601,17.337,31.137,33.475l8.897,40.49c9.238,41.915,29.882,80.067,57.541,112.858
	C299.954,260.711,312.443,292.418,312.443,327.034z"/>
<path style="fill:#F6C358;" d="M172.64,281.519c0,73.377,59.483,132.861,132.861,132.861s132.861-59.484,132.861-132.861H172.64z"/>
<path style="fill:#EBF0F3;" d="M202.851,281.519c0,56.692,45.958,102.65,102.65,102.65s102.65-45.958,102.65-102.65H202.851z"/>
<path style="fill:#D5D6DB;" d="M344.433,281.526c0,21.499-17.394,38.95-38.95,38.95c-21.5,0-38.95-17.451-38.95-38.95H344.433z"/>
<path style="fill:#64798A;" d="M315.919,290.593c0,5.76-4.677,10.379-10.436,10.379c-5.76,0-10.379-4.619-10.379-10.379
	c0-1.654,0.855-5.018,2.052-9.067h16.709C315.064,285.575,315.919,288.939,315.919,290.593z"/>
<g>
</g>
<g>
</g>
<g>
</g>
<g>
</g>
<g>
</g>
<g>
</g>
<g>
</g>
<g>
</g>
<g>
</g>
<g>
</g>
<g>
</g>
<g>
</g>
<g>
</g>
<g>
</g>
<g>
</g>
</svg>
